<svg version="1.1" xmlns="http://www.w3.org/2000/svg" fill-rule="evenodd" clip-rule="evenodd" height="1024" width="1024"
     viewBox="0 0 1024 1024">
    <path d="M930.360889 380.450133 656.7936 106.9056c-35.544178-35.544178-93.161244-35.544178-128.705422 0L93.639111 541.354667c-35.544178 35.544178-35.544178 93.184 0 128.728178l199.202133 199.179378 0.2048 0.182044-6.280533-6.280533c79.985778 80.031289 209.646933 80.031289 289.632711 0l-1.024 1.024 355.032178-354.986667C965.905067 473.634133 965.905067 415.994311 930.360889 380.450133zM335.030044 843.298133l-124.290844-121.856c0 0 0 0 0 0.022756l-88.200533-88.223289c-17.772089-17.772089-17.772089-46.648889 0-64.352711l80.918756-78.552178L547.0208 831.488C493.681778 884.758756 388.323556 896.568889 335.030044 843.298133zM896.750933 479.345778l-242.005333 244.394667-75.548444 75.525689L235.633778 458.069333 553.210311 138.148978c17.749333-17.749333 46.580622-17.749333 64.352711 0l279.233422 276.844089C914.500267 432.787911 914.500267 461.596444 896.750933 479.345778z"></path>
</svg>