<svg width="16.000000" height="16.000000" viewBox="0 0 16 16" fill="none" xmlns="http://www.w3.org/2000/svg" xmlns:xlink="http://www.w3.org/1999/xlink">
	<desc>
			Created with Pixso.
	</desc>
	<defs/>
	<rect id="ICON/16/Number_add" width="16.000000" height="16.000000" fill="#FFFFFF" fill-opacity="0"/>
	<rect id="矩形备份 2" width="16.000000" height="16.000000" fill="#D8D8D8" fill-opacity="0"/>
	<rect id="矩形备份 2" x="0.500000" y="0.500000" width="15.000000" height="15.000000" stroke="#979797" stroke-opacity="0" stroke-width="1.000000"/>
	<path id="ICON" d="M8 1C8.29 1 8.53 1.24 8.53 1.53L8.53 7.46L14.46 7.46C14.75 7.46 15 7.7 15 8C15 8.29 14.75 8.53 14.46 8.53L8.53 8.53L8.53 14.46C8.53 14.75 8.29 15 8 15C7.7 15 7.46 14.75 7.46 14.46L7.46 8.53L1.53 8.53C1.24 8.53 1 8.29 1 8C1 7.7 1.24 7.46 1.53 7.46L7.46 7.46L7.46 1.53C7.46 1.24 7.7 1 8 1Z" fill="#4D4D4D" fill-opacity="1.000000" fill-rule="evenodd"/>
</svg>
