<svg width="20.000000" height="20.000000" viewBox="0 0 20 20" fill="none" xmlns="http://www.w3.org/2000/svg" xmlns:xlink="http://www.w3.org/1999/xlink">
	<desc>
			Created with Pixso.
	</desc>
	<defs>
		<clipPath id="clip6158_148137">
			<rect id="code" rx="10.000000" width="20.000000" height="20.000000" fill="white" fill-opacity="0"/>
		</clipPath>
	</defs>
	<rect id="code" rx="10.000000" width="20.000000" height="20.000000" fill="#8988FF" fill-opacity="1.000000"/>
	<g clip-path="url(#clip6158_148137)">
		<path id="合并" d="M5.3999 5.5L14.6001 5.5C14.8208 5.5 15 5.67969 15 5.90039L15 6.59961C15 6.82031 14.8208 7 14.6001 7L5.3999 7C5.1792 7 5 6.82031 5 6.59961L5 5.90039C5 5.67969 5.1792 5.5 5.3999 5.5ZM14.9751 9.95508C14.9697 9.94922 14.9639 9.94727 14.9575 9.94336C14.6099 9.79688 13.8389 9.45703 13.6313 9.24805C13.4351 9.05078 13.1797 8.37109 13.0654 8.04688C13.063 8.03906 13.0596 8.0332 13.0557 8.02734C13.0513 8.02148 13.0464 8.01758 13.041 8.01367C13.0352 8.00977 13.0293 8.00586 13.0225 8.00391C13.0156 8.00195 13.0088 8 13.002 8C12.9951 8 12.9883 8 12.9814 8.00195C12.9746 8.00391 12.9683 8.00781 12.9624 8.01172C12.9565 8.01562 12.9517 8.01953 12.9473 8.02539C12.9424 8.03125 12.939 8.03711 12.9365 8.04297C12.8032 8.36523 12.5073 9.04883 12.3101 9.24805C12.1025 9.45703 11.3687 9.79883 11.0415 9.94531C11.0352 9.94727 11.0293 9.95117 11.0239 9.95508C11.0186 9.96094 11.0142 9.96484 11.0107 9.9707C11.0068 9.97656 11.0044 9.98438 11.0024 9.99023C11.0005 9.99805 11 10.0039 11 10.0117C11.0005 10.0176 11.0015 10.0254 11.0039 10.0312C11.0059 10.0371 11.0093 10.043 11.0132 10.0488C11.0171 10.0547 11.022 10.0605 11.0273 10.0645C11.0332 10.0684 11.0391 10.0723 11.0454 10.0742C11.3833 10.1992 12.1401 10.4902 12.3101 10.6621C12.5396 10.8926 12.8101 11.6016 12.9355 11.9531C12.9365 11.957 12.938 11.9609 12.9399 11.9648C12.9414 11.9668 12.9434 11.9707 12.9458 11.9727C12.9502 11.9785 12.9551 11.9844 12.9609 11.9883C12.9673 11.9922 12.9736 11.9941 12.9805 11.998C12.9839 11.998 12.9878 11.998 12.9912 12C12.9946 12 12.998 12 13.002 12C13.0054 12 13.0088 12 13.0122 11.998C13.0161 11.998 13.0195 11.998 13.0229 11.9961C13.0298 11.9941 13.0361 11.9902 13.042 11.9863C13.0479 11.9824 13.0527 11.9766 13.0566 11.9707C13.061 11.9648 13.064 11.957 13.0659 11.9512C13.1748 11.5938 13.4126 10.8828 13.6313 10.6621C13.811 10.4805 14.5972 10.1953 14.9531 10.0742C14.9595 10.0723 14.9658 10.0684 14.9717 10.0645C14.9771 10.0605 14.9819 10.0547 14.9863 10.0488C14.9907 10.043 14.9937 10.0371 14.9961 10.0312C14.9985 10.0234 14.9995 10.0176 15 10.0098C15 10.0039 14.9995 9.99609 14.9976 9.99023C14.9956 9.98242 14.9927 9.97656 14.9893 9.9707C14.9854 9.96484 14.9805 9.95898 14.9751 9.95508ZM7.6001 9L5.3999 9C5.1792 9 5 9.17969 5 9.40039L5 10.0996C5 10.3203 5.1792 10.5 5.3999 10.5L7.6001 10.5C7.8208 10.5 8 10.3203 8 10.0996L8 9.40039C8 9.17969 7.8208 9 7.6001 9ZM5.3999 12.5L14.6001 12.5C14.8208 12.5 15 12.6797 15 12.9004L15 13.5996C15 13.8203 14.8208 14 14.6001 14L5.3999 14C5.1792 14 5 13.8203 5 13.5996L5 12.9004C5 12.6797 5.1792 12.5 5.3999 12.5Z" clip-rule="evenodd" fill="#FFFFFF" fill-opacity="1.000000" fill-rule="evenodd"/>
	</g>
</svg>
