<svg width="14.420898" height="12.000000" viewBox="0 0 14.4209 12" fill="none" xmlns="http://www.w3.org/2000/svg" xmlns:xlink="http://www.w3.org/1999/xlink">
	<desc>
			Created with Pixso.
	</desc>
	<defs/>
	<path id="path" d="M13.33 0C13.93 0 14.42 0.48 14.42 1.08L14.42 10.91C14.42 11.51 13.93 12 13.33 12L3.5 12C2.9 12 2.42 11.51 2.42 10.91L2.42 8.92C2.42 8.62 2.28 8.34 2.05 8.15L0.36 6.77C-0.13 6.37 -0.13 5.62 0.36 5.22L2.05 3.84C2.28 3.65 2.42 3.37 2.42 3.07L2.42 1.08C2.42 0.48 2.9 0 3.5 0L13.33 0ZM8.42 1.8C8.38 1.8 8.35 1.8 8.32 1.81C8.29 1.81 8.25 1.82 8.22 1.83C8.19 1.85 8.17 1.86 8.14 1.88C8.11 1.9 8.09 1.92 8.06 1.94C8.04 1.96 8.02 1.99 8 2.02C7.98 2.04 7.97 2.07 7.95 2.1C7.94 2.13 7.93 2.16 7.93 2.2C7.92 2.23 7.92 2.26 7.92 2.3L7.92 4.83L6.12 3.04L6.05 2.98L5.97 2.94C5.95 2.93 5.92 2.92 5.89 2.91C5.86 2.9 5.83 2.9 5.8 2.9C5.78 2.89 5.75 2.89 5.72 2.9C5.69 2.9 5.66 2.9 5.63 2.91C5.6 2.92 5.58 2.93 5.55 2.94C5.52 2.95 5.5 2.97 5.48 2.99C5.45 3 5.43 3.02 5.41 3.04C5.39 3.06 5.37 3.08 5.35 3.11C5.34 3.13 5.32 3.16 5.31 3.18C5.3 3.21 5.29 3.24 5.28 3.26C5.27 3.29 5.27 3.32 5.27 3.35C5.26 3.38 5.26 3.41 5.27 3.44C5.27 3.47 5.27 3.5 5.28 3.52C5.29 3.55 5.3 3.58 5.31 3.6C5.32 3.63 5.34 3.66 5.36 3.68C5.37 3.7 5.39 3.73 5.41 3.75L7.21 5.55L4.67 5.55L4.58 5.55C4.55 5.56 4.52 5.57 4.49 5.58C4.46 5.59 4.43 5.6 4.4 5.62C4.38 5.64 4.35 5.65 4.33 5.67C4.31 5.69 4.29 5.72 4.27 5.74C4.25 5.77 4.23 5.79 4.22 5.82C4.2 5.85 4.19 5.88 4.18 5.91C4.18 5.94 4.17 5.97 4.17 6C4.16 6.03 4.16 6.06 4.17 6.09C4.17 6.12 4.18 6.15 4.18 6.18C4.19 6.21 4.2 6.24 4.22 6.27C4.23 6.3 4.25 6.32 4.27 6.35C4.28 6.37 4.31 6.39 4.33 6.41C4.35 6.43 4.38 6.45 4.4 6.47C4.43 6.49 4.46 6.5 4.48 6.51C4.51 6.52 4.54 6.53 4.57 6.54C4.6 6.54 4.64 6.55 4.67 6.55L7.21 6.55L5.41 8.34L5.35 8.41C5.34 8.44 5.32 8.46 5.31 8.49C5.29 8.52 5.28 8.55 5.28 8.58C5.27 8.61 5.27 8.64 5.26 8.67C5.26 8.7 5.26 8.73 5.27 8.76C5.27 8.8 5.28 8.83 5.29 8.85C5.3 8.88 5.31 8.91 5.33 8.94C5.34 8.97 5.36 8.99 5.38 9.02C5.4 9.04 5.42 9.06 5.44 9.08C5.47 9.1 5.49 9.12 5.52 9.13C5.55 9.15 5.58 9.16 5.6 9.17C5.63 9.18 5.66 9.19 5.69 9.19C5.72 9.2 5.76 9.2 5.79 9.2C5.82 9.2 5.85 9.19 5.88 9.18C5.91 9.18 5.94 9.17 5.97 9.16C5.99 9.14 6.02 9.13 6.05 9.11C6.07 9.09 6.1 9.07 6.12 9.05L7.92 7.25L7.92 9.79L7.92 9.88C7.93 9.91 7.94 9.94 7.95 9.97C7.96 10 7.97 10.03 7.99 10.06C8.01 10.08 8.02 10.11 8.04 10.13C8.07 10.15 8.09 10.17 8.11 10.19C8.14 10.21 8.16 10.23 8.19 10.24C8.22 10.25 8.25 10.27 8.28 10.27C8.31 10.28 8.34 10.29 8.37 10.29C8.4 10.3 8.43 10.3 8.46 10.29C8.49 10.29 8.52 10.28 8.55 10.28C8.58 10.27 8.61 10.26 8.64 10.24C8.67 10.23 8.69 10.21 8.72 10.19C8.74 10.18 8.76 10.16 8.79 10.13C8.81 10.11 8.82 10.08 8.84 10.06C8.86 10.03 8.87 10 8.88 9.98C8.89 9.95 8.9 9.92 8.91 9.89C8.91 9.86 8.92 9.83 8.92 9.8L8.92 7.25L10.71 9.05L10.78 9.11C10.81 9.12 10.84 9.14 10.86 9.15C10.89 9.16 10.92 9.17 10.95 9.18C10.98 9.19 11.01 9.19 11.04 9.19C11.07 9.19 11.1 9.19 11.14 9.19C11.17 9.18 11.2 9.18 11.22 9.17C11.25 9.16 11.28 9.15 11.31 9.13C11.34 9.12 11.36 9.1 11.39 9.08C11.41 9.06 11.43 9.04 11.45 9.01C11.47 8.99 11.49 8.97 11.5 8.94C11.52 8.91 11.53 8.88 11.54 8.85C11.55 8.83 11.56 8.8 11.56 8.76C11.57 8.73 11.57 8.7 11.57 8.67C11.56 8.64 11.56 8.61 11.55 8.58C11.55 8.55 11.54 8.52 11.52 8.49C11.51 8.47 11.5 8.44 11.48 8.41C11.46 8.39 11.44 8.36 11.42 8.34L9.62 6.55L12.17 6.55L12.26 6.54C12.29 6.53 12.32 6.52 12.35 6.51C12.37 6.5 12.4 6.49 12.43 6.47C12.45 6.46 12.48 6.44 12.5 6.42C12.53 6.4 12.55 6.37 12.56 6.35C12.58 6.32 12.6 6.3 12.61 6.27C12.63 6.24 12.64 6.21 12.65 6.18C12.66 6.15 12.66 6.12 12.66 6.09C12.67 6.06 12.67 6.03 12.66 6C12.66 5.97 12.66 5.94 12.65 5.91C12.64 5.88 12.63 5.85 12.61 5.82C12.6 5.8 12.58 5.77 12.57 5.74C12.55 5.72 12.53 5.7 12.5 5.67C12.48 5.66 12.46 5.64 12.43 5.62C12.4 5.6 12.38 5.59 12.35 5.58C12.32 5.57 12.29 5.56 12.26 5.55C12.23 5.55 12.2 5.55 12.17 5.55L9.62 5.55L11.42 3.75L11.48 3.68C11.5 3.65 11.51 3.63 11.52 3.6C11.54 3.57 11.55 3.54 11.55 3.51C11.56 3.48 11.57 3.45 11.57 3.42C11.57 3.39 11.57 3.36 11.56 3.33C11.56 3.3 11.55 3.26 11.54 3.24C11.53 3.21 11.52 3.18 11.51 3.15C11.49 3.12 11.47 3.1 11.45 3.08C11.43 3.05 11.41 3.03 11.39 3.01C11.36 2.99 11.34 2.97 11.31 2.96C11.29 2.94 11.26 2.93 11.23 2.92C11.2 2.91 11.17 2.9 11.14 2.9C11.11 2.89 11.08 2.89 11.05 2.89C11.01 2.9 10.98 2.9 10.95 2.91C10.92 2.91 10.89 2.92 10.87 2.94C10.84 2.95 10.81 2.96 10.79 2.98C10.76 3 10.74 3.02 10.71 3.04L8.92 4.84L8.92 2.3L8.91 2.21C8.9 2.18 8.89 2.15 8.89 2.12C8.87 2.09 8.86 2.07 8.85 2.04C8.83 2.02 8.82 2 8.8 1.97C8.78 1.95 8.76 1.93 8.74 1.91C8.71 1.89 8.69 1.88 8.66 1.86C8.64 1.85 8.61 1.83 8.59 1.83C8.56 1.82 8.53 1.81 8.5 1.8C8.47 1.8 8.44 1.8 8.42 1.8Z" fill="#F0C442" fill-opacity="1.000000" fill-rule="nonzero"/>
</svg>
