<svg width="24.000000" height="25.800781" viewBox="0 0 24 25.8008" fill="none" xmlns="http://www.w3.org/2000/svg" xmlns:xlink="http://www.w3.org/1999/xlink">
	<desc>
			Created with Pixso.
	</desc>
	<defs/>
	<path id="ICON" d="M18.4475 7.77148C17.9641 8.25391 17.2017 8.28906 16.6782 7.875L16.562 7.77148L13.3333 4.54102L13.3333 13.8008C13.3333 14.5371 12.7363 15.1328 12 15.1328C11.3162 15.1328 10.7527 14.6191 10.6755 13.9551L10.6667 13.8008L10.6667 4.5625L7.45703 7.77148C6.97363 8.25391 6.21118 8.28906 5.68774 7.875L5.57153 7.77148C5.08789 7.28711 5.05347 6.52539 5.46777 6.00195L5.57153 5.88672L11.0667 0.390625C11.5503 -0.09375 12.3127 -0.126953 12.8359 0.287109L12.9524 0.390625L18.4475 5.88672C18.9683 6.40625 18.9683 7.25 18.4475 7.77148ZM23.991 17.6445C23.9141 16.9805 23.3503 16.4668 22.6667 16.4668C21.9302 16.4668 21.3333 17.0645 21.3333 17.8008L21.3333 23.1328L2.66675 23.1328L2.66675 17.8008L2.65771 17.6445C2.58057 16.9805 2.01709 16.4668 1.33325 16.4668C0.596924 16.4668 0 17.0645 0 17.8008L0 23.1328L0.00732422 23.332C0.109131 24.7129 1.26074 25.8008 2.66675 25.8008L21.3333 25.8008L21.5322 25.793C22.9121 25.6914 24 24.5391 24 23.1328L24 17.8008L23.991 17.6445ZM18.6667 17.7988L5.33325 17.7988C4.59692 17.7988 4 18.3965 4 19.1328C4 19.8691 4.59692 20.4668 5.33325 20.4668L18.6667 20.4668C19.4031 20.4668 20 19.8691 20 19.1328C20 18.3965 19.4031 17.7988 18.6667 17.7988Z" clip-rule="evenodd" fill="#4D4D4D" fill-opacity="1.000000" fill-rule="evenodd"/>
</svg>
