<?xml version="1.0" encoding="UTF-8"?>
<svg width="60px" height="60px" viewBox="0 0 60 60" version="1.1" xmlns="http://www.w3.org/2000/svg" xmlns:xlink="http://www.w3.org/1999/xlink">
    <title>编组</title>
    <defs>
        <linearGradient x1="15.3472726%" y1="11.2064742%" x2="49.95977%" y2="99.8969153%" id="linearGradient-1">
            <stop stop-color="#86DBFF" offset="0%"></stop>
            <stop stop-color="#0FA1EE" offset="100%"></stop>
        </linearGradient>
        <linearGradient x1="15.3151907%" y1="42.1015518%" x2="49.9592492%" y2="60.4427321%" id="linearGradient-2">
            <stop stop-color="#98BBFF" offset="0%"></stop>
            <stop stop-color="#007AE1" offset="100%"></stop>
        </linearGradient>
        <linearGradient x1="14.8986982%" y1="41.6293179%" x2="49.9592492%" y2="60.7665186%" id="linearGradient-3">
            <stop stop-color="#86DBFF" offset="0%"></stop>
            <stop stop-color="#0FA1EE" offset="100%"></stop>
        </linearGradient>
        <linearGradient x1="50%" y1="0%" x2="50%" y2="100%" id="linearGradient-4">
            <stop stop-color="#2BC7FF" offset="0%"></stop>
            <stop stop-color="#139FFF" offset="100%"></stop>
        </linearGradient>
        <linearGradient x1="78.5534666%" y1="29.7716101%" x2="32.2853564%" y2="59.1968233%" id="linearGradient-5">
            <stop stop-color="#FFFFFF" stop-opacity="0.508444939" offset="0%"></stop>
            <stop stop-color="#FFFFFF" stop-opacity="0" offset="100%"></stop>
        </linearGradient>
    </defs>
    <g id="页面-2备份" stroke="none" stroke-width="1" fill="none" fillRule="evenodd">
        <g id="首页Chat" transform="translate(-922.000000, -410.000000)">
            <g id="编组-16备份-2" transform="translate(889.000000, 410.000000)">
                <g id="编组" transform="translate(33.000000, 0.000000)">
                    <path d="M0,30 C0,40.7179675 5.7179675,50.6217782 15,55.9807621 C24.2820322,61.339746 35.7179678,61.339746 45,55.9807621 C54.2820325,50.6217782 60,40.7179675 60,30 C60,13.4314574 46.5685425,0 30,0 C13.4314575,0 0,13.4314574 0,30 Z" id="路径" fill="#EAF6FF" fillRule="nonzero"></path>
                    <g transform="translate(10.000000, 11.000000)">
                        <polyline id="路径-2" fill="url(#linearGradient-1)" fillRule="nonzero" opacity="0.593180339" points="0 15.0967742 3.75 11.3225806 3.75 15.0967742"></polyline>
                        <polyline id="路径-3" fill="url(#linearGradient-1)" fillRule="nonzero" opacity="0.593180339" points="36.25 15.0967742 36.25 11.3225806 40 15.0967742"></polyline>
                        <path d="M8.75,0 L31.25,0 C32.6307119,1.90456553e-16 33.75,1.11928813 33.75,2.5 L33.75,10.0806452 C33.75,11.461357 32.6307119,12.5806452 31.25,12.5806452 L8.75,12.5806452 C7.36928813,12.5806452 6.25,11.461357 6.25,10.0806452 L6.25,2.5 C6.25,1.11928813 7.36928813,1.14181108e-15 8.75,0 Z" id="矩形" fill="url(#linearGradient-2)" fillRule="nonzero"></path>
                        <path d="M6.25,5.03225806 L33.75,5.03225806 C35.1307119,5.03225806 36.25,6.15154619 36.25,7.53225806 L36.25,17.6290323 C36.25,19.0097441 35.1307119,20.1290323 33.75,20.1290323 L6.25,20.1290323 C4.86928813,20.1290323 3.75,19.0097441 3.75,17.6290323 L3.75,7.53225806 C3.75,6.15154619 4.86928813,5.03225806 6.25,5.03225806 Z" id="矩形备份-8" fill="url(#linearGradient-3)" fillRule="nonzero"></path>
                        <path d="M39.2693038,15.7217742 L35.9639718,36.7906004 C35.892419,37.2466916 35.660168,37.6427915 35.3303877,37.9248686 C35.0006075,38.2069457 34.573298,38.375 34.1116283,38.375 L5.8883717,38.375 C5.42670201,38.375 4.99939252,38.2069457 4.66961226,37.9248686 C4.339832,37.6427915 4.10758097,37.2466916 4.03602822,36.7906004 L0.730696164,15.7217742 L39.2693038,15.7217742 Z" id="矩形" stroke="url(#linearGradient-5)" stroke-width="1.25" fillOpacity="0.23" fill="url(#linearGradient-4)" fillRule="nonzero"></path>
                        <path d="M30.625,22.6451613 L30.625,26.4193548 C30.625,28.5037844 28.5181047,30.1935484 25.9191176,30.1935484 L15.3308824,30.1935484 C12.7318953,30.1935484 10.625,28.5037844 10.625,26.4193548 L10.625,22.6451613 L10.625,22.6451613" id="路径" stroke="#FFFFFF" stroke-width="1.75"></path>
                    </g>
                </g>
            </g>
        </g>
    </g>
</svg>