<?xml version="1.0" encoding="UTF-8"?>
<svg width="16" height="16" viewBox="0 0 16 16" version="1.1" xmlns="http://www.w3.org/2000/svg" xmlns:xlink="http://www.w3.org/1999/xlink">
    <title>Icon/16px/arrow_down_normal</title>
    <g id="Icon/16px/arrow_down_normal" stroke="none" stroke-width="1" fill="none" fillRule="evenodd">
        <rect id="矩形" fill="#D8D8D8" fillRule="nonzero" opacity="0" x="0" y="0" width="16" height="16"></rect>
        <path d="M1.97977994,5.02027994 C2.15729099,4.8427689 2.43506677,4.82663153 2.63080777,4.97186784 L2.68688673,5.02027994 L7.64622007,9.97961327 C7.82386053,10.1572537 8.1017872,10.1734029 8.29766153,10.0280607 L8.35377993,9.97961327 L13.3131133,5.02027994 C13.5083754,4.8250178 13.8249579,4.8250178 14.0202201,5.02027994 C14.1977311,5.19779099 14.2138685,5.47556677 14.0686321,5.67130777 L14.0202201,5.72738673 L9.06088673,10.6867201 C8.50285927,11.2447475 7.61468487,11.2713202 7.02521487,10.7664383 L6.93911327,10.6867201 L1.97977994,5.72738673 C1.7845178,5.53212458 1.7845178,5.21554209 1.97977994,5.02027994 Z" id="Stroke-1" fill="#191919" fillRule="nonzero"></path>
    </g>
</svg>