<svg width="28" height="28" viewBox="0 0 24 24" fill="none" xmlns="http://www.w3.org/2000/svg" xmlns:xlink="http://www.w3.org/1999/xlink">
	<desc>
			Created with Pixso.
	</desc>
	<defs/>
	<circle id="椭圆 23" cx="12.000000" cy="12.000000" r="12.000000" fill="#FFFFFF" fill-opacity="1.000000"/>
	<circle id="椭圆 23" cx="12.000000" cy="12.000000" r="11.500000" stroke="#2673E5" stroke-opacity="1.000000" stroke-width="1.000000"/>
	<circle id="椭圆 24" cx="12.000000" cy="7.000000" r="4.000000" fill="#CFE3FF" fill-opacity="1.000000"/>
	<circle id="椭圆 24" cx="12.000000" cy="7.000000" r="3.500000" stroke="#2673E5" stroke-opacity="1.000000" stroke-width="1.000000"/>
	<mask id="mask_3675_233074" fill="white">
		<path id="交集" d="M21.6021 19.1992C19.4128 22.1133 15.9268 24 12 24C8.07324 24 4.58691 22.1133 2.39771 19.1992C3.60913 15.0391 7.44971 12 12 12C16.55 12 20.3906 15.0391 21.6021 19.1992Z" clip-rule="evenodd" fill="" fill-opacity="1.000000" fill-rule="evenodd"/>
	</mask>
	<path id="交集" d="M21.6021 19.1992C19.4128 22.1133 15.9268 24 12 24C8.07324 24 4.58691 22.1133 2.39771 19.1992C3.60913 15.0391 7.44971 12 12 12C16.55 12 20.3906 15.0391 21.6021 19.1992Z" clip-rule="evenodd" fill="#CFE3FF" fill-opacity="1.000000" fill-rule="evenodd" mask="url(#mask_3675_233074)"/>
	<path id="交集" d="M12 24C15.9268 24 19.4128 22.1133 21.6021 19.1992C20.3906 15.0391 16.55 12 12 12C7.44971 12 3.60913 15.0391 2.39771 19.1992C4.58691 22.1133 8.07324 24 12 24ZM3.5124 18.9981Q3.74577 19.2811 3.99688 19.5472Q4.42916 20.0055 4.91406 20.4141Q5.44952 20.8654 6.03272 21.2429Q6.502 21.5467 7.0022 21.8027Q7.59685 22.1059 8.2192 22.3333Q8.79161 22.5425 9.38745 22.6875Q9.80013 22.7882 10.2181 22.8564Q11.0973 23 12 23Q12.8982 23 13.7734 22.8578Q14.1955 22.7892 14.6123 22.6875Q15.2081 22.5425 15.7806 22.3333Q16.4029 22.1059 16.9976 21.8027Q17.4978 21.5467 17.967 21.2429Q18.5502 20.8654 19.0857 20.4141Q19.5706 20.0055 20.0029 19.5472Q20.2541 19.281 20.4875 18.998Q20.3541 18.6201 20.188 18.2571Q19.8613 17.543 19.408 16.8867Q18.9977 16.2934 18.5051 15.7788Q18.0166 15.2687 17.4473 14.8359Q16.8079 14.3485 16.1038 13.9873Q15.5354 13.6957 14.9248 13.4863Q14.3508 13.2889 13.7608 13.1716Q12.8975 13 12 13Q11.1025 13 10.2392 13.1716Q9.64921 13.2889 9.0752 13.4863Q8.46049 13.6971 7.88863 13.9911Q7.18859 14.3511 6.55273 14.8359Q5.9817 15.2699 5.49208 15.7817Q5.00098 16.295 4.5918 16.8867Q4.13814 17.5435 3.81131 18.2582Q3.64554 18.6207 3.5124 18.9981Z" clip-rule="evenodd" fill="#2673E5" fill-opacity="1.000000" fill-rule="evenodd"/>
	<circle id="椭圆 23" cx="12.000000" cy="12.000000" r="12.000000" fill="#FFFFFF" fill-opacity="0"/>
	<circle id="椭圆 23" cx="12.000000" cy="12.000000" r="11.500000" stroke="#2673E5" stroke-opacity="1.000000" stroke-width="1.000000"/>
	<circle id="椭圆 26" cx="14.500000" cy="16.500000" r="1.500000" fill="#2673E5" fill-opacity="1.000000"/>
</svg>
