<?xml version="1.0" encoding="UTF-8"?>
<svg width="24px" height="24px" viewBox="0 0 24 24" version="1.1" xmlns="http://www.w3.org/2000/svg" xmlns:xlink="http://www.w3.org/1999/xlink">
    <title>ICON/24/Delect</title>
    <g id="ICON/24/Delect" stroke="none" stroke-width="1" fill="none" fillRule="evenodd">
        <path d="M20,6 L20,19.1282051 C20,20.7142536 18.5251733,22 16.7058824,22 L7.29411765,22 C5.47482671,22 4,20.7142536 4,19.1282051 L4,6 L20,6 Z M18,8 L6,8 L6,18.7008547 C6,19.3585868 6.60746534,19.9202522 7.41278719,19.9922177 L7.58823529,20 L16.4117647,20 C17.2432619,20 17.9061604,19.4821834 17.9908513,18.8401834 L18,18.7008547 L18,8 Z" id="形状" fill="#4D4D4D" fillRule="nonzero"></path>
        <path d="M17,7 L7,7 L7,4 C7,2.8954305 7.85769205,2 8.91570881,2 L15.0842912,2 C16.1423079,2 17,2.8954305 17,4 L17,7 Z M9,6 L15,6 L15,4 L9,4 L9,6 Z" id="形状" fill="#4D4D4D" fillRule="nonzero"></path>
        <path d="M1.95652174,6 L22.0434783,6 C22.6811594,6 23,6.33333333 23,7 L23,7 C23,7.66666667 22.6811594,8 22.0434783,8 L1.95652174,8 C1.31884058,8 1,7.66666667 1,7 L1,7 C1,6.33333333 1.31884058,6 1.95652174,6 Z" id="路径" fill="#4D4D4D" fillRule="nonzero"></path>
        <rect id="矩形" fill="#4D4D4D" fillRule="nonzero" x="13" y="10.5" width="2" height="7.5" rx="1"></rect>
        <rect id="矩形备份" fill="#4D4D4D" fillRule="nonzero" x="9" y="10.5" width="2" height="7.5" rx="1"></rect>
    </g>
</svg>