<svg width="24.000000" height="24.000000" viewBox="0 0 24 24" fill="none" xmlns="http://www.w3.org/2000/svg" xmlns:xlink="http://www.w3.org/1999/xlink">
	<desc>
			Created with Pixso.
	</desc>
	<defs/>
	<rect id="画板 856" rx="4.000000" width="24.000000" height="24.000000" fill="#6CBFFF" fillOpacity="1.000000"/>
	<path id="path" d="M12 11.02C12 11.11 11.92 11.18 11.83 11.18L9.73 11.18L9.59 11.81L9.57 11.88C9.06 14.13 8.81 15.18 8.57 16.03C8.16 17.5 7.21 18.36 5.83 18.48C5.77 18.49 5.72 18.49 5.66 18.49C5.57 18.5 5.49 18.43 5.49 18.34L5.49 17.03C5.49 16.94 5.56 16.87 5.64 16.87C5.74 16.86 5.82 16.85 5.87 16.84C6.45 16.73 6.8 16.35 7 15.6C7.23 14.78 7.48 13.74 7.98 11.52L8 11.45L8.06 11.18L6.47 11.18C6.38 11.18 6.3 11.11 6.3 11.02L6.3 9.72C6.3 9.63 6.38 9.56 6.47 9.56L8.44 9.56C8.62 8.75 8.74 8.26 8.87 7.74C9.35 5.87 10.99 5.19 13.44 5.62C13.49 5.63 13.55 5.64 13.62 5.65C13.71 5.67 13.77 5.75 13.75 5.84L13.75 5.84L13.49 7.12C13.47 7.21 13.39 7.26 13.3 7.24C13.22 7.23 13.15 7.22 13.08 7.2C11.44 6.93 10.67 7.27 10.45 8.14C10.35 8.56 10.25 8.97 10.11 9.56L11.83 9.56C11.92 9.56 12 9.63 12 9.72L12 11.02ZM18.5 11.02C18.5 11.11 18.43 11.18 18.34 11.18L17.86 11.18L16.35 12.85L17.16 14.43L17.52 14.43C17.61 14.43 17.69 14.51 17.69 14.6L17.69 15.9C17.69 15.99 17.61 16.06 17.52 16.06L16.17 16.06L15.18 14.14L13.45 16.06L12.16 16.06C12.07 16.06 11.99 15.99 11.99 15.9L11.99 14.6C11.99 14.51 12.07 14.44 12.16 14.44L12.73 14.44L14.39 12.6L13.66 11.18L12.97 11.18C12.88 11.18 12.81 11.11 12.81 11.02L12.81 9.72C12.81 9.63 12.88 9.56 12.97 9.56L14.66 9.56L15.56 11.31L17.14 9.56L18.34 9.56C18.43 9.56 18.5 9.63 18.5 9.72L18.5 11.02Z" fill="#FFFFFF" fillOpacity="1.000000" fillRule="nonzero"/>
</svg>
