<svg width="16.000000" height="16.000000" viewBox="0 0 16 16" fill="none" xmlns="http://www.w3.org/2000/svg" xmlns:xlink="http://www.w3.org/1999/xlink">
    <desc>
        Created with Pixso.
    </desc>
    <defs/>
    <rect id="ICON/16/setting" width="16.000000" height="16.000000" fill="#FFFFFF" fill-opacity="0"/>
    <path id="路径" d="M8 10.66C6.54 10.66 5.35 9.46 5.35 8C5.35 6.53 6.54 5.33 8 5.33C9.45 5.33 10.64 6.53 10.64 8C10.64 9.46 9.45 10.66 8 10.66Z" fill="#4D4D4D" fill-opacity="0" fill-rule="evenodd"/>
    <path id="路径" d="M5.35 8C5.35 9.46 6.54 10.66 8 10.66C9.45 10.66 10.64 9.46 10.64 8C10.64 6.53 9.45 5.33 8 5.33C6.54 5.33 5.35 6.53 5.35 8ZM6.39 8.38C6.36 8.25 6.35 8.13 6.35 8C6.35 7.87 6.36 7.74 6.39 7.61C6.41 7.52 6.44 7.44 6.48 7.35C6.52 7.26 6.56 7.17 6.62 7.09C6.68 6.99 6.75 6.9 6.83 6.82C6.92 6.73 7.02 6.65 7.12 6.59C7.2 6.54 7.28 6.5 7.36 6.46C7.45 6.43 7.54 6.4 7.63 6.37C7.75 6.35 7.87 6.33 8 6.33C8.12 6.33 8.24 6.35 8.36 6.37C8.45 6.4 8.54 6.43 8.63 6.46C8.71 6.5 8.79 6.54 8.87 6.59C8.97 6.65 9.07 6.73 9.16 6.82C9.24 6.9 9.31 6.99 9.37 7.09C9.43 7.17 9.47 7.26 9.51 7.35C9.55 7.44 9.58 7.52 9.6 7.61C9.63 7.74 9.64 7.87 9.64 8C9.64 8.13 9.63 8.25 9.6 8.38C9.58 8.47 9.55 8.56 9.51 8.64C9.47 8.73 9.43 8.82 9.37 8.9C9.31 9 9.24 9.09 9.16 9.17C9.07 9.26 8.97 9.34 8.87 9.4C8.79 9.45 8.71 9.49 8.63 9.53C8.54 9.57 8.45 9.6 8.36 9.62C8.24 9.64 8.12 9.66 8 9.66C7.87 9.66 7.75 9.64 7.63 9.62C7.54 9.6 7.45 9.57 7.36 9.53C7.28 9.49 7.2 9.45 7.12 9.4C7.02 9.34 6.92 9.26 6.83 9.17C6.75 9.09 6.68 9 6.62 8.9C6.56 8.82 6.52 8.73 6.48 8.64C6.44 8.56 6.41 8.47 6.39 8.38Z" fill="#4D4D4D" fill-opacity="1.000000" fill-rule="evenodd"/>
    <path id="路径" d="M8 15.5C7.65 15.5 7.3 15.47 6.96 15.42C6.36 15.34 5.91 14.87 5.83 14.25C5.76 13.76 5.49 13.34 5.07 13.1C4.64 12.85 4.14 12.82 3.69 13.01C3.13 13.25 2.47 13.07 2.1 12.58C1.69 12.05 1.35 11.46 1.1 10.84C0.86 10.27 1.04 9.61 1.53 9.24C1.91 8.94 2.14 8.49 2.14 8C2.14 7.5 1.91 7.05 1.53 6.75C1.04 6.38 0.86 5.72 1.1 5.15C1.35 4.52 1.69 3.94 2.1 3.41C2.47 2.92 3.13 2.74 3.69 2.98C4.14 3.17 4.64 3.14 5.07 2.89C5.49 2.65 5.76 2.23 5.83 1.74C5.91 1.12 6.36 0.65 6.96 0.57C7.3 0.52 7.65 0.5 8 0.5C8.34 0.5 8.69 0.52 9.03 0.57C9.63 0.65 10.08 1.12 10.16 1.74C10.23 2.23 10.5 2.65 10.92 2.89C11.35 3.14 11.85 3.17 12.3 2.98C12.86 2.74 13.52 2.92 13.89 3.41C14.3 3.94 14.64 4.53 14.89 5.15C15.13 5.72 14.95 6.38 14.46 6.75C14.08 7.05 13.85 7.5 13.85 8C13.85 8.49 14.08 8.94 14.46 9.24C14.95 9.61 15.13 10.27 14.89 10.84C14.64 11.47 14.3 12.05 13.89 12.58C13.52 13.07 12.86 13.25 12.3 13.01C11.85 12.82 11.35 12.85 10.92 13.1C10.5 13.34 10.23 13.76 10.16 14.25C10.08 14.87 9.63 15.34 9.03 15.42C8.69 15.47 8.34 15.5 8 15.5L8 15.5Z" fill="#1A1A1A" fill-opacity="0" fill-rule="evenodd"/>
    <path id="路径" d="M8 15.5C7.65 15.5 7.3 15.47 6.96 15.42C6.36 15.34 5.91 14.87 5.83 14.25C5.76 13.76 5.49 13.34 5.07 13.1C4.64 12.85 4.14 12.82 3.69 13.01C3.13 13.25 2.47 13.07 2.1 12.58C1.69 12.05 1.35 11.46 1.1 10.84C0.86 10.27 1.04 9.61 1.53 9.24C1.91 8.94 2.14 8.49 2.14 8C2.14 7.5 1.91 7.05 1.53 6.75C1.04 6.38 0.86 5.72 1.1 5.15C1.35 4.52 1.69 3.94 2.1 3.41C2.47 2.92 3.13 2.74 3.69 2.98C4.14 3.17 4.64 3.14 5.07 2.89C5.49 2.65 5.76 2.23 5.83 1.74C5.91 1.12 6.36 0.65 6.96 0.57C7.3 0.52 7.65 0.5 8 0.5C8.34 0.5 8.69 0.52 9.03 0.57C9.63 0.65 10.08 1.12 10.16 1.74C10.23 2.23 10.5 2.65 10.92 2.89C11.35 3.14 11.85 3.17 12.3 2.98C12.86 2.74 13.52 2.92 13.89 3.41C14.3 3.94 14.64 4.53 14.89 5.15C15.13 5.72 14.95 6.38 14.46 6.75C14.08 7.05 13.85 7.5 13.85 8C13.85 8.49 14.08 8.94 14.46 9.24C14.95 9.61 15.13 10.27 14.89 10.84C14.64 11.47 14.3 12.05 13.89 12.58C13.52 13.07 12.86 13.25 12.3 13.01C11.85 12.82 11.35 12.85 10.92 13.1C10.5 13.34 10.23 13.76 10.16 14.25C10.08 14.87 9.63 15.34 9.03 15.42C8.69 15.47 8.34 15.5 8 15.5ZM7.1 14.43L7.1 14.43C7.06 14.43 7.03 14.42 7 14.4C6.97 14.38 6.94 14.37 6.92 14.34C6.91 14.33 6.9 14.32 6.9 14.31C6.86 14.26 6.83 14.2 6.82 14.12C6.79 13.9 6.74 13.68 6.65 13.48C6.59 13.33 6.51 13.17 6.41 13.03C6.31 12.87 6.2 12.73 6.07 12.61C5.92 12.46 5.75 12.34 5.57 12.23C5.38 12.12 5.18 12.04 4.98 11.98C4.81 11.93 4.63 11.9 4.45 11.89C4.28 11.88 4.1 11.89 3.93 11.91C3.72 11.94 3.51 12 3.31 12.09C3.27 12.1 3.24 12.11 3.21 12.11C3.17 12.12 3.13 12.11 3.08 12.1C3.05 12.09 3.01 12.08 2.98 12.06C2.95 12.04 2.92 12.01 2.89 11.97C2.7 11.72 2.52 11.46 2.37 11.18C2.24 10.95 2.12 10.71 2.02 10.46C2.01 10.42 2 10.38 2 10.34C1.99 10.3 2 10.26 2.01 10.22C2.02 10.17 2.04 10.13 2.07 10.09C2.09 10.07 2.11 10.05 2.13 10.03C2.31 9.9 2.46 9.75 2.59 9.58C2.7 9.44 2.79 9.29 2.87 9.13C2.95 8.97 3.02 8.8 3.06 8.63C3.11 8.43 3.14 8.21 3.14 8C3.14 7.78 3.11 7.56 3.06 7.36C3.02 7.19 2.95 7.02 2.87 6.86C2.79 6.7 2.7 6.55 2.59 6.41C2.46 6.24 2.31 6.09 2.13 5.96C2.11 5.94 2.09 5.92 2.07 5.9C2.04 5.86 2.02 5.82 2.01 5.77C2 5.73 1.99 5.69 2 5.65C2 5.61 2.01 5.57 2.02 5.53C2.14 5.24 2.27 4.97 2.42 4.71C2.56 4.47 2.72 4.24 2.89 4.02C2.92 3.98 2.95 3.95 2.98 3.93C3.01 3.91 3.05 3.9 3.08 3.89C3.13 3.88 3.17 3.87 3.21 3.88C3.24 3.88 3.27 3.89 3.31 3.9C3.51 3.99 3.72 4.05 3.93 4.08C4.1 4.1 4.28 4.11 4.45 4.1C4.63 4.09 4.81 4.06 4.98 4.01C5.18 3.95 5.38 3.87 5.57 3.76C5.75 3.65 5.92 3.52 6.07 3.38C6.2 3.25 6.31 3.12 6.41 2.96C6.51 2.81 6.59 2.66 6.66 2.5C6.74 2.3 6.79 2.09 6.82 1.87C6.83 1.79 6.86 1.73 6.9 1.67C6.91 1.67 6.91 1.66 6.92 1.65C6.94 1.62 6.97 1.61 7 1.59C7.03 1.57 7.06 1.56 7.1 1.56C7.15 1.55 7.2 1.54 7.25 1.54C7.5 1.51 7.75 1.5 8 1.5C8.14 1.5 8.28 1.5 8.42 1.51C8.58 1.52 8.73 1.54 8.89 1.56C8.93 1.56 8.96 1.57 8.99 1.59C9.02 1.6 9.05 1.62 9.07 1.65C9.08 1.66 9.09 1.67 9.09 1.68C9.13 1.73 9.16 1.79 9.17 1.87C9.2 2.09 9.25 2.31 9.34 2.51C9.4 2.66 9.48 2.82 9.58 2.96C9.68 3.12 9.79 3.26 9.92 3.38C10.07 3.53 10.24 3.65 10.42 3.76C10.61 3.87 10.81 3.95 11.01 4.01C11.18 4.06 11.36 4.09 11.54 4.1C11.71 4.11 11.89 4.1 12.06 4.08C12.27 4.05 12.48 3.99 12.68 3.9C12.72 3.89 12.75 3.88 12.78 3.88C12.82 3.87 12.86 3.88 12.91 3.89C12.94 3.9 12.98 3.91 13.01 3.93C13.04 3.95 13.07 3.98 13.1 4.02C13.27 4.24 13.43 4.47 13.57 4.71C13.72 4.97 13.85 5.25 13.97 5.53C13.98 5.57 13.99 5.61 14 5.65C14 5.69 13.99 5.73 13.98 5.77C13.97 5.82 13.95 5.86 13.92 5.9C13.9 5.92 13.88 5.94 13.86 5.96C13.68 6.09 13.53 6.24 13.4 6.41C13.29 6.55 13.2 6.7 13.12 6.86C13.04 7.02 12.97 7.19 12.93 7.36C12.88 7.56 12.85 7.78 12.85 8C12.85 8.21 12.88 8.43 12.93 8.63C12.97 8.8 13.04 8.97 13.12 9.13C13.2 9.29 13.29 9.44 13.4 9.58C13.53 9.75 13.68 9.9 13.86 10.03C13.88 10.05 13.9 10.07 13.92 10.09C13.95 10.13 13.97 10.17 13.98 10.22C13.99 10.26 14 10.3 14 10.34C13.99 10.38 13.98 10.42 13.97 10.47C13.85 10.75 13.72 11.01 13.57 11.27C13.43 11.52 13.27 11.75 13.1 11.97C13.07 12.01 13.04 12.04 13.01 12.06C12.98 12.08 12.94 12.09 12.91 12.1C12.86 12.11 12.82 12.12 12.78 12.11C12.75 12.11 12.72 12.1 12.68 12.09C12.48 12 12.27 11.95 12.06 11.91C11.89 11.89 11.71 11.88 11.54 11.89C11.36 11.91 11.18 11.93 11.01 11.98C10.81 12.04 10.61 12.12 10.42 12.23C10.24 12.34 10.07 12.47 9.92 12.61C9.79 12.74 9.68 12.88 9.58 13.03C9.48 13.18 9.4 13.33 9.33 13.49C9.25 13.69 9.2 13.9 9.17 14.12C9.16 14.2 9.13 14.26 9.09 14.31C9.09 14.32 9.08 14.33 9.07 14.34C9.05 14.37 9.02 14.39 9 14.4C8.96 14.42 8.93 14.43 8.89 14.43C8.8 14.45 8.7 14.46 8.61 14.47C8.4 14.49 8.2 14.5 8 14.5C7.87 14.5 7.75 14.49 7.63 14.48C7.45 14.48 7.28 14.46 7.1 14.43Z" fill="#4D4D4D" fill-opacity="1.000000" fill-rule="evenodd"/>
</svg>
