<svg width="24.000000" height="24.000000" viewBox="0 0 24 24" fill="none" xmlns="http://www.w3.org/2000/svg" xmlns:xlink="http://www.w3.org/1999/xlink">
	<desc>
			Created with Pixso.
	</desc>
	<defs/>
	<rect id="画板 856" rx="4.000000" width="24.000000" height="24.000000" fill="#F3689A" fillOpacity="1.000000"/>
	<path id="if" d="M17.34 9.15L14.45 9.15L14.5 8.77C14.56 8.26 14.7 7.89 14.92 7.65C15.15 7.41 15.51 7.29 16 7.29C16.11 7.29 16.43 7.3 16.97 7.33L17.52 7.36L17.79 5.58Q16.79 5.5 16.03 5.5Q14.47 5.5 13.61 6.27Q12.79 7.01 12.61 8.46L12.52 9.15L10.58 9.15L10.36 10.95L12.31 10.95L11.38 18.5L13.31 18.5L14.24 10.95L17.12 10.95L17.34 9.15ZM7.61 5.88L7.36 7.9L9.55 7.9L9.81 5.88L7.61 5.88ZM6.2 18.5L8.13 18.5L9.29 9.15L7.36 9.15L6.2 18.5Z" fill="#FFFFFF" fillOpacity="1.000000" fillRule="evenodd"/>
</svg>
