<?xml version="1.0" encoding="UTF-8"?>
<svg width="24.0000013px" height="22.0416667px" viewBox="0 0 24.0000013 22.0416667" version="1.1" xmlns="http://www.w3.org/2000/svg" xmlns:xlink="http://www.w3.org/1999/xlink">
    <title>Conversation/ico_Bad_Normal备份</title>
    <g id="页面-2备份" stroke="none" stroke-width="1" fill="none" fillRule="evenodd">
        <g id="icon" transform="translate(-571.999999, -551.958333)" fillRule="nonzero">
            <g id="Conversation/ico_Bad_Normal备份" transform="translate(572.000000, 551.958333)">
                <path d="M12.8299527,0.699999846 C13.4752309,0.700427645 14.0827622,0.901634656 14.575241,1.25146543 C15.0568629,1.59358399 15.4284665,2.07832391 15.6123118,2.65541259 L15.6445854,2.76640441 L15.6689569,2.81593659 L15.6781516,2.84978614 C15.8326354,3.52637417 15.9134597,4.20454652 15.9134597,4.8842711 C15.9137,5.48790636 15.8533109,6.09017005 15.7352241,6.67290936 L15.50058,7.75010424 L20.3020913,7.75333331 C20.3431347,7.75332229 20.3841405,7.75570825 20.4178831,7.75962562 L20.4687064,7.76609916 L20.5560093,7.77134995 C21.4567236,7.83644431 22.2882851,8.27777489 22.7955466,8.9989373 L22.8594425,9.09385614 C23.1861992,9.58723723 23.3385373,10.168083 23.2916792,10.7504464 L23.881,10.786 L23.2941478,10.788367 L23.2950235,10.8017525 C23.2961584,10.8694911 23.2907533,10.9358098 23.2787304,10.995456 L23.2594059,11.07353 L21.2603276,19.5018428 L20.976,20.251 L21.0590306,19.9019055 C20.8813618,20.2101802 20.6434619,20.4820492 20.359424,20.7039235 L20.1835775,20.83094 L20.0736017,20.8997853 C19.5919147,21.1914695 19.0386603,21.3416667 18.477755,21.3416667 C18.4609811,21.3416667 18.4442218,21.3401457 18.4285149,21.3394682 L1.84920588,21.3346134 C1.53994106,21.3347578 1.2567037,21.2210008 1.04764919,21.031086 C0.851926561,20.8532826 0.721664421,20.6078193 0.705033142,20.3308608 L0.702716463,20.2423353 L0.710617439,10.4945238 C0.710795551,10.2381311 0.809964911,10.0016324 0.973183285,9.81828932 C1.14375964,9.62668099 1.38354652,9.49268439 1.65859958,9.44787824 L1.73317526,9.43826052 C4.68755914,9.1213344 6.60724331,8.52894282 7.4940731,7.82890538 C8.79774575,6.79972235 9.92595869,4.731232 9.92595869,3.44555334 C9.92595869,2.67628199 10.2393352,1.99479349 10.751803,1.50491822 C11.2794166,1.00056478 12.0140573,0.7 12.8299527,0.699999846 Z" id="路径" stroke="#4D4D4D" stroke-width="1.4" fill="#FFFFFF"></path>
                <path d="M6.4,12.3944445 L6.4,17.3138889 C6.4,17.8078769 6.08659932,18.2083333 5.7,18.2083333 L5,18.2083333 L5,11.5 L5.7,11.5 C5.88565155,11.5 6.06369929,11.5942358 6.19497475,11.7619767 C6.32625022,11.9297176 6.4,12.157223 6.4,12.3944445 Z" id="路径" fill="#4D4D4D"></path>
            </g>
        </g>
    </g>
</svg>