<svg width="21.458008" height="21.599609" viewBox="0 0 21.458 21.5996" fill="none" xmlns="http://www.w3.org/2000/svg" xmlns:xlink="http://www.w3.org/1999/xlink">
	<desc>
			Created with Pixso.
	</desc>
	<defs>
		<linearGradient x1="10.729072" y1="0.000000" x2="10.729072" y2="21.600000" id="paint_linear_661_273216_0" gradientUnits="userSpaceOnUse">
			<stop offset="0.007634" stop-color="#60E4BD"/>
			<stop offset="1.000000" stop-color="#41C8A2"/>
		</linearGradient>
	</defs>
	<path id="矢量 2" d="M21.36 0.57C21.3 0.18 21.28 0.16 20.88 0.09C20.51 0.02 20.14 0 19.77 0C19.4 0 19.04 0.02 18.67 0.06C17.22 0.21 15.8 0.53 14.42 1.03C11.98 1.91 9.82 3.22 8.08 5.17C8 5.26 7.92 5.29 7.81 5.29C7.79 5.29 7.76 5.29 7.74 5.28C7 5.2 6.27 5.08 5.53 5.08L5.48 5.08C4.17 5.09 3.15 5.69 2.44 6.8C2.05 7.41 1.66 8.02 1.28 8.63C0.91 9.19 0.55 9.75 0.2 10.33C-0.3 11.14 0.17 12.11 1.09 12.18C2.21 12.27 3.32 12.33 4.43 12.4C4.63 12.41 4.72 12.46 4.74 12.67C4.8 13.38 4.99 14.06 5.37 14.67C6.11 15.85 7.19 16.5 8.56 16.69C9.08 16.76 9.07 16.76 9.1 17.29C9.18 18.36 9.26 19.43 9.36 20.5C9.42 21.17 9.93 21.59 10.51 21.59C10.73 21.59 10.97 21.53 11.19 21.38C12.43 20.57 13.69 19.77 14.9 18.9C16.02 18.09 16.51 16.95 16.36 15.56C16.3 14.96 16.25 14.36 16.19 13.77C16.17 13.58 16.22 13.44 16.36 13.31C18.12 11.69 19.38 9.74 20.24 7.52C20.96 5.66 21.39 3.75 21.45 1.75C21.45 1.7 21.45 1.64 21.45 1.58C21.46 1.24 21.41 0.91 21.36 0.57ZM14.77 9.84L14.75 9.84C13.08 9.83 11.59 8.33 11.62 6.69C11.66 4.73 13.14 3.47 14.85 3.47L14.91 3.47C16.59 3.5 18 4.96 17.98 6.67C17.95 8.44 16.53 9.84 14.77 9.84ZM5.62 20.56C6.2 19.98 6.79 19.4 7.37 18.81C7.76 18.41 7.64 17.9 7.11 17.72C6.82 17.62 6.53 17.5 6.26 17.35C5.04 16.67 4.2 15.67 3.74 14.35C3.62 14.02 3.43 13.87 3.1 13.87C3.09 13.86 3.08 13.86 3.06 13.86C2.92 13.86 2.79 13.93 2.68 14.04C2.08 14.65 1.47 15.25 0.86 15.86C0.68 16.05 0.62 16.27 0.71 16.52C0.82 16.78 1.01 16.91 1.29 16.93C1.47 16.94 1.66 16.93 1.85 16.94C2.16 16.94 2.17 16.95 2.07 17.24C1.85 17.91 1.63 18.57 1.41 19.24C1.3 19.58 1.4 19.86 1.68 20.02C1.77 20.07 1.87 20.09 1.96 20.09C2.06 20.09 2.16 20.07 2.25 20.03C2.91 19.82 3.56 19.6 4.21 19.38C4.31 19.35 4.38 19.33 4.43 19.33C4.51 19.33 4.52 19.4 4.52 19.62C4.53 19.8 4.52 19.98 4.53 20.16C4.54 20.44 4.67 20.65 4.95 20.75C5.02 20.78 5.1 20.79 5.16 20.79C5.33 20.79 5.48 20.7 5.62 20.56Z" fill="url(#paint_linear_661_273216_0)" fill-opacity="1.000000" fill-rule="evenodd"/>
</svg>
