<?xml version="1.0" encoding="UTF-8"?>
<svg width="24" height="24" viewBox="0 0 16 16" version="1.1" xmlns="http://www.w3.org/2000/svg" xmlns:xlink="http://www.w3.org/1999/xlink">
    <title>ICON/16/Setting备份</title>
    <g id="ICON/16/Setting备份" stroke="none" stroke-width="1" fill="none" fillRule="evenodd">
        <g id="编组" transform="translate(1.000000, 1.000000)" fill="#333333" fillRule="nonzero" stroke="#333333" stroke-width="0.2">
            <path d="M14,7 C14,3.12429378 10.8757062,0 7,0 C3.12429378,0 0,3.12429378 0,7 C0,10.8361582 3.12429379,14 6.96045198,14 L7.03954802,14 C10.8757062,14 14,10.8361582 14,7 Z M1.9378531,10.9548023 C1.14689265,9.92655367 0.632768355,8.66101694 0.55367232,7.27683616 L3.6779661,7.27683616 C3.6779661,7.90960451 3.75706215,8.97740113 4.03389831,10.0451977 C3.20338983,10.2429379 2.41242937,10.519774 1.9378531,10.9548023 Z M1.89830508,3.04519774 C2.37288135,3.48022599 3.1638418,3.79661017 4.03389831,3.99435028 C3.79661017,5.0621469 3.71751412,6.09039549 3.71751412,6.72316384 L0.593220344,6.72316384 C0.632768369,5.33898306 1.10734464,4.07344633 1.89830508,3.04519774 Z M12.1016949,3.04519774 C12.8926554,4.07344633 13.3672316,5.33898306 13.4463277,6.72316384 L10.3220339,6.72316384 C10.3220339,6.09039549 10.2429379,5.0621469 9.96610169,3.99435028 C10.8361582,3.79661017 11.6271186,3.48022599 12.1016949,3.04519774 L12.1016949,3.04519774 Z M9.76836158,6.72316384 L7.27683616,6.72316384 L7.27683616,4.27118644 C7.90960451,4.27118644 8.66101694,4.19209039 9.41242937,4.07344633 C9.68926553,5.14124295 9.72881356,6.16949154 9.76836158,6.72316384 L9.76836158,6.72316384 Z M7.27683616,3.71751412 L7.27683616,0.711864405 C8.30508475,1.26553672 8.89830509,2.41242937 9.25423729,3.55932204 C8.58192091,3.67796611 7.8700565,3.71751412 7.27683616,3.71751412 Z M6.72316384,0.711864405 L6.72316384,3.71751412 C6.1299435,3.71751412 5.41807909,3.63841807 4.74576271,3.55932204 C5.0621469,2.41242939 5.69491525,1.30508475 6.72316384,0.711864405 Z M6.72316384,4.27118644 L6.72316384,6.72316384 L4.23163842,6.72316384 C4.23163842,6.16949152 4.31073447,5.14124293 4.58757063,4.11299436 C5.37853108,4.23163843 6.16949154,4.27118644 6.72316384,4.27118644 L6.72316384,4.27118644 Z M4.23163842,7.27683616 L6.72316384,7.27683616 L6.72316384,9.76836158 C6.16949152,9.76836158 5.41807909,9.80790961 4.58757063,9.96610169 C4.31073447,8.85875705 4.27118644,7.83050848 4.23163842,7.27683616 L4.23163842,7.27683616 Z M6.72316384,10.3220339 L6.72316384,13.2881356 C5.69491525,12.7344633 5.10169491,11.6271187 4.74576271,10.480226 C5.41807909,10.3615819 6.1299435,10.3220339 6.72316384,10.3220339 Z M7.27683616,13.2881356 L7.27683616,10.3220339 C7.8700565,10.3220339 8.58192091,10.40113 9.25423729,10.519774 C8.89830508,11.6271187 8.30508475,12.7344633 7.27683616,13.2881356 Z M7.27683616,9.76836158 L7.27683616,7.27683616 L9.76836158,7.27683616 C9.76836158,7.83050848 9.68926553,8.85875707 9.41242937,9.96610169 C8.66101694,9.84745762 7.87005649,9.76836158 7.27683616,9.76836158 Z M10.3220339,7.27683616 L13.4463277,7.27683616 C13.3672316,8.66101694 12.8926554,9.92655367 12.0621469,10.9548023 C11.5875706,10.519774 10.7966102,10.2429379 9.96610169,10.0451977 C10.2033898,8.97740113 10.2824859,7.90960453 10.3220339,7.27683616 L10.3220339,7.27683616 Z M11.7457627,2.64971751 C11.3502825,3.00564972 10.6384181,3.28248586 9.84745763,3.44067796 C9.53107345,2.41242937 9.01694915,1.38418078 8.18644067,0.67231638 C9.57062146,0.909604514 10.7966102,1.62146892 11.7457627,2.64971751 L11.7457627,2.64971751 Z M5.81355933,0.67231638 C4.98305085,1.38418078 4.46892655,2.41242937 4.15254237,3.48022599 C3.36158193,3.28248588 2.64971751,3.00564972 2.25423729,2.64971751 C3.20338983,1.62146892 4.42937853,0.909604514 5.81355933,0.67231638 Z M2.29378531,11.3898305 C2.68926553,11.0338983 3.40112995,10.7570621 4.19209039,10.5988701 C4.50847458,11.6271187 5.02259887,12.6553672 5.81355933,13.3276836 C4.42937854,13.0903955 3.20338983,12.3785311 2.29378531,11.3898305 Z M8.18644067,13.3276836 C9.01694915,12.6158192 9.49152542,11.6271187 9.80790961,10.5988701 C10.5988701,10.7570621 11.3107345,11.0338983 11.7062147,11.3898305 C10.7966102,12.3785311 9.57062147,13.0903955 8.18644067,13.3276836 L8.18644067,13.3276836 Z" id="形状"></path>
        </g>
    </g>
</svg>