<svg t="1714287545132" class="icon" viewBox="0 0 1024 1024" version="1.1" xmlns="http://www.w3.org/2000/svg" p-id="5937" id="mx_n_1714287545133" width="24" height="24"><path d="M485.067 996.218l-114.463-119a40.753 40.753 0 0 1 0-56.061 37.068 37.068 0 0 1 53.936 0L512 912.089l87.46-90.932a37.28 37.28 0 0 1 26.932-11.624h266.986a38.981 38.981 0 0 0 38.202-39.69V135.3a38.981 38.981 0 0 0-38.202-39.69H130.693A38.981 38.981 0 0 0 92.49 135.3v634.544c0 21.972 17.152 39.69 38.202 39.69h269.325c21.05 0 38.13 17.719 38.13 39.69 0 21.9-17.08 39.62-38.13 39.62H130.622c-63.08 0-114.463-53.37-114.464-119V135.3c0-65.559 51.456-118.928 114.535-118.928h762.614c63.08 0 114.464 53.369 114.464 118.928v634.544c0 65.63-51.385 119-114.464 119h-251.11L538.933 996.217a37.28 37.28 0 0 1-53.866 0z" p-id="5938" fill="#515151"></path><path d="M302.21 492.226c-31.54 0-57.196-26.65-57.196-59.464 0-32.815 25.657-59.535 57.196-59.535 31.54 0 57.196 26.72 57.196 59.535s-25.657 59.535-57.196 59.535z m228.926 0c-31.61 0-57.267-26.65-57.267-59.464 0-32.815 25.657-59.535 57.196-59.535 31.54 0 57.197 26.72 57.196 59.535 0 32.815-25.656 59.535-57.196 59.535z m228.785 0c-31.54 0-57.196-26.65-57.196-59.464 0-32.815 25.656-59.535 57.196-59.535s57.196 26.72 57.196 59.535-25.657 59.535-57.196 59.535z" p-id="5939" fill="#515151"></path></svg>