<?xml version="1.0" encoding="UTF-8"?>
<svg width="24.0000013px" height="22.0416667px" viewBox="0 0 24.0000013 22.0416667" version="1.1" xmlns="http://www.w3.org/2000/svg" xmlns:xlink="http://www.w3.org/1999/xlink">
    <title>Conversation/ico_Bad_Normal备份 4</title>
    <g id="页面-2备份" stroke="none" stroke-width="1" fill="none" fillRule="evenodd">
        <g id="icon" transform="translate(-815.999999, -551.958333)" fillRule="nonzero">
            <g id="Conversation/ico_Bad_Normal备份-4" transform="translate(816.000000, 551.958333)">
                <path d="M12.8304168,1.13686838e-13 C10.8207618,1.13686838e-13 9.22595869,1.49883334 9.22595869,3.44555334 C9.22595869,4.578495 8.20059627,6.37929918 7.06033046,7.27948084 C6.22878092,7.93588168 4.41017002,8.44768918 1.65110521,8.74304749 L1.55881337,8.75494999 C0.666562119,8.894217 0.0112175868,9.63036517 0.0106176082,10.4940375 L0.00415718786,20.1659208 L0.00277281013,20.1725333 C-0.0018417913,20.2033917 0,20.2311642 0.00323427839,20.27128 L0.00554156559,20.3594467 C0.0544990787,21.2981349 0.865705953,22.0350727 1.8495327,22.0346133 L18.3997684,22.03814 L18.4089976,22.0394625 C18.4316091,22.040785 18.4546821,22.0416667 18.477755,22.0416667 C19.1662522,22.0416667 19.8450588,21.8565167 20.4361881,21.49856 L20.5630893,21.41921 C21.0199996,21.1164694 21.3973287,20.7167758 21.6655155,20.2514425 L21.7088927,20.1720925 L21.6645926,20.236895 C21.7901095,20.0689375 21.8814784,19.87982 21.9377764,19.6788 L23.9405095,11.2350783 L23.9612752,11.15132 C23.986194,11.0353808 23.9981919,10.9044533 23.9945003,10.7708808 L23.9926544,10.7426675 L23.9894242,10.8065883 C24.0487815,10.0688828 23.8571481,9.33259109 23.4430565,8.70733999 L23.3724532,8.60242168 C22.7471759,7.70929334 21.7227364,7.15384334 20.6064665,7.07317084 L20.5340174,7.06876249 L20.5063299,7.06523584 C20.4385055,7.05728992 20.3702359,7.05331499 20.3019034,7.05333334 L16.3693478,7.05068834 L16.4191854,6.82189584 C16.5486625,6.1833489 16.6137186,5.53440875 16.6134597,4.8839925 C16.6134597,4.14780084 16.5257824,3.41293166 16.3573498,2.67982584 L16.33843,2.61017418 C16.3310945,2.58723014 16.3227813,2.56458182 16.3135112,2.54228584 L16.3005903,2.515395 L16.282132,2.451915 C15.8231516,0.997082615 14.4209801,0.00105449155 12.8304168,1.13686838e-13 L12.8304168,1.13686838e-13 Z" id="路径" fill="#2673E5" transform="translate(12.000000, 11.020833) scale(1, -1) translate(-12.000000, -11.020833) "></path>
                <path d="M6.4,3.76944446 L6.4,8.6888889 C6.4,9.18287692 6.08659932,9.58333333 5.7,9.58333333 L5,9.58333333 L5,2.875 L5.7,2.875 C5.88565155,2.875 6.06369929,2.96923584 6.19497475,3.13697672 C6.32625022,3.30471759 6.4,3.53222304 6.4,3.76944446 Z" id="路径" fill="#FFFFFF"></path>
            </g>
        </g>
    </g>
</svg>