<svg width="24.000000" height="24.000000" viewBox="0 0 24 24" fill="none" xmlns="http://www.w3.org/2000/svg" xmlns:xlink="http://www.w3.org/1999/xlink">
	<desc>
			Created with Pixso.
	</desc>
	<defs>
		<clipPath id="clip7302_90474">
			<rect id="http" width="24.000000" height="8.000000" transform="translate(1.472168 9.000000)" fill="white" fill-opacity="0"/>
		</clipPath>
		<clipPath id="clip7302_90471">
			<rect id="HTTP请求" rx="12.000000" width="24.000000" height="24.000000" fill="white" fill-opacity="0"/>
		</clipPath>
	</defs>
	<rect id="HTTP请求" rx="12.000000" width="24.000000" height="24.000000" fill="#E36ECA" fill-opacity="1.000000"/>
	<g clip-path="url(#clip7302_90471)">
		<g clip-path="url(#clip7302_90474)">
			<path id="path" d="M22.83 11.77L23.19 10.67L21 10.67L20.65 11.77L22.83 11.77ZM23.73 9C24.17 9 24.5 9.16 24.71 9.49C24.93 9.82 24.96 10.22 24.81 10.67L24.46 11.77C24.31 12.23 24.02 12.62 23.59 12.95C23.16 13.29 22.73 13.45 22.29 13.45L20.1 13.45L19.37 15.71L17.74 15.71L19.93 9L23.73 9ZM13.44 10.67L13.98 9L18.86 9L18.31 10.67L16.69 10.67L15.05 15.71L13.43 15.71L15.06 10.67L13.44 10.67ZM7.45 10.67L7.99 9L12.87 9L12.32 10.67L10.7 10.67L9.06 15.71L7.44 15.71L9.07 10.67L7.45 10.67ZM4.57 11.25L5.3 9L6.93 9L4.75 15.71L3.12 15.71L4.02 12.93L1.84 12.93L0.94 15.71L-0.69 15.71L1.49 9L3.12 9L2.38 11.25L4.57 11.25Z" fill="#FFFFFF" fill-opacity="1.000000" fill-rule="nonzero"/>
		</g>
	</g>
</svg>
