<svg width="24.000000" height="24.000000" viewBox="0 0 24 24" fill="none" xmlns="http://www.w3.org/2000/svg" xmlns:xlink="http://www.w3.org/1999/xlink">
    <desc>
        Created with Pixso.
    </desc>
    <defs>
        <clipPath id="clip8176_101889">
            <rect id="关键词提取" rx="12.000000" width="24.000000" height="24.000000" fill="white" fill-opacity="0"/>
        </clipPath>
    </defs>
    <rect id="关键词提取" rx="12.000000" width="24.000000" height="24.000000" fill="#39C295" fill-opacity="1.000000"/>
    <g clip-path="url(#clip8176_101889)">
        <path id="path" d="M16.89 4.28L6.27 4.28C5.63 4.28 5.14 4.78 5.14 5.44L5.14 18.55C5.14 19.18 5.63 19.71 6.27 19.71L14.19 19.71C13.96 19.18 13.82 18.58 13.82 17.96C13.82 15.59 15.67 13.7 18 13.67L18 5.44C18 4.78 17.5 4.28 16.89 4.28ZM12.28 12.57L7.69 12.57C7.37 12.57 7.11 12.31 7.11 11.98C7.11 11.65 7.37 11.39 7.69 11.39L12.28 11.39C12.6 11.39 12.86 11.65 12.86 11.98C12.86 12.31 12.6 12.57 12.28 12.57ZM15.44 9.55L7.69 9.55C7.37 9.55 7.11 9.29 7.11 8.96C7.11 8.63 7.37 8.37 7.69 8.37L15.47 8.37C15.79 8.37 16.05 8.63 16.05 8.96C16.05 9.29 15.79 9.55 15.44 9.55Z" fill="#FFFFFF" fill-opacity="0.700000" fill-rule="nonzero"/>
        <path id="path" d="M17.57 14.57C15.91 14.57 14.57 15.91 14.57 17.57C14.57 19.22 15.91 20.57 17.57 20.57C19.22 20.57 20.57 19.22 20.57 17.57C20.57 15.91 19.22 14.57 17.57 14.57ZM19.37 17.85C19.34 17.91 19.31 17.97 19.28 18L18.48 18.79C18.39 18.88 18.28 18.94 18.17 18.94C18.05 18.94 17.94 18.88 17.85 18.79C17.68 18.62 17.68 18.34 17.85 18.14L17.88 18.11L16.48 18.11C16.11 18.11 15.79 17.79 15.79 17.42L15.79 16.62C15.79 16.37 16 16.17 16.25 16.17C16.51 16.17 16.71 16.37 16.71 16.62L16.71 17.2L17.88 17.2L17.88 17.17C17.71 17 17.71 16.71 17.88 16.51C17.97 16.42 18.08 16.37 18.19 16.37C18.31 16.37 18.42 16.42 18.51 16.51L19.31 17.31C19.34 17.34 19.39 17.4 19.39 17.45C19.42 17.51 19.42 17.57 19.42 17.62C19.39 17.74 19.37 17.79 19.37 17.85Z" fill="#FFFFFF" fill-opacity="1.000000" fill-rule="nonzero"/>
    </g>
</svg>
