<svg width="101.590820" height="20.000000" viewBox="0 0 101.591 20" fill="none" xmlns="http://www.w3.org/2000/svg" xmlns:xlink="http://www.w3.org/1999/xlink">
	<desc>
			Created with Pixso.
	</desc>
	<defs>
		<clipPath id="clip1888_164884">
			<rect id="huggingface_logo-noborder" width="21.590912" height="20.000000" fill="white" fill-opacity="0"/>
		</clipPath>
	</defs>
	<rect id="HF" width="101.590912" height="20.000000" fill="#FFFFFF" fill-opacity="0"/>
	<path id="HuggingFace" d="M58.24 6.74Q58.44 6.84 58.69 6.84Q58.85 6.84 59.01 6.79Q59.09 6.76 59.17 6.72Q59.31 6.64 59.41 6.53Q59.47 6.46 59.52 6.38Q59.55 6.33 59.58 6.27Q59.65 6.11 59.65 5.91Q59.65 5.69 59.56 5.51Q59.54 5.47 59.52 5.43Q59.47 5.34 59.39 5.26Q59.3 5.17 59.17 5.1Q59.13 5.07 59.08 5.05Q58.9 4.98 58.69 4.98Q58.4 4.98 58.18 5.1Q58.09 5.16 58 5.24Q57.91 5.33 57.85 5.44Q57.74 5.64 57.74 5.91Q57.74 6.11 57.81 6.29Q57.83 6.34 57.86 6.39Q57.91 6.49 57.99 6.57Q58.08 6.66 58.19 6.72Q58.21 6.73 58.24 6.74ZM28.34 5.51L26.63 5.51L26.63 14L28.34 14L28.34 10.27L32.14 10.27L32.14 14L33.84 14L33.84 5.51L32.14 5.51L32.14 8.91L28.34 8.91L28.34 5.51ZM81.33 5.51L76.23 5.51L76.23 14L77.93 14L77.93 10.31L80.97 10.31L80.97 9.03L77.93 9.03L77.93 6.89L81.2 6.89L81.33 5.51ZM44.28 16.49Q44.87 16.64 45.72 16.64Q46.57 16.64 47.26 16.32Q47.62 16.15 47.91 15.89Q48.16 15.66 48.35 15.37Q48.75 14.73 48.75 13.84L48.75 9.31Q48.75 8.52 48.79 7.66L47.72 7.66L47.33 7.92Q47.06 7.75 46.67 7.64Q46.36 7.55 46.05 7.54Q45.97 7.53 45.89 7.53Q44.93 7.53 44.24 7.96Q44.03 8.08 43.85 8.24Q43.43 8.62 43.17 9.18Q42.8 9.97 42.8 11.05Q42.8 12.11 43.13 12.79Q43.46 13.48 44 13.8Q44.21 13.92 44.43 13.99Q44.79 14.11 45.18 14.11Q45.81 14.11 46.25 13.86Q46.69 13.61 47.07 13.18L47.07 13.77Q47.07 14.63 46.66 15.01Q46.25 15.39 45.46 15.39Q44.54 15.39 43.54 14.9L43.19 16.11Q43.69 16.33 44.28 16.49ZM51.58 16.49Q52.17 16.64 53.03 16.64Q53.87 16.64 54.56 16.32Q54.92 16.15 55.21 15.89Q55.46 15.66 55.65 15.37Q56.05 14.73 56.05 13.84L56.05 9.31Q56.05 8.52 56.1 7.66L55.02 7.66L54.63 7.92Q54.36 7.75 53.97 7.64Q53.66 7.55 53.35 7.54Q53.27 7.53 53.2 7.53Q52.23 7.53 51.54 7.96Q51.33 8.08 51.15 8.24Q50.73 8.62 50.47 9.18Q50.1 9.97 50.1 11.05Q50.1 12.11 50.43 12.79Q50.76 13.48 51.3 13.8Q51.51 13.92 51.73 13.99Q52.09 14.11 52.48 14.11Q53.11 14.11 53.55 13.86Q53.99 13.61 54.37 13.18L54.37 13.77Q54.37 14.63 53.96 15.01Q53.55 15.39 52.76 15.39Q51.84 15.39 50.85 14.9L50.49 16.11Q50.99 16.33 51.58 16.49ZM61.28 7.66Q61.32 8.38 61.32 9.26L61.32 14L63 14L63 9.65Q63.36 9.28 63.72 9.07Q63.87 8.98 64.04 8.93Q64.26 8.86 64.5 8.86Q64.86 8.86 65.08 9.03Q65.14 9.08 65.2 9.15Q65.42 9.44 65.42 10.05L65.42 14L67.09 14L67.09 9.93Q67.09 9.16 66.85 8.62Q66.65 8.17 66.31 7.9Q66.24 7.85 66.17 7.8Q65.72 7.53 65.11 7.53Q64.6 7.53 64.21 7.69Q63.82 7.84 63.55 8.07Q63.28 8.31 62.98 8.64Q62.97 8.44 62.94 8.14Q62.9 7.85 62.87 7.66L61.28 7.66ZM69.82 16.49Q70.41 16.64 71.27 16.64Q72.12 16.64 72.8 16.32Q73.16 16.15 73.45 15.89Q73.7 15.66 73.89 15.37Q74.29 14.73 74.29 13.84L74.29 9.31Q74.29 8.52 74.34 7.66L73.26 7.66L72.87 7.92Q72.6 7.75 72.21 7.64Q71.9 7.55 71.59 7.54Q71.51 7.53 71.44 7.53Q70.47 7.53 69.78 7.96Q69.57 8.08 69.39 8.24Q68.97 8.62 68.71 9.18Q68.34 9.97 68.34 11.05Q68.34 12.11 68.67 12.79Q69 13.48 69.54 13.8Q69.75 13.92 69.97 13.99Q70.33 14.11 70.72 14.11Q71.35 14.11 71.79 13.86Q72.23 13.61 72.61 13.18L72.61 13.77Q72.61 14.63 72.2 15.01Q71.79 15.39 71 15.39Q70.08 15.39 69.09 14.9L68.73 16.11Q69.23 16.33 69.82 16.49ZM85.79 13.19Q85.81 13.61 85.9 14L87.49 14Q87.44 13.2 87.44 12.81L87.44 10.27Q87.44 8.77 86.73 8.15Q86.01 7.53 84.7 7.53Q83.97 7.53 83.32 7.68Q82.67 7.82 82.26 8L82.51 9.21Q82.92 9.02 83.46 8.89Q83.99 8.75 84.46 8.75Q85.09 8.75 85.43 9.06Q85.77 9.37 85.77 10.12L85.77 10.22Q85.23 10.15 84.67 10.15Q82.72 10.15 82.08 11.06Q81.77 11.5 81.77 12.16Q81.77 12.8 82.04 13.24Q82.2 13.5 82.43 13.68Q82.58 13.81 82.77 13.9Q82.8 13.91 82.82 13.92Q83.25 14.11 83.78 14.11Q84.43 14.11 84.95 13.84L84.95 13.84Q85.46 13.57 85.79 13.19ZM90.16 13.77Q90.84 14.11 91.71 14.11Q92.34 14.11 92.87 13.96Q93.4 13.81 93.79 13.6L93.45 12.51Q93.06 12.68 92.71 12.77Q92.41 12.85 92.11 12.86Q92.07 12.86 92.03 12.86Q91.47 12.86 91.1 12.6Q90.96 12.5 90.86 12.37Q90.44 11.89 90.44 10.87Q90.44 9.89 90.83 9.33Q90.98 9.12 91.19 8.98Q91.52 8.77 91.97 8.77Q92.3 8.77 92.7 8.89Q93.1 9 93.44 9.17L93.87 8.01Q93.46 7.81 92.91 7.67Q92.6 7.59 92.29 7.56Q92.05 7.53 91.81 7.53Q90.97 7.53 90.31 7.88Q90.26 7.9 90.21 7.93Q90 8.05 89.82 8.21Q89.39 8.56 89.12 9.11Q88.73 9.88 88.73 10.95Q88.73 12.01 89.11 12.72Q89.38 13.21 89.78 13.53Q89.96 13.67 90.16 13.77ZM96.12 11.11L100.21 11.11L100.21 10.73Q100.21 9.85 99.91 9.12Q99.72 8.67 99.42 8.34Q99.22 8.13 98.98 7.96Q98.36 7.53 97.43 7.53Q96.62 7.53 95.98 7.86Q95.92 7.9 95.85 7.93Q95.67 8.04 95.51 8.18Q95.07 8.54 94.79 9.1Q94.41 9.86 94.41 10.92Q94.41 12.33 95.11 13.15Q95.16 13.22 95.22 13.28Q95.27 13.33 95.32 13.37Q96.13 14.11 97.61 14.11Q98.97 14.11 100.09 13.58L99.72 12.45Q99.29 12.63 98.81 12.74Q98.34 12.84 97.9 12.84Q97.15 12.84 96.7 12.47Q96.68 12.45 96.65 12.43Q96.2 12.02 96.12 11.11ZM36.49 13.78Q36.97 14.11 37.68 14.11Q38.17 14.11 38.56 13.95Q38.95 13.8 39.23 13.57Q39.5 13.34 39.79 13.02Q39.8 13.22 39.84 13.51Q39.88 13.81 39.91 14L41.49 14Q41.44 13.2 41.44 12.4L41.44 7.66L39.77 7.66L39.77 12.01Q39.43 12.37 39.05 12.58Q38.83 12.71 38.59 12.76Q38.43 12.79 38.25 12.79Q37.88 12.79 37.66 12.61Q37.61 12.57 37.56 12.51Q37.33 12.23 37.33 11.62L37.33 7.66L35.67 7.66L35.67 11.73Q35.67 12.91 36.2 13.51Q36.33 13.66 36.49 13.78ZM59.52 7.66L57.84 7.66L57.84 14L59.52 14L59.52 7.66ZM98.24 9.06Q98.55 9.4 98.58 10.08L96.15 10.08Q96.26 9.4 96.58 9.06Q96.71 8.92 96.87 8.84Q97.11 8.72 97.42 8.72Q97.76 8.72 98.01 8.87Q98.14 8.94 98.24 9.06ZM46.04 12.76Q45.85 12.8 45.66 12.8Q45.44 12.8 45.26 12.72Q45.02 12.62 44.83 12.37Q44.51 11.95 44.51 11.04Q44.51 10.28 44.7 9.76Q44.89 9.25 45.23 8.99Q45.34 8.91 45.47 8.85Q45.72 8.74 46.03 8.74Q46.07 8.74 46.12 8.74Q46.35 8.75 46.58 8.81Q46.85 8.88 47.07 9.01L47.07 12.12Q46.83 12.4 46.46 12.6Q46.25 12.71 46.04 12.76ZM53.34 12.76Q53.15 12.8 52.96 12.8Q52.74 12.8 52.56 12.72Q52.32 12.62 52.13 12.37Q51.81 11.95 51.81 11.04Q51.81 10.28 52 9.76Q52.19 9.25 52.53 8.99Q52.64 8.91 52.77 8.85Q53.02 8.74 53.33 8.74Q53.37 8.74 53.42 8.74Q53.65 8.75 53.88 8.81Q54.15 8.88 54.37 9.01L54.37 12.12Q54.13 12.4 53.76 12.6Q53.55 12.71 53.34 12.76ZM71.58 12.76Q71.39 12.8 71.2 12.8Q70.99 12.8 70.8 12.72Q70.56 12.62 70.37 12.37Q70.05 11.95 70.05 11.04Q70.05 10.28 70.24 9.76Q70.43 9.25 70.77 8.99Q70.88 8.91 71.01 8.85Q71.26 8.74 71.57 8.74Q71.62 8.74 71.66 8.74Q71.89 8.75 72.12 8.81Q72.39 8.88 72.61 9.01L72.61 12.12Q72.37 12.4 72 12.6Q71.8 12.71 71.58 12.76ZM85.09 12.69Q84.69 12.88 84.31 12.88Q83.95 12.88 83.73 12.7Q83.71 12.69 83.7 12.68Q83.68 12.67 83.67 12.65Q83.48 12.45 83.48 12.06Q83.48 11.79 83.59 11.59Q83.66 11.47 83.78 11.37Q84.09 11.11 84.88 11.11Q85.23 11.11 85.77 11.17L85.77 12.22Q85.5 12.51 85.09 12.69Z" fill="#252B3A" fill-opacity="1.000000" fill-rule="evenodd"/>
	<g clip-path="url(#clip1888_164884)">
		<path id="path" d="M10.72 17.38C11.24 17.38 11.76 17.33 12.27 17.23C12.77 17.13 13.27 16.98 13.75 16.78C14.23 16.58 14.68 16.34 15.11 16.05C15.54 15.76 15.94 15.43 16.31 15.07C16.68 14.7 17 14.3 17.29 13.87C17.58 13.44 17.82 12.99 18.02 12.51C18.22 12.03 18.37 11.53 18.47 11.02C18.57 10.52 18.62 10 18.62 9.48C18.62 8.97 18.57 8.45 18.47 7.94C18.37 7.43 18.22 6.94 18.02 6.46C17.82 5.98 17.58 5.53 17.29 5.1C17 4.66 16.68 4.27 16.31 3.9C15.94 3.53 15.54 3.21 15.11 2.92C14.68 2.63 14.23 2.39 13.75 2.19C13.27 1.99 12.77 1.84 12.27 1.74C11.76 1.64 11.24 1.59 10.72 1.59C10.21 1.59 9.69 1.64 9.18 1.74C8.68 1.84 8.18 1.99 7.7 2.19C7.22 2.39 6.77 2.63 6.34 2.92C5.91 3.21 5.51 3.53 5.14 3.9C4.77 4.27 4.45 4.66 4.16 5.1C3.87 5.53 3.63 5.98 3.43 6.46C3.23 6.94 3.08 7.43 2.98 7.94C2.88 8.45 2.83 8.97 2.83 9.48C2.83 10 2.88 10.52 2.98 11.02C3.08 11.53 3.23 12.03 3.43 12.51C3.63 12.99 3.87 13.44 4.16 13.87C4.45 14.3 4.77 14.7 5.14 15.07C5.51 15.43 5.91 15.76 6.34 16.05C6.77 16.34 7.22 16.58 7.7 16.78C8.18 16.98 8.68 17.13 9.18 17.23C9.69 17.33 10.21 17.38 10.72 17.38Z" fill="#FFD21E" fill-opacity="1.000000" fill-rule="nonzero"/>
		<path id="path" d="M18.62 9.48C18.62 8.97 18.57 8.45 18.47 7.94C18.37 7.43 18.22 6.94 18.02 6.46C17.82 5.98 17.58 5.53 17.29 5.1C17 4.66 16.68 4.27 16.31 3.9C15.94 3.53 15.54 3.21 15.11 2.92C14.68 2.63 14.23 2.39 13.75 2.19C13.27 1.99 12.77 1.84 12.27 1.74C11.76 1.64 11.24 1.59 10.72 1.59C10.21 1.59 9.69 1.64 9.18 1.74C8.68 1.84 8.18 1.99 7.7 2.19C7.22 2.39 6.77 2.63 6.34 2.92C5.91 3.21 5.51 3.53 5.14 3.9C4.77 4.27 4.45 4.66 4.16 5.1C3.87 5.53 3.63 5.98 3.43 6.46C3.23 6.94 3.08 7.43 2.98 7.94C2.88 8.45 2.83 8.97 2.83 9.48C2.83 10 2.88 10.52 2.98 11.02C3.08 11.53 3.23 12.03 3.43 12.51C3.63 12.99 3.87 13.44 4.16 13.87C4.45 14.3 4.77 14.7 5.14 15.07C5.51 15.43 5.91 15.76 6.34 16.05C6.77 16.34 7.22 16.58 7.7 16.78C8.18 16.98 8.68 17.13 9.18 17.23C9.69 17.33 10.21 17.38 10.72 17.38C11.24 17.38 11.76 17.33 12.27 17.23C12.77 17.13 13.27 16.98 13.75 16.78C14.23 16.58 14.68 16.34 15.11 16.05C15.54 15.76 15.94 15.43 16.31 15.07C16.68 14.7 17 14.3 17.29 13.87C17.58 13.44 17.82 12.99 18.02 12.51C18.22 12.03 18.37 11.53 18.47 11.02C18.57 10.52 18.62 10 18.62 9.48ZM1.92 9.48C1.92 8.91 1.97 8.33 2.09 7.77C2.2 7.2 2.37 6.65 2.59 6.11C2.81 5.58 3.08 5.07 3.4 4.59C3.72 4.11 4.09 3.67 4.5 3.26C4.91 2.85 5.35 2.48 5.83 2.16C6.31 1.84 6.82 1.57 7.35 1.35C7.89 1.13 8.44 0.96 9.01 0.85C9.57 0.73 10.15 0.68 10.72 0.68C11.3 0.68 11.88 0.73 12.44 0.85C13.01 0.96 13.56 1.13 14.09 1.35C14.63 1.57 15.14 1.84 15.62 2.16C16.1 2.48 16.54 2.85 16.95 3.26C17.36 3.67 17.73 4.11 18.05 4.59C18.37 5.07 18.64 5.58 18.86 6.11C19.08 6.65 19.25 7.2 19.36 7.77C19.48 8.33 19.53 8.91 19.53 9.48C19.53 10.06 19.48 10.63 19.36 11.2C19.25 11.77 19.08 12.32 18.86 12.85C18.64 13.39 18.37 13.9 18.05 14.38C17.73 14.86 17.36 15.3 16.95 15.71C16.54 16.12 16.1 16.49 15.62 16.81C15.14 17.13 14.63 17.4 14.09 17.62C13.56 17.84 13.01 18.01 12.44 18.12C11.88 18.23 11.3 18.29 10.72 18.29C10.15 18.29 9.57 18.23 9.01 18.12C8.44 18.01 7.89 17.84 7.35 17.62C6.82 17.4 6.31 17.13 5.83 16.81C5.35 16.49 4.91 16.12 4.5 15.71C4.09 15.3 3.72 14.86 3.4 14.38C3.08 13.9 2.81 13.39 2.59 12.85C2.37 12.32 2.2 11.77 2.09 11.2C1.97 10.63 1.92 10.06 1.92 9.48Z" fill="#FF9D0B" fill-opacity="1.000000" fill-rule="nonzero"/>
		<path id="path" d="M13.29 7.34C13.58 7.44 13.69 8.03 13.99 7.88C14.12 7.81 14.24 7.71 14.33 7.6C14.43 7.48 14.5 7.35 14.54 7.21C14.59 7.06 14.6 6.91 14.59 6.76C14.57 6.61 14.53 6.47 14.46 6.34C14.39 6.21 14.29 6.09 14.18 6C14.06 5.9 13.93 5.83 13.79 5.79C13.64 5.74 13.5 5.73 13.35 5.74C13.2 5.76 13.05 5.8 12.92 5.87C12.79 5.94 12.67 6.03 12.58 6.15C12.48 6.27 12.41 6.4 12.37 6.54C12.32 6.68 12.31 6.83 12.32 6.98C12.34 7.13 12.38 7.27 12.45 7.41C12.59 7.67 13.03 7.25 13.29 7.34ZM7.94 7.34C7.65 7.44 7.53 8.03 7.24 7.88C7.11 7.81 6.99 7.71 6.9 7.6C6.8 7.48 6.73 7.35 6.69 7.21C6.64 7.06 6.63 6.91 6.64 6.76C6.66 6.61 6.7 6.47 6.77 6.34C6.84 6.21 6.93 6.09 7.05 6C7.17 5.9 7.3 5.83 7.44 5.79C7.58 5.74 7.73 5.73 7.88 5.74C8.03 5.76 8.17 5.8 8.31 5.87C8.44 5.94 8.55 6.03 8.65 6.15C8.75 6.27 8.82 6.4 8.86 6.54C8.9 6.68 8.92 6.83 8.9 6.98C8.89 7.13 8.85 7.27 8.78 7.41C8.64 7.67 8.2 7.25 7.94 7.34Z" fill="#3A3B45" fill-opacity="1.000000" fill-rule="nonzero"/>
		<path id="path" d="M10.67 12.79C12.9 12.79 13.62 10.8 13.62 9.77C13.62 9.24 13.27 9.41 12.69 9.69C12.16 9.95 11.45 10.32 10.67 10.32C9.04 10.32 7.72 8.75 7.72 9.77C7.72 10.8 8.43 12.79 10.67 12.79Z" fill="#FF323D" fill-opacity="1.000000" fill-rule="nonzero"/>
		<path id="path" d="M8.96 12.27C9.21 11.75 9.61 11.41 10.16 11.25C10.25 11.22 10.34 11.38 10.44 11.54C10.53 11.69 10.63 11.85 10.72 11.85C10.83 11.85 10.93 11.7 11.03 11.54C11.13 11.38 11.23 11.23 11.33 11.26C11.83 11.42 12.21 11.74 12.46 12.21C13.31 11.54 13.62 10.45 13.62 9.77C13.62 9.24 13.27 9.41 12.69 9.69L12.66 9.71C12.14 9.97 11.44 10.32 10.67 10.32C9.9 10.32 9.2 9.97 8.67 9.71C8.08 9.42 7.71 9.23 7.71 9.77C7.71 10.47 8.04 11.61 8.96 12.27Z" fill="#3A3B45" fill-opacity="1.000000" fill-rule="evenodd"/>
		<path id="path" d="M16.07 8.4C16.27 8.4 16.44 8.33 16.59 8.19C16.73 8.04 16.8 7.87 16.8 7.67C16.8 7.46 16.73 7.29 16.59 7.14C16.44 7 16.27 6.93 16.07 6.93C15.86 6.93 15.69 7 15.54 7.14C15.4 7.29 15.33 7.46 15.33 7.67C15.33 7.87 15.4 8.04 15.54 8.19C15.69 8.33 15.86 8.4 16.07 8.4ZM5.5 8.4C5.7 8.4 5.87 8.33 6.02 8.19C6.16 8.04 6.24 7.87 6.24 7.67C6.24 7.46 6.16 7.29 6.02 7.14C5.87 7 5.7 6.93 5.5 6.93C5.29 6.93 5.12 7 4.97 7.14C4.83 7.29 4.76 7.46 4.76 7.67C4.76 7.87 4.83 8.04 4.97 8.19C5.12 8.33 5.29 8.4 5.5 8.4ZM3.98 10.9C3.61 10.9 3.28 11.05 3.05 11.33C2.85 11.58 2.75 11.86 2.75 12.18C2.61 12.14 2.46 12.12 2.31 12.12C1.96 12.12 1.64 12.25 1.41 12.49C1.21 12.71 1.09 12.96 1.05 13.26C1.02 13.55 1.08 13.83 1.23 14.08C1.02 14.25 0.89 14.47 0.82 14.72C0.77 14.93 0.72 15.36 1.01 15.8C0.77 16.17 0.74 16.55 0.92 16.94C1.15 17.47 1.73 17.88 2.86 18.33C3.56 18.61 4.2 18.78 4.2 18.79C5.01 19.01 5.84 19.13 6.69 19.15C8.02 19.15 8.97 18.74 9.52 17.94C10.4 16.64 10.27 15.46 9.13 14.32C8.5 13.69 8.08 12.76 8 12.55C7.82 11.95 7.35 11.27 6.57 11.27C6.13 11.28 5.78 11.47 5.53 11.83C5.3 11.55 5.08 11.32 4.88 11.19C4.61 11.01 4.31 10.91 3.98 10.9ZM3.98 11.81C4.09 11.81 4.24 11.86 4.39 11.96C4.88 12.27 5.81 13.88 6.15 14.5C6.27 14.71 6.47 14.8 6.64 14.8C6.99 14.8 7.27 14.45 6.67 14.01C5.78 13.34 6.09 12.25 6.52 12.19C6.54 12.18 6.56 12.18 6.57 12.18C6.96 12.18 7.13 12.85 7.13 12.85C7.13 12.85 7.63 14.1 8.49 14.96C9.35 15.82 9.39 16.51 8.77 17.42C8.34 18.05 7.52 18.24 6.69 18.24C5.82 18.24 4.93 18.03 4.43 17.91C4.41 17.9 1.37 17.04 1.76 16.32C1.82 16.19 1.93 16.14 2.06 16.14C2.6 16.14 3.59 16.95 4.01 16.95C4.1 16.95 4.17 16.91 4.2 16.81C4.38 16.16 1.46 15.89 1.7 14.95C1.75 14.79 1.87 14.72 2.03 14.72C2.75 14.72 4.35 15.98 4.69 15.98C4.71 15.98 4.73 15.97 4.74 15.96C4.91 15.68 4.82 15.49 3.63 14.77C2.44 14.06 1.61 13.62 2.08 13.11C2.14 13.05 2.21 13.02 2.31 13.02C3.03 13.02 4.73 14.57 4.73 14.57C4.73 14.57 5.19 15.05 5.47 15.05C5.53 15.05 5.59 15.03 5.62 14.96C5.82 14.63 3.79 13.1 3.68 12.46C3.6 12.03 3.73 11.81 3.98 11.81Z" fill="#FF9D0B" fill-opacity="1.000000" fill-rule="nonzero"/>
		<path id="path" d="M8.77 17.42C9.39 16.51 9.35 15.82 8.49 14.96C7.63 14.1 7.13 12.85 7.13 12.85C7.13 12.85 6.95 12.12 6.52 12.19C6.09 12.26 5.78 13.34 6.67 14.01C7.56 14.67 6.5 15.13 6.15 14.5C5.81 13.88 4.88 12.27 4.39 11.96C3.91 11.65 3.57 11.82 3.68 12.46C3.79 13.1 5.82 14.63 5.62 14.96C5.43 15.3 4.73 14.57 4.73 14.57C4.73 14.57 2.56 12.59 2.08 13.11C1.61 13.62 2.44 14.06 3.63 14.77C4.82 15.49 4.91 15.68 4.74 15.96C4.57 16.23 1.95 14.02 1.7 14.96C1.46 15.89 4.38 16.16 4.2 16.81C4.02 17.46 2.14 15.59 1.76 16.31C1.37 17.04 4.41 17.9 4.43 17.91C5.41 18.16 7.9 18.7 8.77 17.42Z" fill="#FFD21E" fill-opacity="1.000000" fill-rule="nonzero"/>
		<path id="path" d="M17.59 10.9C17.95 10.9 18.28 11.05 18.51 11.33C18.71 11.58 18.81 11.86 18.81 12.18C18.96 12.14 19.11 12.12 19.26 12.12C19.61 12.12 19.93 12.25 20.15 12.49C20.36 12.71 20.48 12.96 20.51 13.26C20.55 13.55 20.49 13.83 20.33 14.08C20.54 14.25 20.67 14.47 20.74 14.72C20.79 14.93 20.85 15.36 20.56 15.8C20.79 16.17 20.82 16.55 20.64 16.94C20.41 17.47 19.83 17.88 18.71 18.33C18.01 18.61 17.37 18.78 17.36 18.79C16.55 19.01 15.72 19.13 14.88 19.15C13.54 19.15 12.59 18.74 12.04 17.94C11.16 16.64 11.29 15.46 12.43 14.32C13.06 13.69 13.48 12.76 13.57 12.55C13.75 11.95 14.21 11.27 14.99 11.27C15.43 11.28 15.78 11.47 16.03 11.83C16.26 11.55 16.48 11.32 16.69 11.19C16.96 11.01 17.26 10.91 17.59 10.9ZM17.59 11.81C17.47 11.81 17.33 11.86 17.17 11.96C16.69 12.27 15.75 13.88 15.41 14.5C15.31 14.7 15.14 14.8 14.92 14.8C14.57 14.8 14.3 14.45 14.89 14.01C15.78 13.34 15.47 12.25 15.04 12.19C15.02 12.19 15.01 12.18 14.99 12.18C14.6 12.18 14.43 12.85 14.43 12.85C14.43 12.85 13.93 14.1 13.07 14.96C12.22 15.82 12.17 16.51 12.8 17.42C13.22 18.05 14.04 18.24 14.88 18.24C15.75 18.24 16.63 18.03 17.13 17.91C17.16 17.9 20.19 17.04 19.81 16.32C19.74 16.19 19.64 16.14 19.5 16.14C18.96 16.14 17.98 16.95 17.55 16.95C17.46 16.95 17.39 16.91 17.37 16.81C17.18 16.16 20.1 15.89 19.86 14.95C19.82 14.79 19.7 14.72 19.53 14.72C18.82 14.72 17.21 15.98 16.88 15.98C16.85 15.98 16.83 15.97 16.82 15.96C16.66 15.68 16.75 15.49 17.93 14.77C19.12 14.06 19.96 13.62 19.48 13.11C19.43 13.05 19.35 13.02 19.26 13.02C18.53 13.02 16.83 14.57 16.83 14.57C16.83 14.57 16.37 15.05 16.09 15.05C16.03 15.05 15.97 15.02 15.94 14.96C15.74 14.63 17.77 13.1 17.88 12.46C17.96 12.03 17.83 11.81 17.59 11.81Z" fill="#FF9D0B" fill-opacity="1.000000" fill-rule="nonzero"/>
		<path id="path" d="M12.8 17.42C12.17 16.51 12.22 15.82 13.08 14.96C13.93 14.1 14.43 12.85 14.43 12.85C14.43 12.85 14.62 12.12 15.04 12.19C15.47 12.26 15.78 13.34 14.89 14.01C14 14.67 15.07 15.13 15.41 14.5C15.75 13.88 16.69 12.27 17.17 11.96C17.66 11.65 18 11.82 17.88 12.46C17.77 13.1 15.74 14.63 15.94 14.96C16.14 15.3 16.83 14.57 16.83 14.57C16.83 14.57 19.01 12.59 19.48 13.11C19.95 13.62 19.12 14.06 17.94 14.77C16.75 15.49 16.66 15.68 16.82 15.96C16.99 16.23 19.61 14.02 19.86 14.96C20.1 15.89 17.19 16.16 17.37 16.81C17.55 17.46 19.42 15.59 19.81 16.31C20.19 17.04 17.16 17.9 17.13 17.91C16.15 18.16 13.67 18.7 12.8 17.42Z" fill="#FFD21E" fill-opacity="1.000000" fill-rule="nonzero"/>
	</g>
</svg>
