<svg width="28.000000" height="28.000000" viewBox="0 0 28 28" fill="none" xmlns="http://www.w3.org/2000/svg" xmlns:xlink="http://www.w3.org/1999/xlink">
    <desc>
        Created with Pixso.
    </desc>
    <defs>
        <clipPath id="clip9188_174081">
            <rect id="文生图" rx="14.000000" width="28.000000" height="28.000000" fill="white" fill-opacity="0"/>
        </clipPath>
    </defs>
    <rect id="文生图" rx="14.000000" width="28.000000" height="28.000000" fill="#4A93FF" fill-opacity="1.000000"/>
    <g clip-path="url(#clip9188_174081)">
        <path id="合并" d="M6.57617 8.12402L6.57617 8.12402C6.72656 8.0415 6.90039 8 7.09766 8L17.5996 8C18.0312 8 18.3574 8.10791 18.5801 8.32324C18.6113 8.35352 18.6406 8.38623 18.668 8.4209C18.8887 8.70166 19 9.06641 19 9.51514L19 19.8403C19 20.127 18.8809 20.3921 18.6406 20.6353C18.4004 20.8784 18.1035 21 17.752 21L7.17383 21C7.08789 21 7.00586 20.9902 6.92578 20.9702C6.92383 20.9697 6.92188 20.9692 6.91992 20.9688C6.7168 20.9175 6.5293 20.8032 6.35938 20.626C6.22852 20.4893 6.13281 20.3394 6.07422 20.1763C6.02539 20.042 6 19.8989 6 19.7466L6 9.23438C6 8.96338 6.05664 8.729 6.16992 8.53125C6.17969 8.51318 6.19141 8.49561 6.20312 8.47852C6.23242 8.43213 6.26562 8.38818 6.30273 8.34619C6.38477 8.25342 6.47461 8.1792 6.57617 8.12402ZM17.7422 9.62646C17.709 9.5498 17.666 9.47852 17.6094 9.41211C17.5996 9.40137 17.5898 9.39111 17.5801 9.38086L17.5801 9.38086C17.4473 9.24609 17.2461 9.17822 16.9746 9.17822L7.94922 9.17822C7.89844 9.17822 7.83008 9.18799 7.74023 9.20654C7.65234 9.2251 7.56445 9.25635 7.47656 9.2998C7.43164 9.32178 7.39062 9.34766 7.35352 9.37695C7.34961 9.37939 7.34766 9.38184 7.34375 9.38428C7.31055 9.41211 7.27734 9.44336 7.24805 9.47754C7.23438 9.49414 7.22266 9.51123 7.21289 9.52979C7.17383 9.59424 7.1543 9.6709 7.1543 9.7583L7.1543 14.771C7.25586 14.8833 7.39648 15.0176 7.58008 15.1733C7.76367 15.3291 7.97656 15.4727 8.22266 15.6035C8.46875 15.7344 8.74414 15.8467 9.04688 15.9404C9.34961 16.0337 9.67773 16.0806 10.0312 16.0806C10.5605 16.0806 11.0234 15.9966 11.4219 15.8281C11.8184 15.6597 12.1875 15.4478 12.5293 15.1919C12.8691 14.9365 13.2031 14.6621 13.5312 14.3691C13.8594 14.0762 14.2227 13.7983 14.6191 13.5366C15.0176 13.2749 15.4707 13.0537 15.9824 12.8726C16.4922 12.6919 17.1016 12.5889 17.8086 12.564L17.8086 9.96387C17.8086 9.84473 17.7871 9.73438 17.7441 9.63281C17.7441 9.63086 17.7422 9.62842 17.7422 9.62646ZM10.0488 10.2427C9.9082 10.1943 9.75586 10.1699 9.5957 10.1699C9.375 10.1699 9.17578 10.2119 8.99609 10.2969C8.98633 10.3008 8.97852 10.3052 8.96875 10.3096C8.85742 10.3657 8.75195 10.439 8.65625 10.5293C8.64062 10.543 8.625 10.5571 8.61133 10.5718C8.49023 10.6943 8.39648 10.8291 8.33203 10.9761C8.25391 11.1509 8.21484 11.3438 8.21484 11.5542C8.21484 11.7363 8.24609 11.9058 8.30859 12.063C8.3125 12.0732 8.31641 12.0835 8.32031 12.0938C8.38672 12.2471 8.48438 12.3882 8.61133 12.5171C8.625 12.5317 8.64062 12.5464 8.65625 12.5601C8.75977 12.6572 8.87305 12.7349 8.99609 12.7925C9.17578 12.877 9.375 12.9194 9.5957 12.9194C9.60742 12.9194 9.61914 12.9194 9.62891 12.9189C9.80078 12.9155 9.96094 12.8838 10.1094 12.8242C10.2773 12.7573 10.4297 12.6548 10.5703 12.5171C10.5879 12.4995 10.6055 12.4814 10.623 12.4629C10.7402 12.335 10.8281 12.1953 10.8887 12.0439C10.8945 12.0249 10.9023 12.0059 10.9082 11.9863C10.9531 11.8511 10.9766 11.707 10.9766 11.5542C10.9766 11.3521 10.9395 11.166 10.8652 10.9961C10.7969 10.8413 10.6992 10.6997 10.5703 10.5718C10.4297 10.4346 10.2773 10.332 10.1094 10.2651C10.0898 10.2573 10.0703 10.2495 10.0488 10.2427Z" clip-rule="evenodd" fill="#FFFFFF" fill-opacity="1.000000" fill-rule="evenodd"/>
        <path id="path" d="M11 7.21L17.78 7.21C18.51 7.21 19.03 7.35 19.33 7.65C19.64 7.94 19.79 8.44 19.79 9.15L19.79 10.74L20.55 10.74C20.68 10.74 20.79 10.79 20.88 10.89C20.98 10.99 21.03 11.11 21.03 11.25C21.03 11.4 20.98 11.53 20.88 11.63C20.79 11.73 20.68 11.78 20.55 11.78L19.79 11.78L19.79 13.13L20.55 13.13C20.68 13.13 20.79 13.18 20.88 13.29C20.98 13.4 21.03 13.52 21.03 13.66C21.03 13.8 20.98 13.92 20.88 14.02C20.79 14.12 20.68 14.17 20.55 14.17L19.79 14.17L19.79 15.65L20.55 15.65C20.68 15.65 20.79 15.71 20.88 15.81C20.98 15.91 21.03 16.03 21.03 16.17C21.03 16.32 20.98 16.45 20.88 16.55C20.79 16.65 20.68 16.7 20.55 16.7L19.79 16.7L19.79 19L21.01 19C21.28 19 21.51 18.89 21.7 18.69C21.9 18.49 22 18.24 22 17.95L22 7.74C22 7.29 21.84 6.88 21.55 6.53C21.25 6.17 20.85 6 20.36 6L11.98 6C11.71 6 11.48 6.1 11.29 6.3C11.09 6.5 11 6.75 11 7.04L11 7.21Z" fill="#FFFFFF" fill-opacity="0.800000" fill-rule="nonzero"/>
    </g>
</svg>
