<svg width="28.000000" height="28.000000" viewBox="0 0 28 28" fill="none" xmlns="http://www.w3.org/2000/svg" xmlns:xlink="http://www.w3.org/1999/xlink">
	<desc>
			Created with Pixso.
	</desc>
	<defs>
		<clipPath id="clip9922_204661">
			<rect id="循环节点" rx="14.000000" width="28.000000" height="28.000000" fill="white" fill-opacity="0"/>
		</clipPath>
		<linearGradient x1="21.984863" y1="9.998438" x2="6.005860" y2="9.998438" id="paint_linear_9922_204662_0" gradientUnits="userSpaceOnUse">
			<stop stop-color="#FFFFFF"/>
			<stop offset="1.000000" stop-color="#FFFFFF" stop-opacity="0.400000"/>
		</linearGradient>
		<linearGradient x1="21.979004" y1="17.993740" x2="6.000003" y2="17.993740" id="paint_linear_9922_204663_0" gradientUnits="userSpaceOnUse">
			<stop stop-color="#FFFFFF" stop-opacity="0.400000"/>
			<stop offset="1.000000" stop-color="#FFFFFF"/>
		</linearGradient>
	</defs>
	<rect id="循环节点" rx="14.000000" width="28.000000" height="28.000000" fill="#4A93FF" fill-opacity="1.000000"/>
	<g clip-path="url(#clip9922_204661)">
		<path id="path" d="M7 13.99C7.06 13.99 7.13 13.98 7.19 13.97C7.26 13.95 7.32 13.93 7.38 13.91C7.44 13.88 7.5 13.85 7.55 13.82C7.61 13.78 7.66 13.74 7.7 13.69C7.75 13.65 7.79 13.6 7.83 13.54C7.87 13.49 7.9 13.43 7.92 13.37C7.95 13.31 7.97 13.25 7.98 13.18C7.99 13.12 8 13.05 8 12.99L8 11.99C8 11.92 8 11.86 8.02 11.79C8.03 11.73 8.05 11.67 8.07 11.61C8.1 11.55 8.13 11.49 8.17 11.43C8.2 11.38 8.24 11.33 8.29 11.28C8.34 11.24 8.39 11.2 8.44 11.16C8.5 11.12 8.55 11.09 8.61 11.07C8.67 11.04 8.74 11.02 8.8 11.01C8.87 11 8.93 10.99 9 10.99L18.57 10.99L17.27 12.28C17.23 12.33 17.18 12.38 17.15 12.43C17.11 12.48 17.08 12.54 17.05 12.6C17.03 12.66 17.01 12.73 17 12.79C16.98 12.86 16.98 12.92 16.98 12.99C16.98 13.05 16.98 13.12 17 13.18C17.01 13.25 17.03 13.31 17.05 13.37C17.08 13.43 17.11 13.49 17.15 13.54C17.18 13.6 17.23 13.65 17.27 13.7C17.32 13.74 17.37 13.78 17.42 13.82C17.48 13.86 17.54 13.89 17.6 13.91C17.66 13.94 17.72 13.96 17.79 13.97C17.85 13.99 17.91 13.99 17.98 13.99C18.05 13.99 18.11 13.99 18.18 13.97C18.24 13.96 18.3 13.94 18.37 13.91C18.43 13.89 18.48 13.86 18.54 13.82C18.59 13.78 18.64 13.74 18.69 13.7L21.68 10.7C21.73 10.65 21.77 10.6 21.81 10.55C21.85 10.49 21.88 10.44 21.9 10.38C21.93 10.32 21.95 10.25 21.96 10.19C21.97 10.12 21.98 10.06 21.98 9.99C21.98 9.93 21.97 9.86 21.96 9.8C21.95 9.73 21.93 9.67 21.9 9.61C21.88 9.55 21.85 9.49 21.81 9.44C21.77 9.38 21.73 9.33 21.68 9.28L18.69 6.29C18.64 6.24 18.59 6.2 18.54 6.16C18.48 6.13 18.43 6.1 18.36 6.07C18.3 6.05 18.24 6.03 18.18 6.01C18.11 6 18.05 6 17.98 6C17.91 6 17.85 6 17.79 6.01C17.72 6.03 17.66 6.05 17.6 6.07C17.54 6.1 17.48 6.13 17.42 6.16C17.37 6.2 17.32 6.24 17.27 6.29C17.23 6.34 17.18 6.39 17.15 6.44C17.11 6.5 17.08 6.55 17.06 6.61C17.03 6.67 17.01 6.74 17 6.8C16.99 6.87 16.98 6.93 16.98 7C16.98 7.06 16.99 7.13 17 7.19C17.01 7.26 17.03 7.32 17.05 7.38C17.08 7.44 17.11 7.5 17.15 7.55C17.18 7.61 17.23 7.66 17.27 7.71L18.57 8.99L9 8.99C8.9 8.99 8.8 9 8.7 9.01C8.6 9.02 8.51 9.03 8.41 9.05C8.32 9.07 8.22 9.09 8.13 9.12C8.03 9.15 7.94 9.18 7.85 9.22C7.76 9.26 7.67 9.3 7.58 9.35C7.5 9.39 7.41 9.44 7.33 9.5C7.25 9.55 7.17 9.61 7.1 9.67C7.02 9.74 6.95 9.8 6.88 9.87C6.81 9.94 6.74 10.01 6.68 10.09C6.62 10.16 6.56 10.24 6.51 10.33C6.45 10.41 6.4 10.49 6.35 10.58C6.31 10.66 6.27 10.75 6.23 10.84C6.19 10.93 6.16 11.03 6.13 11.12C6.1 11.21 6.08 11.31 6.06 11.4C6.04 11.5 6.03 11.6 6.02 11.7C6.01 11.79 6 11.89 6 11.99L6 12.99C6 13.05 6.01 13.12 6.02 13.18C6.03 13.25 6.05 13.31 6.08 13.37C6.1 13.43 6.13 13.49 6.17 13.54C6.21 13.6 6.25 13.65 6.29 13.69C6.34 13.74 6.39 13.78 6.44 13.82C6.5 13.85 6.56 13.88 6.62 13.91C6.68 13.93 6.74 13.95 6.8 13.97C6.87 13.98 6.93 13.99 7 13.99Z" fill="url(#paint_linear_9922_204662_0)" fill-opacity="1.000000" fill-rule="nonzero"/>
		<path id="path" d="M20.98 13.98C20.91 13.98 20.85 13.99 20.78 14C20.72 14.02 20.65 14.04 20.59 14.06C20.53 14.09 20.48 14.12 20.42 14.15C20.37 14.19 20.32 14.23 20.27 14.28C20.22 14.32 20.18 14.37 20.15 14.43C20.11 14.48 20.08 14.54 20.05 14.6C20.03 14.66 20.01 14.72 20 14.79C19.98 14.85 19.98 14.92 19.98 14.98L19.98 15.98C19.98 16.05 19.97 16.11 19.96 16.18C19.95 16.24 19.93 16.3 19.9 16.36C19.88 16.42 19.85 16.48 19.81 16.54C19.77 16.59 19.73 16.64 19.69 16.69C19.64 16.73 19.59 16.77 19.53 16.81C19.48 16.85 19.42 16.88 19.36 16.9C19.3 16.93 19.24 16.95 19.17 16.96C19.11 16.97 19.04 16.98 18.98 16.98L9.41 16.98L10.7 15.7C10.75 15.65 10.79 15.6 10.83 15.55C10.86 15.5 10.89 15.44 10.92 15.38C10.94 15.32 10.96 15.26 10.97 15.19C10.99 15.13 10.99 15.06 10.99 15C10.99 14.93 10.99 14.87 10.97 14.8C10.96 14.74 10.94 14.68 10.92 14.62C10.89 14.56 10.86 14.5 10.83 14.44C10.79 14.39 10.75 14.34 10.7 14.29C10.66 14.25 10.61 14.21 10.55 14.17C10.5 14.13 10.44 14.1 10.38 14.08C10.32 14.05 10.25 14.03 10.19 14.02C10.12 14 10.06 14 9.99 14C9.93 14 9.86 14 9.8 14.02C9.73 14.03 9.67 14.05 9.61 14.08C9.55 14.1 9.49 14.13 9.44 14.17C9.38 14.21 9.33 14.25 9.29 14.29L6.29 17.29C6.24 17.34 6.2 17.39 6.16 17.44C6.13 17.49 6.1 17.55 6.07 17.61C6.05 17.67 6.03 17.74 6.01 17.8C6 17.87 6 17.93 6 18C6 18.06 6 18.13 6.01 18.19C6.03 18.26 6.05 18.32 6.07 18.38C6.1 18.44 6.13 18.5 6.16 18.55C6.2 18.61 6.24 18.66 6.29 18.71L9.29 21.7C9.33 21.75 9.38 21.79 9.44 21.83C9.49 21.86 9.55 21.89 9.61 21.92C9.67 21.94 9.74 21.96 9.8 21.97C9.87 21.99 9.93 21.99 10 21.99C10.06 21.99 10.13 21.99 10.19 21.97C10.26 21.96 10.32 21.94 10.38 21.92C10.44 21.89 10.5 21.86 10.56 21.82C10.61 21.78 10.66 21.74 10.71 21.7C10.75 21.65 10.8 21.6 10.83 21.54C10.87 21.49 10.9 21.43 10.92 21.37C10.95 21.31 10.97 21.25 10.98 21.18C10.99 21.12 11 21.05 11 20.98C11 20.92 10.99 20.85 10.98 20.79C10.97 20.72 10.95 20.66 10.92 20.6C10.9 20.54 10.87 20.48 10.83 20.43C10.79 20.37 10.75 20.32 10.7 20.27L9.41 18.98L18.98 18.98C19.08 18.98 19.17 18.97 19.27 18.96C19.37 18.95 19.47 18.94 19.56 18.92C19.66 18.9 19.75 18.88 19.85 18.85C19.94 18.82 20.04 18.79 20.12 18.75C20.22 18.71 20.3 18.67 20.39 18.62C20.48 18.58 20.56 18.53 20.64 18.47C20.72 18.42 20.8 18.36 20.88 18.3C20.96 18.23 21.03 18.17 21.1 18.1C21.17 18.03 21.23 17.96 21.29 17.88C21.36 17.8 21.41 17.73 21.47 17.64C21.52 17.56 21.57 17.48 21.62 17.39C21.67 17.31 21.71 17.22 21.75 17.13C21.78 17.04 21.82 16.94 21.85 16.85C21.87 16.76 21.9 16.66 21.92 16.57C21.94 16.47 21.95 16.37 21.96 16.27C21.97 16.18 21.97 16.08 21.97 15.98L21.97 14.98C21.97 14.92 21.97 14.85 21.96 14.79C21.94 14.72 21.92 14.66 21.9 14.6C21.87 14.54 21.84 14.48 21.81 14.43C21.77 14.37 21.73 14.32 21.68 14.28C21.64 14.23 21.58 14.19 21.53 14.15C21.48 14.12 21.42 14.09 21.36 14.06C21.3 14.04 21.24 14.02 21.17 14C21.11 13.99 21.04 13.98 20.98 13.98Z" fill="url(#paint_linear_9922_204663_0)" fill-opacity="1.000000" fill-rule="nonzero"/>
	</g>
</svg>
