<svg width="24.000000" height="24.000000" viewBox="0 0 24 24" fill="none" xmlns="http://www.w3.org/2000/svg" xmlns:xlink="http://www.w3.org/1999/xlink">
    <desc>
        Created with Pixso.
    </desc>
    <defs>
        <clipPath id="clip7088_81556">
            <rect id="问题优化" rx="12.000000" width="24.000000" height="24.000000" fill="white" fill-opacity="0"/>
        </clipPath>
    </defs>
    <rect id="问题优化" rx="12.000000" width="24.000000" height="24.000000" fill="#39C295" fill-opacity="1.000000"/>
    <g clip-path="url(#clip7088_81556)">
        <path id="path" d="M17.26 8.56C16.91 7.67 16.3 6.89 15.54 6.31C15.12 6 14.68 5.75 14.2 5.56C13.93 5.45 13.65 5.37 13.37 5.3C13.09 5.23 12.81 5.19 12.52 5.16C12.23 5.14 11.95 5.13 11.66 5.15C11.37 5.16 11.08 5.2 10.8 5.26C10.44 5.33 10.09 5.43 9.75 5.57C9.41 5.71 9.09 5.88 8.78 6.08C7.99 6.59 7.33 7.31 6.91 8.16C6.74 8.5 6.61 8.85 6.53 9.22C6.44 9.59 6.4 9.96 6.4 10.34C6.39 10.58 6.4 10.82 6.43 11.06C6.47 11.3 6.52 11.53 6.59 11.76C6.66 11.99 6.75 12.22 6.85 12.43C6.96 12.65 7.08 12.86 7.22 13.05C7.31 13.17 7.39 13.28 7.49 13.38C7.87 13.76 8.3 14.09 8.66 14.49C8.99 14.84 9.26 15.23 9.47 15.66C9.62 15.97 9.72 16.28 9.79 16.61C9.81 16.67 9.81 16.73 9.85 16.78C9.87 16.82 9.9 16.84 9.93 16.86C9.97 16.88 10 16.89 10.04 16.89L13.95 16.89C13.98 16.89 14.01 16.89 14.03 16.88C14.06 16.87 14.08 16.85 14.1 16.83C14.12 16.82 14.14 16.79 14.16 16.77C14.17 16.75 14.18 16.72 14.18 16.69C14.24 16.44 14.31 16.19 14.41 15.95C14.5 15.71 14.62 15.48 14.75 15.25C14.88 15.03 15.03 14.82 15.2 14.62C15.36 14.42 15.54 14.24 15.74 14.07C15.95 13.89 16.16 13.71 16.36 13.52C16.72 13.18 17.01 12.79 17.21 12.34C17.5 11.72 17.59 11.03 17.59 10.35L17.59 10.31C17.59 9.71 17.48 9.12 17.26 8.56ZM11.09 14.4L11.09 12.74C11.61 12.74 12.13 12.74 12.65 12.74L12.65 14.4C12.13 14.41 11.61 14.4 11.09 14.4ZM13.82 10.56C13.66 10.8 13.44 10.98 13.2 11.13C12.99 11.26 12.8 11.41 12.67 11.62C12.63 11.69 12.6 11.77 12.58 11.85C12.56 11.94 12.55 12.02 12.56 12.11L11.18 12.11C11.16 11.73 11.2 11.34 11.38 11C11.45 10.88 11.53 10.78 11.63 10.68C11.73 10.59 11.84 10.51 11.96 10.45C12.12 10.37 12.28 10.27 12.37 10.12C12.46 9.98 12.46 9.8 12.4 9.65C12.38 9.59 12.34 9.55 12.3 9.51C12.25 9.47 12.2 9.44 12.14 9.42C11.99 9.37 11.83 9.36 11.69 9.42C11.58 9.48 11.51 9.58 11.47 9.69C11.43 9.82 11.41 9.94 11.41 10.07C10.89 10.08 10.37 10.07 9.85 10.07C9.87 9.79 9.94 9.51 10.04 9.25C10.13 9.05 10.25 8.87 10.4 8.71C10.57 8.54 10.77 8.41 11 8.32C11.31 8.18 11.66 8.13 12 8.11C12.33 8.12 12.66 8.17 12.97 8.28C13.28 8.39 13.58 8.59 13.76 8.87C13.93 9.14 14.01 9.46 14.03 9.77C14.04 9.91 14.03 10.05 13.99 10.18C13.95 10.32 13.9 10.44 13.82 10.56Z" fill="#FFFFFF" fill-opacity="1.000000" fill-rule="nonzero"/>
        <rect id="矩形 406" x="9.856934" y="17.571411" rx="0.500000" width="4.285714" height="1.285714" fill="#FFFFFF" fill-opacity="1.000000"/>
    </g>
</svg>
