<svg width="16.000000" height="16.000000" viewBox="0 0 16 16" fill="none" xmlns="http://www.w3.org/2000/svg" xmlns:xlink="http://www.w3.org/1999/xlink">
    <desc>
        Created with Pixso.
    </desc>
    <defs/>
    <rect id="B" width="16.000000" height="16.000000" fill="#FFFFFF" fill-opacity="0"/>
    <path id="B" d="M9.77 7.74C11.05 8.11 11.68 8.93 11.68 10.22C11.68 11.14 11.37 11.85 10.75 12.36C10.12 12.86 9.2 13.12 7.98 13.12L4.31 13.12L4.31 2.87L7.54 2.87C8.26 2.87 8.88 2.98 9.41 3.21C9.95 3.43 10.36 3.75 10.65 4.17C10.94 4.59 11.08 5.08 11.08 5.64C11.08 6.62 10.65 7.32 9.77 7.74ZM5.55 3.98L5.55 7.34L7.33 7.34C8.1 7.34 8.7 7.19 9.13 6.89C9.55 6.59 9.77 6.17 9.77 5.64C9.77 5.13 9.55 4.72 9.12 4.42C8.69 4.12 8.1 3.98 7.33 3.98L5.55 3.98ZM7.75 12.03C8.63 12.03 9.28 11.87 9.72 11.55C10.15 11.23 10.37 10.79 10.37 10.22C10.37 9.64 10.15 9.19 9.72 8.86C9.28 8.54 8.63 8.37 7.75 8.37L5.55 8.37L5.55 12.03L7.75 12.03Z" fill="#4D4D4D" fill-opacity="1.000000" fill-rule="nonzero"/>
</svg>
