<svg width="28.000000" height="28.000000" viewBox="0 0 28 28" fill="none" xmlns="http://www.w3.org/2000/svg" xmlns:xlink="http://www.w3.org/1999/xlink">
    <desc>
        Created with Pixso.
    </desc>
    <defs>
        <clipPath id="clip9225_179950">
            <rect id="转移 (5)" rx="14.000000" width="28.000000" height="28.000000" fill="white" fill-opacity="0"/>
        </clipPath>
    </defs>
    <rect id="转移 (5)" rx="14.000000" width="28.000000" height="28.000000" fill="#39C295" fill-opacity="1.000000"/>
    <g clip-path="url(#clip9225_179950)">
        <path id="path" d="M9.94 5L5 10.81L8.2 10.79C8.06 18.48 13.76 19.63 17.67 16.05L17.83 15.89C17.84 15.88 17.84 15.88 17.85 15.88C17.85 15.87 17.86 15.87 17.86 15.86C17.87 15.86 17.88 15.85 17.88 15.84C17.89 15.83 17.9 15.82 17.91 15.8C17.91 15.8 17.91 15.8 17.92 15.79C17.94 15.76 17.97 15.72 17.98 15.67C17.99 15.66 17.99 15.65 18 15.64C17.96 15.67 17.92 15.68 17.88 15.7C17.88 15.7 17.87 15.7 17.87 15.7C17.86 15.71 17.85 15.72 17.84 15.72C17.84 15.72 17.84 15.72 17.83 15.72L17.83 15.73L17.67 15.82C15.04 17.22 11.53 17.05 11.64 10.78L14.91 10.76L9.94 5Z" fill="#FFFFFF" fill-opacity="1.000000" fill-rule="nonzero"/>
        <path id="path" d="M23.14 10.73C23.14 10.16 22.68 9.7 22.11 9.7L17.49 9.7C16.92 9.7 16.46 10.16 16.46 10.73L16.46 12.5L12.25 12.5C12.25 12.5 12.24 12.5 12.23 12.5C12.22 12.5 12.22 12.5 12.22 12.5C12.22 12.5 12.22 12.5 12.22 12.5C12.21 12.5 12.21 12.5 12.21 12.5C12.21 12.5 12.21 12.5 12.21 12.5C12.2 12.5 12.18 12.5 12.17 12.5C12.17 12.5 12.17 12.5 12.16 12.5C12.16 12.5 12.15 12.5 12.15 12.5L12.15 12.5L10.27 12.5C9.7 12.5 9.24 12.96 9.24 13.53L9.24 14.95L7.15 14.95C6.58 14.95 6.29 15.41 6.5 15.97L8.18 20.59C8.38 21.16 9.01 21.62 9.58 21.62L22.42 21.62C22.92 21.62 23.21 21.26 23.12 20.78C23.13 20.72 23.14 20.66 23.14 20.59L23.14 10.73ZM21.85 17.25L21.39 15.97C21.18 15.41 20.55 14.95 19.99 14.95L10.53 14.95L10.53 14.3C10.53 14.01 10.75 13.78 11.04 13.78L17.74 13.78L17.74 11.5C17.74 11.22 17.97 10.99 18.26 10.99L21.34 10.99C21.62 10.99 21.85 11.22 21.85 11.5L21.85 17.25Z" fill="#FFFFFF" fill-opacity="0.800000" fill-rule="nonzero"/>
    </g>
</svg>
