<svg width="13.000000" height="14.000000" viewBox="0 0 13 14" fill="none" xmlns="http://www.w3.org/2000/svg" xmlns:xlink="http://www.w3.org/1999/xlink">
    <desc>
        Created with Pixso.
    </desc>
    <defs/>
    <path id="ICON" d="M6.5332 0C6.8457 0 7.15625 0.0214844 7.46484 0.0654297C7.9834 0.138184 8.39746 0.529785 8.5 1.04199L8.5 1.16309C8.55664 1.60986 8.81836 2.00537 9.20801 2.23242C9.55176 2.43262 9.96387 2.47998 10.3447 2.36279L10.4844 2.30713C11.0146 2.09131 11.624 2.25488 11.9746 2.70703C12.3545 3.20361 12.668 3.74805 12.9062 4.32568C13.1025 4.81396 12.9844 5.37158 12.6084 5.73975L12.5059 5.82324C12.1689 6.08398 11.9619 6.479 11.9404 6.90479C11.9189 7.33008 12.085 7.74365 12.3945 8.03711L12.5059 8.13037C12.958 8.48535 13.1211 9.09521 12.9062 9.62793C12.668 10.2056 12.3545 10.7495 11.9746 11.2466C11.6514 11.6597 11.1084 11.833 10.6055 11.6836L10.4844 11.6836C10.0703 11.5073 9.59766 11.5347 9.20801 11.7583C8.85938 11.9575 8.61133 12.2959 8.52734 12.6885L8.52734 12.8369C8.46191 13.4004 8.02734 13.8501 7.46484 13.9346C7.15625 13.9785 6.8457 14.0005 6.5332 14C6.22168 14 5.91016 13.978 5.60156 13.9346C5.09961 13.8633 4.69141 13.4956 4.56738 13.0044L4.56738 12.8838C4.53125 12.3955 4.25098 11.958 3.82227 11.7207C3.47852 11.521 3.06641 11.4736 2.68555 11.5908L2.5459 11.6465C2.00781 11.8765 1.38184 11.7119 1.02734 11.2466C0.649414 10.7485 0.335938 10.2046 0.0957031 9.62793C-0.100586 9.13965 0.0175781 8.58203 0.393555 8.21387L0.496094 8.13037C0.833008 7.86963 1.04004 7.47461 1.06152 7.04883C1.08301 6.62354 0.916992 6.20947 0.607422 5.9165L0.496094 5.82324C0.0410156 5.47021 -0.12207 4.85791 0.0957031 4.32568C0.333984 3.74805 0.647461 3.20361 1.02734 2.70703C1.34863 2.29199 1.89355 2.11768 2.39648 2.27002L2.51758 2.27002C2.93359 2.4668 3.41895 2.45312 3.82227 2.23242C4.16797 2.0293 4.41406 1.69287 4.50195 1.30225L4.50195 1.15381C4.57129 0.59375 5.00586 0.148926 5.56445 0.0654297C5.88574 0.0200195 6.20898 -0.00146484 6.5332 0ZM5.69434 0.986328C5.97266 0.949219 6.25293 0.930664 6.5332 0.930664C6.81055 0.931152 7.08691 0.949707 7.3623 0.986328C7.50684 1.01318 7.61133 1.1377 7.61426 1.28418C7.71289 2.01709 8.14648 2.6626 8.78809 3.03271C9.42871 3.40674 10.209 3.4585 10.8936 3.17236C11.0293 3.1167 11.1855 3.15869 11.2754 3.2749C11.6104 3.69434 11.8867 4.15723 12.0957 4.65137C12.1865 4.80957 12.1426 5.01123 11.9932 5.1167C11.4053 5.56738 11.0605 6.26514 11.0605 7.00488C11.0605 7.74463 11.4053 8.44238 11.9932 8.89355C12.1143 8.99219 12.1553 9.15869 12.0957 9.30273C11.8848 9.77686 11.6123 10.2207 11.2852 10.6235C11.1953 10.7397 11.0391 10.7817 10.9023 10.7261C10.2178 10.4399 9.43848 10.4917 8.79688 10.8652C8.15625 11.2358 7.72266 11.8813 7.62305 12.6143C7.62109 12.7607 7.51562 12.8853 7.37109 12.9121C6.81543 12.9863 6.25098 12.9863 5.69434 12.9121C5.5498 12.8828 5.44336 12.7607 5.43359 12.6143C5.33203 11.8853 4.89648 11.2451 4.25684 10.8809C3.61621 10.5166 2.84277 10.4697 2.16309 10.7539C2.02441 10.811 1.86426 10.769 1.77148 10.6514C1.44434 10.2202 1.1748 9.74805 0.970703 9.24658C0.907227 9.10303 0.949219 8.93457 1.07324 8.8374C1.66016 8.38672 2.00488 7.68896 2.00488 6.94922C2.00488 6.20947 1.66016 5.51172 1.07324 5.06104C0.949219 4.96387 0.907227 4.79541 0.970703 4.65137C1.1748 4.15039 1.44434 3.67822 1.77148 3.24707C1.86426 3.12939 2.02441 3.0874 2.16309 3.14453C2.84277 3.42871 3.61621 3.38184 4.25684 3.01758C4.89648 2.65332 5.33203 2.0127 5.43359 1.28418C5.44336 1.1377 5.5498 1.01562 5.69434 0.986328ZM6.5332 4.50488C7.53711 4.50146 8.44336 5.10156 8.83008 6.02588C9.2168 6.9502 9.00684 8.01611 8.29883 8.72559C7.59082 9.43555 6.52344 9.64893 5.59668 9.26611C4.66895 8.88379 4.06445 7.98096 4.06445 6.97949C4.0625 6.32422 4.32129 5.69482 4.78418 5.23047C5.24805 4.76611 5.87695 4.50488 6.5332 4.50488ZM5.0918 6.37256C5.33691 5.79639 5.90723 5.4248 6.53418 5.43262C6.94238 5.43506 7.33203 5.59912 7.61816 5.88867C7.90527 6.17822 8.06445 6.56934 8.0625 6.97656C8.0625 7.60303 7.68359 8.16699 7.10352 8.40479C6.52246 8.64258 5.85645 8.50732 5.41504 8.06152C4.97461 7.61621 4.84668 6.94922 5.0918 6.37256Z" clip-rule="evenodd" fill="#4D4D4D" fill-opacity="1.000000" fill-rule="evenodd"/>
</svg>
