<svg width="16.000000" height="16.000000" viewBox="0 0 16 16" fill="none" xmlns="http://www.w3.org/2000/svg" xmlns:xlink="http://www.w3.org/1999/xlink">
	<desc>
			Created with Pixso.
	</desc>
	<defs>
		<linearGradient x1="4.159980" y1="3.253188" x2="12.086937" y2="11.723463" id="paint_linear_7969_100550_0" gradientUnits="userSpaceOnUse">
			<stop stop-color="#3388FF"/>
			<stop offset="1.000000" stop-color="#9C69F7"/>
		</linearGradient>
	</defs>
	<rect id="ICON/16/Number_add" width="16.000000" height="16.000000" fill="#FFFFFF" fill-opacity="0"/>
	<rect id="矩形备份 2" width="16.000000" height="16.000000" fill="#D8D8D8" fill-opacity="0"/>
	<rect id="矩形备份 2" x="0.500000" y="0.500000" width="15.000000" height="15.000000" stroke="#979797" stroke-opacity="0" stroke-width="1.000000"/>
	<path id="合并" d="M11.8564 3.73828L12.312 2.50781C12.3765 2.33398 12.623 2.33398 12.6875 2.50781L13.1431 3.73828C13.1636 3.79297 13.2065 3.83789 13.2612 3.85742L14.4932 4.3125C14.667 4.37695 14.667 4.62305 14.4932 4.6875L13.2612 5.14453C13.2065 5.16406 13.1636 5.20703 13.1431 5.26172L12.6875 6.49414C12.623 6.66797 12.3765 6.66797 12.312 6.49414L11.8564 5.26172C11.8364 5.20703 11.793 5.16406 11.7383 5.14453L10.5068 4.6875C10.3325 4.62305 10.3325 4.37695 10.5068 4.3125L11.7383 3.85742C11.793 3.83789 11.8364 3.79297 11.8564 3.73828ZM7.03076 3.26758L5.82373 6.5293C5.77344 6.66602 5.66553 6.77344 5.52832 6.82422L2.26709 8.03125C1.83154 8.19336 1.83154 8.80859 2.26709 8.96875L5.52832 10.1758C5.66553 10.2266 5.77344 10.3359 5.82373 10.4727L7.03076 13.7344C7.19189 14.168 7.80762 14.168 7.96875 13.7344L9.17578 10.4727C9.22656 10.3359 9.33447 10.2266 9.47119 10.1758L12.7329 8.96875C13.168 8.80859 13.168 8.19336 12.7329 8.03125L9.47119 6.82422C9.33447 6.77344 9.22656 6.66602 9.17578 6.5293L7.96875 3.26758C7.80762 2.83203 7.19189 2.83203 7.03076 3.26758Z" clip-rule="evenodd" fill="url(#paint_linear_7969_100550_0)" fill-opacity="1.000000" fill-rule="evenodd"/>
</svg>
