<svg width="16.000000" height="16.000000" viewBox="0 0 16 16" fill="none" xmlns="http://www.w3.org/2000/svg" xmlns:xlink="http://www.w3.org/1999/xlink">
    <desc>
        Created with Pixso.
    </desc>
    <defs/>
    <rect id="数字" width="16.000000" height="16.000000" fill="#FFFFFF" fill-opacity="0"/>
    <rect id="画板 3369" width="13.000000" height="5.000000" transform="translate(1.500000 10.500000)" fill="#FFFFFF" fill-opacity="0"/>
    <path id="直线 55" d="M6.5 13L14.5 13" stroke="#4D4D4D" stroke-opacity="1.000000" stroke-width="1.000000" stroke-linecap="round"/>
    <path id="3" d="M3.55 13.23Q3.43 13.06 3.19 12.97Q3.36 12.89 3.46 12.75Q3.47 12.73 3.49 12.71Q3.49 12.7 3.5 12.69Q3.59 12.54 3.59 12.32Q3.59 12.13 3.51 11.97Q3.5 11.93 3.47 11.9Q3.44 11.85 3.4 11.8Q3.3 11.69 3.15 11.61Q2.94 11.51 2.66 11.51Q2.37 11.51 2.14 11.64Q2.09 11.66 2.05 11.69Q1.98 11.73 1.93 11.79Q1.76 11.95 1.68 12.2L2.12 12.46Q2.19 12.25 2.32 12.14Q2.37 12.09 2.44 12.06Q2.52 12.03 2.62 12.03Q2.74 12.03 2.83 12.09Q2.86 12.1 2.87 12.12Q2.91 12.15 2.93 12.19Q2.98 12.27 2.98 12.37Q2.98 12.45 2.95 12.52Q2.91 12.59 2.85 12.64Q2.73 12.75 2.5 12.75L2.35 12.75L2.35 13.23L2.45 13.23Q2.89 13.23 3.02 13.43Q3.07 13.51 3.07 13.63Q3.07 13.76 3.01 13.85Q2.99 13.89 2.95 13.92Q2.92 13.95 2.88 13.97Q2.78 14.03 2.65 14.03Q2.55 14.03 2.46 14Q2.38 13.97 2.31 13.92Q2.3 13.91 2.29 13.9Q2.16 13.8 2.1 13.61L1.64 13.87Q1.72 14.09 1.87 14.25Q1.94 14.32 2.02 14.37Q2.05 14.39 2.08 14.41Q2.33 14.54 2.66 14.54Q2.94 14.54 3.18 14.44Q3.35 14.36 3.48 14.23Q3.52 14.19 3.55 14.15Q3.57 14.11 3.59 14.08Q3.69 13.91 3.69 13.68Q3.69 13.43 3.57 13.26Q3.57 13.25 3.56 13.24Q3.56 13.23 3.55 13.23Z" fill="#4D4D4D" fill-opacity="1.000000" fill-rule="evenodd"/>
    <rect id="画板 3369" width="13.000000" height="5.000000" transform="translate(1.500000 5.500000)" fill="#FFFFFF" fill-opacity="0"/>
    <path id="直线 55" d="M6.5 8L14.5 8" stroke="#4D4D4D" stroke-opacity="1.000000" stroke-width="1.000000" stroke-linecap="round"/>
    <path id="2" d="M3.71 8.99L2.54 8.99L3.04 8.43Q3.35 8.08 3.47 7.87Q3.53 7.76 3.56 7.66Q3.59 7.53 3.59 7.4Q3.59 7.15 3.49 6.96Q3.49 6.95 3.48 6.94Q3.44 6.86 3.38 6.79Q3.29 6.69 3.17 6.62Q2.96 6.51 2.68 6.51Q2.44 6.51 2.23 6.6Q2.14 6.64 2.05 6.7Q1.99 6.75 1.93 6.81Q1.76 6.98 1.68 7.25L2.13 7.51Q2.2 7.29 2.33 7.16Q2.41 7.09 2.5 7.06Q2.56 7.04 2.63 7.04Q2.74 7.04 2.83 7.1Q2.86 7.12 2.89 7.15Q2.9 7.16 2.92 7.18Q2.98 7.28 2.98 7.42Q2.98 7.45 2.98 7.48Q2.97 7.61 2.89 7.73Q2.8 7.87 2.58 8.13L1.69 9.12L1.69 9.5L3.71 9.5L3.71 8.99Z" fill="#4D4D4D" fill-opacity="1.000000" fill-rule="evenodd"/>
    <rect id="画板 3369" width="13.000000" height="5.000000" transform="translate(1.500000 0.500000)" fill="#FFFFFF" fill-opacity="0"/>
    <path id="直线 55" d="M6.5 3L14.5 3" stroke="#4D4D4D" stroke-opacity="1.000000" stroke-width="1.000000" stroke-linecap="round"/>
    <path id="1" d="M1.85 2.07L1.85 2.63L2.61 2.2L2.61 4.5L3.2 4.5L3.2 1.56L2.74 1.56L1.85 2.07Z" fill="#4D4D4D" fill-opacity="1.000000" fill-rule="evenodd"/>
</svg>