<svg width="13.886719" height="12.956543" viewBox="0 0 13.8867 12.9565" fill="none" xmlns="http://www.w3.org/2000/svg" xmlns:xlink="http://www.w3.org/1999/xlink">
    <desc>
        Created with Pixso.
    </desc>
    <defs/>
    <path id="path" d="M8.05 6.92C8.24 7.31 8.36 7.73 8.42 8.15C8.47 8.58 8.47 9 8.4 9.43C8.33 9.85 8.2 10.25 8 10.65C7.8 11.04 7.54 11.39 7.22 11.71C6.8 12.13 6.34 12.44 5.82 12.65C5.3 12.85 4.77 12.96 4.22 12.95C3.68 12.95 3.15 12.84 2.63 12.64C2.11 12.43 1.65 12.12 1.24 11.71C0.82 11.3 0.52 10.83 0.31 10.31C0.1 9.8 0 9.27 0 8.72C-0.01 8.18 0.09 7.65 0.3 7.13C0.5 6.61 0.82 6.14 1.24 5.72C1.56 5.4 1.92 5.14 2.32 4.94C2.71 4.75 3.12 4.61 3.54 4.55C3.97 4.48 4.39 4.47 4.82 4.54C5.25 4.6 5.66 4.72 6.06 4.9L10.54 0.43C10.66 0.3 10.81 0.2 10.98 0.12C11.15 0.05 11.32 0.01 11.5 0C11.68 -0.01 11.86 0.01 12.04 0.07C12.22 0.12 12.37 0.22 12.51 0.35C12.64 0.49 12.74 0.65 12.81 0.84C12.88 1.03 12.91 1.22 12.92 1.41C12.92 1.61 12.89 1.8 12.83 1.97C12.76 2.15 12.67 2.3 12.54 2.43L8.05 6.92ZM3.22 9.77C3.5 10.06 3.84 10.2 4.24 10.2C4.64 10.2 4.98 10.05 5.27 9.76C5.56 9.48 5.7 9.14 5.7 8.74C5.7 8.34 5.56 8 5.27 7.72C4.98 7.42 4.64 7.28 4.24 7.28C3.84 7.28 3.5 7.42 3.22 7.7C2.93 8 2.78 8.34 2.78 8.74C2.78 9.14 2.93 9.48 3.22 9.77ZM13.53 4.06C13.98 4.52 14 4.96 13.57 5.38L12.88 6.08C12.63 6.32 12.4 6.43 12.18 6.41C11.96 6.38 11.77 6.29 11.62 6.14L10.89 5.4L12.88 3.41L13.53 4.06Z" fill="#4D4D4D" fill-opacity="1.000000" fill-rule="nonzero"/>
</svg>
