<svg width="320.000000" height="90.000000" viewBox="0 0 320 90" fill="none" xmlns="http://www.w3.org/2000/svg" xmlns:xlink="http://www.w3.org/1999/xlink">
	<desc>
			Created with Pixso.
	</desc>
	<defs>
		<clipPath id="clip6996_75512">
			<rect id="empty-document.7bae9d05" width="64.000000" height="64.000000" transform="translate(128.000000 0.000000)" fill="white" fill-opacity="0"/>
		</clipPath>
		<linearGradient x1="180.918762" y1="64.000053" x2="163.333450" y2="40.888943" id="paint_linear_6996_75515_0" gradientUnits="userSpaceOnUse">
			<stop stop-color="#528BF3"/>
			<stop offset="1.000000" stop-color="#8F9FBC" stop-opacity="0.000000"/>
		</linearGradient>
		<linearGradient x1="179.764206" y1="57.128628" x2="162.491745" y2="42.463333" id="paint_linear_6996_75518_0" gradientUnits="userSpaceOnUse">
			<stop stop-color="#4D86FC"/>
			<stop offset="1.000000" stop-color="#9FBDFD" stop-opacity="0.047059"/>
			<stop offset="1.000000" stop-color="#9FBDFD" stop-opacity="0.047059"/>
		</linearGradient>
		<linearGradient x1="154.810928" y1="36.939064" x2="147.915527" y2="4.142953" id="paint_linear_6996_75519_0" gradientUnits="userSpaceOnUse">
			<stop stop-color="#9FBDFD" stop-opacity="0.047059"/>
			<stop offset="1.000000" stop-color="#4D86FC"/>
		</linearGradient>
		<radialGradient gradientTransform="translate(136.292 2.4872) rotate(0) scale(3.54042 3.54042)" cx="0.000000" cy="0.000000" r="1.000000" id="paint_radial_6996_75520_0" gradientUnits="userSpaceOnUse">
			<stop stop-color="#8DCEFF"/>
			<stop offset="0.795090" stop-color="#4A77F5"/>
			<stop offset="0.917641" stop-color="#568AFE"/>
			<stop offset="1.000000" stop-color="#4D86FC"/>
		</radialGradient>
		<radialGradient gradientTransform="translate(178.959 58.4872) rotate(0) scale(3.54042 3.54042)" cx="0.000000" cy="0.000000" r="1.000000" id="paint_radial_6996_75521_0" gradientUnits="userSpaceOnUse">
			<stop stop-color="#8DCEFF"/>
			<stop offset="0.795090" stop-color="#4A77F5"/>
			<stop offset="0.917641" stop-color="#568AFE"/>
			<stop offset="1.000000" stop-color="#4D86FC"/>
		</radialGradient>
		<linearGradient x1="175.061554" y1="3.114060" x2="164.666016" y2="12.390430" id="paint_linear_6996_75522_0" gradientUnits="userSpaceOnUse">
			<stop stop-color="#84BBFE"/>
			<stop offset="1.000000" stop-color="#3C76EF"/>
		</linearGradient>
		<linearGradient x1="169.992065" y1="14.016713" x2="179.743713" y2="14.960103" id="paint_linear_6996_75523_0" gradientUnits="userSpaceOnUse">
			<stop stop-color="#84A9F7"/>
			<stop offset="1.000000" stop-color="#4D86FC"/>
		</linearGradient>
		<linearGradient x1="150.153519" y1="45.412914" x2="163.059723" y2="32.506718" id="paint_linear_6996_75525_0" gradientUnits="userSpaceOnUse">
			<stop stop-color="#FFC9B2"/>
			<stop offset="1.000000" stop-color="#F16D74"/>
		</linearGradient>
		<linearGradient x1="154.236328" y1="51.765583" x2="166.571518" y2="40.655407" id="paint_linear_6996_75526_0" gradientUnits="userSpaceOnUse">
			<stop stop-color="#F16D74"/>
			<stop offset="1.000000" stop-color="#FFC9B2"/>
		</linearGradient>
		<linearGradient x1="169.205673" y1="28.350870" x2="160.063782" y2="37.492760" id="paint_linear_6996_75528_0" gradientUnits="userSpaceOnUse">
			<stop stop-color="#FFC9B2"/>
			<stop offset="1.000000" stop-color="#F16D74"/>
		</linearGradient>
		<linearGradient x1="163.614853" y1="22.760050" x2="154.472961" y2="31.901939" id="paint_linear_6996_75529_0" gradientUnits="userSpaceOnUse">
			<stop stop-color="#FFC9B2"/>
			<stop offset="1.000000" stop-color="#F16D74"/>
		</linearGradient>
	</defs>
	<rect id="画板 1490" width="320.000000" height="90.000000" fill="#FFFFFF" fill-opacity="0"/>
	<rect id="画板 1491" width="84.000000" height="18.000000" transform="translate(118.000000 72.000000)" fill="#FFFFFF" fill-opacity="0"/>
	<path id="请选择表单预览" d="M162.03 82.5C162.75 82.01 163.6 81.35 164.11 80.84L164.84 81.36C164.16 81.95 163.28 82.56 162.53 83.03C163.36 83.81 164.35 84.39 165.54 84.74C165.35 84.92 165.08 85.27 164.95 85.51C162.49 84.68 160.81 82.88 159.9 80.37C159.38 80.94 158.74 81.48 158.03 81.96L158.03 84.61L160.93 83.74C160.96 83.98 161.03 84.32 161.08 84.5C157.75 85.57 157.32 85.72 157.04 85.91C156.98 85.68 156.8 85.29 156.66 85.09C156.85 85 157.12 84.78 157.12 84.31L157.12 82.53C156.43 82.93 155.71 83.25 155.05 83.51C154.93 83.29 154.67 82.97 154.48 82.79C155.96 82.32 157.65 81.38 158.78 80.37L154.82 80.37L154.82 79.61L159.53 79.61L159.53 78.54L155.9 78.54L155.9 77.79L159.53 77.79L159.53 76.79L155.29 76.79L155.29 76.02L159.53 76.02L159.53 74.95L160.41 74.95L160.41 76.02L164.78 76.02L164.78 76.79L160.41 76.79L160.41 77.79L164.24 77.79L164.24 78.54L160.41 78.54L160.41 79.61L165.15 79.61L165.15 80.37L160.76 80.37C161.09 81.17 161.51 81.87 162.03 82.5ZM201.17 76.17L201.17 76.98L197.26 76.98C196.94 77.76 196.57 78.44 196.17 78.97C196.01 78.85 195.64 78.61 195.42 78.51C196.14 77.64 196.69 76.29 197.02 74.95L197.88 75.12C197.78 75.47 197.67 75.84 197.55 76.17L201.17 76.17ZM126.23 77.99L126.23 78.83L129.46 78.83L129.46 79.51L122.23 79.51L122.23 78.83L125.35 78.83L125.35 77.99L122.88 77.99L122.88 77.34L125.35 77.34L125.35 76.58L122.59 76.58L122.59 75.9L125.35 75.9L125.35 74.96L126.23 74.96L126.23 75.9L129.11 75.9L129.11 76.58L126.23 76.58L126.23 77.34L128.75 77.34L128.75 77.99L126.23 77.99ZM146.28 80.06L146.4 80.88L145.02 81.34L145.02 84.82C145.02 85.32 144.91 85.56 144.6 85.7C144.31 85.85 143.86 85.87 143.09 85.87C143.05 85.63 142.93 85.27 142.82 85.02C143.33 85.04 143.81 85.04 143.94 85.03C144.1 85.03 144.15 84.98 144.15 84.82L144.15 81.61C143.63 81.79 143.14 81.95 142.69 82.09L142.46 81.23C142.93 81.1 143.52 80.91 144.15 80.72L144.15 78.18L142.58 78.18L142.58 77.35L144.15 77.35L144.15 74.96L145.02 74.96L145.02 77.35L146.44 77.35L146.44 78.18L145.02 78.18L145.02 80.46L146.28 80.06ZM138.12 82.69L138.12 79.92L136.89 79.92C136.67 81.8 136.09 83.18 134.08 83.96C133.97 83.75 133.73 83.42 133.53 83.25C135.34 82.62 135.82 81.48 136.01 79.92L133.86 79.92L133.86 79.14L137.22 79.14L137.22 77.39L135.46 77.39C135.22 77.84 134.96 78.26 134.67 78.6C134.52 78.47 134.14 78.24 133.93 78.14C134.57 77.44 135.07 76.37 135.36 75.31L136.21 75.5C136.1 75.87 135.97 76.25 135.82 76.61L137.22 76.61L137.22 75L138.11 75L138.11 76.61L140.87 76.61L140.87 77.39L138.11 77.39L138.11 79.14L141.36 79.14L141.36 79.92L139 79.92L139 82.69C139 82.98 139.04 83.03 139.34 83.03L140.3 83.03C140.58 83.03 140.64 82.85 140.66 81.61C140.86 81.75 141.22 81.9 141.47 81.96C141.37 83.47 141.13 83.86 140.39 83.86L139.22 83.86C138.32 83.86 138.12 83.58 138.12 82.69ZM172.41 82.94L177.32 82.94L177.32 83.77L172.41 83.77L172.41 85.91L171.52 85.91L171.52 83.77L166.68 83.77L166.68 82.94L171.52 82.94L171.52 81.8L167.81 81.8L167.81 77.03L170.02 77.03C169.75 76.55 169.28 75.86 168.85 75.37L169.6 75.01C170.1 75.55 170.65 76.28 170.89 76.77L170.4 77.03L173.29 77.03C173.71 76.45 174.2 75.61 174.49 75.01L175.44 75.34C175.09 75.9 174.66 76.52 174.29 77.03L176.29 77.03L176.29 81.8L172.41 81.8L172.41 82.94ZM193.89 75.07L194.77 75.07L194.77 79.38L193.89 79.38L193.89 75.07ZM119.89 75.24C120.52 75.77 121.33 76.51 121.7 76.99L121.09 77.62C120.73 77.11 119.94 76.33 119.32 75.77L119.89 75.24ZM131.44 75.36C132.14 75.91 132.97 76.72 133.34 77.29L132.61 77.84C132.26 77.27 131.46 76.41 130.75 75.84L131.44 75.36ZM182.93 79.37L183.06 79.33L183.61 79.49C183.29 80.41 182.93 81.46 182.6 82.09L181.93 81.92C182.14 81.48 182.38 80.82 182.59 80.17L181.32 80.17L181.32 84.86C181.32 85.34 181.22 85.6 180.89 85.73C180.54 85.88 180.01 85.89 179.18 85.89C179.15 85.64 179.03 85.28 178.91 85.04C179.52 85.05 180.07 85.05 180.23 85.04C180.41 85.04 180.46 85 180.46 84.85L180.46 80.17L178.49 80.17L178.49 79.37L181.4 79.37C180.74 78.86 179.82 78.2 179.09 77.72L179.58 77.16C179.9 77.36 180.27 77.6 180.65 77.87C181.1 77.45 181.6 76.87 181.97 76.33L178.75 76.33L178.75 75.54L182.54 75.54L182.7 75.49L183.24 75.85C182.74 76.72 181.97 77.64 181.27 78.27C181.69 78.58 182.09 78.84 182.35 79.07L182.12 79.37L182.93 79.37ZM183.56 76.28L183.56 75.49L189.47 75.49L189.47 76.28L187.08 76.28C186.94 76.7 186.79 77.13 186.65 77.5L188.99 77.5L188.99 83.13L188.12 83.13L188.12 78.31L184.82 78.31L184.82 83.15L184 83.15L184 77.5L185.79 77.5C185.9 77.12 186.01 76.68 186.1 76.28L183.56 76.28ZM152.18 75.6L152.33 75.56L152.87 75.86C152.35 76.91 151.56 77.79 150.61 78.51C151.49 79.05 152.52 79.46 153.64 79.7C153.46 79.88 153.22 80.22 153.08 80.45C151.91 80.15 150.83 79.64 149.9 79.01C148.92 79.64 147.82 80.12 146.71 80.44C146.62 80.23 146.41 79.89 146.24 79.72C147.25 79.46 148.31 79.05 149.24 78.49C148.55 77.89 147.96 77.2 147.53 76.4L146.75 76.4L146.75 75.6L152.18 75.6ZM191.41 75.62L192.27 75.62L192.27 78.98L191.41 78.98L191.41 75.62ZM149.93 78.05C150.61 77.58 151.2 77.03 151.63 76.4L148.38 76.4C148.77 77.03 149.3 77.58 149.93 78.05ZM199.28 79.45C199 78.9 198.32 78.08 197.71 77.51L198.47 77.2C199.09 77.75 199.76 78.53 200.08 79.05L199.28 79.45ZM171.52 77.78L168.68 77.78L168.68 79.04L171.52 79.04L171.52 77.78ZM172.41 79.04L175.39 79.04L175.39 77.78L172.41 77.78L172.41 79.04ZM121.19 78.71L121.19 83.82L122.41 82.91C122.47 83.15 122.63 83.48 122.72 83.65C120.72 85.2 120.41 85.46 120.23 85.69C120.14 85.49 119.91 85.12 119.76 84.94C119.99 84.8 120.32 84.44 120.32 83.91L120.32 79.56L118.53 79.56L118.53 78.71L121.19 78.71ZM186.02 79.08L186.86 79.08L186.86 81.47C186.86 82.97 186.48 84.75 183.48 85.86C183.36 85.67 183.13 85.38 182.93 85.21C185.74 84.27 186.02 82.67 186.02 81.46L186.02 79.08ZM130.7 79.52L133.03 79.52L133.03 83.76C133.36 83.81 133.63 84.1 134.2 84.42C134.94 84.86 135.92 84.94 137.2 84.94C138.56 84.94 140.36 84.85 141.55 84.72C141.44 84.96 141.3 85.39 141.29 85.64C140.36 85.7 138.35 85.77 137.18 85.77C135.79 85.77 134.82 85.64 134.03 85.19C133.56 84.9 133.2 84.56 132.94 84.56C132.49 84.56 131.84 85.16 131.17 85.91L130.58 85.15C131.11 84.65 131.66 84.22 132.17 83.98L132.17 80.36L130.7 80.36L130.7 79.52ZM198.86 80.53L193.25 80.53L193.25 83.53L192.37 83.53L192.37 79.74L199.77 79.74L199.77 83.46L198.86 83.46L198.86 80.53ZM168.68 79.76L168.68 81.05L171.52 81.05L171.52 79.76L168.68 79.76ZM172.41 81.05L175.39 81.05L175.39 79.76L172.41 79.76L172.41 81.05ZM152.58 81.91L150.31 81.91L150.31 83.15L153.44 83.15L153.44 83.95L150.31 83.95L150.31 85.94L149.44 85.94L149.44 83.95L146.4 83.95L146.4 83.15L149.44 83.15L149.44 81.91L147.01 81.91L147.01 81.12L149.44 81.12L149.44 80.06L150.31 80.06L150.31 81.12L152.58 81.12L152.58 81.91ZM123.08 80.2L128.52 80.2L128.52 84.91C128.52 85.37 128.42 85.6 128.1 85.73C127.75 85.86 127.22 85.87 126.37 85.86C126.34 85.64 126.22 85.32 126.11 85.09C126.72 85.12 127.29 85.12 127.44 85.1C127.62 85.1 127.67 85.05 127.67 84.9L127.67 84.06L123.92 84.06L123.92 85.91L123.08 85.91L123.08 80.2ZM127.67 81.82L127.67 80.89L123.92 80.89L123.92 81.82L127.67 81.82ZM197.22 84.65C197.22 84.94 197.32 84.98 197.88 84.98L199.81 84.98C200.27 84.98 200.36 84.83 200.4 83.75C200.6 83.88 200.95 84.01 201.19 84.07C201.08 85.41 200.82 85.74 199.88 85.74L197.79 85.74C196.63 85.74 196.33 85.51 196.33 84.66L196.33 82.77L197.22 82.77L197.22 84.65ZM196.33 82.77L196.32 82.77C196.38 82.51 196.4 82.26 196.4 82.02L196.4 81.07L195.49 81.07L195.49 82.01C195.49 82.96 195.18 84.3 190.84 85.22C191.04 85.4 191.29 85.74 191.4 85.94C195.02 85.08 196.07 83.87 196.33 82.77ZM123.92 82.44L123.92 83.41L127.67 83.41L127.67 82.44L123.92 82.44ZM188.86 85.89C188.4 85.37 187.43 84.51 186.67 83.9L187.26 83.37C188 83.94 188.99 84.77 189.47 85.28L188.86 85.89Z" fill="#808080" fill-opacity="1.000000" fill-rule="evenodd"/>
	<g clip-path="url(#clip6996_75512)">
		<g opacity="0.200000">
			<path id="Combined-Shape" d="M141.55 57.77C141.55 58.75 142.35 59.55 143.33 59.55L178 59.55C179.47 59.55 180.66 58.36 180.66 56.88L180.66 20.44C180.66 18.97 179.47 17.77 178 17.77L181.55 17.77C183.52 17.77 185.11 19.36 185.11 21.33L185.11 60.44C185.11 62.4 183.52 64 181.55 64L145.11 64C143.14 64 141.55 62.4 141.55 60.44L141.55 57.77Z" fill="url(#paint_linear_6996_75515_0)" fill-opacity="1.000000" fill-rule="evenodd"/>
			<path id="Combined-Shape" d="M143.33 59.55L178 59.55C179.47 59.55 180.66 58.36 180.66 56.88L180.66 20.44C180.66 18.97 179.47 17.77 178 17.77L181.55 17.77C183.52 17.77 185.11 19.36 185.11 21.33L185.11 60.44C185.11 62.4 183.52 64 181.55 64L145.11 64C143.14 64 141.55 62.4 141.55 60.44L141.55 57.77C141.55 58.75 142.35 59.55 143.33 59.55Z" stroke="#000000" stroke-opacity="0" stroke-width="1.000000"/>
		</g>
		<path id="Rectangle" d="M138 2.66L164.66 2.66L180.66 18.67L180.66 58.66C180.66 59.15 180.26 59.55 179.77 59.55L138 59.55C137.5 59.55 137.11 59.15 137.11 58.66L137.11 3.55C137.11 3.06 137.5 2.66 138 2.66Z" fill="#000000" fill-opacity="0" fill-rule="evenodd"/>
		<path id="Rectangle" d="M164.66 2.66L180.66 18.67L180.66 58.66C180.66 59.15 180.26 59.55 179.77 59.55L138 59.55C137.5 59.55 137.11 59.15 137.11 58.66L137.11 3.55C137.11 3.06 137.5 2.66 138 2.66L164.66 2.66Z" stroke="#000000" stroke-opacity="0" stroke-width="1.000000"/>
		<path id="Shape" d="M180.02 18.68L180 18.66C180 18.29 180.29 18 180.66 18C181.04 18 181.33 18.29 181.33 18.66L181.31 18.68L180.02 18.68ZM137.13 60.2L137.11 60.22C136.73 60.22 136.44 59.92 136.44 59.55C136.44 59.18 136.73 58.88 137.11 58.88L137.13 58.9L137.13 60.2Z" fill="#000000" fill-opacity="0" fill-rule="nonzero"/>
		<path id="Shape" d="M180.66 18.66L180.66 58.66C180.66 59.15 180.26 59.55 179.76 59.55L137.11 59.55" stroke="url(#paint_linear_6996_75518_0)" stroke-opacity="1.000000" stroke-width="1.333333" stroke-linejoin="round" stroke-linecap="round"/>
		<g opacity="0.400000">
			<path id="Path" d="M139.75 59.53L139.77 59.55C139.77 61.04 138.6 62.22 137.11 62.22C135.61 62.22 134.44 61.04 134.44 59.55L134.46 59.53L139.75 59.53ZM164.64 0.02L164.66 0C166.16 0 167.33 1.17 167.33 2.66C167.33 4.15 166.16 5.33 164.66 5.33L164.64 5.31L164.64 0.02Z" fill="#000000" fill-opacity="0" fill-rule="nonzero"/>
			<path id="Path" d="M137.11 59.55L137.11 3.56C137.11 3.07 137.5 2.66 138 2.66L164.66 2.66" stroke="url(#paint_linear_6996_75519_0)" stroke-opacity="1.000000" stroke-width="5.333333" stroke-linejoin="round" stroke-linecap="round"/>
		</g>
		<circle id="Oval-Copy-17" cx="137.555664" cy="3.110840" r="2.222222" fill="url(#paint_radial_6996_75520_0)" fill-opacity="1.000000"/>
		<circle id="Oval-Copy-17" cx="137.555664" cy="3.110840" r="2.222222" stroke="#000000" stroke-opacity="0" stroke-width="1.000000"/>
		<circle id="Oval-Copy-18" cx="180.222656" cy="59.110840" r="2.222224" fill="url(#paint_radial_6996_75521_0)" fill-opacity="1.000000"/>
		<circle id="Oval-Copy-18" cx="180.222656" cy="59.110840" r="2.222224" stroke="#000000" stroke-opacity="0" stroke-width="1.000000"/>
		<path id="Path" d="M181.18 18.66L165.44 18.66C165.01 18.66 164.66 18.31 164.66 17.88L164.66 2.14C164.66 1.65 165.06 1.25 165.55 1.25C165.79 1.25 166.01 1.35 166.18 1.51L181.81 17.14C182.16 17.49 182.16 18.05 181.81 18.4C181.64 18.57 181.42 18.66 181.18 18.66Z" fill="url(#paint_linear_6996_75522_0)" fill-opacity="1.000000" fill-rule="evenodd"/>
		<path id="Path" d="M165.44 18.66C165.01 18.66 164.66 18.31 164.66 17.88L164.66 2.14C164.66 1.65 165.06 1.25 165.55 1.25C165.79 1.25 166.01 1.35 166.18 1.51L181.81 17.14C182.16 17.49 182.16 18.05 181.81 18.4C181.64 18.57 181.42 18.66 181.18 18.66L165.44 18.66Z" stroke="#000000" stroke-opacity="0" stroke-width="1.000000"/>
		<path id="Path" d="M174.03 9.36L181.81 17.14C182.16 17.49 182.16 18.05 181.81 18.4C181.64 18.57 181.42 18.66 181.18 18.66L165.44 18.66C165.2 18.65 165.02 18.57 164.89 18.42L174.03 9.36Z" fill="url(#paint_linear_6996_75523_0)" fill-opacity="1.000000" fill-rule="evenodd"/>
		<path id="Path" d="M174.03 9.36L181.81 17.14C182.16 17.49 182.16 18.05 181.81 18.4C181.64 18.57 181.42 18.66 181.18 18.66L165.44 18.66C165.2 18.65 165.02 18.57 164.89 18.42" stroke="#000000" stroke-opacity="0" stroke-width="1.000000"/>
		<g opacity="0.300000">
			<path id="Path" d="M165.63 32.99C161.66 29.02 155.06 29.18 150.9 33.34C146.73 37.51 146.57 44.1 150.55 48.08L165.63 32.99Z" fill="url(#paint_linear_6996_75525_0)" fill-opacity="1.000000" fill-rule="evenodd"/>
			<path id="Path" d="M165.63 32.99C161.66 29.02 155.06 29.18 150.9 33.34C146.73 37.51 146.57 44.1 150.55 48.08" stroke="#000000" stroke-opacity="0" stroke-width="1.000000"/>
		</g>
		<path id="Path" d="M151.25 48.78C155.22 52.75 161.82 52.59 165.98 48.43C170.15 44.26 170.31 37.66 166.33 33.69L151.25 48.78Z" fill="url(#paint_linear_6996_75526_0)" fill-opacity="1.000000" fill-rule="evenodd"/>
		<path id="Path" d="M151.25 48.78C155.22 52.75 161.82 52.59 165.98 48.43C170.15 44.26 170.31 37.66 166.33 33.69" stroke="#000000" stroke-opacity="0" stroke-width="1.000000"/>
		<g opacity="0.400000">
			<g opacity="0.500000">
				<path id="Path" d="M158.23 37.14C161.05 39.96 165.72 39.84 168.67 36.89C171.62 33.94 171.73 29.27 168.92 26.46L158.23 37.14Z" fill="url(#paint_linear_6996_75528_0)" fill-opacity="1.000000" fill-rule="evenodd"/>
				<path id="Path" d="M158.23 37.14C161.05 39.96 165.72 39.84 168.67 36.89C171.62 33.94 171.73 29.27 168.92 26.46" stroke="#000000" stroke-opacity="0" stroke-width="1.000000"/>
			</g>
			<g opacity="0.500000">
				<path id="Path" d="M168.42 25.96C165.61 23.15 160.94 23.26 157.99 26.21C155.03 29.16 154.92 33.83 157.74 36.64L168.42 25.96Z" fill="url(#paint_linear_6996_75529_0)" fill-opacity="1.000000" fill-rule="evenodd"/>
				<path id="Path" d="M168.42 25.96C165.61 23.15 160.94 23.26 157.99 26.21C155.03 29.16 154.92 33.83 157.74 36.64" stroke="#000000" stroke-opacity="0" stroke-width="1.000000"/>
			</g>
		</g>
	</g>
</svg>
