<svg width="16.000000" height="16.000000" viewBox="0 0 16 16" fill="none" xmlns="http://www.w3.org/2000/svg" xmlns:xlink="http://www.w3.org/1999/xlink">
    <desc>
        Created with Pixso.
    </desc>
    <defs>
        <clipPath id="clip9188_173696">
            <rect id="字体倾斜 (1)" width="16.000000" height="16.000000" fill="white" fill-opacity="0"/>
        </clipPath>
    </defs>
    <g clip-path="url(#clip9188_173696)">
        <path id="path" d="M10.51 3L6.66 3C6.39 3 6.18 3.17 6.18 3.4C6.18 3.62 6.39 3.8 6.66 3.8L8.13 3.8L5.63 12.19L4.48 12.19C4.21 12.19 4 12.37 4 12.59C4 12.82 4.21 13 4.48 13L7.93 13C8.2 13 8.41 12.82 8.41 12.59C8.41 12.37 8.2 12.19 7.93 12.19L6.68 12.19L9.18 3.8L10.51 3.8C10.78 3.8 11 3.62 11 3.4C11 3.17 10.78 3 10.51 3Z" fill="#4D4D4D" fill-opacity="1.000000" fill-rule="nonzero"/>
        <path id="path" d="M6.66 3C6.39 3 6.18 3.17 6.18 3.4C6.18 3.62 6.39 3.8 6.66 3.8L8.13 3.8L5.63 12.19L4.48 12.19C4.21 12.19 4 12.37 4 12.59C4 12.82 4.21 13 4.48 13L7.93 13C8.2 13 8.41 12.82 8.41 12.59C8.41 12.37 8.2 12.19 7.93 12.19L6.68 12.19L9.18 3.8L10.51 3.8C10.78 3.8 11 3.62 11 3.4C11 3.17 10.78 3 10.51 3L6.66 3Z" stroke="#4D4D4D" stroke-opacity="1.000000" stroke-width="0.200000"/>
    </g>
</svg>
