<svg width="16.000000" height="16.000000" viewBox="0 0 16 16" fill="none" xmlns="http://www.w3.org/2000/svg" xmlns:xlink="http://www.w3.org/1999/xlink">
    <desc>
        Created with Pixso.
    </desc>
    <defs/>
    <rect id="ICON/16/Delect" width="16.000000" height="16.000000" fill="#FFFFFF" fill-opacity="0"/>
    <rect id="矩形" width="16.000000" height="16.000000" fill="#D8D8D8" fill-opacity="0"/>
    <rect id="矩形" x="0.500000" y="0.500000" width="15.000000" height="15.000000" stroke="#979797" stroke-opacity="0" stroke-width="1.000000"/>
    <path id="ICON" d="M10.6309 1.35693C10.416 1.13379 10.1211 1.00537 9.81055 1L6.14062 1C5.83008 1.00537 5.5332 1.13379 5.31836 1.35693C5.10352 1.58008 4.98438 1.87988 4.99023 2.18994L4.99023 2.97998L1.60938 2.97998C1.21094 2.97998 1 3.1499 1 3.47998L1 3.6001C1.03906 3.87012 1.24023 4 1.59961 4L2.99023 4L2.99023 11.9902C2.99023 12.5308 3.20898 13.0488 3.59766 13.4258C3.98438 13.8027 4.50977 14.0063 5.05078 13.9902L10.9297 13.9902C11.4707 14.0063 11.9941 13.8027 12.3828 13.4258C12.7715 13.0488 12.9902 12.5308 12.9902 11.9902L12.9902 3.99023L14.3398 3.99023C14.75 3.99023 14.9492 3.83008 14.9492 3.5L14.9492 3.3999C14.9199 3.14014 14.7207 3 14.3496 3L10.9609 3L10.9609 2.18994C10.9648 1.87988 10.8477 1.58008 10.6309 1.35693ZM5.96094 2L9.96094 2L9.96094 3L5.96094 3L5.96094 2ZM11.9922 3.99951L3.96289 3.99951L3.96289 11.9995C3.96289 12.5518 4.41016 12.9995 4.96289 12.9995L10.9629 12.9995C11.2324 13.0078 11.4941 12.9058 11.6895 12.7178C11.8828 12.5293 11.9922 12.27 11.9922 11.9995L11.9922 3.99951ZM6.48047 6C6.60547 6.00244 6.72461 6.05225 6.81445 6.14014C6.9082 6.23193 6.96094 6.3584 6.96094 6.49023L6.96094 10.4902C6.96094 10.6216 6.9082 10.748 6.81445 10.8398C6.7207 10.9321 6.59375 10.9829 6.46094 10.98C6.18945 10.98 5.9668 10.7622 5.96094 10.4902L5.96094 6.49023C5.96289 6.354 6.02148 6.22461 6.12109 6.13184C6.22266 6.03955 6.35547 5.9917 6.49219 6L6.48047 6ZM6.48047 6L6.46094 6C6.46875 6 6.47461 6 6.48047 6ZM9.81445 6.14014C9.72461 6.05225 9.60547 6.00244 9.48047 6L9.49219 6C9.35547 5.9917 9.22266 6.03955 9.12109 6.13184C9.02148 6.22461 8.96289 6.354 8.96094 6.49023L8.96094 10.4902C8.9668 10.7622 9.18945 10.98 9.46094 10.98C9.59375 10.9829 9.7207 10.9321 9.81445 10.8398C9.9082 10.748 9.96094 10.6216 9.96094 10.4902L9.96094 6.49023C9.96094 6.3584 9.9082 6.23193 9.81445 6.14014ZM9.48047 6C9.47461 6 9.46875 6 9.46094 6L9.48047 6Z" clip-rule="evenodd" fill="#4D4D4D" fill-opacity="1.000000" fill-rule="evenodd"/>
</svg>
