<svg width="320.000000" height="86.000000" viewBox="0 0 320 86" fill="none" xmlns="http://www.w3.org/2000/svg" xmlns:xlink="http://www.w3.org/1999/xlink">
	<desc>
			Created with Pixso.
	</desc>
	<defs>
		<clipPath id="clip6996_75530">
			<rect id="empty-document.7bae9d05" width="64.000000" height="64.000000" transform="translate(128.000000 0.000000)" fill="white" fill-opacity="0"/>
		</clipPath>
		<linearGradient x1="180.918762" y1="64.000053" x2="163.333450" y2="40.888943" id="paint_linear_6996_75533_0" gradientUnits="userSpaceOnUse">
			<stop stop-color="#528BF3"/>
			<stop offset="1.000000" stop-color="#8F9FBC" stop-opacity="0.000000"/>
		</linearGradient>
		<linearGradient x1="179.764206" y1="57.128628" x2="162.491745" y2="42.463333" id="paint_linear_6996_75536_0" gradientUnits="userSpaceOnUse">
			<stop stop-color="#4D86FC"/>
			<stop offset="1.000000" stop-color="#9FBDFD" stop-opacity="0.047059"/>
			<stop offset="1.000000" stop-color="#9FBDFD" stop-opacity="0.047059"/>
		</linearGradient>
		<linearGradient x1="154.810928" y1="36.939064" x2="147.915527" y2="4.142953" id="paint_linear_6996_75537_0" gradientUnits="userSpaceOnUse">
			<stop stop-color="#9FBDFD" stop-opacity="0.047059"/>
			<stop offset="1.000000" stop-color="#4D86FC"/>
		</linearGradient>
		<radialGradient gradientTransform="translate(136.292 2.4872) rotate(0) scale(3.54042 3.54042)" cx="0.000000" cy="0.000000" r="1.000000" id="paint_radial_6996_75538_0" gradientUnits="userSpaceOnUse">
			<stop stop-color="#8DCEFF"/>
			<stop offset="0.795090" stop-color="#4A77F5"/>
			<stop offset="0.917641" stop-color="#568AFE"/>
			<stop offset="1.000000" stop-color="#4D86FC"/>
		</radialGradient>
		<radialGradient gradientTransform="translate(178.959 58.4872) rotate(0) scale(3.54042 3.54042)" cx="0.000000" cy="0.000000" r="1.000000" id="paint_radial_6996_75539_0" gradientUnits="userSpaceOnUse">
			<stop stop-color="#8DCEFF"/>
			<stop offset="0.795090" stop-color="#4A77F5"/>
			<stop offset="0.917641" stop-color="#568AFE"/>
			<stop offset="1.000000" stop-color="#4D86FC"/>
		</radialGradient>
		<linearGradient x1="175.061554" y1="3.114060" x2="164.666016" y2="12.390430" id="paint_linear_6996_75540_0" gradientUnits="userSpaceOnUse">
			<stop stop-color="#84BBFE"/>
			<stop offset="1.000000" stop-color="#3C76EF"/>
		</linearGradient>
		<linearGradient x1="169.992065" y1="14.016713" x2="179.743713" y2="14.960103" id="paint_linear_6996_75541_0" gradientUnits="userSpaceOnUse">
			<stop stop-color="#84A9F7"/>
			<stop offset="1.000000" stop-color="#4D86FC"/>
		</linearGradient>
		<linearGradient x1="150.153519" y1="45.412914" x2="163.059723" y2="32.506718" id="paint_linear_6996_75543_0" gradientUnits="userSpaceOnUse">
			<stop stop-color="#FFC9B2"/>
			<stop offset="1.000000" stop-color="#F16D74"/>
		</linearGradient>
		<linearGradient x1="154.236328" y1="51.765583" x2="166.571518" y2="40.655407" id="paint_linear_6996_75544_0" gradientUnits="userSpaceOnUse">
			<stop stop-color="#F16D74"/>
			<stop offset="1.000000" stop-color="#FFC9B2"/>
		</linearGradient>
		<linearGradient x1="169.205673" y1="28.350870" x2="160.063782" y2="37.492760" id="paint_linear_6996_75546_0" gradientUnits="userSpaceOnUse">
			<stop stop-color="#FFC9B2"/>
			<stop offset="1.000000" stop-color="#F16D74"/>
		</linearGradient>
		<linearGradient x1="163.614853" y1="22.760050" x2="154.472961" y2="31.901939" id="paint_linear_6996_75547_0" gradientUnits="userSpaceOnUse">
			<stop stop-color="#FFC9B2"/>
			<stop offset="1.000000" stop-color="#F16D74"/>
		</linearGradient>
	</defs>
	<rect id="画板 1490" width="320.000000" height="86.000000" fill="#FFFFFF" fill-opacity="0"/>
	<rect id="画板 1491" width="48.000000" height="14.000000" transform="translate(136.000000 72.000000)" fill="#FFFFFF" fill-opacity="0"/>
	<path id="无效果图" d="M151.45 74.69L154.14 74.69L154.14 75.51L148.73 75.51L148.73 74.69L151.29 74.69C151.13 74.27 150.78 73.68 150.44 73.24L151.16 72.94C151.53 73.38 151.92 74 152.1 74.39L151.45 74.69ZM159.38 75.12L159.38 75.96L158.71 75.96C158.41 77.97 157.93 79.59 157.15 80.89C157.79 81.89 158.59 82.7 159.54 83.19C159.34 83.34 159.06 83.68 158.91 83.89C158.02 83.37 157.26 82.61 156.65 81.66C155.94 82.6 155.04 83.34 153.89 83.94C153.78 83.79 153.46 83.44 153.27 83.28C154.53 82.7 155.47 81.9 156.18 80.87C155.72 80 155.35 79.02 155.06 77.97C154.86 78.36 154.63 78.74 154.4 79.07C154.28 78.9 154 78.57 153.8 78.41C154.76 77.1 155.36 75.06 155.72 72.94L156.55 73.06C156.42 73.77 156.27 74.46 156.1 75.12L159.38 75.12ZM173.04 83.92L173.04 73.48L182.95 73.48L182.95 83.92L182.08 83.92L182.08 83.41L173.9 83.41L173.9 83.92L173.04 83.92ZM171.23 79.27L171.23 80.1L167.21 80.1C168.31 81.21 170.03 82.22 171.54 82.72C171.34 82.9 171.06 83.25 170.93 83.46C169.4 82.85 167.64 81.69 166.46 80.41L166.46 83.92L165.54 83.92L165.54 80.48C164.39 81.78 162.64 82.92 161.08 83.51C160.96 83.31 160.67 82.96 160.48 82.78C162.03 82.27 163.74 81.24 164.79 80.1L160.77 80.1L160.77 79.27L165.54 79.27L165.54 78.27L161.94 78.27L161.94 73.53L170.14 73.53L170.14 78.27L166.46 78.27L166.46 79.27L171.23 79.27ZM143.05 82.25C143.05 82.67 143.16 82.77 143.77 82.77L145.86 82.77C146.45 82.77 146.54 82.49 146.62 80.86C146.82 81.01 147.22 81.17 147.47 81.23C147.35 83.14 147.07 83.63 145.92 83.63L143.69 83.63C142.45 83.63 142.13 83.32 142.13 82.25L142.13 78.16L141.88 78.16C141.38 80.48 140.18 82.68 137.11 83.92C136.98 83.69 136.73 83.36 136.51 83.19C139.33 82.12 140.48 80.21 140.99 78.16L136.67 78.16L136.67 77.28L141.14 77.28C141.29 76.39 141.32 75.48 141.36 74.63L137.41 74.63L137.41 73.77L146.67 73.77L146.67 74.63L142.24 74.63C142.21 75.48 142.15 76.39 142.02 77.28L147.36 77.28L147.36 78.16L143.05 78.16L143.05 82.25ZM173.9 74.29L173.9 82.62L182.08 82.62L182.08 74.29L173.9 74.29ZM165.54 74.31L162.84 74.31L162.84 75.53L165.54 75.53L165.54 74.31ZM166.46 75.53L169.19 75.53L169.19 74.31L166.46 74.31L166.46 75.53ZM180.31 75.48L180.46 75.45L180.96 75.76C180.46 76.55 179.7 77.24 178.82 77.81C179.74 78.24 180.79 78.57 181.84 78.76C181.68 78.91 181.45 79.23 181.34 79.43C180.22 79.19 179.09 78.78 178.09 78.24C176.96 78.86 175.72 79.3 174.54 79.56C174.46 79.36 174.26 79.01 174.12 78.83C175.17 78.64 176.32 78.27 177.34 77.8C176.86 77.48 176.41 77.12 176.04 76.73C175.68 77.05 175.32 77.34 174.95 77.58C174.82 77.44 174.52 77.16 174.34 77.04C175.36 76.44 176.38 75.52 176.98 74.55L177.71 74.79C177.58 75.03 177.41 75.25 177.23 75.48L180.31 75.48ZM152.69 75.78C153.23 76.39 153.8 77.26 154.04 77.84L153.34 78.23C153.12 77.67 152.55 76.78 152.02 76.13L152.69 75.78ZM148.45 78.39C149.08 77.72 149.67 76.74 150.06 75.81L150.83 76.05C150.38 77.07 149.7 78.2 149.09 78.93C148.96 78.78 148.64 78.51 148.45 78.39ZM156.67 80.03C157.25 78.91 157.61 77.56 157.85 75.96L155.86 75.96C155.76 76.25 155.67 76.53 155.57 76.8C155.82 77.97 156.19 79.07 156.67 80.03ZM179.71 76.18L176.62 76.18L176.54 76.25C176.94 76.68 177.46 77.08 178.07 77.43C178.72 77.05 179.28 76.63 179.71 76.18ZM162.84 76.26L162.84 77.5L165.54 77.5L165.54 76.26L162.84 76.26ZM166.46 77.5L169.19 77.5L169.19 76.26L166.46 76.26L166.46 77.5ZM152.14 80.1C152.75 80.84 153.29 81.55 153.61 82.13L152.88 82.68C152.63 82.18 152.2 81.55 151.68 80.91C151 82.01 150.14 82.92 149.12 83.62C148.99 83.45 148.69 83.13 148.5 82.97C149.58 82.3 150.47 81.37 151.12 80.22C150.66 79.68 150.15 79.14 149.69 78.67L150.34 78.2C150.72 78.58 151.13 79 151.53 79.43C151.77 78.9 151.98 78.35 152.15 77.75L152.98 77.92C152.76 78.71 152.46 79.43 152.14 80.1ZM179.34 80.58C178.68 80.26 177.47 79.85 176.52 79.65L176.88 79.11C177.84 79.3 179.04 79.68 179.71 79.98L179.34 80.58ZM180.15 82.24C179.03 81.83 176.96 81.35 175.33 81.16L175.74 80.55C177.35 80.73 179.4 81.18 180.56 81.58L180.15 82.24Z" fill="#808080" fill-opacity="1.000000" fill-rule="evenodd"/>
	<g clip-path="url(#clip6996_75530)">
		<g opacity="0.200000">
			<path id="Combined-Shape" d="M141.55 57.77C141.55 58.75 142.35 59.55 143.33 59.55L178 59.55C179.47 59.55 180.66 58.36 180.66 56.88L180.66 20.44C180.66 18.97 179.47 17.77 178 17.77L181.55 17.77C183.52 17.77 185.11 19.36 185.11 21.33L185.11 60.44C185.11 62.4 183.52 64 181.55 64L145.11 64C143.14 64 141.55 62.4 141.55 60.44L141.55 57.77Z" fill="url(#paint_linear_6996_75533_0)" fill-opacity="1.000000" fill-rule="evenodd"/>
			<path id="Combined-Shape" d="M143.33 59.55L178 59.55C179.47 59.55 180.66 58.36 180.66 56.88L180.66 20.44C180.66 18.97 179.47 17.77 178 17.77L181.55 17.77C183.52 17.77 185.11 19.36 185.11 21.33L185.11 60.44C185.11 62.4 183.52 64 181.55 64L145.11 64C143.14 64 141.55 62.4 141.55 60.44L141.55 57.77C141.55 58.75 142.35 59.55 143.33 59.55Z" stroke="#000000" stroke-opacity="0" stroke-width="1.000000"/>
		</g>
		<path id="Rectangle" d="M138 2.66L164.66 2.66L180.66 18.67L180.66 58.66C180.66 59.15 180.26 59.55 179.77 59.55L138 59.55C137.5 59.55 137.11 59.15 137.11 58.66L137.11 3.55C137.11 3.06 137.5 2.66 138 2.66Z" fill="#000000" fill-opacity="0" fill-rule="evenodd"/>
		<path id="Rectangle" d="M164.66 2.66L180.66 18.67L180.66 58.66C180.66 59.15 180.26 59.55 179.77 59.55L138 59.55C137.5 59.55 137.11 59.15 137.11 58.66L137.11 3.55C137.11 3.06 137.5 2.66 138 2.66L164.66 2.66Z" stroke="#000000" stroke-opacity="0" stroke-width="1.000000"/>
		<path id="Shape" d="M180.02 18.68L180 18.66C180 18.29 180.29 18 180.66 18C181.04 18 181.33 18.29 181.33 18.66L181.31 18.68L180.02 18.68ZM137.13 60.2L137.11 60.22C136.73 60.22 136.44 59.92 136.44 59.55C136.44 59.18 136.73 58.88 137.11 58.88L137.13 58.9L137.13 60.2Z" fill="#000000" fill-opacity="0" fill-rule="nonzero"/>
		<path id="Shape" d="M180.66 18.66L180.66 58.66C180.66 59.15 180.26 59.55 179.76 59.55L137.11 59.55" stroke="url(#paint_linear_6996_75536_0)" stroke-opacity="1.000000" stroke-width="1.333333" stroke-linejoin="round" stroke-linecap="round"/>
		<g opacity="0.400000">
			<path id="Path" d="M139.75 59.53L139.77 59.55C139.77 61.04 138.6 62.22 137.11 62.22C135.61 62.22 134.44 61.04 134.44 59.55L134.46 59.53L139.75 59.53ZM164.64 0.02L164.66 0C166.16 0 167.33 1.17 167.33 2.66C167.33 4.15 166.16 5.33 164.66 5.33L164.64 5.31L164.64 0.02Z" fill="#000000" fill-opacity="0" fill-rule="nonzero"/>
			<path id="Path" d="M137.11 59.55L137.11 3.56C137.11 3.07 137.5 2.66 138 2.66L164.66 2.66" stroke="url(#paint_linear_6996_75537_0)" stroke-opacity="1.000000" stroke-width="5.333333" stroke-linejoin="round" stroke-linecap="round"/>
		</g>
		<circle id="Oval-Copy-17" cx="137.555664" cy="3.110840" r="2.222222" fill="url(#paint_radial_6996_75538_0)" fill-opacity="1.000000"/>
		<circle id="Oval-Copy-17" cx="137.555664" cy="3.110840" r="2.222222" stroke="#000000" stroke-opacity="0" stroke-width="1.000000"/>
		<circle id="Oval-Copy-18" cx="180.222656" cy="59.110840" r="2.222224" fill="url(#paint_radial_6996_75539_0)" fill-opacity="1.000000"/>
		<circle id="Oval-Copy-18" cx="180.222656" cy="59.110840" r="2.222224" stroke="#000000" stroke-opacity="0" stroke-width="1.000000"/>
		<path id="Path" d="M181.18 18.66L165.44 18.66C165.01 18.66 164.66 18.31 164.66 17.88L164.66 2.14C164.66 1.65 165.06 1.25 165.55 1.25C165.79 1.25 166.01 1.35 166.18 1.51L181.81 17.14C182.16 17.49 182.16 18.05 181.81 18.4C181.64 18.57 181.42 18.66 181.18 18.66Z" fill="url(#paint_linear_6996_75540_0)" fill-opacity="1.000000" fill-rule="evenodd"/>
		<path id="Path" d="M165.44 18.66C165.01 18.66 164.66 18.31 164.66 17.88L164.66 2.14C164.66 1.65 165.06 1.25 165.55 1.25C165.79 1.25 166.01 1.35 166.18 1.51L181.81 17.14C182.16 17.49 182.16 18.05 181.81 18.4C181.64 18.57 181.42 18.66 181.18 18.66L165.44 18.66Z" stroke="#000000" stroke-opacity="0" stroke-width="1.000000"/>
		<path id="Path" d="M174.03 9.36L181.81 17.14C182.16 17.49 182.16 18.05 181.81 18.4C181.64 18.57 181.42 18.66 181.18 18.66L165.44 18.66C165.2 18.65 165.02 18.57 164.89 18.42L174.03 9.36Z" fill="url(#paint_linear_6996_75541_0)" fill-opacity="1.000000" fill-rule="evenodd"/>
		<path id="Path" d="M174.03 9.36L181.81 17.14C182.16 17.49 182.16 18.05 181.81 18.4C181.64 18.57 181.42 18.66 181.18 18.66L165.44 18.66C165.2 18.65 165.02 18.57 164.89 18.42" stroke="#000000" stroke-opacity="0" stroke-width="1.000000"/>
		<g opacity="0.300000">
			<path id="Path" d="M165.63 32.99C161.66 29.02 155.06 29.18 150.9 33.34C146.73 37.51 146.57 44.1 150.55 48.08L165.63 32.99Z" fill="url(#paint_linear_6996_75543_0)" fill-opacity="1.000000" fill-rule="evenodd"/>
			<path id="Path" d="M165.63 32.99C161.66 29.02 155.06 29.18 150.9 33.34C146.73 37.51 146.57 44.1 150.55 48.08" stroke="#000000" stroke-opacity="0" stroke-width="1.000000"/>
		</g>
		<path id="Path" d="M151.25 48.78C155.22 52.75 161.82 52.59 165.98 48.43C170.15 44.26 170.31 37.66 166.33 33.69L151.25 48.78Z" fill="url(#paint_linear_6996_75544_0)" fill-opacity="1.000000" fill-rule="evenodd"/>
		<path id="Path" d="M151.25 48.78C155.22 52.75 161.82 52.59 165.98 48.43C170.15 44.26 170.31 37.66 166.33 33.69" stroke="#000000" stroke-opacity="0" stroke-width="1.000000"/>
		<g opacity="0.400000">
			<g opacity="0.500000">
				<path id="Path" d="M158.23 37.14C161.05 39.96 165.72 39.84 168.67 36.89C171.62 33.94 171.73 29.27 168.92 26.46L158.23 37.14Z" fill="url(#paint_linear_6996_75546_0)" fill-opacity="1.000000" fill-rule="evenodd"/>
				<path id="Path" d="M158.23 37.14C161.05 39.96 165.72 39.84 168.67 36.89C171.62 33.94 171.73 29.27 168.92 26.46" stroke="#000000" stroke-opacity="0" stroke-width="1.000000"/>
			</g>
			<g opacity="0.500000">
				<path id="Path" d="M168.42 25.96C165.61 23.15 160.94 23.26 157.99 26.21C155.03 29.16 154.92 33.83 157.74 36.64L168.42 25.96Z" fill="url(#paint_linear_6996_75547_0)" fill-opacity="1.000000" fill-rule="evenodd"/>
				<path id="Path" d="M168.42 25.96C165.61 23.15 160.94 23.26 157.99 26.21C155.03 29.16 154.92 33.83 157.74 36.64" stroke="#000000" stroke-opacity="0" stroke-width="1.000000"/>
			</g>
		</g>
	</g>
</svg>
