<svg width="16.000000" height="16.000000" viewBox="0 0 16 16" fill="none" xmlns="http://www.w3.org/2000/svg" xmlns:xlink="http://www.w3.org/1999/xlink">
    <desc>
        Created with Pixso.
    </desc>
    <defs/>
    <path id="ICON" d="M8.69922 7.99219L12.5889 4.10303C12.7832 3.90771 12.7832 3.59131 12.5889 3.396C12.3936 3.20068 12.0762 3.20068 11.8809 3.396L7.99219 7.28516L4.10352 3.396C3.9082 3.20068 3.59082 3.20068 3.39551 3.396C3.20117 3.59131 3.20117 3.90771 3.39551 4.10303L7.28516 7.99219L3.39551 11.8813C3.20117 12.0767 3.20117 12.3931 3.39551 12.5884C3.59082 12.7837 3.9082 12.7837 4.10352 12.5884L7.99219 8.69922L11.8809 12.5884C12.0762 12.7837 12.3936 12.7837 12.5889 12.5884C12.7832 12.3931 12.7832 12.0767 12.5889 11.8813L8.69922 7.99219Z" clip-rule="evenodd" fill="#4D4D4D" fill-opacity="1.000000" fill-rule="evenodd"/>
</svg>
