<svg width="21.590820" height="20.000000" viewBox="0 0 21.5908 20" fill="none" xmlns="http://www.w3.org/2000/svg" xmlns:xlink="http://www.w3.org/1999/xlink">
	<desc>
		Created with Pixso.
	</desc>
	<defs>
		<clipPath id="clip1888_164884">
			<rect id="huggingface_logo-noborder" width="21.590912" height="20.000000" fill="white" fill-opacity="0"/>
		</clipPath>
	</defs>
	<g clip-path="url(#clip1888_164884)">
		<path id="path" d="M10.72 17.38C11.24 17.38 11.76 17.33 12.27 17.23C12.77 17.13 13.27 16.98 13.75 16.78C14.23 16.58 14.68 16.34 15.11 16.05C15.54 15.76 15.94 15.43 16.31 15.07C16.68 14.7 17 14.3 17.29 13.87C17.58 13.44 17.82 12.99 18.02 12.51C18.22 12.03 18.37 11.53 18.47 11.02C18.57 10.52 18.62 10 18.62 9.48C18.62 8.97 18.57 8.45 18.47 7.94C18.37 7.43 18.22 6.94 18.02 6.46C17.82 5.98 17.58 5.53 17.29 5.1C17 4.66 16.68 4.27 16.31 3.9C15.94 3.53 15.54 3.21 15.11 2.92C14.68 2.63 14.23 2.39 13.75 2.19C13.27 1.99 12.77 1.84 12.27 1.74C11.76 1.64 11.24 1.59 10.72 1.59C10.21 1.59 9.69 1.64 9.18 1.74C8.68 1.84 8.18 1.99 7.7 2.19C7.22 2.39 6.77 2.63 6.34 2.92C5.91 3.21 5.51 3.53 5.14 3.9C4.77 4.27 4.45 4.66 4.16 5.1C3.87 5.53 3.63 5.98 3.43 6.46C3.23 6.94 3.08 7.43 2.98 7.94C2.88 8.45 2.83 8.97 2.83 9.48C2.83 10 2.88 10.52 2.98 11.02C3.08 11.53 3.23 12.03 3.43 12.51C3.63 12.99 3.87 13.44 4.16 13.87C4.45 14.3 4.77 14.7 5.14 15.07C5.51 15.43 5.91 15.76 6.34 16.05C6.77 16.34 7.22 16.58 7.7 16.78C8.18 16.98 8.68 17.13 9.18 17.23C9.69 17.33 10.21 17.38 10.72 17.38Z" fill="#FFD21E" fill-opacity="1.000000" fill-rule="nonzero"/>
		<path id="path" d="M18.62 9.48C18.62 8.97 18.57 8.45 18.47 7.94C18.37 7.43 18.22 6.94 18.02 6.46C17.82 5.98 17.58 5.53 17.29 5.1C17 4.66 16.68 4.27 16.31 3.9C15.94 3.53 15.54 3.21 15.11 2.92C14.68 2.63 14.23 2.39 13.75 2.19C13.27 1.99 12.77 1.84 12.27 1.74C11.76 1.64 11.24 1.59 10.72 1.59C10.21 1.59 9.69 1.64 9.18 1.74C8.68 1.84 8.18 1.99 7.7 2.19C7.22 2.39 6.77 2.63 6.34 2.92C5.91 3.21 5.51 3.53 5.14 3.9C4.77 4.27 4.45 4.66 4.16 5.1C3.87 5.53 3.63 5.98 3.43 6.46C3.23 6.94 3.08 7.43 2.98 7.94C2.88 8.45 2.83 8.97 2.83 9.48C2.83 10 2.88 10.52 2.98 11.02C3.08 11.53 3.23 12.03 3.43 12.51C3.63 12.99 3.87 13.44 4.16 13.87C4.45 14.3 4.77 14.7 5.14 15.07C5.51 15.43 5.91 15.76 6.34 16.05C6.77 16.34 7.22 16.58 7.7 16.78C8.18 16.98 8.68 17.13 9.18 17.23C9.69 17.33 10.21 17.38 10.72 17.38C11.24 17.38 11.76 17.33 12.27 17.23C12.77 17.13 13.27 16.98 13.75 16.78C14.23 16.58 14.68 16.34 15.11 16.05C15.54 15.76 15.94 15.43 16.31 15.07C16.68 14.7 17 14.3 17.29 13.87C17.58 13.44 17.82 12.99 18.02 12.51C18.22 12.03 18.37 11.53 18.47 11.02C18.57 10.52 18.62 10 18.62 9.48ZM1.92 9.48C1.92 8.91 1.97 8.33 2.09 7.77C2.2 7.2 2.37 6.65 2.59 6.11C2.81 5.58 3.08 5.07 3.4 4.59C3.72 4.11 4.09 3.67 4.5 3.26C4.91 2.85 5.35 2.48 5.83 2.16C6.31 1.84 6.82 1.57 7.35 1.35C7.89 1.13 8.44 0.96 9.01 0.85C9.57 0.73 10.15 0.68 10.72 0.68C11.3 0.68 11.88 0.73 12.44 0.85C13.01 0.96 13.56 1.13 14.09 1.35C14.63 1.57 15.14 1.84 15.62 2.16C16.1 2.48 16.54 2.85 16.95 3.26C17.36 3.67 17.73 4.11 18.05 4.59C18.37 5.07 18.64 5.58 18.86 6.11C19.08 6.65 19.25 7.2 19.36 7.77C19.48 8.33 19.53 8.91 19.53 9.48C19.53 10.06 19.48 10.63 19.36 11.2C19.25 11.77 19.08 12.32 18.86 12.85C18.64 13.39 18.37 13.9 18.05 14.38C17.73 14.86 17.36 15.3 16.95 15.71C16.54 16.12 16.1 16.49 15.62 16.81C15.14 17.13 14.63 17.4 14.09 17.62C13.56 17.84 13.01 18.01 12.44 18.12C11.88 18.23 11.3 18.29 10.72 18.29C10.15 18.29 9.57 18.23 9.01 18.12C8.44 18.01 7.89 17.84 7.35 17.62C6.82 17.4 6.31 17.13 5.83 16.81C5.35 16.49 4.91 16.12 4.5 15.71C4.09 15.3 3.72 14.86 3.4 14.38C3.08 13.9 2.81 13.39 2.59 12.85C2.37 12.32 2.2 11.77 2.09 11.2C1.97 10.63 1.92 10.06 1.92 9.48Z" fill="#FF9D0B" fill-opacity="1.000000" fill-rule="nonzero"/>
		<path id="path" d="M13.29 7.34C13.58 7.44 13.69 8.03 13.99 7.88C14.12 7.81 14.24 7.71 14.33 7.6C14.43 7.48 14.5 7.35 14.54 7.21C14.59 7.06 14.6 6.91 14.59 6.76C14.57 6.61 14.53 6.47 14.46 6.34C14.39 6.21 14.29 6.09 14.18 6C14.06 5.9 13.93 5.83 13.79 5.79C13.64 5.74 13.5 5.73 13.35 5.74C13.2 5.76 13.05 5.8 12.92 5.87C12.79 5.94 12.67 6.03 12.58 6.15C12.48 6.27 12.41 6.4 12.37 6.54C12.32 6.68 12.31 6.83 12.32 6.98C12.34 7.13 12.38 7.27 12.45 7.41C12.59 7.67 13.03 7.25 13.29 7.34ZM7.94 7.34C7.65 7.44 7.53 8.03 7.24 7.88C7.11 7.81 6.99 7.71 6.9 7.6C6.8 7.48 6.73 7.35 6.69 7.21C6.64 7.06 6.63 6.91 6.64 6.76C6.66 6.61 6.7 6.47 6.77 6.34C6.84 6.21 6.93 6.09 7.05 6C7.17 5.9 7.3 5.83 7.44 5.79C7.58 5.74 7.73 5.73 7.88 5.74C8.03 5.76 8.17 5.8 8.31 5.87C8.44 5.94 8.55 6.03 8.65 6.15C8.75 6.27 8.82 6.4 8.86 6.54C8.9 6.68 8.92 6.83 8.9 6.98C8.89 7.13 8.85 7.27 8.78 7.41C8.64 7.67 8.2 7.25 7.94 7.34Z" fill="#3A3B45" fill-opacity="1.000000" fill-rule="nonzero"/>
		<path id="path" d="M10.67 12.79C12.9 12.79 13.62 10.8 13.62 9.77C13.62 9.24 13.27 9.41 12.69 9.69C12.16 9.95 11.45 10.32 10.67 10.32C9.04 10.32 7.72 8.75 7.72 9.77C7.72 10.8 8.43 12.79 10.67 12.79Z" fill="#FF323D" fill-opacity="1.000000" fill-rule="nonzero"/>
		<path id="path" d="M8.96 12.27C9.21 11.75 9.61 11.41 10.16 11.25C10.25 11.22 10.34 11.38 10.44 11.54C10.53 11.69 10.63 11.85 10.72 11.85C10.83 11.85 10.93 11.7 11.03 11.54C11.13 11.38 11.23 11.23 11.33 11.26C11.83 11.42 12.21 11.74 12.46 12.21C13.31 11.54 13.62 10.45 13.62 9.77C13.62 9.24 13.27 9.41 12.69 9.69L12.66 9.71C12.14 9.97 11.44 10.32 10.67 10.32C9.9 10.32 9.2 9.97 8.67 9.71C8.08 9.42 7.71 9.23 7.71 9.77C7.71 10.47 8.04 11.61 8.96 12.27Z" fill="#3A3B45" fill-opacity="1.000000" fill-rule="evenodd"/>
		<path id="path" d="M16.07 8.4C16.27 8.4 16.44 8.33 16.59 8.19C16.73 8.04 16.8 7.87 16.8 7.67C16.8 7.46 16.73 7.29 16.59 7.14C16.44 7 16.27 6.93 16.07 6.93C15.86 6.93 15.69 7 15.54 7.14C15.4 7.29 15.33 7.46 15.33 7.67C15.33 7.87 15.4 8.04 15.54 8.19C15.69 8.33 15.86 8.4 16.07 8.4ZM5.5 8.4C5.7 8.4 5.87 8.33 6.02 8.19C6.16 8.04 6.24 7.87 6.24 7.67C6.24 7.46 6.16 7.29 6.02 7.14C5.87 7 5.7 6.93 5.5 6.93C5.29 6.93 5.12 7 4.97 7.14C4.83 7.29 4.76 7.46 4.76 7.67C4.76 7.87 4.83 8.04 4.97 8.19C5.12 8.33 5.29 8.4 5.5 8.4ZM3.98 10.9C3.61 10.9 3.28 11.05 3.05 11.33C2.85 11.58 2.75 11.86 2.75 12.18C2.61 12.14 2.46 12.12 2.31 12.12C1.96 12.12 1.64 12.25 1.41 12.49C1.21 12.71 1.09 12.96 1.05 13.26C1.02 13.55 1.08 13.83 1.23 14.08C1.02 14.25 0.89 14.47 0.82 14.72C0.77 14.93 0.72 15.36 1.01 15.8C0.77 16.17 0.74 16.55 0.92 16.94C1.15 17.47 1.73 17.88 2.86 18.33C3.56 18.61 4.2 18.78 4.2 18.79C5.01 19.01 5.84 19.13 6.69 19.15C8.02 19.15 8.97 18.74 9.52 17.94C10.4 16.64 10.27 15.46 9.13 14.32C8.5 13.69 8.08 12.76 8 12.55C7.82 11.95 7.35 11.27 6.57 11.27C6.13 11.28 5.78 11.47 5.53 11.83C5.3 11.55 5.08 11.32 4.88 11.19C4.61 11.01 4.31 10.91 3.98 10.9ZM3.98 11.81C4.09 11.81 4.24 11.86 4.39 11.96C4.88 12.27 5.81 13.88 6.15 14.5C6.27 14.71 6.47 14.8 6.64 14.8C6.99 14.8 7.27 14.45 6.67 14.01C5.78 13.34 6.09 12.25 6.52 12.19C6.54 12.18 6.56 12.18 6.57 12.18C6.96 12.18 7.13 12.85 7.13 12.85C7.13 12.85 7.63 14.1 8.49 14.96C9.35 15.82 9.39 16.51 8.77 17.42C8.34 18.05 7.52 18.24 6.69 18.24C5.82 18.24 4.93 18.03 4.43 17.91C4.41 17.9 1.37 17.04 1.76 16.32C1.82 16.19 1.93 16.14 2.06 16.14C2.6 16.14 3.59 16.95 4.01 16.95C4.1 16.95 4.17 16.91 4.2 16.81C4.38 16.16 1.46 15.89 1.7 14.95C1.75 14.79 1.87 14.72 2.03 14.72C2.75 14.72 4.35 15.98 4.69 15.98C4.71 15.98 4.73 15.97 4.74 15.96C4.91 15.68 4.82 15.49 3.63 14.77C2.44 14.06 1.61 13.62 2.08 13.11C2.14 13.05 2.21 13.02 2.31 13.02C3.03 13.02 4.73 14.57 4.73 14.57C4.73 14.57 5.19 15.05 5.47 15.05C5.53 15.05 5.59 15.03 5.62 14.96C5.82 14.63 3.79 13.1 3.68 12.46C3.6 12.03 3.73 11.81 3.98 11.81Z" fill="#FF9D0B" fill-opacity="1.000000" fill-rule="nonzero"/>
		<path id="path" d="M8.77 17.42C9.39 16.51 9.35 15.82 8.49 14.96C7.63 14.1 7.13 12.85 7.13 12.85C7.13 12.85 6.95 12.12 6.52 12.19C6.09 12.26 5.78 13.34 6.67 14.01C7.56 14.67 6.5 15.13 6.15 14.5C5.81 13.88 4.88 12.27 4.39 11.96C3.91 11.65 3.57 11.82 3.68 12.46C3.79 13.1 5.82 14.63 5.62 14.96C5.43 15.3 4.73 14.57 4.73 14.57C4.73 14.57 2.56 12.59 2.08 13.11C1.61 13.62 2.44 14.06 3.63 14.77C4.82 15.49 4.91 15.68 4.74 15.96C4.57 16.23 1.95 14.02 1.7 14.96C1.46 15.89 4.38 16.16 4.2 16.81C4.02 17.46 2.14 15.59 1.76 16.31C1.37 17.04 4.41 17.9 4.43 17.91C5.41 18.16 7.9 18.7 8.77 17.42Z" fill="#FFD21E" fill-opacity="1.000000" fill-rule="nonzero"/>
		<path id="path" d="M17.59 10.9C17.95 10.9 18.28 11.05 18.51 11.33C18.71 11.58 18.81 11.86 18.81 12.18C18.96 12.14 19.11 12.12 19.26 12.12C19.61 12.12 19.93 12.25 20.15 12.49C20.36 12.71 20.48 12.96 20.51 13.26C20.55 13.55 20.49 13.83 20.33 14.08C20.54 14.25 20.67 14.47 20.74 14.72C20.79 14.93 20.85 15.36 20.56 15.8C20.79 16.17 20.82 16.55 20.64 16.94C20.41 17.47 19.83 17.88 18.71 18.33C18.01 18.61 17.37 18.78 17.36 18.79C16.55 19.01 15.72 19.13 14.88 19.15C13.54 19.15 12.59 18.74 12.04 17.94C11.16 16.64 11.29 15.46 12.43 14.32C13.06 13.69 13.48 12.76 13.57 12.55C13.75 11.95 14.21 11.27 14.99 11.27C15.43 11.28 15.78 11.47 16.03 11.83C16.26 11.55 16.48 11.32 16.69 11.19C16.96 11.01 17.26 10.91 17.59 10.9ZM17.59 11.81C17.47 11.81 17.33 11.86 17.17 11.96C16.69 12.27 15.75 13.88 15.41 14.5C15.31 14.7 15.14 14.8 14.92 14.8C14.57 14.8 14.3 14.45 14.89 14.01C15.78 13.34 15.47 12.25 15.04 12.19C15.02 12.19 15.01 12.18 14.99 12.18C14.6 12.18 14.43 12.85 14.43 12.85C14.43 12.85 13.93 14.1 13.07 14.96C12.22 15.82 12.17 16.51 12.8 17.42C13.22 18.05 14.04 18.24 14.88 18.24C15.75 18.24 16.63 18.03 17.13 17.91C17.16 17.9 20.19 17.04 19.81 16.32C19.74 16.19 19.64 16.14 19.5 16.14C18.96 16.14 17.98 16.95 17.55 16.95C17.46 16.95 17.39 16.91 17.37 16.81C17.18 16.16 20.1 15.89 19.86 14.95C19.82 14.79 19.7 14.72 19.53 14.72C18.82 14.72 17.21 15.98 16.88 15.98C16.85 15.98 16.83 15.97 16.82 15.96C16.66 15.68 16.75 15.49 17.93 14.77C19.12 14.06 19.96 13.62 19.48 13.11C19.43 13.05 19.35 13.02 19.26 13.02C18.53 13.02 16.83 14.57 16.83 14.57C16.83 14.57 16.37 15.05 16.09 15.05C16.03 15.05 15.97 15.02 15.94 14.96C15.74 14.63 17.77 13.1 17.88 12.46C17.96 12.03 17.83 11.81 17.59 11.81Z" fill="#FF9D0B" fill-opacity="1.000000" fill-rule="nonzero"/>
		<path id="path" d="M12.8 17.42C12.17 16.51 12.22 15.82 13.08 14.96C13.93 14.1 14.43 12.85 14.43 12.85C14.43 12.85 14.62 12.12 15.04 12.19C15.47 12.26 15.78 13.34 14.89 14.01C14 14.67 15.07 15.13 15.41 14.5C15.75 13.88 16.69 12.27 17.17 11.96C17.66 11.65 18 11.82 17.88 12.46C17.77 13.1 15.74 14.63 15.94 14.96C16.14 15.3 16.83 14.57 16.83 14.57C16.83 14.57 19.01 12.59 19.48 13.11C19.95 13.62 19.12 14.06 17.94 14.77C16.75 15.49 16.66 15.68 16.82 15.96C16.99 16.23 19.61 14.02 19.86 14.96C20.1 15.89 17.19 16.16 17.37 16.81C17.55 17.46 19.42 15.59 19.81 16.31C20.19 17.04 17.16 17.9 17.13 17.91C16.15 18.16 13.67 18.7 12.8 17.42Z" fill="#FFD21E" fill-opacity="1.000000" fill-rule="nonzero"/>
	</g>
</svg>