<svg width="20.000000" height="20.000000" viewBox="0 0 20 20" fill="none" xmlns="http://www.w3.org/2000/svg" xmlns:xlink="http://www.w3.org/1999/xlink">
	<desc>
			Created with Pixso.
	</desc>
	<defs/>
	<rect id="ICON/16/Error" width="20.000000" height="20.000000" fill="#FFFFFF" fill-opacity="0"/>
	<path id="形状结合" d="M1.25 10.625C1.25 5.42615 5.42578 1.25 10.625 1.25C15.8242 1.25 20 5.42615 20 10.625C20 15.8239 15.8242 20 10.625 20C5.42578 20 1.25 15.8239 1.25 10.625ZM10 5.625C10 5.27979 10.2803 5 10.625 5C10.9697 5 11.25 5.27979 11.25 5.625L11.25 11.875C11.25 12.2202 10.9697 12.5 10.625 12.5C10.2803 12.5 10 12.2202 10 11.875L10 5.625ZM11.0625 15.1875C11.3125 15.4375 11.3125 15.8125 11.0625 16.0625C10.8125 16.3125 10.4375 16.3125 10.1875 16.0625C9.9375 15.8125 9.9375 15.4375 10.1875 15.1875C10.4375 14.9375 10.8125 14.9375 11.0625 15.1875Z" clip-rule="evenodd" fill="#808080" fill-opacity="1.000000" fill-rule="evenodd"/>
</svg>
