<svg width="16.000000" height="16.000000" viewBox="0 0 16 16" fill="none" xmlns="http://www.w3.org/2000/svg" xmlns:xlink="http://www.w3.org/1999/xlink">
    <desc>
        Created with Pixso.
    </desc>
    <defs/>
    <rect id="下划线" width="16.000000" height="16.000000" fill="#FFFFFF" fill-opacity="0"/>
    <path id="U" d="M11.99 2L10.75 2L10.75 7.9Q10.75 9.53 10.04 10.39Q9.86 10.61 9.64 10.77Q8.99 11.25 7.99 11.25Q6.98 11.25 6.34 10.77Q6.12 10.6 5.94 10.39C5.48 9.81 5.24 8.99 5.24 7.9L5.24 2L4 2L4 8.1Q4 9.95 4.9 11.07Q4.98 11.16 5.06 11.25Q5.3 11.51 5.58 11.71Q6.54 12.4 7.99 12.4Q9.24 12.4 10.14 11.88C10.74 11.54 11.2 11.04 11.51 10.39C11.83 9.74 11.99 8.98 11.99 8.1L11.99 2ZM13.11 13.29L2.88 13.29L2.88 13.99L13.11 13.99L13.11 13.29Z" fill="#4D4D4D" fill-opacity="1.000000" fill-rule="evenodd"/>
</svg>
