<svg width="16.000000" height="16.000000" viewBox="0 0 16 16" fill="none" xmlns="http://www.w3.org/2000/svg" xmlns:xlink="http://www.w3.org/1999/xlink">
    <desc>
        Created with Pixso.
    </desc>
    <defs/>
    <rect id="ICON/16/Copy" width="16.000000" height="16.000000" fill="#FFFFFF" fill-opacity="0"/>
    <path id="路径" d="M8.58 2C8.83 1.95 9 1.74 9 1.5C9 1.22 8.77 1 8.5 1L2.55 1C1.66 1.07 0.99 1.81 1 2.7L1 8.58C1.04 8.83 1.25 9 1.5 9C1.77 9 2 8.77 2 8.5L2 2.6C2.05 2.25 2.34 1.99 2.69 2L8.58 2Z" fill="#4D4D4D" fill-opacity="1.000000" fill-rule="evenodd"/>
    <path id="形状" d="M13.5703 3L4.41992 3C3.63672 3 3 3.63574 3 4.41992L3 13.5801C3 14.3643 3.63672 15 4.41992 15L13.5703 15C14.3555 15 14.9941 14.3657 15 13.5801L15 4.41992C14.9941 3.63428 14.3555 3 13.5703 3ZM14 13.7002L14 4.35986C13.998 4.18408 13.873 4.0332 13.6992 4L4.36914 4C4.19141 4.00049 4.03711 4.12549 4 4.2998L4 13.6401C3.99609 13.8145 4.11914 13.9663 4.28906 14L13.6406 14C13.8145 13.9946 13.9629 13.8711 14 13.7002Z" clip-rule="evenodd" fill="#4D4D4D" fill-opacity="1.000000" fill-rule="evenodd"/>
    <path id="路径" d="M6.99 9L11 9" stroke="#4D4D4D" stroke-opacity="1.000000" stroke-width="1.000000" stroke-linecap="round"/>
    <path id="路径" d="M6.99 6L11 6" stroke="#4D4D4D" stroke-opacity="1.000000" stroke-width="1.000000" stroke-linecap="round"/>
    <path id="路径" d="M6.99 12L11 12" stroke="#4D4D4D" stroke-opacity="1.000000" stroke-width="1.000000" stroke-linecap="round"/>
    <rect id="矩形备份 10" width="16.000000" height="16.000000" fill="#D8D8D8" fill-opacity="0"/>
    <rect id="矩形备份 10" x="0.500000" y="0.500000" width="15.000000" height="15.000000" stroke="#979797" stroke-opacity="0" stroke-width="1.000000"/>
</svg>
