<svg width="28.000000" height="28.000000" viewBox="0 0 28 28" fill="none" xmlns="http://www.w3.org/2000/svg" xmlns:xlink="http://www.w3.org/1999/xlink">
	<desc>
			Created with Pixso.
	</desc>
	<defs>
		<clipPath id="clip2562_231235">
			<rect id="code" width="16.333332" height="13.270833" transform="translate(5.833008 7.000000)" fill="white" fill-opacity="0"/>
		</clipPath>
		<clipPath id="clip2562_231236">
			<rect id="code" rx="14.000000" width="28.000000" height="28.000000" fill="white" fill-opacity="0"/>
		</clipPath>
	</defs>
	<rect id="code" rx="14.000000" width="28.000000" height="28.000000" fill="#8988FF" fill-opacity="1.000000"/>
	<g clip-path="url(#clip2562_231236)">
		<g clip-path="url(#clip2562_231235)">
			<path id="path" d="M16.6 7.47C16.62 7.47 16.64 7.48 16.66 7.49C16.68 7.5 16.69 7.51 16.71 7.52C16.73 7.53 16.74 7.55 16.75 7.56C16.77 7.58 16.78 7.6 16.79 7.61C16.8 7.63 16.8 7.65 16.81 7.67C16.82 7.69 16.82 7.71 16.82 7.73C16.83 7.75 16.83 7.77 16.82 7.79C16.82 7.81 16.82 7.83 16.81 7.85L13.33 20.04C13.32 20.06 13.32 20.08 13.31 20.1C13.3 20.11 13.29 20.13 13.27 20.15C13.26 20.16 13.25 20.18 13.23 20.19C13.22 20.2 13.2 20.22 13.18 20.23C13.16 20.24 13.15 20.24 13.13 20.25C13.11 20.26 13.09 20.26 13.07 20.26C13.05 20.26 13.03 20.26 13.01 20.26C12.99 20.26 12.97 20.26 12.95 20.25L11.39 19.79C11.37 19.79 11.36 19.78 11.34 19.77C11.32 19.76 11.3 19.75 11.29 19.74C11.27 19.73 11.26 19.71 11.25 19.7C11.23 19.68 11.22 19.66 11.21 19.64C11.2 19.63 11.19 19.61 11.19 19.59C11.18 19.57 11.18 19.55 11.17 19.53C11.17 19.51 11.17 19.49 11.17 19.47C11.18 19.45 11.18 19.43 11.19 19.41L14.67 7.22C14.67 7.2 14.68 7.18 14.69 7.16C14.7 7.15 14.71 7.13 14.72 7.11C14.73 7.1 14.75 7.08 14.76 7.07C14.78 7.06 14.79 7.05 14.81 7.04C14.83 7.03 14.85 7.02 14.87 7.01C14.88 7 14.9 7 14.92 7C14.94 7 14.96 7 14.98 7C15 7 15.02 7 15.04 7.01L16.6 7.47Z" fill="#FFFFFF" fill-opacity="1.000000" fill-rule="nonzero"/>
			<path id="path" d="M22.07 13.4L18.39 9.9C18.37 9.89 18.36 9.87 18.34 9.86C18.32 9.85 18.31 9.84 18.29 9.84C18.27 9.83 18.25 9.82 18.23 9.82C18.21 9.82 18.19 9.82 18.17 9.82C18.15 9.82 18.13 9.82 18.11 9.82C18.09 9.83 18.07 9.83 18.05 9.84C18.04 9.85 18.02 9.86 18 9.87C17.98 9.89 17.97 9.9 17.95 9.91L16.84 11.12C16.83 11.13 16.82 11.15 16.81 11.17C16.8 11.18 16.79 11.2 16.78 11.22C16.77 11.24 16.77 11.26 16.77 11.28C16.76 11.3 16.76 11.32 16.76 11.35C16.76 11.37 16.77 11.39 16.77 11.41C16.78 11.43 16.78 11.45 16.79 11.47C16.8 11.48 16.81 11.5 16.82 11.52C16.84 11.53 16.85 11.55 16.87 11.56L19.18 13.63L16.87 15.7C16.85 15.71 16.84 15.73 16.82 15.74C16.81 15.76 16.8 15.78 16.79 15.8C16.78 15.81 16.77 15.83 16.77 15.85C16.76 15.87 16.76 15.9 16.76 15.92C16.76 15.94 16.76 15.96 16.76 15.98C16.77 16 16.77 16.02 16.78 16.04C16.79 16.06 16.8 16.08 16.81 16.1C16.82 16.11 16.83 16.13 16.84 16.14L17.95 17.35C17.97 17.36 17.98 17.37 18 17.39C18.02 17.4 18.03 17.41 18.05 17.42C18.07 17.43 18.09 17.43 18.11 17.44C18.13 17.44 18.15 17.44 18.17 17.45C18.19 17.45 18.21 17.44 18.23 17.44C18.25 17.44 18.27 17.43 18.29 17.43C18.31 17.42 18.32 17.41 18.34 17.4C18.36 17.39 18.37 17.38 18.39 17.36L22.07 13.86C22.08 13.84 22.1 13.83 22.11 13.81C22.12 13.79 22.13 13.78 22.14 13.76C22.15 13.74 22.16 13.72 22.16 13.7C22.16 13.67 22.17 13.65 22.17 13.63C22.17 13.61 22.16 13.59 22.16 13.57C22.16 13.55 22.15 13.53 22.14 13.51C22.13 13.49 22.12 13.47 22.11 13.45C22.1 13.43 22.08 13.42 22.07 13.4ZM11.15 11.12L10.04 9.92C10.03 9.9 10.01 9.89 9.99 9.88C9.98 9.86 9.96 9.85 9.94 9.84C9.92 9.84 9.9 9.83 9.88 9.83C9.86 9.82 9.84 9.82 9.82 9.82C9.8 9.82 9.78 9.82 9.76 9.82C9.74 9.83 9.72 9.83 9.71 9.84C9.69 9.85 9.67 9.85 9.65 9.87C9.63 9.88 9.62 9.89 9.6 9.9L5.93 13.4C5.91 13.42 5.9 13.43 5.89 13.45C5.87 13.47 5.86 13.49 5.85 13.51C5.85 13.52 5.84 13.55 5.84 13.57C5.83 13.59 5.83 13.61 5.83 13.63C5.83 13.65 5.83 13.67 5.84 13.69C5.84 13.71 5.85 13.73 5.85 13.75C5.86 13.77 5.87 13.79 5.89 13.81C5.9 13.83 5.91 13.84 5.93 13.86L9.6 17.36C9.62 17.37 9.63 17.38 9.65 17.4C9.67 17.41 9.69 17.42 9.71 17.42C9.72 17.43 9.74 17.44 9.76 17.44C9.78 17.44 9.8 17.44 9.82 17.44C9.84 17.44 9.86 17.44 9.88 17.44C9.9 17.43 9.92 17.43 9.94 17.42C9.96 17.41 9.98 17.4 9.99 17.39C10.01 17.37 10.03 17.36 10.04 17.35L11.15 16.14C11.16 16.13 11.18 16.11 11.19 16.09C11.2 16.08 11.21 16.06 11.21 16.04C11.22 16.02 11.23 16 11.23 15.98C11.23 15.96 11.23 15.94 11.23 15.91C11.23 15.89 11.23 15.87 11.22 15.85C11.22 15.83 11.21 15.81 11.2 15.79C11.19 15.78 11.18 15.76 11.17 15.74C11.16 15.72 11.14 15.71 11.13 15.7L8.82 13.63L11.13 11.57C11.14 11.55 11.16 11.54 11.17 11.52C11.18 11.5 11.19 11.49 11.2 11.47C11.21 11.45 11.22 11.43 11.22 11.41C11.23 11.39 11.23 11.37 11.23 11.35C11.23 11.33 11.23 11.3 11.23 11.28C11.23 11.26 11.22 11.24 11.21 11.22C11.21 11.2 11.2 11.19 11.19 11.17C11.18 11.15 11.16 11.13 11.15 11.12Z" fill="#FFFFFF" fill-opacity="1.000000" fill-rule="nonzero"/>
		</g>
	</g>
</svg>
