<svg width="12.000000" height="12.000000" viewBox="0 0 12 12" fill="none" xmlns="http://www.w3.org/2000/svg" xmlns:xlink="http://www.w3.org/1999/xlink">
	<desc>
			Created with Pixso.
	</desc>
	<defs/>
	<rect id="展开" width="12.000000" height="12.000000" fill="#FFFFFF" fill-opacity="0"/>
	<path id="合并" d="M5.75 2C5.75 1.44775 5.30273 1 4.75 1L1.75 1C1.19727 1 0.75 1.44775 0.75 2L0.75 5C0.75 5.55225 1.19727 6 1.75 6L2.75 6L2.75 9.5L6.25 9.5C6.53027 9.5 6.75 9.28003 6.75 9C6.75 8.71997 6.53027 8.5 6.25 8.5L3.75 8.5L3.75 6L4.75 6C5.30273 6 5.75 5.55225 5.75 5L5.75 2ZM4.75 5L4.75 2L1.75 2L1.75 5L4.75 5ZM9.25 7C9.53027 7 9.75 7.21997 9.75 7.5L9.75 8.5L10.75 8.5C11.0303 8.5 11.25 8.71997 11.25 9C11.25 9.28003 11.0303 9.5 10.75 9.5L9.75 9.5L9.75 10.5C9.75 10.78 9.53027 11 9.25 11C8.96973 11 8.75 10.78 8.75 10.5L8.75 9.5L7.75 9.5C7.46973 9.5 7.25 9.28003 7.25 9C7.25 8.71997 7.46973 8.5 7.75 8.5L8.75 8.5L8.75 7.5C8.75 7.21997 8.96973 7 9.25 7Z" clip-rule="evenodd" fill="#2673E5" fill-opacity="1.000000" fill-rule="evenodd"/>
</svg>
