<svg width="16.000000" height="16.000000" viewBox="0 0 16 16" fill="none" xmlns="http://www.w3.org/2000/svg" xmlns:xlink="http://www.w3.org/1999/xlink">
	<desc>
			Created with Pixso.
	</desc>
	<defs/>
	<rect id="ICON/16/Edit" width="16.000000" height="16.000000" fill="#FFFFFF" fill-opacity="0"/>
	<path id="ICON" d="M14.3623 1.64917C14.168 1.45337 13.8506 1.45264 13.6553 1.64734L8.14746 7.12683L8.08887 7.19592C7.9541 7.39038 7.97266 7.65991 8.14551 7.83398C8.33984 8.02966 8.65723 8.03052 8.85254 7.83582L14.3604 2.35632L14.4189 2.28723C14.5537 2.09265 14.5352 1.82324 14.3623 1.64917ZM8.46387 2.00012C8.74023 2.00012 8.96387 2.224 8.96387 2.50012C8.96387 2.74561 8.78711 2.94971 8.55371 2.99207L8.46387 3.00012L3.41699 3.00012C3.21191 3.00012 3.04199 3.14746 3.00684 3.34192L3 3.41675L3 12.5835C3 12.788 3.14746 12.9581 3.3418 12.9934L3.41699 13.0001L12.583 13.0001C12.7881 13.0001 12.958 12.8527 12.9932 12.6583L13 12.5835L13 7.11768C13 6.84155 13.2236 6.61768 13.5 6.61768C13.7451 6.61768 13.9492 6.79456 13.9922 7.02783L14 7.11768L14 12.5835C14 13.3198 13.4385 13.9249 12.7197 13.9937L12.583 14.0001L3.41699 14.0001C2.68066 14.0001 2.0752 13.4382 2.00684 12.7198L2 12.5835L2 3.41675C2 2.68042 2.56152 2.0752 3.28027 2.00659L3.41699 2.00012L8.46387 2.00012Z" clip-rule="evenodd" fill="#2673E5" fill-opacity="1.000000" fill-rule="evenodd"/>
</svg>
