<svg width="13.999512" height="14.000000" viewBox="0 0 13.9995 14" fill="none" xmlns="http://www.w3.org/2000/svg" xmlns:xlink="http://www.w3.org/1999/xlink">
	<desc>
			Created with Pixso.
	</desc>
	<defs/>
	<path id="path" d="M13.44 1.57L10.84 4.17L9.78 3.11L12.38 0.51C12.3 0.47 12.23 0.43 12.15 0.39C12.08 0.35 12 0.31 11.92 0.28C11.85 0.24 11.77 0.21 11.69 0.18C11.61 0.16 11.52 0.13 11.44 0.11C11.36 0.09 11.28 0.07 11.19 0.05C11.11 0.04 11.02 0.02 10.94 0.02C10.85 0.01 10.77 0 10.68 0C10.6 -0.01 10.52 -0.01 10.43 0C10.34 0 10.26 0.01 10.18 0.02C10.09 0.03 10.01 0.04 9.92 0.06C9.84 0.07 9.76 0.09 9.67 0.11C9.59 0.14 9.51 0.16 9.43 0.19C9.35 0.22 9.27 0.25 9.19 0.28C9.11 0.32 9.04 0.35 8.96 0.39C8.89 0.43 8.81 0.48 8.74 0.52C8.67 0.57 8.6 0.61 8.53 0.67C8.46 0.72 8.4 0.77 8.33 0.83C8.27 0.88 8.2 0.94 8.14 1C8.08 1.06 8.03 1.12 7.97 1.19C7.91 1.25 7.86 1.32 7.81 1.39C7.76 1.45 7.71 1.52 7.67 1.6C7.62 1.67 7.58 1.74 7.54 1.82C7.5 1.89 7.46 1.97 7.43 2.05C7.39 2.13 7.36 2.2 7.34 2.29C7.31 2.37 7.28 2.45 7.26 2.53C7.24 2.61 7.22 2.69 7.2 2.78C7.19 2.86 7.17 2.95 7.16 3.03C7.15 3.12 7.15 3.2 7.14 3.29C7.14 3.37 7.14 3.46 7.14 3.54C7.15 3.63 7.15 3.71 7.16 3.8C7.17 3.88 7.18 3.96 7.2 4.05C7.22 4.13 7.23 4.21 7.26 4.3L4.3 7.26C4.22 7.24 4.13 7.22 4.05 7.2C3.97 7.19 3.88 7.18 3.8 7.17C3.71 7.16 3.63 7.15 3.54 7.15C3.46 7.14 3.37 7.14 3.29 7.15C3.2 7.15 3.12 7.16 3.03 7.17C2.95 7.18 2.87 7.19 2.78 7.2C2.7 7.22 2.62 7.24 2.53 7.26C2.45 7.28 2.37 7.31 2.29 7.34C2.21 7.36 2.13 7.4 2.05 7.43C1.97 7.46 1.9 7.5 1.82 7.54C1.75 7.58 1.67 7.62 1.6 7.67C1.53 7.71 1.46 7.76 1.39 7.81C1.32 7.86 1.25 7.91 1.19 7.97C1.12 8.03 1.06 8.08 1 8.14C0.94 8.2 0.88 8.27 0.83 8.33C0.77 8.39 0.72 8.46 0.67 8.53C0.62 8.6 0.57 8.67 0.52 8.74C0.48 8.81 0.44 8.89 0.4 8.96C0.36 9.04 0.32 9.11 0.28 9.19C0.25 9.27 0.22 9.35 0.19 9.43C0.16 9.51 0.14 9.59 0.11 9.67C0.09 9.75 0.07 9.84 0.06 9.92C0.04 10 0.03 10.09 0.02 10.17C0.01 10.26 0 10.34 0 10.43C-0.01 10.51 -0.01 10.6 0 10.68C0 10.77 0.01 10.85 0.01 10.94C0.02 11.02 0.04 11.11 0.05 11.19C0.07 11.27 0.09 11.36 0.11 11.44C0.13 11.52 0.15 11.6 0.18 11.68C0.21 11.76 0.24 11.84 0.27 11.92C0.31 12 0.34 12.08 0.38 12.15C0.42 12.23 0.46 12.3 0.51 12.37L3.1 9.78L4.17 10.84L1.56 13.45C1.64 13.49 1.71 13.54 1.78 13.58C1.86 13.62 1.94 13.66 2.02 13.69C2.09 13.73 2.17 13.76 2.25 13.79C2.33 13.82 2.42 13.85 2.5 13.87C2.58 13.89 2.66 13.91 2.75 13.93C2.83 13.95 2.92 13.96 3 13.97C3.09 13.98 3.17 13.99 3.26 13.99C3.34 14 3.43 14 3.52 13.99C3.6 13.99 3.69 13.99 3.77 13.98C3.86 13.97 3.94 13.96 4.03 13.94C4.11 13.93 4.2 13.91 4.28 13.89C4.36 13.86 4.44 13.84 4.52 13.81C4.61 13.78 4.69 13.75 4.77 13.72C4.84 13.69 4.92 13.65 5 13.61C5.07 13.57 5.15 13.53 5.22 13.48C5.29 13.44 5.37 13.39 5.43 13.34C5.5 13.29 5.57 13.24 5.64 13.18C5.7 13.13 5.77 13.07 5.83 13.01C5.89 12.95 5.95 12.88 6 12.82C6.06 12.76 6.11 12.69 6.16 12.62C6.22 12.55 6.26 12.48 6.31 12.41C6.36 12.34 6.4 12.26 6.44 12.19C6.48 12.11 6.52 12.03 6.55 11.95C6.59 11.88 6.62 11.8 6.65 11.72C6.68 11.63 6.7 11.55 6.72 11.47C6.75 11.39 6.77 11.3 6.78 11.22C6.8 11.14 6.81 11.05 6.82 10.97C6.83 10.88 6.84 10.79 6.84 10.71C6.85 10.62 6.85 10.54 6.84 10.45C6.84 10.37 6.83 10.28 6.82 10.2C6.81 10.11 6.8 10.02 6.79 9.94C6.77 9.86 6.75 9.77 6.73 9.69L9.69 6.74C9.77 6.76 9.85 6.78 9.94 6.8C10.02 6.81 10.11 6.83 10.19 6.83C10.28 6.84 10.36 6.85 10.45 6.85C10.53 6.86 10.62 6.86 10.7 6.85C10.79 6.85 10.88 6.84 10.96 6.83C11.05 6.82 11.13 6.81 11.22 6.79C11.3 6.78 11.38 6.76 11.47 6.74C11.55 6.71 11.63 6.69 11.71 6.66C11.79 6.63 11.87 6.6 11.95 6.57C12.03 6.53 12.11 6.49 12.18 6.45C12.26 6.41 12.33 6.37 12.4 6.32C12.48 6.28 12.55 6.23 12.62 6.18C12.68 6.13 12.75 6.07 12.82 6.02C12.88 5.96 12.94 5.9 13 5.84C13.06 5.78 13.12 5.72 13.18 5.65C13.23 5.59 13.29 5.52 13.34 5.45C13.39 5.38 13.43 5.31 13.48 5.24C13.52 5.16 13.57 5.09 13.61 5.01C13.65 4.94 13.68 4.86 13.72 4.78C13.75 4.7 13.78 4.62 13.81 4.54C13.84 4.46 13.86 4.38 13.88 4.29C13.91 4.21 13.92 4.13 13.94 4.04C13.95 3.96 13.97 3.87 13.98 3.79C13.98 3.7 13.99 3.62 13.99 3.53C14 3.45 13.99 3.36 13.99 3.28C13.99 3.19 13.98 3.1 13.97 3.02C13.96 2.93 13.95 2.85 13.93 2.77C13.91 2.68 13.89 2.6 13.87 2.52C13.85 2.43 13.82 2.35 13.79 2.27C13.76 2.19 13.73 2.11 13.69 2.03C13.66 1.95 13.62 1.88 13.58 1.8C13.54 1.73 13.5 1.65 13.45 1.58L13.44 1.57Z" fill="#2673E5" fill-opacity="1.000000" fill-rule="nonzero"/>
</svg>
