<svg width="14.000000" height="14.000000" viewBox="0 0 14 14" fill="none" xmlns="http://www.w3.org/2000/svg" xmlns:xlink="http://www.w3.org/1999/xlink">
	<desc>
			Created with Pixso.
	</desc>
	<defs/>
	<path id="path" d="M12.31 6.67L11.32 6.67L11.32 4C11.32 3.28 10.72 2.67 9.99 2.67L7.32 2.67L7.32 1.66C7.32 0.75 6.58 0 5.66 0C4.74 0 4 0.75 4 1.66L4 2.66L1.32 2.66C0.59 2.66 0 3.25 0 3.99L0 6.54L0.98 6.54C1.97 6.54 2.78 7.33 2.78 8.33C2.78 9.33 1.98 10.13 0.98 10.13L0 10.13L0 12.69C0 13.4 0.59 14 1.32 14L3.87 14L3.87 12.99C3.87 12 4.67 11.19 5.67 11.19C6.67 11.19 7.46 11.99 7.46 12.99L7.46 14L9.99 14C10.72 14 11.32 13.4 11.32 12.66L11.32 9.99L12.33 9.99C13.25 9.99 14 9.24 14 8.32C13.98 7.41 13.25 6.67 12.31 6.67Z" fill="#1370FF" fill-opacity="1.000000" fill-rule="nonzero"/>
</svg>
