<svg width="12.000000" height="14.000000" viewBox="0 0 12 14" fill="none" xmlns="http://www.w3.org/2000/svg" xmlns:xlink="http://www.w3.org/1999/xlink">
	<desc>
			Created with Pixso.
	</desc>
	<defs/>
	<path id="形状结合" d="M10 0C11.1 0 12 0.89 12 2L12 12C12 13.1 11.1 14 10 14L2 14C0.89 14 0 13.1 0 12L0 2C0 0.89 0.89 0 2 0L10 0ZM10 1L2 1C1.44 1 1 1.44 1 2L1 12C1 12.55 1.44 13 2 13L10 13C10.55 13 11 12.55 11 12L11 2C11 1.44 10.55 1 10 1ZM6.5 10C6.77 10 7 10.22 7 10.5C7 10.77 6.77 11 6.5 11L3.5 11C3.22 11 3 10.77 3 10.5C3 10.22 3.22 10 3.5 10L6.5 10ZM8.5 8C8.77 8 9 8.22 9 8.5C9 8.77 8.77 9 8.5 9L3.5 9C3.22 9 3 8.77 3 8.5C3 8.22 3.22 8 3.5 8L8.5 8ZM8.5 3C8.77 3 9 3.22 9 3.5L9 5.5C9 5.77 8.77 6 8.5 6L3.5 6C3.22 6 3 5.77 3 5.5L3 3.5C3 3.22 3.22 3 3.5 3L8.5 3ZM8 4L4 4L4 5L8 5L8 4Z" fill="#B3B3B3" fill-opacity="1.000000" fill-rule="nonzero"/>
	<path id="形状结合" d="M12 2L12 12C12 13.1 11.1 14 10 14L2 14C0.89 14 0 13.1 0 12L0 2C0 0.89 0.89 0 2 0L10 0C11.1 0 12 0.89 12 2ZM2 1C1.44 1 1 1.44 1 2L1 12C1 12.55 1.44 13 2 13L10 13C10.55 13 11 12.55 11 12L11 2C11 1.44 10.55 1 10 1L2 1ZM7 10.5C7 10.77 6.77 11 6.5 11L3.5 11C3.22 11 3 10.77 3 10.5C3 10.22 3.22 10 3.5 10L6.5 10C6.77 10 7 10.22 7 10.5ZM9 8.5C9 8.77 8.77 9 8.5 9L3.5 9C3.22 9 3 8.77 3 8.5C3 8.22 3.22 8 3.5 8L8.5 8C8.77 8 9 8.22 9 8.5ZM9 3.5L9 5.5C9 5.77 8.77 6 8.5 6L3.5 6C3.22 6 3 5.77 3 5.5L3 3.5C3 3.22 3.22 3 3.5 3L8.5 3C8.77 3 9 3.22 9 3.5ZM4 4L4 5L8 5L8 4L4 4Z" stroke="#000000" stroke-opacity="0" stroke-width="1.000000"/>
</svg>
