<svg width="24.000000" height="24.000000" viewBox="0 0 24 24" fill="none" xmlns="http://www.w3.org/2000/svg" xmlns:xlink="http://www.w3.org/1999/xlink">
	<desc>
			Created with Pixso.
	</desc>
	<defs>
		<clipPath id="clip8176_101956">
			<rect id="变量聚合" rx="12.000000" width="24.000000" height="24.000000" fill="white" fill-opacity="0"/>
		</clipPath>
	</defs>
	<rect id="变量聚合" rx="12.000000" width="24.000000" height="24.000000" fill="#39C295" fill-opacity="1.000000"/>
	<g clip-path="url(#clip8176_101956)">
		<path id="减去顶层" d="M16.8989 4.2854L6.27637 4.2854C5.6377 4.2854 5.14453 4.78882 5.14453 5.44031L5.14453 18.5591C5.14453 19.1809 5.6377 19.714 6.27637 19.714L12.856 19.714C11.8159 18.932 11.1431 17.6875 11.1431 16.2859C11.1431 13.9189 13.0615 12.0002 15.4287 12.0002C16.394 12.0002 17.2852 12.3196 18.0015 12.8583L18.0015 5.44031C18.0015 4.78882 17.5083 4.2854 16.8989 4.2854ZM8.3584 8.25476Q8.50879 8.02148 8.50879 7.61609L8.50879 7.40466Q8.50879 7.07654 8.62109 6.94897Q8.73389 6.82153 9 6.82153L9.15479 6.82153L9.15479 5.99988L8.80469 5.99988Q8.36719 5.99988 8.09375 6.09485Q7.95947 6.14111 7.85693 6.22595L7.85693 6.22595L7.85693 6.22595Q7.75195 6.3125 7.68066 6.43921Q7.53906 6.68872 7.53906 7.14429L7.53906 7.47644Q7.53906 7.70972 7.47705 7.8385C7.43555 7.92346 7.36621 7.98633 7.26855 8.02698C7.17236 8.06763 7.03564 8.09521 6.8584 8.10962L6.8584 9.03162C7.03174 9.047 7.1665 9.0741 7.26318 9.11304C7.36035 9.15186 7.43066 9.21375 7.47412 9.29883Q7.53906 9.42627 7.53906 9.66492L7.53906 9.99841C7.53906 10.3021 7.58594 10.5371 7.68066 10.7035C7.7749 10.8698 7.9126 10.9846 8.09375 11.0479Q8.36719 11.1428 8.80469 11.1428L9.15479 11.1428L9.15479 10.3197L9 10.3197Q8.73389 10.3197 8.62109 10.1923C8.54639 10.1073 8.50879 9.95544 8.50879 9.73669L8.50879 9.52661Q8.50879 9.12109 8.3584 8.88794Q8.33838 8.85669 8.31494 8.82825L8.31494 8.82825L8.31494 8.82812Q8.16357 8.64343 7.87549 8.57068C8.09717 8.5155 8.2583 8.41028 8.3584 8.25476ZM14.6353 7.40466C14.6353 7.18591 14.5977 7.03406 14.5225 6.94897C14.4482 6.86401 14.3223 6.82153 14.144 6.82153L13.9907 6.82153L13.9907 5.99988L14.3389 5.99988C14.6309 5.99988 14.8662 6.03149 15.0454 6.09485C15.2256 6.15723 15.3628 6.27197 15.4575 6.43921C15.5527 6.60559 15.6006 6.84058 15.6006 7.14429L15.6006 7.47644C15.6006 7.63196 15.6211 7.75256 15.6626 7.8385C15.7041 7.92346 15.7739 7.98633 15.8721 8.02698C15.9712 8.06763 16.1099 8.09521 16.2871 8.10962L16.2871 9.03162C16.1099 9.047 15.9722 9.0741 15.875 9.11304Q15.7832 9.15002 15.7236 9.21606L15.7236 9.21619Q15.6895 9.25403 15.6655 9.30151C15.6221 9.38831 15.6006 9.5094 15.6006 9.66492L15.6006 9.99841C15.6006 10.3021 15.5527 10.5371 15.4575 10.7035C15.3628 10.8698 15.2256 10.9846 15.0454 11.0479C14.8662 11.1111 14.6309 11.1428 14.3389 11.1428L13.9907 11.1428L13.9907 10.3197L14.144 10.3197C14.3223 10.3197 14.4482 10.2772 14.5225 10.1923C14.5977 10.1073 14.6353 9.95544 14.6353 9.73669L14.6353 9.52661Q14.6353 9.12109 14.7856 8.88794C14.8867 8.73242 15.0454 8.62671 15.2622 8.57068C15.0454 8.5155 14.8867 8.41028 14.7856 8.25476Q14.6353 8.02148 14.6353 7.61609L14.6353 7.40466ZM12.1553 8.43237L13.6714 6.46094L12.5049 6.46094L11.5991 7.68262L10.7061 6.46094L9.46729 6.46094L10.9834 8.4541L9.39111 10.5259L10.5513 10.5259L11.5342 9.20386L12.4995 10.5259L13.748 10.5259L12.1553 8.43237Z" clip-rule="evenodd" fill="#FFFFFF" fill-opacity="0.800000" fill-rule="evenodd"/>
		<path id="减去顶层" d="M15.4297 12.8572C13.5361 12.8572 12.001 14.3922 12.001 16.2858C12.001 18.1793 13.5361 19.7144 15.4297 19.7144C17.3232 19.7144 18.8579 18.1793 18.8579 16.2858C18.8579 14.3922 17.3232 12.8572 15.4297 12.8572ZM13.9058 15.3833C13.7363 15.2136 13.7363 14.9469 13.9058 14.7772C14.0757 14.6075 14.3423 14.6075 14.5117 14.7772L15.4219 15.687L16.3315 14.7772C16.5015 14.6075 16.7681 14.6075 16.9375 14.7772C17.1074 14.9469 17.1074 15.2136 16.9375 15.3833L16.0278 16.2931L16.936 17.2015C17.106 17.3712 17.106 17.6379 16.936 17.8076C16.7666 17.9773 16.5 17.9773 16.3301 17.8076L15.4219 16.8992L14.5132 17.8076C14.3438 17.9773 14.0767 17.9773 13.9072 17.8076C13.7373 17.6379 13.7373 17.3712 13.9072 17.2015L14.8154 16.2931L13.9058 15.3833Z" clip-rule="evenodd" fill="#FFFFFF" fill-opacity="1.000000" fill-rule="evenodd"/>
	</g>
</svg>
