<svg width="20px" height="20px" viewBox="0 0 20 20" fill="none" xmlns="http://www.w3.org/2000/svg" xmlns:xlink="http://www.w3.org/1999/xlink">
	<desc>
			Created with Pixso.
	</desc>
	<defs>
		<clipPath id="clip1888_165741">
			<rect id="运行中 (1)" width="12.000000" height="12.000000" transform="translate(4.000000 4.000000)" fill="white" fill-opacity="0"/>
		</clipPath>
		<clipPath id="clip1815_243377">
			<rect id="运行中" width="20.000000" height="20.000000" fill="white" fill-opacity="0"/>
		</clipPath>
	</defs>
	<g clip-path="url(#clip1815_243377)">
		<path id="路径" d="M10 0C4.45 0 0 4.45 0 10C0 15.54 4.45 20 10 20C15.54 20 20 15.54 20 10C20 4.45 15.54 0 10 0Z" fill="#2673E5" fill-opacity="1.000000" fill-rule="evenodd"/>
		<g clip-path="url(#clip1888_165741)">
			<path id="path" d="M10 16C9.63 16 9.33 15.7 9.33 15.32L9.39 13.34C9.39 13.01 9.66 12.74 10 12.74C10.33 12.74 10.61 13.01 10.61 13.34L10.67 15.32C10.66 15.7 10.36 16 10 16ZM13.87 14.53C13.68 14.53 13.51 14.46 13.38 14.33L11.96 12.81L11.95 12.8C11.84 12.68 11.77 12.53 11.78 12.36C11.78 12.2 11.85 12.05 11.97 11.93C12.08 11.82 12.23 11.77 12.39 11.77C12.56 11.77 12.71 11.83 12.82 11.95L14.33 13.37L14.35 13.39C14.47 13.52 14.54 13.69 14.54 13.87C14.54 14.05 14.46 14.21 14.33 14.34C14.2 14.47 14.04 14.53 13.87 14.53ZM6.13 14.53C5.94 14.53 5.78 14.46 5.65 14.33C5.52 14.19 5.45 14.03 5.46 13.85C5.47 13.67 5.53 13.5 5.66 13.38L7.18 11.95C7.29 11.84 7.44 11.77 7.6 11.77C7.76 11.77 7.92 11.84 8.03 11.95C8.14 12.07 8.21 12.22 8.21 12.38C8.21 12.54 8.15 12.7 8.03 12.81L6.61 14.32L6.59 14.34C6.47 14.47 6.3 14.53 6.13 14.53ZM13.34 10.6C13.01 10.6 12.74 10.33 12.74 9.99C12.74 9.66 13.01 9.38 13.34 9.38L15.32 9.32C15.69 9.32 16 9.62 16 9.99C16 10.36 15.7 10.66 15.32 10.66C15.33 10.66 13.34 10.6 13.34 10.6ZM4.67 10.66C4.29 10.66 4 10.36 4 10C4 9.63 4.29 9.33 4.67 9.33L6.65 9.39C6.98 9.39 7.25 9.66 7.25 10C7.25 10.33 6.98 10.61 6.65 10.61L4.67 10.66ZM7.61 8.22C7.44 8.22 7.29 8.15 7.17 8.04L5.66 6.61L5.65 6.6C5.52 6.47 5.45 6.3 5.46 6.12C5.47 5.94 5.53 5.77 5.66 5.65C5.79 5.52 5.96 5.46 6.13 5.46C6.32 5.46 6.48 5.53 6.61 5.66L8.04 7.18L8.05 7.19C8.28 7.43 8.27 7.82 8.04 8.05C7.92 8.15 7.77 8.22 7.61 8.22ZM12.39 8.21C12.23 8.21 12.07 8.15 11.96 8.03C11.72 7.79 11.72 7.41 11.96 7.17L13.38 5.66L13.4 5.65C13.52 5.53 13.69 5.46 13.87 5.46C14.05 5.46 14.22 5.53 14.35 5.66C14.47 5.8 14.54 5.96 14.54 6.14C14.54 6.32 14.46 6.49 14.33 6.61L12.82 8.04C12.71 8.15 12.55 8.21 12.39 8.21ZM10 7.25C9.66 7.25 9.39 6.98 9.39 6.65L9.33 4.67C9.33 4.3 9.63 4 10 4C10.36 4 10.67 4.29 10.67 4.67L10.61 6.65C10.6 6.98 10.33 7.25 10 7.25Z" fill="#FFFFFF" fill-opacity="1.000000" fill-rule="nonzero"/>
		</g>
	</g>
</svg>
