<svg width="16.000000" height="16.000000" viewBox="0 0 16 16" fill="none" xmlns="http://www.w3.org/2000/svg" xmlns:xlink="http://www.w3.org/1999/xlink">
	<desc>
			Created with Pixso.
	</desc>
	<defs>
		<clipPath id="clip1888_165768">
			<rect id="工作流" width="16.000000" height="16.000000" fill="white" fill-opacity="0"/>
		</clipPath>
	</defs>
	<g clip-path="url(#clip1888_165768)">
		<path id="path" d="M3.25 1C2.02 1 1 2.02 1 3.25C1 4.23 1.63 5.06 2.5 5.37L2.5 8.53L4.01 8.53L4.01 5.37C4.12 5.33 4.22 5.29 4.32 5.23C4.43 5.18 4.52 5.12 4.62 5.05C4.71 4.98 4.79 4.9 4.87 4.82C4.95 4.73 5.03 4.65 5.1 4.55C5.16 4.46 5.22 4.36 5.27 4.26C5.33 4.15 5.37 4.05 5.41 3.94C5.44 3.83 5.47 3.71 5.49 3.6C5.5 3.49 5.51 3.37 5.51 3.25C5.51 2.02 4.49 1 3.25 1ZM12.29 1C12.18 1 12.06 1 11.95 1.02C11.83 1.04 11.72 1.07 11.61 1.1C11.5 1.14 11.39 1.18 11.29 1.23C11.19 1.28 11.09 1.34 10.99 1.41C10.9 1.48 10.81 1.55 10.72 1.63C10.64 1.71 10.56 1.8 10.5 1.89C10.42 1.98 10.36 2.08 10.31 2.18C10.25 2.29 10.21 2.39 10.17 2.5L7.02 2.5L7.02 4.01L10.17 4.01C10.19 4.07 10.21 4.14 10.24 4.2C10.27 4.26 10.3 4.32 10.34 4.38C10.37 4.44 10.41 4.5 10.45 4.56C10.49 4.61 10.53 4.67 10.57 4.72C10.62 4.77 10.66 4.82 10.71 4.87C10.76 4.92 10.81 4.96 10.87 5.01C10.92 5.05 10.98 5.09 11.03 5.13C11.09 5.17 11.15 5.2 11.21 5.24C11.27 5.27 11.33 5.3 11.39 5.33C11.46 5.35 11.52 5.38 11.59 5.4C11.65 5.42 11.72 5.44 11.78 5.46C11.85 5.47 11.92 5.48 11.99 5.49C12.05 5.5 12.12 5.51 12.19 5.51C12.26 5.52 12.33 5.52 12.4 5.51C12.47 5.51 12.53 5.5 12.6 5.49C12.67 5.48 12.74 5.47 12.8 5.46C12.87 5.44 12.94 5.42 13 5.4C13.07 5.38 13.13 5.36 13.2 5.33C13.26 5.3 13.32 5.27 13.38 5.24C13.44 5.2 13.5 5.17 13.56 5.13C13.61 5.09 13.67 5.05 13.72 5.01C13.77 4.97 13.83 4.92 13.87 4.87C13.92 4.82 13.97 4.77 14.02 4.72C14.06 4.67 14.1 4.61 14.14 4.56C14.18 4.5 14.22 4.44 14.25 4.39C14.29 4.33 14.32 4.27 14.35 4.2C14.38 4.14 14.4 4.08 14.43 4.01C14.45 3.95 14.47 3.88 14.49 3.82C14.5 3.75 14.52 3.68 14.53 3.61C14.54 3.55 14.55 3.48 14.55 3.41C14.56 3.34 14.56 3.27 14.56 3.2C14.55 3.13 14.55 3.07 14.54 3C14.53 2.93 14.52 2.86 14.51 2.79C14.5 2.73 14.48 2.66 14.46 2.6C14.44 2.53 14.41 2.47 14.39 2.4C14.36 2.34 14.33 2.28 14.3 2.21C14.27 2.15 14.24 2.09 14.2 2.04C14.16 1.98 14.12 1.92 14.08 1.87C14.04 1.81 13.99 1.76 13.95 1.71C13.9 1.66 13.85 1.61 13.8 1.57C13.75 1.52 13.7 1.48 13.64 1.44C13.58 1.4 13.53 1.36 13.47 1.32C13.41 1.29 13.35 1.25 13.29 1.22C13.23 1.19 13.16 1.17 13.1 1.14C13.04 1.12 12.97 1.1 12.9 1.08C12.84 1.06 12.77 1.04 12.7 1.03C12.64 1.02 12.57 1.01 12.5 1C12.43 1 12.36 0.99 12.29 1ZM3.25 2.5C3.68 2.5 4.01 2.83 4.01 3.25C4.01 3.68 3.68 4.01 3.25 4.01C3.2 4.01 3.16 4.01 3.11 4C3.06 3.99 3.01 3.97 2.96 3.95C2.92 3.94 2.87 3.91 2.83 3.89C2.79 3.86 2.75 3.83 2.72 3.79C2.68 3.76 2.65 3.72 2.62 3.68C2.6 3.63 2.57 3.59 2.56 3.55C2.54 3.5 2.52 3.45 2.51 3.4C2.5 3.35 2.5 3.3 2.5 3.25C2.5 2.83 2.83 2.5 3.25 2.5ZM11.54 7.02L11.54 10.03L9.81 11.76C9.78 11.8 9.75 11.84 9.72 11.88C9.69 11.92 9.67 11.96 9.65 12.01C9.63 12.05 9.62 12.1 9.61 12.15C9.6 12.2 9.59 12.24 9.59 12.29C9.59 12.34 9.6 12.39 9.61 12.44C9.62 12.49 9.63 12.54 9.65 12.58C9.67 12.63 9.69 12.67 9.72 12.71C9.75 12.75 9.78 12.79 9.81 12.83L11.76 14.77C11.8 14.81 11.83 14.84 11.88 14.87C11.92 14.9 11.96 14.92 12.01 14.94C12.05 14.96 12.1 14.97 12.15 14.98C12.2 14.99 12.25 15 12.29 15C12.34 15 12.39 14.99 12.44 14.98C12.49 14.97 12.54 14.96 12.58 14.94C12.63 14.92 12.67 14.9 12.71 14.87C12.75 14.84 12.79 14.81 12.83 14.77L14.77 12.83C14.81 12.79 14.84 12.75 14.87 12.71C14.9 12.67 14.92 12.63 14.94 12.58C14.96 12.54 14.97 12.49 14.98 12.44C14.99 12.39 15 12.34 15 12.29C15 12.24 14.99 12.2 14.98 12.15C14.97 12.1 14.96 12.05 14.94 12.01C14.92 11.96 14.9 11.92 14.87 11.88C14.84 11.84 14.81 11.8 14.77 11.76L13.05 10.03L13.05 7.02L11.54 7.02ZM1.75 10.03C1.7 10.03 1.65 10.04 1.6 10.05C1.55 10.06 1.51 10.07 1.46 10.09C1.41 10.11 1.37 10.13 1.33 10.16C1.29 10.19 1.25 10.22 1.22 10.26C1.18 10.29 1.15 10.33 1.12 10.37C1.09 10.41 1.07 10.45 1.05 10.5C1.03 10.55 1.02 10.59 1.01 10.64C1 10.69 1 10.74 1 10.79L1 13.8C1 14.22 1.33 14.55 1.75 14.55L4.76 14.55C4.81 14.55 4.86 14.55 4.91 14.54C4.96 14.53 5 14.52 5.05 14.5C5.1 14.48 5.14 14.45 5.18 14.43C5.22 14.4 5.26 14.37 5.29 14.33C5.33 14.3 5.36 14.26 5.39 14.22C5.41 14.18 5.44 14.13 5.46 14.09C5.48 14.04 5.49 14 5.5 13.95C5.51 13.9 5.51 13.85 5.51 13.8L5.51 10.79C5.51 10.74 5.51 10.69 5.5 10.64C5.49 10.59 5.48 10.55 5.46 10.5C5.44 10.45 5.41 10.41 5.39 10.37C5.36 10.33 5.33 10.29 5.29 10.26C5.26 10.22 5.22 10.19 5.18 10.16C5.14 10.13 5.1 10.11 5.05 10.09C5 10.07 4.96 10.06 4.91 10.05C4.86 10.04 4.81 10.03 4.76 10.03L1.75 10.03Z" fill="#2673E5" fill-opacity="1.000000" fill-rule="nonzero"/>
	</g>
</svg>
