<svg width="24.000000" height="24.000000" viewBox="0 0 24 24" fill="none" xmlns="http://www.w3.org/2000/svg" xmlns:xlink="http://www.w3.org/1999/xlink">
    <desc>
        Created with Pixso.
    </desc>
    <defs>
        <clipPath id="clip8183_101809">
            <rect id="问题分类" rx="12.000000" width="24.000000" height="24.000000" fill="white" fill-opacity="0"/>
        </clipPath>
    </defs>
    <rect id="问题分类" rx="12.000000" width="24.000000" height="24.000000" fill="#39C295" fill-opacity="1.000000"/>
    <g clip-path="url(#clip8183_101809)">
        <path id="合并" d="M7.5 6.5L10.5767 6.5C11.1294 6.5 11.5767 6.94775 11.5767 7.5L11.5767 10.5769C11.5767 11.1292 11.1294 11.5769 10.5767 11.5769L7.5 11.5769C6.94775 11.5769 6.5 11.1292 6.5 10.5769L6.5 7.5C6.5 6.94775 6.94775 6.5 7.5 6.5ZM13.4224 6.5L16.4995 6.5C17.0518 6.5 17.4995 6.94775 17.4995 7.5L17.4995 10.5769C17.4995 11.1292 17.0518 11.5769 16.4995 11.5769L13.4224 11.5769C12.8701 11.5769 12.4224 11.1292 12.4224 10.5769L12.4224 7.5C12.4224 6.94775 12.8701 6.5 13.4224 6.5ZM10.5767 12.4232L7.5 12.4232C6.94775 12.4232 6.5 12.871 6.5 13.4232L6.5 16.5001C6.5 17.0524 6.94775 17.5001 7.5 17.5001L10.5767 17.5001C11.1294 17.5001 11.5767 17.0524 11.5767 16.5001L11.5767 13.4232C11.5767 12.871 11.1294 12.4232 10.5767 12.4232ZM17.4995 13.4232C17.4995 12.871 17.0518 12.4232 16.4995 12.4232L13.4224 12.4232C12.8701 12.4232 12.4224 12.871 12.4224 13.4232L12.4224 16.5001C12.4224 17.0524 12.8701 17.5001 13.4224 17.5001L16.4995 17.5001C17.0518 17.5001 17.4995 17.0524 17.4995 16.5001L17.4995 13.4232ZM15.9995 16.0001L15.9995 13.9232L13.9224 13.9232L13.9224 16.0001L15.9995 16.0001Z" clip-rule="evenodd" fill="#FFFFFF" fill-opacity="1.000000" fill-rule="evenodd"/>
    </g>
</svg>
