<svg width="20.119141" height="20.000000" viewBox="0 0 20.1191 20" fill="none" xmlns="http://www.w3.org/2000/svg" xmlns:xlink="http://www.w3.org/1999/xlink">
	<desc>
			Created with Pixso.
	</desc>
	<defs/>
	<rect id="未运行" width="20.000000" height="20.000000" fill="#FFFFFF" fill-opacity="0"/>
	<mask id="mask_2013_13228" fill="white">
		<path id="形状结合" d="M11.2324 2.3136L20.0264 17.7028C20.293 18.1694 19.9561 18.75 19.4189 18.75L1.83105 18.75C1.29297 18.75 0.956055 18.1694 1.22363 17.7028L10.0166 2.3136C10.2861 1.84338 10.9639 1.84338 11.2324 2.3136ZM10 6.875C10 6.52991 10.2793 6.25 10.625 6.25C10.9697 6.25 11.25 6.52991 11.25 6.875L11.25 13.125C11.25 13.4702 10.9697 13.75 10.625 13.75C10.2793 13.75 10 13.4702 10 13.125L10 6.875ZM11.0625 15.1875C11.3125 15.4375 11.3125 15.8125 11.0625 16.0625C10.8125 16.3125 10.4375 16.3125 10.1875 16.0625C9.9375 15.8125 9.9375 15.4375 10.1875 15.1875C10.4375 14.9375 10.8125 14.9375 11.0625 15.1875Z" clip-rule="evenodd" fill="" fill-opacity="1.000000" fill-rule="evenodd"/>
	</mask>
	<path id="形状结合" d="M11.2324 2.3136L20.0264 17.7028C20.293 18.1694 19.9561 18.75 19.4189 18.75L1.83105 18.75C1.29297 18.75 0.956055 18.1694 1.22363 17.7028L10.0166 2.3136C10.2861 1.84338 10.9639 1.84338 11.2324 2.3136ZM10 6.875C10 6.52991 10.2793 6.25 10.625 6.25C10.9697 6.25 11.25 6.52991 11.25 6.875L11.25 13.125C11.25 13.4702 10.9697 13.75 10.625 13.75C10.2793 13.75 10 13.4702 10 13.125L10 6.875ZM11.0625 15.1875C11.3125 15.4375 11.3125 15.8125 11.0625 16.0625C10.8125 16.3125 10.4375 16.3125 10.1875 16.0625C9.9375 15.8125 9.9375 15.4375 10.1875 15.1875C10.4375 14.9375 10.8125 14.9375 11.0625 15.1875Z" clip-rule="evenodd" fill="#F0C442" fill-opacity="1.000000" fill-rule="evenodd" mask="url(#mask_2013_13228)"/>
	<path id="形状结合" d="" clip-rule="evenodd" fill="#979797" fill-opacity="0.000000" fill-rule="evenodd"/>
</svg>
