<svg width="16.000000" height="16.000000" viewBox="0 0 16 16" fill="none" xmlns="http://www.w3.org/2000/svg"
>
    <desc>
        Created with Pixso.
    </desc>
    <defs/>
    <rect id="对话助手" width="16.000000" height="16.000000" fill="#FFFFFF" fill-opacity="0"/>
    <path id="矩形 463 (边框)"
          d="M14.52 2.64C14.41 2.62 14.31 2.61 14.2 2.61L14.2 4.1L14.22 10.08C14.22 10.18 14.21 10.28 14.19 10.37C14.17 10.44 14.15 10.5 14.12 10.57C14.1 10.63 14.06 10.7 14.02 10.76C13.98 10.83 13.92 10.9 13.86 10.96C13.79 11.03 13.73 11.08 13.65 11.13C13.59 11.17 13.53 11.2 13.46 11.23C13.4 11.26 13.33 11.28 13.27 11.29C13.17 11.32 13.08 11.33 12.98 11.33L6.23 11.33L4.9 13.39L3.36 11.33L2.98 11.33C2.89 11.33 2.79 11.32 2.7 11.3C2.64 11.28 2.57 11.26 2.51 11.23C2.44 11.21 2.38 11.17 2.32 11.13C2.25 11.09 2.19 11.03 2.12 10.97C2.06 10.91 2.01 10.84 1.96 10.77C1.92 10.71 1.89 10.65 1.86 10.59C1.84 10.52 1.82 10.46 1.8 10.4C1.78 10.31 1.77 10.21 1.77 10.11L1.77 5.35C1.77 5.25 1.78 5.16 1.8 5.06C1.82 5 1.84 4.93 1.87 4.87C1.89 4.8 1.93 4.74 1.97 4.67C2.01 4.6 2.07 4.53 2.13 4.47C2.2 4.41 2.26 4.35 2.34 4.3C2.4 4.26 2.46 4.23 2.53 4.2C2.59 4.17 2.66 4.15 2.72 4.14C2.82 4.12 2.91 4.1 3.01 4.1L10.51 4.1L10.51 2.61L3.01 2.61C2.81 2.61 2.62 2.63 2.43 2.67C2.26 2.71 2.1 2.76 1.95 2.83C1.79 2.89 1.64 2.97 1.5 3.06C1.35 3.16 1.21 3.28 1.08 3.41C0.94 3.54 0.83 3.69 0.73 3.84C0.63 3.98 0.56 4.13 0.49 4.28C0.42 4.44 0.37 4.6 0.34 4.76C0.29 4.95 0.27 5.15 0.27 5.35L0.27 10.11C0.27 10.31 0.29 10.5 0.34 10.69C0.37 10.85 0.42 11.01 0.49 11.17C0.55 11.32 0.63 11.47 0.72 11.61C0.82 11.76 0.94 11.9 1.07 12.03C1.2 12.16 1.34 12.27 1.49 12.37C1.63 12.47 1.77 12.54 1.93 12.61C2.08 12.67 2.24 12.73 2.4 12.76C2.46 12.77 2.53 12.78 2.59 12.79L4.99 16L7.04 12.82L12.98 12.82C13.18 12.82 13.37 12.8 13.56 12.76C13.73 12.72 13.89 12.67 14.04 12.61C14.2 12.54 14.35 12.46 14.49 12.37C14.64 12.27 14.78 12.15 14.91 12.02C15.05 11.89 15.16 11.75 15.26 11.59C15.36 11.45 15.43 11.31 15.5 11.15C15.57 10.99 15.62 10.83 15.65 10.67C15.7 10.48 15.72 10.28 15.72 10.08L15.72 4.13C15.72 4.02 15.71 3.91 15.68 3.81C15.66 3.72 15.63 3.63 15.6 3.54C15.56 3.45 15.51 3.37 15.46 3.29C15.41 3.21 15.34 3.13 15.27 3.06C15.2 2.98 15.12 2.92 15.04 2.86C14.96 2.81 14.88 2.77 14.79 2.73C14.7 2.69 14.61 2.66 14.52 2.64Z"
          fill="#40ACFF" fill-opacity="1.000000" fill-rule="evenodd"/>
    <path id="矩形 464 (边框)"
          d="M10.97 6.72C11.14 6.54 11.14 6.27 10.96 6.1C10.79 5.93 10.52 5.93 10.35 6.1L9.12 7.34L10.36 8.58C10.53 8.75 10.8 8.75 10.97 8.57C11.14 8.4 11.14 8.13 10.97 7.95L10.35 7.34L10.97 6.72Z"
          fill="#40ACFF" fill-opacity="1.000000" fill-rule="evenodd"/>
    <path id="椭圆 31 (边框)"
          d="M4.51 7.28C4.51 6.56 5.09 5.97 5.82 5.97C6.54 5.97 7.12 6.56 7.12 7.28C7.12 8 6.54 8.59 5.82 8.59C5.09 8.59 4.51 8 4.51 7.28ZM5.38 7.28C5.38 7.04 5.58 6.84 5.82 6.84C6.06 6.84 6.25 7.04 6.25 7.28C6.25 7.52 6.06 7.72 5.82 7.72C5.58 7.72 5.38 7.52 5.38 7.28Z"
          fill="#40ACFF" fill-opacity="1.000000" fill-rule="evenodd"/>
    <path id="path (边框)"
          d="M9.01 2.03C9 2.09 8.99 2.24 8.99 2.29C8.99 2.33 8.99 2.37 8.99 2.42C9 2.46 9 2.5 9 2.54C9.01 2.58 9.01 2.62 9.02 2.67C9.03 2.71 9.04 2.74 9.04 2.78C9.05 2.83 9.06 2.87 9.08 2.91C9.09 2.95 9.1 2.98 9.11 3.02C9.12 3.06 9.14 3.11 9.16 3.15C9.18 3.2 9.24 3.33 9.26 3.38C9.29 3.42 9.36 3.55 9.39 3.59C9.42 3.63 9.51 3.75 9.54 3.79C9.6 3.85 9.72 3.98 9.77 4.03L11.45 5.53C11.48 5.55 11.6 5.64 11.63 5.66C11.67 5.68 11.7 5.7 11.74 5.72C11.77 5.73 11.91 5.79 11.95 5.8C11.98 5.81 12.02 5.82 12.05 5.83C12.09 5.83 12.13 5.84 12.17 5.84C12.2 5.84 12.24 5.85 12.28 5.85C12.31 5.85 12.35 5.85 12.39 5.84C12.43 5.84 12.46 5.84 12.5 5.83C12.54 5.83 12.57 5.82 12.61 5.81C12.65 5.8 12.68 5.79 12.72 5.77C12.76 5.76 12.89 5.7 12.92 5.68C12.96 5.66 13.08 5.58 13.11 5.55L14.82 4.12C14.86 4.08 14.97 4 15 3.96C15.04 3.92 15.15 3.81 15.19 3.77C15.22 3.72 15.32 3.6 15.34 3.55C15.37 3.51 15.45 3.37 15.48 3.32C15.49 3.29 15.51 3.25 15.52 3.22C15.55 3.17 15.56 3.12 15.58 3.08C15.59 3.04 15.61 3 15.62 2.96C15.63 2.91 15.64 2.87 15.66 2.82C15.67 2.78 15.67 2.74 15.68 2.7C15.69 2.65 15.7 2.6 15.7 2.56C15.71 2.47 15.72 2.38 15.72 2.29C15.72 2.27 15.71 2.15 15.71 2.12C15.71 2.1 15.7 1.98 15.69 1.95C15.69 1.93 15.67 1.81 15.66 1.79C15.65 1.76 15.63 1.65 15.62 1.62C15.61 1.6 15.57 1.49 15.56 1.46C15.55 1.44 15.51 1.33 15.5 1.31C15.49 1.29 15.43 1.18 15.42 1.16C15.41 1.14 15.34 1.03 15.33 1.01C15.32 1 15.25 0.89 15.23 0.88C15.22 0.86 15.14 0.76 15.13 0.75C15.11 0.73 15.02 0.64 15.01 0.63C14.99 0.61 14.9 0.52 14.88 0.51C14.86 0.5 14.76 0.42 14.75 0.41C14.73 0.4 14.62 0.33 14.61 0.32C14.59 0.31 14.48 0.25 14.46 0.24C14.44 0.23 14.32 0.17 14.3 0.16C14.28 0.16 14.17 0.11 14.15 0.11C14.12 0.1 14.01 0.07 13.98 0.06C13.96 0.06 13.84 0.03 13.82 0.03C13.79 0.02 13.68 0.01 13.65 0C13.62 0 13.51 0 13.48 0C13.45 0 13.34 0 13.31 0C13.28 0 13.17 0.01 13.14 0.01C13.11 0.02 13.01 0.04 12.98 0.04C12.95 0.05 12.84 0.08 12.81 0.09C12.78 0.1 12.68 0.13 12.65 0.14C12.62 0.15 12.53 0.19 12.5 0.21C12.47 0.22 12.38 0.26 12.35 0.28C12.33 0.27 12.23 0.21 12.21 0.21C12.19 0.2 12.08 0.15 12.05 0.14C12.03 0.13 11.92 0.09 11.89 0.09C11.87 0.08 11.75 0.05 11.73 0.04C11.71 0.04 11.59 0.02 11.56 0.01C11.54 0.01 11.42 0 11.4 0C11.37 0 11.25 0 11.23 0C11.2 0 11.09 0 11.06 0C11.03 0.01 10.92 0.02 10.89 0.03C10.86 0.03 10.75 0.05 10.72 0.06C10.69 0.07 10.59 0.1 10.56 0.11C10.53 0.12 10.43 0.15 10.4 0.16C10.37 0.18 10.28 0.22 10.25 0.24C10.22 0.25 10.13 0.3 10.1 0.32C10.07 0.34 9.99 0.39 9.96 0.41C9.93 0.43 9.85 0.49 9.83 0.51C9.8 0.54 9.73 0.6 9.7 0.63C9.67 0.65 9.61 0.72 9.58 0.75C9.56 0.77 9.5 0.85 9.47 0.88C9.45 0.91 9.4 0.98 9.37 1.01C9.36 1.04 9.3 1.13 9.29 1.16C9.27 1.19 9.22 1.28 9.21 1.31C9.2 1.34 9.16 1.43 9.14 1.46C9.13 1.5 9.1 1.59 9.09 1.62C9.08 1.66 9.05 1.76 9.05 1.79C9.04 1.82 9.01 2 9.01 2.03ZM10.49 2.29C10.49 2.28 10.49 2.18 10.49 2.17C10.5 2.16 10.51 2.08 10.52 2.07C10.52 2.06 10.55 1.97 10.56 1.95C10.57 1.94 10.61 1.86 10.62 1.84C10.63 1.83 10.72 1.72 10.73 1.71C10.75 1.69 10.85 1.61 10.87 1.6C10.87 1.6 10.97 1.55 10.97 1.55C10.98 1.55 11.08 1.51 11.08 1.51C11.09 1.51 11.19 1.49 11.19 1.49C11.2 1.49 11.3 1.49 11.31 1.49C11.32 1.49 11.41 1.5 11.42 1.51C11.43 1.51 11.51 1.53 11.53 1.54C11.54 1.54 11.62 1.58 11.63 1.59C11.65 1.6 11.76 1.67 11.77 1.69L12.35 2.29L12.89 1.73C12.91 1.72 13.01 1.63 13.02 1.62C13.03 1.62 13.12 1.56 13.13 1.56C13.13 1.56 13.23 1.52 13.23 1.52C13.24 1.52 13.34 1.5 13.34 1.5C13.35 1.5 13.45 1.49 13.46 1.49C13.47 1.49 13.56 1.5 13.57 1.5C13.58 1.5 13.67 1.52 13.68 1.53C13.69 1.53 13.77 1.57 13.79 1.57C13.79 1.57 13.89 1.63 13.89 1.63C13.9 1.65 14 1.73 14.01 1.75C14.02 1.75 14.09 1.84 14.09 1.85C14.09 1.85 14.15 1.95 14.15 1.95C14.15 1.97 14.18 2.04 14.19 2.05C14.19 2.07 14.21 2.16 14.21 2.17C14.21 2.18 14.22 2.28 14.22 2.29C14.22 2.31 14.21 2.42 14.21 2.44C14.21 2.45 14.18 2.56 14.17 2.57C14.16 2.59 14.12 2.7 14.11 2.72C14.09 2.73 14 2.85 13.99 2.86L12.3 4.28L10.77 2.91C10.76 2.9 10.66 2.8 10.65 2.78C10.64 2.76 10.57 2.65 10.56 2.63C10.56 2.62 10.52 2.53 10.52 2.52C10.52 2.5 10.49 2.31 10.49 2.29Z"
          fill="#40ACFF" fill-opacity="1.000000" fill-rule="evenodd"/>
</svg>
