<svg width="20.000000" height="20.000000" viewBox="0 0 20 20" fill="none" xmlns="http://www.w3.org/2000/svg" xmlns:xlink="http://www.w3.org/1999/xlink">
	<desc>
			Created with Pixso.
	</desc>
	<defs/>
	<rect id="工作流线性" rx="4.000000" width="20.000000" height="20.000000" fill="#F2F2F2" fill-opacity="1.000000"/>
	<rect id="组合 738" width="16.000000" height="16.000000" transform="translate(2.000000 2.000000)" fill="#FFFFFF" fill-opacity="0"/>
	<rect id="矩形 467" x="2.875000" y="11.853516" rx="1.000000" width="4.687476" height="4.687446" fill="#3DCCAB" fill-opacity="1.000000"/>
	<rect id="矩形 468" x="10.799316" y="14.230469" rx="1.000000" width="4.687460" height="4.687567" transform="rotate(-44.9998 10.799316 14.230469)" fill="#3DCCAB" fill-opacity="1.000000"/>
	<path id="直线 51 (边框)" d="M4.17 9.97L4.17 7.63C4.17 7.07 4.61 6.63 5.17 6.63C5.73 6.63 6.17 7.07 6.17 7.63L6.17 9.97C6.17 10.53 5.73 10.97 5.17 10.97C4.61 10.97 4.17 10.53 4.17 9.97Z" fill="#3DCCAB" fill-opacity="1.000000" fill-rule="evenodd"/>
	<path id="直线 53 (边框)" d="M13.08 11.85L13.08 9.97C13.08 9.41 13.52 8.97 14.08 8.97C14.64 8.97 15.08 9.41 15.08 9.97L15.08 11.85C15.08 12.41 14.64 12.85 14.08 12.85C13.52 12.85 13.08 12.41 13.08 11.85Z" fill="#3DCCAB" fill-opacity="1.000000" fill-rule="evenodd"/>
	<path id="椭圆 38 (边框)" d="M2.54 5.29C2.54 3.84 3.72 2.66 5.17 2.66C6.62 2.66 7.79 3.84 7.79 5.29C7.79 6.74 6.62 7.91 5.17 7.91C3.72 7.91 2.54 6.74 2.54 5.29ZM4.04 5.29C4.04 4.66 4.55 4.16 5.17 4.16C5.79 4.16 6.29 4.66 6.29 5.29C6.29 5.91 5.79 6.41 5.17 6.41C4.55 6.41 4.04 5.91 4.04 5.29Z" fill="#3DCCAB" fill-opacity="1.000000" fill-rule="evenodd"/>
	<ellipse id="椭圆 37" cx="14.080566" cy="4.822266" rx="2.343738" ry="2.343723" fill="#3DCCAB" fill-opacity="1.000000"/>
	<path id="直线 52 (边框)" d="M9.86 3.82L12.2 3.82C12.76 3.82 13.2 4.26 13.2 4.82C13.2 5.38 12.76 5.82 12.2 5.82L9.86 5.82C9.3 5.82 8.86 5.38 8.86 4.82C8.86 4.26 9.3 3.82 9.86 3.82Z" fill="#3DCCAB" fill-opacity="1.000000" fill-rule="evenodd"/>
</svg>
