<svg width="20.000000" height="20.000000" viewBox="0 0 20 20" fill="none" xmlns="http://www.w3.org/2000/svg" xmlns:xlink="http://www.w3.org/1999/xlink">
	<desc>
			Created with Pixso.
	</desc>
	<defs/>
	<rect id="对话助手" rx="4.000000" width="20.000000" height="20.000000" fill="#F2F2F2" fill-opacity="1.000000"/>
	<rect id="组合 740" width="16.000000" height="16.000000" transform="translate(2.000000 2.000000)" fill="#FFFFFF" fill-opacity="0"/>
	<path id="矩形 463 (边框)" d="M16.52 4.64C16.41 4.62 16.31 4.61 16.2 4.61L16.2 6.1L16.22 12.08C16.22 12.18 16.21 12.28 16.19 12.37C16.17 12.44 16.15 12.5 16.12 12.57C16.1 12.63 16.06 12.7 16.02 12.76C15.98 12.83 15.92 12.9 15.86 12.96C15.79 13.03 15.73 13.08 15.65 13.13C15.59 13.17 15.53 13.2 15.46 13.23C15.4 13.26 15.33 13.28 15.27 13.29C15.17 13.32 15.08 13.33 14.98 13.33L8.23 13.33L6.9 15.39L5.36 13.33L4.98 13.33C4.89 13.33 4.79 13.32 4.7 13.3C4.64 13.28 4.57 13.26 4.51 13.23C4.44 13.21 4.38 13.17 4.32 13.13C4.25 13.09 4.19 13.03 4.12 12.97C4.06 12.91 4.01 12.84 3.96 12.77C3.92 12.71 3.89 12.65 3.86 12.59C3.84 12.52 3.82 12.46 3.8 12.4C3.78 12.31 3.77 12.21 3.77 12.11L3.77 7.35C3.77 7.25 3.78 7.16 3.8 7.06C3.82 7 3.84 6.93 3.87 6.87C3.89 6.8 3.93 6.74 3.97 6.67C4.01 6.6 4.07 6.53 4.13 6.47C4.2 6.41 4.26 6.35 4.34 6.3C4.4 6.26 4.46 6.23 4.53 6.2C4.59 6.17 4.66 6.15 4.72 6.14C4.82 6.12 4.91 6.1 5.01 6.1L12.51 6.1L12.51 4.61L5.01 4.61C4.81 4.61 4.62 4.63 4.43 4.67C4.26 4.71 4.1 4.76 3.95 4.83C3.79 4.89 3.64 4.97 3.5 5.06C3.35 5.16 3.21 5.28 3.08 5.41C2.94 5.54 2.83 5.69 2.73 5.84C2.63 5.98 2.56 6.13 2.49 6.28C2.42 6.44 2.37 6.6 2.34 6.76C2.29 6.95 2.27 7.15 2.27 7.35L2.27 12.11C2.27 12.31 2.29 12.5 2.34 12.69C2.37 12.85 2.42 13.01 2.49 13.17C2.55 13.32 2.63 13.47 2.72 13.61C2.82 13.76 2.94 13.9 3.07 14.03C3.2 14.16 3.34 14.27 3.49 14.37C3.63 14.47 3.77 14.54 3.93 14.61C4.08 14.67 4.24 14.73 4.4 14.76C4.46 14.77 4.53 14.78 4.59 14.79L6.99 18L9.04 14.82L14.98 14.82C15.18 14.82 15.37 14.8 15.56 14.76C15.73 14.72 15.89 14.67 16.04 14.61C16.2 14.54 16.35 14.46 16.49 14.37C16.64 14.27 16.78 14.15 16.91 14.02C17.05 13.89 17.16 13.75 17.26 13.59C17.36 13.45 17.43 13.31 17.5 13.15C17.57 12.99 17.62 12.83 17.65 12.67C17.7 12.48 17.72 12.28 17.72 12.08L17.72 6.13C17.72 6.02 17.71 5.91 17.68 5.81C17.66 5.72 17.63 5.63 17.6 5.54C17.56 5.45 17.51 5.37 17.46 5.29C17.41 5.21 17.34 5.13 17.27 5.06C17.2 4.98 17.12 4.92 17.04 4.86C16.96 4.81 16.88 4.77 16.79 4.73C16.7 4.69 16.61 4.66 16.52 4.64Z" fill="#40ACFF" fill-opacity="1.000000" fill-rule="evenodd"/>
	<path id="矩形 464 (边框)" d="M12.97 8.72C13.14 8.54 13.14 8.27 12.96 8.1C12.79 7.93 12.52 7.93 12.35 8.1L11.12 9.34L12.36 10.58C12.53 10.75 12.8 10.75 12.97 10.57C13.14 10.4 13.14 10.13 12.97 9.95L12.35 9.34L12.97 8.72Z" fill="#40ACFF" fill-opacity="1.000000" fill-rule="evenodd"/>
	<path id="椭圆 31 (边框)" d="M6.51 9.28C6.51 8.56 7.09 7.97 7.82 7.97C8.54 7.97 9.12 8.56 9.12 9.28C9.12 10 8.54 10.59 7.82 10.59C7.09 10.59 6.51 10 6.51 9.28ZM7.38 9.28C7.38 9.04 7.57 8.84 7.82 8.84C8.06 8.84 8.25 9.04 8.25 9.28C8.25 9.52 8.06 9.72 7.82 9.72C7.57 9.72 7.38 9.52 7.38 9.28Z" fill="#40ACFF" fill-opacity="1.000000" fill-rule="evenodd"/>
	<path id="path (边框)" d="M11.01 4.03C11 4.09 10.99 4.24 10.99 4.29C10.99 4.33 10.99 4.37 10.99 4.42C11 4.46 11 4.5 11 4.54C11.01 4.58 11.01 4.62 11.02 4.67C11.03 4.71 11.04 4.74 11.04 4.78C11.05 4.83 11.06 4.87 11.08 4.91C11.09 4.95 11.1 4.98 11.11 5.02C11.12 5.06 11.14 5.11 11.16 5.15C11.18 5.2 11.24 5.33 11.26 5.38C11.29 5.42 11.36 5.55 11.39 5.59C11.42 5.63 11.51 5.75 11.54 5.79C11.6 5.85 11.72 5.98 11.77 6.03L13.45 7.53C13.48 7.55 13.6 7.64 13.63 7.66C13.67 7.68 13.7 7.7 13.74 7.72C13.77 7.73 13.91 7.79 13.95 7.8C13.98 7.81 14.02 7.82 14.05 7.83C14.09 7.83 14.13 7.84 14.17 7.84C14.2 7.84 14.24 7.85 14.28 7.85C14.31 7.85 14.35 7.85 14.39 7.84C14.43 7.84 14.46 7.84 14.5 7.83C14.54 7.83 14.57 7.82 14.61 7.81C14.65 7.8 14.68 7.79 14.72 7.77C14.76 7.76 14.89 7.7 14.92 7.68C14.96 7.66 15.08 7.58 15.11 7.55L16.82 6.12C16.86 6.08 16.97 6 17 5.96C17.04 5.92 17.15 5.81 17.19 5.77C17.22 5.72 17.32 5.6 17.34 5.55C17.37 5.51 17.45 5.37 17.48 5.32C17.49 5.29 17.51 5.25 17.52 5.22C17.55 5.17 17.56 5.12 17.58 5.08C17.59 5.04 17.61 5 17.62 4.96C17.63 4.91 17.64 4.87 17.66 4.82C17.67 4.78 17.67 4.74 17.68 4.7C17.69 4.65 17.7 4.6 17.7 4.56C17.71 4.47 17.72 4.38 17.72 4.29C17.72 4.27 17.71 4.15 17.71 4.12C17.71 4.1 17.7 3.98 17.69 3.95C17.69 3.93 17.67 3.81 17.66 3.79C17.65 3.76 17.63 3.65 17.62 3.62C17.61 3.6 17.57 3.49 17.56 3.46C17.55 3.44 17.51 3.33 17.5 3.31C17.49 3.29 17.43 3.18 17.42 3.16C17.41 3.14 17.34 3.03 17.33 3.01C17.32 3 17.25 2.89 17.23 2.88C17.22 2.86 17.14 2.76 17.13 2.75C17.11 2.73 17.02 2.64 17.01 2.63C16.99 2.61 16.9 2.52 16.88 2.51C16.86 2.5 16.76 2.42 16.75 2.41C16.73 2.4 16.62 2.33 16.61 2.32C16.59 2.31 16.48 2.25 16.46 2.24C16.44 2.23 16.32 2.17 16.3 2.16C16.28 2.16 16.17 2.11 16.15 2.11C16.12 2.1 16.01 2.07 15.98 2.06C15.96 2.06 15.84 2.03 15.82 2.03C15.79 2.02 15.68 2.01 15.65 2C15.62 2 15.51 2 15.48 2C15.45 2 15.34 2 15.31 2C15.28 2 15.17 2.01 15.14 2.01C15.11 2.02 15.01 2.04 14.98 2.04C14.95 2.05 14.84 2.08 14.81 2.09C14.78 2.1 14.68 2.13 14.65 2.14C14.62 2.15 14.53 2.19 14.5 2.21C14.47 2.22 14.38 2.26 14.35 2.28C14.33 2.27 14.23 2.21 14.21 2.21C14.19 2.2 14.08 2.15 14.05 2.14C14.03 2.13 13.92 2.09 13.89 2.09C13.87 2.08 13.75 2.05 13.73 2.04C13.71 2.04 13.59 2.02 13.56 2.01C13.54 2.01 13.42 2 13.4 2C13.37 2 13.25 2 13.23 2C13.2 2 13.09 2 13.06 2C13.03 2.01 12.92 2.02 12.89 2.03C12.86 2.03 12.75 2.05 12.72 2.06C12.69 2.07 12.59 2.1 12.56 2.11C12.53 2.12 12.43 2.15 12.4 2.16C12.37 2.18 12.28 2.22 12.25 2.24C12.22 2.25 12.13 2.3 12.1 2.32C12.07 2.34 11.99 2.39 11.96 2.41C11.93 2.43 11.85 2.49 11.83 2.51C11.8 2.54 11.73 2.6 11.7 2.63C11.67 2.65 11.61 2.72 11.58 2.75C11.56 2.77 11.5 2.85 11.47 2.88C11.45 2.91 11.4 2.98 11.37 3.01C11.36 3.04 11.3 3.13 11.29 3.16C11.27 3.19 11.22 3.28 11.21 3.31C11.2 3.34 11.16 3.43 11.14 3.46C11.13 3.5 11.1 3.59 11.09 3.62C11.08 3.66 11.05 3.76 11.05 3.79C11.04 3.82 11.01 4 11.01 4.03ZM12.49 4.29C12.49 4.28 12.49 4.18 12.49 4.17C12.5 4.16 12.51 4.08 12.52 4.07C12.52 4.06 12.55 3.97 12.56 3.95C12.57 3.94 12.61 3.86 12.62 3.84C12.63 3.83 12.72 3.72 12.73 3.71C12.75 3.69 12.85 3.61 12.87 3.6C12.87 3.6 12.97 3.55 12.97 3.55C12.98 3.55 13.08 3.51 13.08 3.51C13.09 3.51 13.19 3.49 13.19 3.49C13.2 3.49 13.3 3.49 13.31 3.49C13.32 3.49 13.41 3.5 13.42 3.51C13.43 3.51 13.51 3.53 13.53 3.54C13.54 3.54 13.62 3.58 13.63 3.59C13.65 3.6 13.76 3.67 13.77 3.69L14.35 4.29L14.89 3.73C14.91 3.72 15.01 3.63 15.02 3.62C15.03 3.62 15.12 3.56 15.13 3.56C15.13 3.56 15.23 3.52 15.23 3.52C15.24 3.52 15.34 3.5 15.34 3.5C15.35 3.5 15.45 3.49 15.46 3.49C15.47 3.49 15.56 3.5 15.57 3.5C15.58 3.5 15.67 3.52 15.68 3.53C15.69 3.53 15.77 3.57 15.79 3.57C15.79 3.57 15.89 3.63 15.89 3.63C15.9 3.65 16 3.73 16.01 3.75C16.02 3.75 16.09 3.84 16.09 3.85C16.09 3.85 16.15 3.95 16.15 3.95C16.15 3.97 16.18 4.04 16.19 4.05C16.19 4.07 16.21 4.16 16.21 4.17C16.21 4.18 16.22 4.28 16.22 4.29C16.22 4.31 16.21 4.42 16.21 4.44C16.21 4.45 16.18 4.56 16.17 4.57C16.16 4.59 16.12 4.7 16.11 4.72C16.09 4.73 16 4.85 15.99 4.86L14.3 6.28L12.77 4.91C12.76 4.9 12.66 4.8 12.65 4.78C12.64 4.76 12.57 4.65 12.56 4.63C12.56 4.62 12.52 4.53 12.52 4.52C12.52 4.5 12.49 4.31 12.49 4.29Z" fill="#40ACFF" fill-opacity="1.000000" fill-rule="evenodd"/>
</svg>
