<?xml version="1.0" encoding="UTF-8"?>
<svg width="44px" height="44px" viewBox="0 0 44 44" version="1.1" xmlns="http://www.w3.org/2000/svg" xmlns:xlink="http://www.w3.org/1999/xlink">
    <title>Conversation/ico_Text</title>
    <g id="页面-2备份" stroke="none" stroke-width="1" fill="none" fillRule="evenodd">
        <g id="首页Chat" transform="translate(-364.000000, -956.000000)">
            <g id="语音提问-响应中" transform="translate(340.000000, 820.000000)">
                <g id="Conversation/ico_Text" transform="translate(24.000000, 136.000000)">
                    <rect id="矩形" fill="#D8D8D8" fillRule="nonzero" opacity="0" x="5.28698818" y="5.31977841" width="22" height="22"></rect>
                    <circle id="椭圆形" fill="#F2F6FC" cx="22" cy="22" r="22"></circle>
                    <path d="M20.4248841,32.0833333 C20.0034057,32.0833333 19.6617301,31.7447402 19.6617301,31.3270644 C19.6617301,30.9441949 19.9488325,30.6277769 20.3213286,30.5776993 L20.4248841,30.5707955 L21.6956881,30.5702913 L21.6961024,28.932805 C18.2581393,28.5567579 15.5833333,25.6685819 15.5833333,22.1617911 C15.5833333,21.7441153 15.925009,21.4055222 16.3464873,21.4055222 C16.7679656,21.4055222 17.1096413,21.7441153 17.1096413,22.1617911 C17.1096413,25.0886094 19.5049113,27.4617236 22.4588421,27.4617236 C25.4125395,27.4617236 27.8070253,25.0888406 27.8070253,22.1617911 C27.8070253,21.7441153 28.148701,21.4055222 28.5701793,21.4055222 C28.9916577,21.4055222 29.3333333,21.7441153 29.3333333,22.1617911 C29.3333333,25.6683768 26.6598077,28.5562041 23.2225645,28.9326949 L23.2219961,30.5702913 L24.4919861,30.5707955 C24.9134645,30.5707955 25.2551401,30.9093886 25.2551401,31.3270644 C25.2551401,31.7099339 24.9680376,32.026352 24.5955416,32.0764295 L24.4919861,32.0833333 L20.4248841,32.0833333 Z M22.4589439,11.9166667 C24.6125861,11.9166667 26.3591696,13.6471049 26.3591696,15.781705 L26.3591696,15.781705 L26.3591696,22.0002521 C26.3591696,24.1348522 24.6125861,25.8652904 22.4589439,25.8652904 C20.3044796,25.8652904 18.5577006,24.135046 18.5577006,22.0002521 L18.5577006,22.0002521 L18.5577006,15.781705 C18.5577006,13.646911 20.3044796,11.9166667 22.4589439,11.9166667 Z M22.4589439,13.4292045 C21.1472832,13.4292045 20.0840086,14.4824143 20.0840086,15.781705 L20.0840086,15.781705 L20.0840086,22.0002521 C20.0840086,23.2995427 21.1472832,24.3527526 22.4589439,24.3527526 C23.769706,24.3527526 24.8328616,23.2994248 24.8328616,22.0002521 L24.8328616,22.0002521 L24.8328616,15.781705 C24.8328616,14.4825323 23.769706,13.4292045 22.4589439,13.4292045 Z" id="形状结合" fill="#333333" fillRule="nonzero"></path>
                </g>
            </g>
        </g>
    </g>
</svg>