<svg width="24.000000" height="24.000000" viewBox="0 0 24 24" fill="none" xmlns="http://www.w3.org/2000/svg" xmlns:xlink="http://www.w3.org/1999/xlink">
	<desc>
			Created with Pixso.
	</desc>
	<defs/>
	<path id="ICON" d="M11.9966 13.0664L6.0979 18.9648C5.8374 19.2246 5.41528 19.2246 5.15503 18.9648L5.03711 18.8477C4.77686 18.5859 4.77686 18.1641 5.03711 17.9043L10.9358 12.0059L5.03711 6.10742C4.77686 5.8457 4.77686 5.42383 5.03711 5.16406L5.15503 5.04688C5.41528 4.78516 5.8374 4.78516 6.0979 5.04688L11.9966 10.9453L17.8828 5.05859C18.1433 4.79883 18.5654 4.79883 18.8257 5.05859L18.9436 5.17578C19.2039 5.4375 19.2039 5.85938 18.9436 6.11914L13.0571 12.0059L18.9436 17.8926C19.2039 18.1523 19.2039 18.5742 18.9436 18.834L18.8257 18.9531C18.5654 19.2129 18.1433 19.2129 17.8828 18.9531L11.9966 13.0664Z" clip-rule="evenodd" fill="#4D4D4D" fill-opacity="1.000000" fill-rule="evenodd"/>
</svg>
