<svg width="20.000000" height="20.000000" viewBox="0 0 20 20" fill="none" xmlns="http://www.w3.org/2000/svg" xmlns:xlink="http://www.w3.org/1999/xlink">
	<desc>
			Created with Pixso.
	</desc>
	<defs/>
	<rect id="组合 719" width="20.000000" height="20.000000" fill="#FFFFFF" fill-opacity="0"/>
	<rect id="矩形" x="2.000000" y="2.000000" rx="2.000000" width="16.000000" height="16.000000" fill="#C4C4C4" fill-opacity="0"/>
	<rect id="矩形" x="2.750000" y="2.750000" rx="2.000000" width="14.500000" height="14.500000" stroke="#808080" stroke-opacity="1.000000" stroke-width="1.500000"/>
	<path id="路径" d="M8.11 14.98L8.13 15C8.13 15.41 7.8 15.75 7.38 15.75C6.96 15.75 6.63 15.41 6.63 15L6.65 14.98L8.11 14.98ZM6.65 14.68L6.63 14.66C6.63 14.24 6.96 13.91 7.38 13.91C7.8 13.91 8.13 14.24 8.13 14.66L8.11 14.68L6.65 14.68Z" fill="#C4C4C4" fill-opacity="0" fill-rule="nonzero"/>
	<path id="路径" d="M6.63 15L6.63 14.66L8.13 14.66L8.13 15L6.63 15ZM8.11 14.98L8.13 15C8.13 15.41 7.8 15.75 7.38 15.75C6.96 15.75 6.63 15.41 6.63 15L6.65 14.98L8.11 14.98ZM6.65 14.68L6.63 14.66C6.63 14.24 6.96 13.91 7.38 13.91C7.8 13.91 8.13 14.24 8.13 14.66L8.11 14.68L6.65 14.68Z" fill="#808080" fill-opacity="1.000000" fill-rule="evenodd"/>
	<path id="路径" d="M8.11 11.4L8.13 11.42C8.13 11.84 7.8 12.17 7.38 12.17C6.96 12.17 6.63 11.84 6.63 11.42L6.65 11.4L8.11 11.4ZM6.65 5.7L6.63 5.68C6.63 5.26 6.96 4.93 7.38 4.93C7.8 4.93 8.13 5.26 8.13 5.68L8.11 5.7L6.65 5.7Z" fill="#C4C4C4" fill-opacity="0" fill-rule="nonzero"/>
	<path id="路径" d="M6.63 11.42L6.63 5.68L8.13 5.68L8.13 11.42L6.63 11.42ZM8.11 11.4L8.13 11.42C8.13 11.84 7.8 12.17 7.38 12.17C6.96 12.17 6.63 11.84 6.63 11.42L6.65 11.4L8.11 11.4ZM6.65 5.7L6.63 5.68C6.63 5.26 6.96 4.93 7.38 4.93C7.8 4.93 8.13 5.26 8.13 5.68L8.11 5.7L6.65 5.7Z" fill="#808080" fill-opacity="1.000000" fill-rule="evenodd"/>
	<circle id="椭圆形" cx="7.387451" cy="12.774902" r="1.350000" fill="#C4C4C4" fill-opacity="0"/>
	<circle id="椭圆形" cx="7.387451" cy="12.774902" r="1.350000" stroke="#808080" stroke-opacity="1.000000" stroke-width="1.500000"/>
	<path id="路径" d="M12.04 5.02L12.02 5C12.02 4.58 12.35 4.25 12.77 4.25C13.19 4.25 13.52 4.58 13.52 5L13.5 5.02L12.04 5.02ZM13.5 5.32L13.52 5.34C13.52 5.76 13.19 6.09 12.77 6.09C12.35 6.09 12.02 5.76 12.02 5.34L12.04 5.32L13.5 5.32Z" fill="#C4C4C4" fill-opacity="0" fill-rule="nonzero"/>
	<path id="路径" d="M13.52 5L13.52 5.34L12.02 5.34L12.02 5L13.52 5ZM12.04 5.02L12.02 5C12.02 4.58 12.35 4.25 12.77 4.25C13.19 4.25 13.52 4.58 13.52 5L13.5 5.02L12.04 5.02ZM13.5 5.32L13.52 5.34C13.52 5.76 13.19 6.09 12.77 6.09C12.35 6.09 12.02 5.76 12.02 5.34L12.04 5.32L13.5 5.32Z" fill="#808080" fill-opacity="1.000000" fill-rule="evenodd"/>
	<path id="路径" d="M12.04 8.75L12.02 8.73C12.02 8.31 12.35 7.98 12.77 7.98C13.19 7.98 13.52 8.31 13.52 8.73L13.5 8.75L12.04 8.75ZM13.5 14.44L13.52 14.46C13.52 14.88 13.19 15.21 12.77 15.21C12.35 15.21 12.02 14.88 12.02 14.46L12.04 14.44L13.5 14.44Z" fill="#C4C4C4" fill-opacity="0" fill-rule="nonzero"/>
	<path id="路径" d="M13.52 8.73L13.52 14.46L12.02 14.46L12.02 8.73L13.52 8.73ZM12.04 8.75L12.02 8.73C12.02 8.31 12.35 7.98 12.77 7.98C13.19 7.98 13.52 8.31 13.52 8.73L13.5 8.75L12.04 8.75ZM13.5 14.44L13.52 14.46C13.52 14.88 13.19 15.21 12.77 15.21C12.35 15.21 12.02 14.88 12.02 14.46L12.04 14.44L13.5 14.44Z" fill="#808080" fill-opacity="1.000000" fill-rule="evenodd"/>
	<circle id="椭圆形" cx="12.787476" cy="7.387695" r="1.350000" fill="#C4C4C4" fill-opacity="0"/>
	<circle id="椭圆形" cx="12.787476" cy="7.387695" r="1.350000" stroke="#808080" stroke-opacity="1.000000" stroke-width="1.500000"/>
</svg>
