<svg width="16.000000" height="16.000000" viewBox="0 0 16 16" fill="none" xmlns="http://www.w3.org/2000/svg" xmlns:xlink="http://www.w3.org/1999/xlink">
	<desc>
			Created with Pixso.
	</desc>
	<defs/>
	<rect id="ICON/16/Download" width="16.000000" height="16.000000" fill="#FFFFFF" fill-opacity="0"/>
	<rect id="矩形备份 18" width="16.000000" height="16.000000" fill="#D8D8D8" fill-opacity="0"/>
	<rect id="矩形备份 18" x="0.500000" y="0.500000" width="15.000000" height="15.000000" stroke="#979797" stroke-opacity="0" stroke-width="1.000000"/>
	<path id="路径" d="M1 10.5L1.01 10.51L1.5 10.51L1.5 13.5L14.5 13.5L14.5 10.51L14.98 10.51L15 10.5C15 10.22 14.78 10 14.5 10C14.22 10 14 10.22 14 10.5L2 10.5C2 10.22 1.78 10 1.5 10C1.22 10 1 10.22 1 10.5Z" fill="#D8D8D8" fill-opacity="0" fill-rule="evenodd"/>
	<path id="路径" d="M14.5 10.5L14.5 13.5L1.5 13.5L1.5 10.5" stroke="#4D4D4D" stroke-opacity="1.000000" stroke-width="1.000000" stroke-linejoin="round" stroke-linecap="round"/>
	<path id="直线" d="M3.51 11.98L3.5 12C3.22 12 3 11.77 3 11.5C3 11.22 3.22 11 3.5 11L3.51 11.01L3.51 11.98ZM12.48 11.01L12.5 11C12.78 11 13 11.22 13 11.5C13 11.77 12.78 12 12.5 12L12.48 11.98L12.48 11.01Z" fill="#D8D8D8" fill-opacity="0" fill-rule="nonzero"/>
	<path id="直线" d="M3.5 11.5L12.5 11.5" stroke="#4D4D4D" stroke-opacity="1.000000" stroke-width="1.000000" stroke-linecap="round"/>
	<path id="路径" d="M10.47 6.29L10.47 6.26C10.67 6.06 10.98 6.06 11.18 6.26C11.37 6.46 11.37 6.77 11.18 6.97L11.15 6.97L10.81 6.63L7.99 9.44L5.18 6.63L4.84 6.97L4.81 6.97C4.61 6.77 4.61 6.46 4.81 6.26C5.01 6.06 5.32 6.06 5.52 6.26L5.52 6.29L5.19 6.61L10.8 6.61L10.47 6.29Z" fill="#D8D8D8" fill-opacity="0" fill-rule="evenodd"/>
	<path id="路径" d="M10.82 6.61L7.99 9.44L5.17 6.61" stroke="#4D4D4D" stroke-opacity="1.000000" stroke-width="1.000000" stroke-linejoin="round" stroke-linecap="round"/>
	<path id="路径 3" d="M8.47 9.42L8.49 9.44C8.49 9.72 8.27 9.94 7.99 9.94C7.71 9.94 7.49 9.72 7.49 9.44L7.51 9.42L8.47 9.42ZM7.51 2.54L7.49 2.52C7.49 2.24 7.71 2.02 7.99 2.02C8.27 2.02 8.49 2.24 8.49 2.52L8.47 2.54L7.51 2.54Z" fill="#D8D8D8" fill-opacity="0" fill-rule="nonzero"/>
	<path id="路径 3" d="M7.99 9.44L7.99 2.52" stroke="#4D4D4D" stroke-opacity="1.000000" stroke-width="1.000000" stroke-linecap="round"/>
</svg>
