<svg width="40.000000" height="40.000000" viewBox="0 0 40 40" fill="none" xmlns="http://www.w3.org/2000/svg" xmlns:xlink="http://www.w3.org/1999/xlink">
	<desc>
			Created with Pixso.
	</desc>
	<defs/>
	<rect id="矩形" rx="20.000000" width="40.000000" height="40.000000" fill="#E6E6E6" fill-opacity="1.000000"/>
	<g opacity="0.000000">
		<rect id="矩形" x="8.571411" y="8.571289" width="22.857143" height="22.857143" fill="#D8D8D8" fill-opacity="1.000000"/>
	</g>
	<mask id="mask_153_12427" fill="white">
		<path id="形状结合" d="M29.2695 12.2275C29.0809 12.0674 28.8219 12.0186 28.5828 12.0957L11.3171 17.8516C10.8304 18.0137 10.5 18.4502 10.478 18.9619C10.4542 19.4746 10.7428 19.9395 11.2123 20.1445L14.1047 21.4111L14.9229 21.7676L24.1305 16.3691L16.9056 22.6357L17.2037 22.7646L17.2037 22.7822L22.3019 24.9932L22.3009 24.9951L25.2362 26.2793C25.4609 26.3779 25.699 26.4277 25.9371 26.4277C26.2257 26.4277 26.5123 26.3545 26.7761 26.2109C27.2543 25.9473 27.5762 25.4873 27.6591 24.9473L29.5151 12.8818C29.5533 12.6367 29.46 12.3887 29.2695 12.2275ZM20.8987 25.4121L16.8281 23.6445L16.8281 26.7139C16.8281 27.2256 17.1367 27.6748 17.6139 27.8604C17.7605 27.916 17.911 27.9443 18.0605 27.9443C18.3987 27.9443 18.7281 27.8018 18.9681 27.5391L20.8987 25.4121Z" clip-rule="evenodd" fill="" fill-opacity="1.000000" fill-rule="evenodd"/>
	</mask>
	<path id="形状结合" d="M29.2695 12.2275C29.0809 12.0674 28.8219 12.0186 28.5828 12.0957L11.3171 17.8516C10.8304 18.0137 10.5 18.4502 10.478 18.9619C10.4542 19.4746 10.7428 19.9395 11.2123 20.1445L14.1047 21.4111L14.9229 21.7676L24.1305 16.3691L16.9056 22.6357L17.2037 22.7646L17.2037 22.7822L22.3019 24.9932L22.3009 24.9951L25.2362 26.2793C25.4609 26.3779 25.699 26.4277 25.9371 26.4277C26.2257 26.4277 26.5123 26.3545 26.7761 26.2109C27.2543 25.9473 27.5762 25.4873 27.6591 24.9473L29.5151 12.8818C29.5533 12.6367 29.46 12.3887 29.2695 12.2275ZM20.8987 25.4121L16.8281 23.6445L16.8281 26.7139C16.8281 27.2256 17.1367 27.6748 17.6139 27.8604C17.7605 27.916 17.911 27.9443 18.0605 27.9443C18.3987 27.9443 18.7281 27.8018 18.9681 27.5391L20.8987 25.4121Z" clip-rule="evenodd" fill="#FFFFFF" fill-opacity="1.000000" fill-rule="evenodd" mask="url(#mask_153_12427)"/>
	<path id="形状结合" d="" clip-rule="evenodd" fill="#979797" fill-opacity="0.000000" fill-rule="evenodd"/>
</svg>

