<svg width="36.000000" height="36.000000" viewBox="0 0 36 36" fill="none" xmlns="http://www.w3.org/2000/svg" xmlns:xlink="http://www.w3.org/1999/xlink">
	<desc>
			Created with Pixso.
	</desc>
	<defs>
		<clipPath id="clip265_55374">
			<rect id="Excel" width="36.000000" height="36.000000" fill="white" fill-opacity="0"/>
		</clipPath>
	</defs>
	<g clip-path="url(#clip265_55374)">
		<path id="path" d="M27.3 34.64L8.69 34.64C5.72 34.64 3.29 32.21 3.29 29.23L3.29 6.67C3.29 3.7 5.72 1.25 8.69 1.25L22.01 1.25C23.45 1.25 24.8 1.92 25.68 3.04L31.68 10.67C32.32 11.5 32.68 12.52 32.68 13.57L32.68 29.21C32.7 32.2 30.27 34.64 27.3 34.64Z" fill="#D8F6E0" fill-opacity="1.000000" fill-rule="nonzero"/>
		<path id="path" d="M27.3 35.91L8.69 35.91C5.02 35.91 2.03 32.92 2.03 29.23L2.03 6.67C2.03 2.98 5.02 0 8.69 0L22.01 0C23.85 0 25.54 0.82 26.67 2.26L32.66 9.9C33.49 10.94 33.94 12.24 33.94 13.58L33.94 29.23C33.96 32.92 30.97 35.91 27.3 35.91ZM8.69 2.51C6.4 2.51 4.55 4.37 4.55 6.67L4.55 29.23C4.55 31.51 6.4 33.38 8.69 33.38L27.28 33.38C29.57 33.38 31.42 31.53 31.42 29.23L31.42 13.58C31.42 12.83 31.17 12.07 30.69 11.46L24.69 3.83C24.04 3 23.05 2.53 22.01 2.53C22.01 2.51 8.69 2.51 8.69 2.51Z" fill="#B3DBBE" fill-opacity="1.000000" fill-rule="nonzero"/>
		<path id="X" d="M23.88 11.82L19.27 18.21L24.11 24.99L20.31 24.99L17.38 20.71L14.39 24.99L10.86 24.99L15.7 18.28L11.09 11.82L14.86 11.82L17.58 15.78L20.33 11.82L23.88 11.82Z" fill="#4FBE6D" fill-opacity="1.000000" fill-rule="nonzero"/>
	</g>
</svg>
