<svg width="36.000000" height="36.000000" viewBox="0 0 36 36" fill="none" xmlns="http://www.w3.org/2000/svg" xmlns:xlink="http://www.w3.org/1999/xlink">
	<desc>
			Created with Pixso.
	</desc>
	<defs>
		<clipPath id="clip9123_173731">
			<rect id="Excel" width="36.000000" height="36.000000" fill="white" fill-opacity="0"/>
		</clipPath>
	</defs>
	<g clip-path="url(#clip9123_173731)">
		<path id="path" d="M27.3 34.65L8.69 34.65C5.72 34.65 3.29 32.22 3.29 29.23L3.29 6.67C3.29 3.7 5.72 1.25 8.69 1.25L22.01 1.25C23.45 1.25 24.8 1.92 25.68 3.04L31.67 10.67C32.32 11.5 32.68 12.52 32.68 13.57L32.68 29.21C32.7 32.2 30.27 34.65 27.3 34.65Z" fill="#FCE1DF" fill-opacity="1.000000" fill-rule="nonzero"/>
		<path id="path" d="M27.3 35.91L8.69 35.91C5.02 35.91 2.03 32.92 2.03 29.23L2.03 6.67C2.03 2.98 5.02 0 8.69 0L22.01 0C23.84 0 25.54 0.82 26.67 2.26L32.66 9.9C33.49 10.94 33.94 12.24 33.94 13.58L33.94 29.23C33.96 32.92 30.97 35.91 27.3 35.91ZM8.69 2.51C6.4 2.51 4.55 4.37 4.55 6.67L4.55 29.23C4.55 31.51 6.4 33.39 8.69 33.39L27.28 33.39C29.57 33.39 31.42 31.53 31.42 29.23L31.42 13.58C31.42 12.83 31.17 12.07 30.68 11.46L24.69 3.83C24.04 3 23.05 2.53 22.01 2.53C22.01 2.51 8.69 2.51 8.69 2.51Z" fill="#FFB1AC" fill-opacity="1.000000" fill-rule="nonzero"/>
		<path id="path" d="M23.93 22.05L23.93 12.44C23.93 12.25 23.93 12.13 23.87 11.93C23.68 11.24 23 10.85 22.32 11.04L13.73 13.52C13.59 13.57 13.47 13.64 13.35 13.72C13.23 13.81 13.13 13.91 13.05 14.03C12.97 14.16 12.9 14.29 12.86 14.43C12.82 14.57 12.8 14.71 12.8 14.86L12.8 23.32C12.37 23.25 11.81 23.25 11.32 23.51C10.27 24.02 9.71 25.16 10.14 26.05C10.51 26.94 11.75 27.26 12.8 26.75C13.36 26.5 13.79 26.05 13.98 25.54L13.98 25.48C14.1 25.16 14.1 24.78 14.04 24.46L14.04 19.63L22.63 17.21L22.63 21.03C22.2 20.9 21.64 20.97 21.15 21.22C20.1 21.73 19.54 22.87 19.97 23.76C20.34 24.65 21.58 24.97 22.63 24.46C22.9 24.34 23.14 24.16 23.34 23.94C23.54 23.72 23.7 23.47 23.81 23.19L23.81 23.13C23.99 22.75 24.06 22.36 23.93 22.05ZM22.7 15.81L14.16 18.23L14.16 16.07C14.29 16.07 14.41 16.07 14.47 16L22.69 13.65L22.7 15.81Z" fill="#F48078" fill-opacity="1.000000" fill-rule="nonzero"/>
	</g>
</svg>
