<svg width="16.000000" height="16.000000" viewBox="0 0 16 16" fill="none" xmlns="http://www.w3.org/2000/svg" xmlns:xlink="http://www.w3.org/1999/xlink">
	<desc>
			Created with Pixso.
	</desc>
	<defs/>
	<rect id="ICON/16/View" width="16.000000" height="16.000000" fill="#FFFFFF" fill-opacity="0"/>
	<rect id="矩形备份 14" width="16.000000" height="16.000000" fill="#D8D8D8" fill-opacity="0"/>
	<rect id="矩形备份 14" x="0.500000" y="0.500000" width="15.000000" height="15.000000" stroke="#979797" stroke-opacity="0" stroke-width="1.000000"/>
	<path id="ICON" d="M10.0908 3.10352C11.2283 3.42578 12.2791 4.00391 13.165 4.79492L13.4314 5.04297C14.1328 5.78516 14.7107 6.63672 15.1428 7.56641C15.2605 7.7832 15.2969 8.03906 15.2451 8.28125C14.0496 11.0977 11.3533 13.0938 8.32837 13.1895L7.99023 13.1895C6.47144 13.1309 4.99463 12.6699 3.70679 11.8516C2.55005 11.0645 1.60889 9.99414 0.970703 8.73828L0.796631 8.35352C0.712646 8.12305 0.712646 7.86914 0.796631 7.63867C1.80884 5.23828 3.9187 3.49414 6.44287 2.96875C7.65186 2.7168 8.90308 2.76367 10.0908 3.10352ZM6.66504 3.97461L7.01416 3.91211L7.00391 3.91211C7.94043 3.77148 8.89575 3.83203 9.80786 4.08789C10.9102 4.38672 11.9182 4.9668 12.7351 5.77344C13.3547 6.42773 13.8647 7.17969 14.2451 8L14.2451 8.09375L14.1321 8.3125C13.0417 10.6055 10.7791 12.0898 8.26733 12.1602L7.64062 12.1602C6.43677 12.0605 5.27588 11.6602 4.26147 10.9961L4.02515 10.8301C3.11182 10.1465 2.36938 9.25586 1.85791 8.22852L1.74512 8L1.86841 7.74023C2.80615 5.80078 4.57715 4.41016 6.66504 3.97461ZM8.03931 5.50391C8.69897 5.50391 9.33179 5.76953 9.79614 6.24414C10.269 6.70312 10.5364 7.33984 10.5364 8.00391C10.5364 8.66797 10.269 9.30273 9.79614 9.76172C9.33105 10.2363 8.69873 10.502 8.03931 10.502C7.37964 10.502 6.74731 10.2363 6.28223 9.76172C5.79468 9.30859 5.5127 8.67383 5.50244 8.00391C5.50708 7.33984 5.77368 6.70703 6.24268 6.24414C6.70776 5.76953 7.34009 5.50391 7.99976 5.50391L8.03931 5.50391ZM8.01562 6.50195C8.02344 6.50195 8.03125 6.50195 8.03906 6.50195L8.01562 6.50195ZM8.00244 6.50195L7.99951 6.50195L8.01562 6.50195L8.00244 6.50195L8.00244 6.50195ZM8.00244 6.50195C8.39502 6.52734 8.7627 6.70703 9.02612 7.00195C9.30981 7.27539 9.47021 7.6543 9.47021 8.05273C9.47021 8.44922 9.30981 8.82812 9.02612 9.10156C8.74683 9.38672 8.36694 9.54883 7.96997 9.55078C7.57617 9.54883 7.19946 9.38672 6.92383 9.10156C6.63477 8.83008 6.47046 8.45117 6.47046 8.05273C6.47046 7.65234 6.63477 7.27344 6.92383 7.00195C7.19922 6.68945 7.59033 6.50977 8.00244 6.50195Z" clip-rule="evenodd" fill="#4D4D4D" fill-opacity="1.000000" fill-rule="evenodd"/>
</svg>
