<?xml version="1.0" encoding="UTF-8"?>
<svg width="19.4px" height="19.15px" viewBox="0 0 19.4 19.15" version="1.1" xmlns="http://www.w3.org/2000/svg" xmlns:xlink="http://www.w3.org/1999/xlink">
    <title>清除所有</title>
    <g id="控件" stroke="none" stroke-width="1" fill="none" fillRule="evenodd">
        <g id="Icon/24px/Clear-n" transform="translate(-2.300000, -2.300000)">
            <g id="编组-24" transform="translate(3.000000, 3.000000)">
                <path d="M10.2857143,0 C10.9957947,0 11.5714286,0.596953667 11.5714286,1.33333333 L11.5714286,4 L16.7142857,4 C17.4243661,4 18,4.59695367 18,5.33333333 L18,6.66666667 C18,7.40304633 17.4243661,8 16.7142857,8 L1.28571429,8 C0.575633893,8 0,7.40304633 0,6.66666667 L0,5.33333333 C0,4.59695367 0.575633893,4 1.28571429,4 L6.42857143,4 L6.42857143,1.33333333 C6.42857143,0.596953667 7.00420532,0 7.71428571,0 L10.2857143,0 Z" id="路径" stroke="#4D4D4D" stroke-width="1.4" stroke-linecap="round" stroke-linejoin="round"></path>
                <path d="M16.3534187,8 C17.0437747,8 17.6034187,8.55964406 17.6034187,9.25 C17.6034187,9.29611894 17.6008664,9.34220254 17.5957734,9.38803941 L17,17.75 L1,17.75 L0.404226601,9.38803941 C0.327989541,8.70190587 0.822408324,8.08388239 1.50854186,8.00764533 C1.55437873,8.00255235 1.60046233,8 1.64658127,8 L16.3534187,8 Z" id="路径" stroke="#4D4D4D" stroke-width="1.4" stroke-linecap="round" stroke-linejoin="round" transform="translate(8.999945, 12.875000) scale(1, -1) translate(-8.999945, -12.875000) "></path>
                <path d="M4.7,12.2583424 C5.08659932,12.2583424 5.4,12.5154108 5.4,12.8325207 L5.4,16.6841641 C5.4,17.001274 5.08659932,17.2583424 4.7,17.2583424 C4.31340068,17.2583424 4,17.001274 4,16.6841641 L4,12.8325207 C4,12.5154108 4.31340068,12.2583424 4.7,12.2583424 Z" id="路径-17" fill="#4D4D4D" fillRule="nonzero"></path>
            </g>
        </g>
    </g>
</svg>