<svg width="24.000000" height="24.000000" viewBox="0 0 24 24" fill="none" xmlns="http://www.w3.org/2000/svg" xmlns:xlink="http://www.w3.org/1999/xlink">
	<desc>
			Created with Pixso.
	</desc>
	<defs>
		<clipPath id="clip1958_214114">
			<rect id="code" width="14.000000" height="11.375000" transform="translate(5.000000 6.000000)" fill="white" fill-opacity="0"/>
		</clipPath>
		<clipPath id="clip1938_211469">
			<rect id="code" rx="12.000000" width="24.000000" height="24.000000" fill="white" fill-opacity="0"/>
		</clipPath>
	</defs>
	<rect id="code" rx="12.000000" width="24.000000" height="24.000000" fill="#8988FF" fill-opacity="1.000000"/>
	<g clip-path="url(#clip1938_211469)">
		<g clip-path="url(#clip1958_214114)">
			<path id="path" d="M14.23 6.4C14.25 6.4 14.26 6.41 14.28 6.42C14.29 6.43 14.31 6.44 14.32 6.45C14.33 6.46 14.35 6.47 14.36 6.48C14.37 6.5 14.38 6.51 14.39 6.53C14.4 6.54 14.4 6.56 14.41 6.57C14.41 6.59 14.42 6.61 14.42 6.63C14.42 6.64 14.42 6.66 14.42 6.68C14.42 6.7 14.41 6.71 14.41 6.73L11.42 17.18C11.42 17.19 11.41 17.21 11.4 17.22C11.4 17.24 11.39 17.25 11.38 17.27C11.37 17.28 11.35 17.29 11.34 17.31C11.33 17.32 11.31 17.33 11.3 17.34C11.28 17.34 11.27 17.35 11.25 17.36C11.24 17.36 11.22 17.36 11.2 17.37C11.18 17.37 11.17 17.37 11.15 17.37C11.13 17.37 11.12 17.36 11.1 17.36L9.77 16.97C9.75 16.96 9.73 16.95 9.72 16.95C9.7 16.94 9.69 16.93 9.67 16.92C9.66 16.91 9.65 16.89 9.64 16.88C9.63 16.87 9.62 16.85 9.61 16.84C9.6 16.82 9.59 16.81 9.59 16.79C9.58 16.77 9.58 16.76 9.58 16.74C9.58 16.72 9.58 16.7 9.58 16.69C9.58 16.67 9.58 16.65 9.59 16.63L12.57 6.19C12.57 6.17 12.58 6.16 12.59 6.14C12.6 6.12 12.61 6.11 12.62 6.1C12.63 6.08 12.64 6.07 12.65 6.06C12.67 6.05 12.68 6.04 12.69 6.03C12.71 6.02 12.73 6.01 12.74 6.01C12.76 6 12.77 6 12.79 6C12.81 6 12.83 6 12.84 6C12.86 6 12.88 6 12.89 6.01L14.23 6.4Z" fill="#FFFFFF" fill-opacity="1.000000" fill-rule="nonzero"/>
			<path id="path" d="M18.91 11.49L15.76 8.49C15.75 8.47 15.74 8.46 15.72 8.45C15.71 8.44 15.69 8.44 15.67 8.43C15.66 8.42 15.64 8.42 15.62 8.42C15.61 8.41 15.59 8.41 15.57 8.41C15.56 8.41 15.54 8.42 15.52 8.42C15.51 8.42 15.49 8.43 15.47 8.44C15.46 8.44 15.44 8.45 15.43 8.46C15.41 8.47 15.4 8.48 15.39 8.5L14.44 9.53C14.43 9.54 14.42 9.56 14.41 9.57C14.4 9.59 14.39 9.6 14.38 9.62C14.38 9.64 14.37 9.65 14.37 9.67C14.37 9.69 14.37 9.71 14.37 9.72C14.37 9.74 14.37 9.76 14.37 9.78C14.38 9.79 14.39 9.81 14.39 9.83C14.4 9.84 14.41 9.86 14.42 9.87C14.43 9.89 14.44 9.9 14.46 9.91L16.44 11.68L14.46 13.45C14.44 13.47 14.43 13.48 14.42 13.49C14.41 13.51 14.4 13.52 14.39 13.54C14.38 13.55 14.38 13.57 14.37 13.59C14.37 13.61 14.37 13.62 14.37 13.64C14.37 13.66 14.37 13.68 14.37 13.7C14.37 13.71 14.38 13.73 14.38 13.75C14.39 13.76 14.4 13.78 14.41 13.8C14.41 13.81 14.43 13.82 14.44 13.84L15.39 14.87C15.4 14.88 15.41 14.89 15.43 14.9C15.44 14.91 15.46 14.92 15.47 14.93C15.49 14.94 15.51 14.94 15.52 14.95C15.54 14.95 15.56 14.95 15.57 14.95C15.59 14.95 15.61 14.95 15.62 14.95C15.64 14.95 15.66 14.94 15.67 14.94C15.69 14.93 15.71 14.92 15.72 14.91C15.74 14.9 15.75 14.89 15.76 14.88L18.91 11.88C18.93 11.87 18.94 11.85 18.95 11.84C18.96 11.82 18.97 11.81 18.98 11.79C18.98 11.77 18.99 11.76 18.99 11.74C19 11.72 19 11.7 19 11.68C19 11.67 19 11.65 18.99 11.63C18.99 11.61 18.98 11.59 18.98 11.58C18.97 11.56 18.96 11.54 18.95 11.53C18.94 11.51 18.93 11.5 18.91 11.49ZM9.56 9.53L8.6 8.5C8.59 8.49 8.58 8.47 8.57 8.46C8.55 8.45 8.54 8.44 8.52 8.44C8.5 8.43 8.49 8.42 8.47 8.42C8.45 8.42 8.44 8.41 8.42 8.41C8.4 8.41 8.39 8.41 8.37 8.42C8.35 8.42 8.34 8.43 8.32 8.43C8.3 8.44 8.29 8.45 8.27 8.46C8.26 8.46 8.24 8.48 8.23 8.49L5.08 11.49C5.07 11.5 5.05 11.51 5.04 11.53C5.03 11.54 5.02 11.56 5.02 11.58C5.01 11.59 5.01 11.61 5 11.63C5 11.65 5 11.66 5 11.68C5 11.7 5 11.72 5 11.74C5.01 11.75 5.01 11.77 5.02 11.79C5.02 11.8 5.03 11.82 5.04 11.84C5.05 11.85 5.07 11.86 5.08 11.88L8.23 14.88C8.24 14.89 8.26 14.9 8.27 14.91C8.29 14.92 8.3 14.93 8.32 14.93C8.34 14.94 8.35 14.94 8.37 14.95C8.39 14.95 8.4 14.95 8.42 14.95C8.44 14.95 8.45 14.95 8.47 14.94C8.49 14.94 8.5 14.94 8.52 14.93C8.54 14.92 8.55 14.91 8.57 14.9C8.58 14.89 8.59 14.88 8.6 14.87L9.56 13.84C9.57 13.82 9.58 13.81 9.59 13.79C9.6 13.78 9.6 13.76 9.61 13.75C9.62 13.73 9.62 13.71 9.62 13.69C9.63 13.68 9.63 13.66 9.63 13.64C9.63 13.62 9.62 13.6 9.62 13.59C9.62 13.57 9.61 13.55 9.6 13.54C9.59 13.52 9.58 13.51 9.57 13.49C9.56 13.48 9.55 13.46 9.54 13.45L7.56 11.68L9.54 9.91C9.55 9.9 9.56 9.89 9.57 9.87C9.58 9.86 9.59 9.84 9.6 9.83C9.61 9.81 9.62 9.8 9.62 9.78C9.62 9.76 9.63 9.74 9.63 9.72C9.63 9.71 9.63 9.69 9.62 9.67C9.62 9.65 9.62 9.64 9.61 9.62C9.61 9.6 9.6 9.59 9.59 9.57C9.58 9.56 9.57 9.54 9.56 9.53Z" fill="#FFFFFF" fill-opacity="1.000000" fill-rule="nonzero"/>
		</g>
	</g>
</svg>
