<svg width="16.000000" height="16.000000" viewBox="0 0 16 16" fill="none" xmlns="http://www.w3.org/2000/svg" xmlns:xlink="http://www.w3.org/1999/xlink">
	<desc>
			Created with Pixso.
	</desc>
	<defs/>
	<path id="形状" d="M1.5 7.5L7.5 7.5C7.77612 7.5 8 7.72388 8 8C8 8.27612 7.77612 8.5 7.5 8.5L1.5 8.5C1.22388 8.5 1 8.27612 1 8C1 7.72388 1.22388 7.5 1.5 7.5ZM11 6C11.9319 6 12.7148 6.63745 12.937 7.5L14.5 7.5C14.7761 7.5 15 7.72388 15 8C15 8.27612 14.7761 8.5 14.5 8.5L12.9368 8.50098C12.7144 9.36304 11.9316 10 11 10C9.89551 10 9 9.10449 9 8C9 6.89551 9.89551 6 11 6ZM11 7C11.5522 7 12 7.44775 12 8C12 8.55225 11.5522 9 11 9C10.4478 9 10 8.55225 10 8C10 7.44775 10.4478 7 11 7ZM8.5 3L14.5 3C14.7761 3 15 3.22388 15 3.5C15 3.77612 14.7761 4 14.5 4L8.5 4C8.22388 4 8 3.77612 8 3.5C8 3.22388 8.22388 3 8.5 3ZM5 1.5C6.10449 1.5 7 2.39551 7 3.5C7 4.60449 6.10449 5.5 5 5.5C4.06836 5.5 3.28564 4.86304 3.06323 4.00098L1.5 4C1.22388 4 1 3.77612 1 3.5C1 3.22388 1.22388 3 1.5 3L3.06299 3C3.28516 2.13745 4.06812 1.5 5 1.5ZM5 2.5C5.55225 2.5 6 2.94775 6 3.5C6 4.05225 5.55225 4.5 5 4.5C4.44775 4.5 4 4.05225 4 3.5C4 2.94775 4.44775 2.5 5 2.5ZM8.5 12L14.5 12C14.7761 12 15 12.2239 15 12.5C15 12.7761 14.7761 13 14.5 13L8.5 13C8.22388 13 8 12.7761 8 12.5C8 12.2239 8.22388 12 8.5 12ZM5 10.5C6.10449 10.5 7 11.3955 7 12.5C7 13.6045 6.10449 14.5 5 14.5C4.06836 14.5 3.28564 13.863 3.06323 13.001L1.5 13C1.22388 13 1 12.7761 1 12.5C1 12.2239 1.22388 12 1.5 12L3.06299 12C3.28516 11.1375 4.06812 10.5 5 10.5ZM5 11.5C5.55225 11.5 6 11.9478 6 12.5C6 13.0522 5.55225 13.5 5 13.5C4.44775 13.5 4 13.0522 4 12.5C4 11.9478 4.44775 11.5 5 11.5Z" clip-rule="evenodd" fill="#71757F" fillOpacity="1.000000" fillRule="evenodd"/>
</svg>
