<svg width="24.000000" height="24.000000" viewBox="0 0 24 24" fill="none" xmlns="http://www.w3.org/2000/svg" xmlns:xlink="http://www.w3.org/1999/xlink">
	<desc>
			Created with Pixso.
	</desc>
	<defs>
		<clipPath id="clip28_825">
			<rect id="图标/16/数据检索，查找" width="16.000000" height="16.000000" transform="translate(4.000000 4.000000)" fill="white" fillOpacity="0"/>
		</clipPath>
	</defs>
	<rect id="画板 856" rx="4.000000" width="24.000000" height="24.000000" fill="#50D4AB" fillOpacity="1.000000"/>
	<g clipPath="url(#clip28_825)">
		<path id="path" d="M12.11 10.24C15.33 10.24 18.03 9.02 18.03 7.62C18.03 6.14 15.42 5.01 12.11 5.01C8.8 5.01 6.19 6.23 6.19 7.62C6.19 9.1 8.8 10.24 12.11 10.24ZM12.11 13.02L12.37 13.02C12.89 11.8 14.11 11.02 15.59 11.02C16.29 11.02 16.9 11.19 17.51 11.54C17.86 11.19 18.12 10.85 18.12 10.41L18.12 8.32C18.12 9.8 15.51 10.93 12.2 10.93C8.97 10.93 6.27 9.71 6.27 8.32L6.27 10.32C6.19 11.8 8.8 13.02 12.11 13.02ZM12.11 15.72L12.28 15.72C12.11 15.38 12.02 14.94 12.02 14.5C12.02 14.24 12.02 13.98 12.11 13.72C8.89 13.72 6.19 12.5 6.19 11.11L6.19 13.11C6.19 14.59 8.8 15.72 12.11 15.72ZM14.55 17.81C13.77 17.55 13.07 17.12 12.63 16.42L12.11 16.42C8.89 16.42 6.19 15.2 6.19 13.81L6.19 15.81C6.19 17.29 8.8 18.42 12.11 18.42C12.98 18.42 13.85 18.34 14.64 18.16C14.55 18.08 14.55 17.99 14.55 17.81ZM19.69 17.9L17.86 16.07L17.77 15.99C18.03 15.55 18.21 15.03 18.21 14.42C18.21 12.85 16.9 11.54 15.33 11.54C13.77 11.54 12.46 12.85 12.46 14.42C12.46 15.99 13.77 17.29 15.33 17.29C15.86 17.29 16.29 17.12 16.73 16.94C16.73 16.94 16.73 17.03 16.81 17.03L18.64 18.86C18.82 19.03 19.25 19.03 19.52 18.77C19.86 18.42 19.86 18.08 19.69 17.9ZM13.33 14.42C13.33 13.28 14.29 12.33 15.42 12.33C16.55 12.33 17.51 13.28 17.51 14.42C17.51 15.55 16.55 16.51 15.42 16.51C14.2 16.51 13.33 15.55 13.33 14.42Z" fill="#FFFFFF" fillOpacity="1.000000" fillRule="nonzero"/>
	</g>
</svg>
