<svg width="20.000000" height="19.953125" viewBox="0 0 20 19.9531" fill="none" xmlns="http://www.w3.org/2000/svg" xmlns:xlink="http://www.w3.org/1999/xlink">
	<desc>
			Created with Pixso.
	</desc>
	<defs>
		<linearGradient x1="10.000001" y1="0.000000" x2="10.000001" y2="19.953602" id="paint_linear_661_273225_0" gradientUnits="userSpaceOnUse">
			<stop offset="0.007634" stop-color="#8C89FF"/>
			<stop offset="1.000000" stop-color="#514CE1"/>
		</linearGradient>
	</defs>
	<path id="path" d="M18.62 8.06C20.11 6.57 20.39 4.3 19.46 2.48L16.44 5.5L14.44 3.51L17.46 0.53C15.65 -0.4 13.42 -0.12 11.88 1.37C10.63 2.62 10.26 4.39 10.67 5.97L0.45 16.2C0.41 16.23 0.38 16.27 0.35 16.31C0.31 16.35 0.28 16.39 0.26 16.43C0.23 16.47 0.2 16.51 0.18 16.56C0.15 16.6 0.13 16.65 0.11 16.7C0.09 16.74 0.08 16.79 0.06 16.84C0.05 16.89 0.03 16.94 0.02 16.99C0.02 17.04 0.01 17.08 0 17.14C0 17.19 0 17.24 0 17.29C0 17.34 0 17.39 0 17.44C0.01 17.49 0.02 17.54 0.02 17.59C0.03 17.64 0.05 17.69 0.06 17.74C0.08 17.78 0.09 17.83 0.11 17.88C0.13 17.92 0.15 17.97 0.18 18.02C0.2 18.06 0.23 18.1 0.26 18.15C0.28 18.19 0.31 18.23 0.35 18.27C0.38 18.31 0.41 18.34 0.45 18.38L1.66 19.5C2.26 20.1 3.24 20.1 3.84 19.5L14.07 9.27C15.65 9.74 17.37 9.32 18.62 8.06Z" fill="url(#paint_linear_661_273225_0)" fill-opacity="1.000000" fill-rule="nonzero"/>
</svg>
