<svg width="16.000000" height="16.000000" viewBox="0 0 16 16" fill="none" xmlns="http://www.w3.org/2000/svg" xmlns:xlink="http://www.w3.org/1999/xlink">
	<desc>
			Created with Pixso.
	</desc>
	<defs>
		<clipPath id="clip671_227175">
			<rect id="图标/16/后台悬浮运行，徽章提醒" width="16.000000" height="16.000000" fill="white" fillOpacity="0"/>
		</clipPath>
	</defs>
	<g clipPath="url(#clip671_227175)">
		<path id="path" d="M12.18 7.35L12.16 7.33C12.16 7.05 12.38 6.83 12.66 6.83C12.94 6.83 13.16 7.05 13.16 7.33L13.14 7.35L12.18 7.35ZM8.64 2.85L8.66 2.83C8.94 2.83 9.16 3.05 9.16 3.33C9.16 3.61 8.94 3.83 8.66 3.83L8.64 3.81L8.64 2.85Z" fill="#000000" fillOpacity="0" fillRule="nonzero"/>
		<path id="path" d="M12.66 7.33L12.66 13.33L2.66 13.33L2.66 3.33L8.66 3.33" stroke="#71757F" stroke-opacity="1.000000" stroke-width="1.000000" stroke-linejoin="round" stroke-linecap="round"/>
		<path id="path" d="M12.66 4.66C13.4 4.66 14 4.06 14 3.33C14 2.59 13.4 2 12.66 2C11.93 2 11.33 2.59 11.33 3.33C11.33 4.06 11.93 4.66 12.66 4.66Z" fill="#000000" fillOpacity="0" fillRule="nonzero"/>
		<path id="path" d="M14 3.33C14 2.59 13.4 2 12.66 2C11.93 2 11.33 2.59 11.33 3.33C11.33 4.06 11.93 4.66 12.66 4.66C13.4 4.66 14 4.06 14 3.33Z" stroke="#71757F" stroke-opacity="1.000000" stroke-width="1.000000" stroke-linejoin="round"/>
	</g>
</svg>
