<svg width="18.000000" height="18.000000" viewBox="0 0 18 18" fill="none" xmlns="http://www.w3.org/2000/svg" xmlns:xlink="http://www.w3.org/1999/xlink">
	<desc>
			Created with Pixso.
	</desc>
	<defs>
		<clipPath id="clip671_227123">
			<rect id="bg-like" width="12.000000" height="13.000000" transform="translate(3.000000 2.000000)" fill="white" fill-opacity="0"/>
		</clipPath>
		<clipPath id="clip671_227122">
			<rect id="星星" width="18.000000" height="18.000000" fill="white" fill-opacity="0"/>
		</clipPath>
	</defs>
	<g clip-path="url(#clip671_227122)">
		<g clip-path="url(#clip671_227123)">
			<path id="path" d="M15 7.95C14.98 7.85 14.95 7.77 14.92 7.68C14.88 7.6 14.83 7.52 14.78 7.45C14.72 7.38 14.66 7.32 14.58 7.26C14.51 7.21 14.44 7.17 14.36 7.13C14.17 7.07 13.97 7.04 13.77 7.04L10.7 7.04C10.56 7.04 10.56 7.04 10.58 6.9C10.64 6.5 10.7 6.1 10.77 5.71C10.83 5.44 10.85 5.18 10.84 4.91C10.83 4.64 10.79 4.37 10.71 4.12C10.56 3.64 10.39 3.19 10.22 2.72C10.21 2.66 10.18 2.6 10.15 2.54C10.12 2.48 10.08 2.43 10.04 2.38C10 2.33 9.95 2.29 9.9 2.25C9.85 2.21 9.8 2.17 9.74 2.15C9.63 2.09 9.52 2.05 9.4 2.03C9.28 2 9.16 1.99 9.04 2C8.92 2 8.8 2.02 8.69 2.05C8.57 2.08 8.46 2.13 8.35 2.19C8.32 2.21 8.28 2.23 8.25 2.25C8.22 2.27 8.19 2.29 8.16 2.32C8.13 2.35 8.11 2.38 8.08 2.41C8.06 2.44 8.03 2.47 8.01 2.51C7.99 2.54 7.98 2.58 7.96 2.62C7.95 2.65 7.94 2.69 7.93 2.73C7.92 2.77 7.91 2.81 7.91 2.85C7.9 2.89 7.9 2.93 7.9 2.97C7.9 3.48 7.9 4 7.94 4.51C7.95 4.68 7.91 4.84 7.83 4.98C7.46 5.66 7.19 6.22 6.8 6.84C6.69 7 6.56 7.16 6.42 7.3C6.36 7.35 6.3 7.41 6.25 7.48C6.2 7.55 6.15 7.62 6.12 7.69C6.08 7.77 6.05 7.85 6.03 7.93C6.01 8.02 6 8.1 6 8.19L6 13.94C5.99 13.98 6 14.01 6 14.04C6 14.08 6.01 14.11 6.01 14.15C6.02 14.18 6.03 14.21 6.04 14.25C6.04 14.28 6.06 14.31 6.07 14.34C6.08 14.37 6.09 14.41 6.11 14.44C6.12 14.47 6.14 14.5 6.16 14.52C6.18 14.55 6.19 14.58 6.21 14.61C6.23 14.63 6.26 14.66 6.28 14.68C6.3 14.71 6.33 14.73 6.35 14.75C6.37 14.77 6.4 14.79 6.43 14.81C6.45 14.83 6.48 14.85 6.51 14.87C6.54 14.88 6.57 14.9 6.6 14.91C6.63 14.92 6.66 14.94 6.69 14.95C6.72 14.96 6.75 14.97 6.78 14.97C6.81 14.98 6.84 14.98 6.88 14.99C6.91 14.99 6.94 14.99 6.97 14.99L12.29 14.99C12.6 15 12.9 14.96 13.19 14.87C13.26 14.85 13.33 14.82 13.39 14.79C13.46 14.76 13.52 14.72 13.58 14.68C13.64 14.64 13.69 14.59 13.74 14.54C13.8 14.49 13.84 14.43 13.89 14.37C13.93 14.31 13.97 14.25 14.01 14.18C14.04 14.12 14.07 14.05 14.1 13.98C14.12 13.91 14.14 13.83 14.16 13.76C14.17 13.68 14.18 13.61 14.19 13.53C14.21 13.28 14.19 13.04 14.11 12.8C14.1 12.76 14.11 12.72 14.14 12.68C14.2 12.6 14.25 12.52 14.3 12.43C14.34 12.35 14.38 12.26 14.41 12.16C14.44 12.07 14.46 11.97 14.47 11.87C14.48 11.78 14.49 11.68 14.48 11.58C14.47 11.43 14.44 11.29 14.39 11.16C14.37 11.13 14.36 11.1 14.36 11.06C14.36 11.03 14.37 11 14.39 10.97C14.45 10.9 14.5 10.83 14.54 10.75C14.58 10.67 14.62 10.59 14.65 10.5C14.68 10.42 14.7 10.33 14.71 10.24C14.73 10.15 14.73 10.06 14.73 9.97C14.71 9.79 14.68 9.61 14.63 9.44L14.63 9.31C14.73 9.2 14.8 9.08 14.86 8.94C14.92 8.81 14.96 8.67 14.98 8.53L14.98 8.08L15 7.95Z" fill="#FF6666" fill-opacity="1.000000" fill-rule="nonzero"/>
			<path id="path" d="M4 7.57L4.67 7.57C5.34 7.57 5.67 7.92 5.67 8.61L5.67 13.95C5.67 14.65 5.34 14.99 4.67 14.99L4 14.99C3.33 14.99 3 14.65 3 13.95L3 8.61C3 7.92 3.33 7.57 4 7.57Z" fill="#FF6666" fill-opacity="1.000000" fill-rule="nonzero"/>
		</g>
	</g>
</svg>
