<?xml version="1.0" encoding="UTF-8"?>
<svg width="19.5px" height="19.5px" viewBox="0 0 19.5 19.5" version="1.1" xmlns="http://www.w3.org/2000/svg" xmlns:xlink="http://www.w3.org/1999/xlink">
    <title>Icon/24px/Search Model_dark</title>
    <g id="页面-2备份" stroke="none" stroke-width="1" fill="none" fillRule="evenodd">
        <g id="03-首页@" transform="translate(-894.000000, -674.000000)" fill="#4D4D4D" fillRule="nonzero">
            <g id="@" transform="translate(341.000000, 647.000000)">
                <g id="编组-14" transform="translate(550.000000, 24.000000)">
                    <g id="Icon/24px/Search-Model_dark" transform="translate(3.000000, 3.000000)">
                        <path d="M7.5,0 C8.32842712,0 9,0.671572875 9,1.5 L9,7.5 C9,8.32842712 8.32842712,9 7.5,9 L1.5,9 C0.671572875,9 0,8.32842712 0,7.5 L0,1.5 C0,0.671572875 0.671572875,0 1.5,0 L7.5,0 Z M7.5,1.5 L1.5,1.5 L1.5,7.5 L7.5,7.5 L7.5,1.5 Z M7.5,10.5 C8.32842712,10.5 9,11.1715729 9,12 L9,18 C9,18.8284271 8.32842712,19.5 7.5,19.5 L1.5,19.5 C0.671572875,19.5 0,18.8284271 0,18 L0,12 C0,11.1715729 0.671572875,10.5 1.5,10.5 L7.5,10.5 Z M7.5,12 L1.5,12 L1.5,18 L7.5,18 L7.5,12 Z M18,0 C18.8284271,0 19.5,0.671572875 19.5,1.5 L19.5,7.5 C19.5,8.32842712 18.8284271,9 18,9 L12,9 C11.1715729,9 10.5,8.32842712 10.5,7.5 L10.5,1.5 C10.5,0.671572875 11.1715729,0 12,0 L18,0 Z M18,1.5 L12,1.5 L12,7.5 L18,7.5 L18,1.5 Z M18,10.5 C18.8284271,10.5 19.5,11.1715729 19.5,12 L19.5,18 C19.5,18.8284271 18.8284271,19.5 18,19.5 L12,19.5 C11.1715729,19.5 10.5,18.8284271 10.5,18 L10.5,12 C10.5,11.1715729 11.1715729,10.5 12,10.5 L18,10.5 Z M18,12 L12,12 L12,18 L18,18 L18,12 Z" id="ICON"></path>
                    </g>
                </g>
            </g>
        </g>
    </g>
</svg>