<svg width="19.323730" height="19.318359" viewBox="0 0 19.3237 19.3184" fill="none" xmlns="http://www.w3.org/2000/svg" xmlns:xlink="http://www.w3.org/1999/xlink">
	<desc>
			Created with Pixso.
	</desc>
	<defs>
		<linearGradient x1="9.661843" y1="0.000000" x2="9.661843" y2="19.318687" id="paint_linear_661_273209_0" gradientUnits="userSpaceOnUse">
			<stop stop-color="#84CFFE"/>
			<stop offset="1.000000" stop-color="#3AB4FF"/>
		</linearGradient>
	</defs>
	<path id="path" d="M18.66 6.67L15.85 9.47C15.8 9.53 15.74 9.58 15.69 9.62C15.63 9.67 15.57 9.71 15.51 9.75C15.44 9.8 15.38 9.83 15.32 9.87C15.25 9.91 15.18 9.94 15.11 9.97C15.05 9.99 14.98 10.02 14.91 10.04C14.83 10.06 14.76 10.08 14.69 10.09C14.62 10.11 14.54 10.12 14.47 10.13C14.4 10.13 14.32 10.14 14.25 10.14C14.17 10.14 14.1 10.13 14.03 10.13C13.95 10.12 13.88 10.11 13.81 10.09C13.73 10.08 13.66 10.06 13.59 10.04C13.52 10.02 13.45 9.99 13.38 9.97C13.31 9.94 13.24 9.91 13.18 9.87C13.11 9.83 13.05 9.8 12.99 9.75C12.93 9.71 12.87 9.67 12.81 9.62C12.75 9.58 12.7 9.53 12.64 9.47L9.84 6.67C9.79 6.62 9.74 6.56 9.69 6.5C9.64 6.45 9.6 6.39 9.56 6.33C9.52 6.26 9.48 6.2 9.44 6.13C9.41 6.07 9.38 6 9.35 5.93C9.32 5.86 9.3 5.8 9.27 5.72C9.25 5.65 9.23 5.58 9.22 5.51C9.21 5.44 9.19 5.36 9.19 5.29C9.18 5.21 9.18 5.14 9.18 5.07C9.18 4.99 9.18 4.92 9.19 4.84C9.19 4.77 9.21 4.7 9.22 4.62C9.23 4.55 9.25 4.48 9.27 4.41C9.3 4.34 9.32 4.27 9.35 4.2C9.38 4.13 9.41 4.06 9.44 4C9.48 3.93 9.52 3.87 9.56 3.81C9.6 3.75 9.64 3.69 9.69 3.63C9.74 3.57 9.79 3.52 9.84 3.46L12.64 0.66C12.7 0.61 12.75 0.56 12.81 0.51C12.87 0.46 12.93 0.42 12.99 0.38C13.05 0.33 13.11 0.3 13.18 0.26C13.24 0.23 13.31 0.2 13.38 0.17C13.45 0.14 13.52 0.11 13.59 0.09C13.66 0.07 13.73 0.05 13.81 0.04C13.88 0.02 13.95 0.01 14.03 0.01C14.1 0 14.17 0 14.25 0C14.32 0 14.4 0 14.47 0.01C14.54 0.01 14.62 0.02 14.69 0.04C14.76 0.05 14.83 0.07 14.91 0.09C14.98 0.11 15.05 0.14 15.11 0.17C15.18 0.2 15.25 0.23 15.32 0.26C15.38 0.3 15.44 0.33 15.51 0.38C15.57 0.42 15.63 0.46 15.69 0.51C15.74 0.56 15.8 0.61 15.85 0.66L18.66 3.46C18.71 3.52 18.76 3.57 18.8 3.63C18.85 3.69 18.9 3.75 18.94 3.81C18.98 3.87 19.02 3.93 19.05 4C19.09 4.06 19.12 4.13 19.15 4.2C19.17 4.27 19.2 4.34 19.22 4.41C19.24 4.48 19.26 4.55 19.28 4.62C19.29 4.7 19.3 4.77 19.31 4.84C19.31 4.92 19.32 4.99 19.32 5.07C19.32 5.14 19.31 5.21 19.31 5.29C19.3 5.36 19.29 5.44 19.28 5.51C19.26 5.58 19.24 5.65 19.22 5.72C19.2 5.8 19.17 5.86 19.15 5.93C19.12 6 19.09 6.07 19.05 6.13C19.02 6.2 18.98 6.26 18.94 6.33C18.9 6.39 18.85 6.45 18.8 6.5C18.76 6.56 18.71 6.62 18.66 6.67ZM6.23 9.31L2.26 9.31C1.01 9.31 0 8.3 0 7.05L0 3.08C0 1.83 1.01 0.81 2.26 0.81L6.22 0.81C7.48 0.81 8.5 1.83 8.5 3.08L8.5 7.04C8.5 8.3 7.48 9.31 6.23 9.31ZM16.23 19.31L12.27 19.31C11.02 19.31 10 18.3 10 17.05L10 13.08C10 11.83 11.02 10.82 12.27 10.82L16.23 10.82C17.48 10.82 18.5 11.83 18.5 13.08L18.5 17.05C18.5 18.3 17.48 19.31 16.23 19.31ZM6.23 19.31L2.26 19.31C1.01 19.31 0 18.3 0 17.05L0 13.08C0 11.83 1.01 10.81 2.26 10.81L6.22 10.81C7.47 10.81 8.49 11.83 8.49 13.08L8.49 17.04C8.49 17.12 8.49 17.19 8.48 17.27C8.47 17.34 8.46 17.41 8.45 17.49C8.43 17.56 8.42 17.63 8.39 17.7C8.37 17.77 8.35 17.84 8.32 17.91C8.29 17.98 8.26 18.05 8.23 18.11C8.19 18.18 8.15 18.24 8.11 18.3C8.07 18.37 8.03 18.42 7.98 18.48C7.93 18.54 7.88 18.6 7.83 18.65C7.78 18.7 7.72 18.75 7.67 18.8C7.61 18.84 7.55 18.89 7.49 18.93C7.43 18.97 7.36 19.01 7.3 19.05C7.23 19.08 7.17 19.11 7.1 19.14C7.03 19.17 6.96 19.19 6.89 19.22C6.82 19.24 6.75 19.25 6.67 19.27C6.6 19.28 6.53 19.3 6.45 19.3C6.38 19.31 6.3 19.31 6.23 19.31Z" fill="url(#paint_linear_661_273209_0)" fill-opacity="1.000000" fill-rule="nonzero"/>
</svg>
