<svg width="26.000000" height="26.000000" viewBox="0 0 26 26" fill="none" xmlns="http://www.w3.org/2000/svg" xmlns:xlink="http://www.w3.org/1999/xlink">
	<desc>
			Created with Pixso.
	</desc>
	<defs>
		<clipPath id="clip3101_226432">
			<rect id="svg" width="26.000000" height="26.000000" fill="white" fill-opacity="0"/>
		</clipPath>
	</defs>
	<g clip-path="url(#clip3101_226432)">
		<path id="path" d="M13 23.56C7.18 23.56 2.47 18.84 2.47 13.02C2.47 7.2 7.18 2.49 13 2.49C18.82 2.49 23.54 7.2 23.54 13.02C23.54 18.84 18.82 23.56 13 23.56ZM13.06 21.65C17.79 21.65 21.63 17.81 21.63 13.08C21.63 8.36 17.79 4.52 13.06 4.52C8.34 4.52 4.5 8.36 4.5 13.08C4.5 17.81 8.34 21.65 13.06 21.65ZM11.34 8.99L17.28 12.46C17.59 12.65 17.7 13.05 17.51 13.36C17.45 13.46 17.37 13.54 17.28 13.6L11.34 17.05C11.03 17.24 10.62 17.13 10.44 16.82C10.38 16.71 10.35 16.6 10.35 16.48L10.35 9.55C10.35 9.19 10.65 8.9 11.01 8.9C11.13 8.9 11.24 8.93 11.34 8.99Z" fill="#4D4D4D" fill-opacity="1.000000" fill-rule="nonzero"/>
	</g>
</svg>
