<svg width="16.000000" height="16.000000" viewBox="0 0 16 16" fill="none" xmlns="http://www.w3.org/2000/svg" xmlns:xlink="http://www.w3.org/1999/xlink">
	<desc>
			Created with Pixso.
	</desc>
	<defs>
		<clipPath id="clip671_227172">
			<rect id="图标/16/眼睛，可见，预览-打开" width="16.000000" height="16.000000" fill="white" fill-opacity="0"/>
		</clipPath>
	</defs>
	<g clip-path="url(#clip671_227172)">
		<path id="path" d="M8 12C11.68 12 14.66 8 14.66 8C14.66 8 11.68 4 8 4C4.31 4 1.33 8 1.33 8C1.33 8 4.31 12 8 12Z" fill="#000000" fill-opacity="0" fill-rule="nonzero"/>
		<path id="path" d="M14.66 8C14.66 8 11.68 4 8 4C4.31 4 1.33 8 1.33 8C1.33 8 4.31 12 8 12C11.68 12 14.66 8 14.66 8Z" stroke="#FFFFFF" stroke-opacity="1.000000" stroke-width="1.000000" stroke-linejoin="round"/>
		<path id="path" d="M8 9.66C8.92 9.66 9.66 8.92 9.66 8C9.66 7.07 8.92 6.33 8 6.33C7.08 6.33 6.33 7.07 6.33 8C6.33 8.92 7.08 9.66 8 9.66Z" fill="#000000" fill-opacity="0" fill-rule="nonzero"/>
		<path id="path" d="M9.66 8C9.66 7.07 8.92 6.33 8 6.33C7.08 6.33 6.33 7.07 6.33 8C6.33 8.92 7.08 9.66 8 9.66C8.92 9.66 9.66 8.92 9.66 8Z" stroke="#FFFFFF" stroke-opacity="1.000000" stroke-width="1.000000" stroke-linejoin="round"/>
	</g>
</svg>
