<svg width="26.000000" height="26.000000" viewBox="0 0 26 26" fill="none" xmlns="http://www.w3.org/2000/svg" xmlns:xlink="http://www.w3.org/1999/xlink">
	<desc>
			Created with Pixso.
	</desc>
	<defs>
		<clipPath id="clip3101_226766">
			<rect id="svg" width="26.000000" height="26.000000" fill="white" fill-opacity="0"/>
		</clipPath>
	</defs>
	<g clip-path="url(#clip3101_226766)">
		<path id="path" d="M12.83 23.66C6.85 23.66 2 18.81 2 12.83C2 6.84 6.85 2 12.83 2C18.81 2 23.66 6.84 23.66 12.83C23.66 18.81 18.81 23.66 12.83 23.66ZM12.83 21.5C12.97 21.5 13.11 21.49 13.25 21.49C13.4 21.48 13.54 21.47 13.68 21.45C13.82 21.44 13.96 21.42 14.1 21.4C14.24 21.38 14.38 21.36 14.52 21.33C14.66 21.3 14.8 21.27 14.93 21.24C15.07 21.2 15.21 21.16 15.34 21.12C15.48 21.08 15.61 21.04 15.75 20.99C15.88 20.94 16.01 20.89 16.14 20.83C16.28 20.78 16.41 20.72 16.53 20.66C16.66 20.6 16.79 20.54 16.91 20.47C17.04 20.41 17.16 20.33 17.28 20.26C17.41 20.19 17.53 20.11 17.64 20.03C17.76 19.96 17.88 19.87 17.99 19.79C18.1 19.71 18.22 19.62 18.33 19.53C18.44 19.44 18.54 19.34 18.65 19.25C18.75 19.16 18.86 19.06 18.96 18.96C19.06 18.86 19.15 18.75 19.25 18.65C19.35 18.54 19.44 18.44 19.53 18.33C19.62 18.22 19.7 18.1 19.79 17.99C19.87 17.88 19.96 17.76 20.03 17.64C20.11 17.53 20.19 17.41 20.26 17.28C20.33 17.16 20.4 17.04 20.47 16.91C20.54 16.79 20.6 16.66 20.66 16.53C20.72 16.41 20.78 16.28 20.84 16.15C20.89 16.01 20.94 15.88 20.99 15.75C21.04 15.61 21.08 15.48 21.12 15.34C21.16 15.21 21.2 15.07 21.24 14.93C21.27 14.8 21.3 14.66 21.33 14.52C21.36 14.38 21.38 14.24 21.4 14.1C21.42 13.96 21.44 13.82 21.45 13.68C21.47 13.54 21.48 13.4 21.48 13.25C21.49 13.11 21.5 12.97 21.5 12.83C21.5 12.69 21.49 12.54 21.48 12.4C21.48 12.26 21.47 12.12 21.45 11.98C21.44 11.84 21.42 11.7 21.4 11.56C21.38 11.42 21.36 11.28 21.33 11.14C21.3 11 21.27 10.86 21.24 10.72C21.2 10.58 21.16 10.45 21.12 10.31C21.08 10.18 21.04 10.04 20.99 9.91C20.94 9.77 20.89 9.64 20.84 9.51C20.78 9.38 20.72 9.25 20.66 9.12C20.6 9 20.54 8.87 20.47 8.74C20.4 8.62 20.33 8.5 20.26 8.37C20.19 8.25 20.11 8.13 20.03 8.01C19.96 7.9 19.87 7.78 19.79 7.66C19.7 7.55 19.62 7.44 19.53 7.33C19.44 7.22 19.35 7.11 19.25 7.01C19.15 6.9 19.06 6.8 18.96 6.7C18.86 6.6 18.75 6.5 18.65 6.41C18.54 6.31 18.44 6.22 18.33 6.13C18.22 6.04 18.1 5.95 17.99 5.87C17.88 5.78 17.76 5.7 17.64 5.62C17.53 5.54 17.41 5.47 17.28 5.4C17.16 5.32 17.04 5.25 16.91 5.18C16.79 5.12 16.66 5.05 16.53 4.99C16.41 4.93 16.28 4.88 16.14 4.82C16.01 4.77 15.88 4.72 15.75 4.67C15.61 4.62 15.48 4.58 15.34 4.53C15.21 4.49 15.07 4.46 14.93 4.42C14.8 4.39 14.66 4.36 14.52 4.33C14.38 4.3 14.24 4.28 14.1 4.25C13.96 4.24 13.82 4.22 13.68 4.2C13.54 4.19 13.4 4.18 13.25 4.17C13.11 4.16 12.97 4.16 12.83 4.16C12.69 4.16 12.54 4.16 12.4 4.17C12.26 4.18 12.12 4.19 11.98 4.2C11.84 4.22 11.7 4.24 11.56 4.25C11.42 4.28 11.28 4.3 11.14 4.33C11 4.36 10.86 4.39 10.72 4.42C10.58 4.46 10.45 4.49 10.31 4.53C10.18 4.58 10.04 4.62 9.91 4.67C9.78 4.72 9.64 4.77 9.51 4.82C9.38 4.88 9.25 4.93 9.12 4.99C8.99 5.05 8.87 5.12 8.74 5.18C8.62 5.25 8.49 5.32 8.37 5.4C8.25 5.47 8.13 5.54 8.01 5.62C7.9 5.7 7.78 5.78 7.67 5.87C7.55 5.95 7.44 6.04 7.33 6.13C7.22 6.22 7.11 6.31 7.01 6.41C6.9 6.5 6.8 6.6 6.7 6.7C6.6 6.8 6.5 6.9 6.41 7.01C6.31 7.11 6.22 7.22 6.13 7.33C6.04 7.44 5.95 7.55 5.87 7.66C5.78 7.78 5.7 7.9 5.62 8.01C5.54 8.13 5.47 8.25 5.39 8.37C5.32 8.5 5.25 8.62 5.18 8.74C5.12 8.87 5.05 9 4.99 9.12C4.93 9.25 4.88 9.38 4.82 9.51C4.77 9.64 4.72 9.77 4.67 9.91C4.62 10.04 4.58 10.18 4.54 10.31C4.49 10.45 4.46 10.58 4.42 10.72C4.39 10.86 4.36 11 4.33 11.14C4.3 11.28 4.28 11.42 4.26 11.56C4.23 11.7 4.22 11.84 4.2 11.98C4.19 12.12 4.18 12.26 4.17 12.4C4.16 12.54 4.16 12.69 4.16 12.83C4.16 12.97 4.16 13.11 4.17 13.25C4.18 13.4 4.19 13.54 4.2 13.68C4.22 13.82 4.23 13.96 4.26 14.1C4.28 14.24 4.3 14.38 4.33 14.52C4.36 14.66 4.39 14.8 4.42 14.93C4.46 15.07 4.49 15.21 4.54 15.34C4.58 15.48 4.62 15.61 4.67 15.75C4.72 15.88 4.77 16.01 4.82 16.15C4.88 16.28 4.93 16.41 4.99 16.53C5.05 16.66 5.12 16.79 5.18 16.91C5.25 17.04 5.32 17.16 5.39 17.28C5.47 17.41 5.54 17.53 5.62 17.64C5.7 17.76 5.78 17.88 5.87 17.99C5.95 18.1 6.04 18.22 6.13 18.33C6.22 18.44 6.31 18.54 6.41 18.65C6.5 18.75 6.6 18.86 6.7 18.96C6.8 19.06 6.9 19.16 7.01 19.25C7.11 19.34 7.22 19.44 7.33 19.53C7.44 19.62 7.55 19.71 7.67 19.79C7.78 19.87 7.9 19.96 8.01 20.03C8.13 20.11 8.25 20.19 8.37 20.26C8.49 20.33 8.62 20.41 8.74 20.47C8.87 20.54 8.99 20.6 9.12 20.66C9.25 20.72 9.38 20.78 9.51 20.83C9.64 20.89 9.78 20.94 9.91 20.99C10.04 21.04 10.18 21.08 10.31 21.12C10.45 21.16 10.58 21.2 10.72 21.24C10.86 21.27 11 21.3 11.14 21.33C11.28 21.36 11.42 21.38 11.56 21.4C11.7 21.42 11.84 21.44 11.98 21.45C12.12 21.47 12.26 21.48 12.4 21.49C12.54 21.49 12.69 21.5 12.83 21.5Z" fill="#2673E5" fill-opacity="1.000000" fill-rule="nonzero"/>
		<rect id="矩形 453" x="9.000000" y="9.000000" rx="1.000000" width="8.000000" height="8.000000" fill="#2673E5" fill-opacity="1.000000"/>
	</g>
</svg>
