<svg width="16.000000" height="16.000000" viewBox="0 0 16 16" fill="none" xmlns="http://www.w3.org/2000/svg" xmlns:xlink="http://www.w3.org/1999/xlink">
	<desc>
			Created with Pixso.
	</desc>
	<defs>
		<clipPath id="clip124_15475">
			<rect id="图标/16/ai-conversational，气泡，对话" width="16.000000" height="16.000000" fill="white" fillOpacity="0"/>
		</clipPath>
	</defs>
	<g clipPath="url(#clip124_15475)">
		<mask id="mask_124_15481" fill="white">
			<path id="合并" d="M13 3.99902C13 2.89453 12.1045 1.99902 11 1.99902L3 1.99902C1.89551 1.99902 1 2.89453 1 3.99902L1 8.99902C1 10.1035 1.89551 10.999 3 10.999L3.01758 12.0769C3.01855 12.1738 3.04834 12.2683 3.10205 12.3486C3.25635 12.5779 3.56689 12.6389 3.7959 12.4849L6.00879 10.999L11 10.999C12.1045 10.999 13 10.1035 13 8.99902L13 3.99902ZM3 2.99902L11 2.99902L11.1167 3.00586C11.6138 3.06348 12 3.48608 12 3.99902L12 8.99902L11.9932 9.11572C11.9355 9.61304 11.5127 9.99902 11 9.99902L5.7041 9.99902L4.00293 11.1399L3.98779 9.99902L3 9.99902L2.8833 9.99219C2.38623 9.93457 2 9.51196 2 8.99902L2 3.99902L2.00684 3.88232C2.06445 3.38501 2.4873 2.99902 3 2.99902ZM14.9922 5.90918C14.9497 5.67603 14.7456 5.49927 14.5 5.49927C14.2241 5.49927 14 5.7229 14 5.99927L14 11.0383L13.9937 11.1597C13.9331 11.7175 13.3706 12.1599 12.7969 12.1599C12.5635 12.2021 12.3867 12.4062 12.3867 12.6519L12.3862 13.0979L11.2378 12.2119C11.1655 12.1726 11.0835 12.1519 11 12.1519L6.40527 12.1599C6.17188 12.2021 6.00293 12.4961 6.00293 12.7417C6.04541 12.9749 6.24951 13.1519 6.49512 13.1519L10.8271 13.1511L12.6519 14.564C12.9736 14.738 13.3867 14.5085 13.3867 14.1221L13.4717 13.0698C14.3545 12.8159 15 12.0024 15 11.0383L14.9922 5.90918ZM3 6.5C3 5.94775 3.44775 5.5 4 5.5C4.55225 5.5 5 5.94775 5 6.5C5 7.05225 4.55225 7.5 4 7.5C3.44775 7.5 3 7.05225 3 6.5ZM7 5.5C6.44775 5.5 6 5.94775 6 6.5C6 7.05225 6.44775 7.5 7 7.5C7.55225 7.5 8 7.05225 8 6.5C8 5.94775 7.55225 5.5 7 5.5ZM9 6.5C9 5.94775 9.44775 5.5 10 5.5C10.5522 5.5 11 5.94775 11 6.5C11 7.05225 10.5522 7.5 10 7.5C9.44775 7.5 9 7.05225 9 6.5Z" clip-rule="evenodd" fill="" fillOpacity="1.000000" fillRule="evenodd"/>
		</mask>
		<path id="合并" d="M13 3.99902C13 2.89453 12.1045 1.99902 11 1.99902L3 1.99902C1.89551 1.99902 1 2.89453 1 3.99902L1 8.99902C1 10.1035 1.89551 10.999 3 10.999L3.01758 12.0769C3.01855 12.1738 3.04834 12.2683 3.10205 12.3486C3.25635 12.5779 3.56689 12.6389 3.7959 12.4849L6.00879 10.999L11 10.999C12.1045 10.999 13 10.1035 13 8.99902L13 3.99902ZM3 2.99902L11 2.99902L11.1167 3.00586C11.6138 3.06348 12 3.48608 12 3.99902L12 8.99902L11.9932 9.11572C11.9355 9.61304 11.5127 9.99902 11 9.99902L5.7041 9.99902L4.00293 11.1399L3.98779 9.99902L3 9.99902L2.8833 9.99219C2.38623 9.93457 2 9.51196 2 8.99902L2 3.99902L2.00684 3.88232C2.06445 3.38501 2.4873 2.99902 3 2.99902ZM14.9922 5.90918C14.9497 5.67603 14.7456 5.49927 14.5 5.49927C14.2241 5.49927 14 5.7229 14 5.99927L14 11.0383L13.9937 11.1597C13.9331 11.7175 13.3706 12.1599 12.7969 12.1599C12.5635 12.2021 12.3867 12.4062 12.3867 12.6519L12.3862 13.0979L11.2378 12.2119C11.1655 12.1726 11.0835 12.1519 11 12.1519L6.40527 12.1599C6.17188 12.2021 6.00293 12.4961 6.00293 12.7417C6.04541 12.9749 6.24951 13.1519 6.49512 13.1519L10.8271 13.1511L12.6519 14.564C12.9736 14.738 13.3867 14.5085 13.3867 14.1221L13.4717 13.0698C14.3545 12.8159 15 12.0024 15 11.0383L14.9922 5.90918ZM3 6.5C3 5.94775 3.44775 5.5 4 5.5C4.55225 5.5 5 5.94775 5 6.5C5 7.05225 4.55225 7.5 4 7.5C3.44775 7.5 3 7.05225 3 6.5ZM7 5.5C6.44775 5.5 6 5.94775 6 6.5C6 7.05225 6.44775 7.5 7 7.5C7.55225 7.5 8 7.05225 8 6.5C8 5.94775 7.55225 5.5 7 5.5ZM9 6.5C9 5.94775 9.44775 5.5 10 5.5C10.5522 5.5 11 5.94775 11 6.5C11 7.05225 10.5522 7.5 10 7.5C9.44775 7.5 9 7.05225 9 6.5Z" clip-rule="evenodd" fill="#71757F" fillOpacity="1.000000" fillRule="evenodd" mask="url(#mask_124_15481)"/>
		<path id="合并" d="" fill="#000000" fillOpacity="0.000000" fillRule="nonzero"/>
	</g>
</svg>
