<svg width="12.000000" height="14.000000" viewBox="0 0 12 14" fill="none" xmlns="http://www.w3.org/2000/svg" xmlns:xlink="http://www.w3.org/1999/xlink">
	<desc>
			Created with Pixso.
	</desc>
	<defs/>
	<path id="path" d="M9.62 7.43C11.05 7.98 12 8.99 12 10.52L12 12.11C12 12.88 11.37 13.5 10.61 13.5L1.38 13.5C1.33 13.5 1.29 13.49 1.24 13.49C1.2 13.48 1.15 13.48 1.11 13.47C1.06 13.46 1.02 13.45 0.98 13.44C0.93 13.42 0.89 13.41 0.85 13.39C0.81 13.37 0.77 13.35 0.73 13.33C0.69 13.31 0.65 13.29 0.61 13.26C0.57 13.24 0.54 13.21 0.5 13.18C0.47 13.15 0.43 13.12 0.4 13.09C0.37 13.06 0.34 13.02 0.31 12.99C0.28 12.95 0.25 12.92 0.23 12.88C0.2 12.84 0.18 12.8 0.16 12.76C0.14 12.72 0.12 12.68 0.1 12.64C0.08 12.6 0.07 12.56 0.05 12.51C0.04 12.47 0.03 12.43 0.02 12.38C0.01 12.34 0.01 12.29 0 12.25C0 12.2 0 12.16 0 12.11L0 10.52C0 8.99 0.94 7.98 2.37 7.43C2.43 7.41 2.49 7.39 2.55 7.39C2.61 7.38 2.68 7.39 2.74 7.4C2.8 7.42 2.86 7.44 2.92 7.47C2.97 7.5 3.02 7.54 3.07 7.58C3.15 7.67 3.23 7.74 3.29 7.8C3.48 7.96 3.68 8.1 3.89 8.23C4.1 8.35 4.32 8.46 4.55 8.54C4.78 8.63 5.02 8.69 5.26 8.73C5.5 8.78 5.75 8.8 6 8.8C6.25 8.8 6.5 8.78 6.75 8.73C7 8.68 7.24 8.62 7.48 8.53C7.72 8.43 7.94 8.32 8.16 8.19C8.38 8.06 8.58 7.91 8.77 7.74C8.81 7.7 8.87 7.65 8.93 7.58C8.97 7.54 9.02 7.5 9.08 7.47C9.13 7.44 9.19 7.42 9.25 7.4C9.31 7.39 9.38 7.38 9.44 7.39C9.5 7.39 9.56 7.41 9.62 7.43ZM6 -0.75C6.11 -0.75 6.22 -0.75 6.33 -0.74C6.45 -0.73 6.56 -0.71 6.67 -0.69C6.78 -0.67 6.89 -0.64 7 -0.61C7.11 -0.57 7.21 -0.53 7.32 -0.49C7.42 -0.45 7.53 -0.4 7.63 -0.35C7.73 -0.29 7.82 -0.23 7.92 -0.17C8.01 -0.11 8.1 -0.04 8.19 0.03C8.28 0.1 8.36 0.18 8.44 0.26C8.52 0.34 8.6 0.42 8.67 0.51C8.74 0.6 8.81 0.69 8.87 0.78C8.94 0.88 8.99 0.97 9.05 1.07C9.1 1.17 9.15 1.28 9.19 1.38C9.24 1.49 9.27 1.59 9.31 1.7C9.34 1.81 9.37 1.92 9.39 2.03C9.41 2.14 9.43 2.25 9.44 2.37C9.45 2.48 9.46 2.59 9.46 2.71L9.46 4.3C9.46 4.41 9.45 4.53 9.44 4.64C9.43 4.75 9.41 4.86 9.39 4.98C9.37 5.09 9.34 5.2 9.31 5.3C9.27 5.41 9.24 5.52 9.19 5.62C9.15 5.73 9.1 5.83 9.05 5.93C8.99 6.03 8.94 6.13 8.87 6.22C8.81 6.32 8.74 6.41 8.67 6.5C8.6 6.58 8.52 6.67 8.44 6.75C8.36 6.83 8.28 6.9 8.19 6.98C8.1 7.05 8.01 7.12 7.92 7.18C7.82 7.24 7.73 7.3 7.63 7.35C7.53 7.41 7.42 7.45 7.32 7.5C7.21 7.54 7.11 7.58 7 7.61C6.89 7.64 6.78 7.67 6.67 7.69C6.56 7.72 6.45 7.73 6.33 7.74C6.22 7.76 6.11 7.76 6 7.76C5.88 7.76 5.77 7.76 5.66 7.74C5.54 7.73 5.43 7.72 5.32 7.69C5.21 7.67 5.1 7.64 4.99 7.61C4.88 7.58 4.78 7.54 4.67 7.5C4.57 7.45 4.46 7.41 4.36 7.35C4.26 7.3 4.17 7.24 4.07 7.18C3.98 7.12 3.89 7.05 3.8 6.98C3.71 6.9 3.63 6.83 3.55 6.75C3.47 6.67 3.39 6.58 3.32 6.5C3.25 6.41 3.18 6.32 3.12 6.22C3.05 6.13 3 6.03 2.94 5.93C2.89 5.83 2.84 5.73 2.8 5.62C2.75 5.52 2.72 5.41 2.68 5.3C2.65 5.2 2.62 5.09 2.6 4.98C2.58 4.86 2.56 4.75 2.55 4.64C2.54 4.53 2.53 4.41 2.53 4.3L2.53 2.71C2.53 2.59 2.54 2.48 2.55 2.37C2.56 2.25 2.58 2.14 2.6 2.03C2.62 1.92 2.65 1.81 2.68 1.7C2.72 1.59 2.75 1.49 2.8 1.38C2.84 1.28 2.89 1.17 2.94 1.07C3 0.97 3.05 0.88 3.12 0.78C3.18 0.69 3.25 0.6 3.32 0.51C3.39 0.42 3.47 0.34 3.55 0.26C3.63 0.18 3.71 0.1 3.8 0.03C3.89 -0.04 3.98 -0.11 4.07 -0.17C4.17 -0.23 4.26 -0.29 4.36 -0.35C4.46 -0.4 4.57 -0.45 4.67 -0.49C4.78 -0.53 4.88 -0.57 4.99 -0.61C5.1 -0.64 5.21 -0.67 5.32 -0.69C5.43 -0.71 5.54 -0.73 5.66 -0.74C5.77 -0.75 5.88 -0.75 6 -0.75Z" fill="#9BA9BD" fillOpacity="1.000000" fillRule="nonzero"/>
</svg>
