<svg width="24.000000" height="24.000000" viewBox="0 0 24 24" fill="none" xmlns="http://www.w3.org/2000/svg" xmlns:xlink="http://www.w3.org/1999/xlink">
	<desc>
			Created with Pixso.
	</desc>
	<defs/>
	<path id="ICON" d="M10 3C10.5522 3 11 3.44727 11 4L11 10C11 10.5527 10.5522 11 10 11L4 11C3.44775 11 3 10.5527 3 10L3 4C3 3.44727 3.44775 3 4 3L10 3ZM20 3C20.5522 3 21 3.44727 21 4L21 10C21 10.5527 20.5522 11 20 11L14 11C13.4478 11 13 10.5527 13 10L13 4C13 3.44727 13.4478 3 14 3L20 3ZM5 5L9 5L9 9L5 9L5 5ZM15 5L19 5L19 9L15 9L15 5ZM11 14C11 13.4473 10.5522 13 10 13L4 13C3.44775 13 3 13.4473 3 14L3 20C3 20.5527 3.44775 21 4 21L10 21C10.5522 21 11 20.5527 11 20L11 14ZM20 13C20.5522 13 21 13.4473 21 14L21 20C21 20.5527 20.5522 21 20 21L14 21C13.4478 21 13 20.5527 13 20L13 14C13 13.4473 13.4478 13 14 13L20 13ZM9 15L5 15L5 19L9 19L9 15ZM19 15L15 15L15 19L19 19L19 15Z" clip-rule="evenodd" fill="#4D4D4D" fillOpacity="1.000000" fillRule="evenodd"/>
</svg>
