<svg width="24.000000" height="24.000000" viewBox="0 0 24 24" fill="none" xmlns="http://www.w3.org/2000/svg" xmlns:xlink="http://www.w3.org/1999/xlink">
	<desc>
			Created with Pixso.
	</desc>
	<defs/>
	<path id="ICON" d="M9.00024 3C9.55249 3 10.0002 3.44727 10.0002 4L10.0002 10C10.0002 10.5527 9.55249 11 9.00024 11L3.00024 11C2.448 11 2.00024 10.5527 2.00024 10L2.00024 4C2.00024 3.44727 2.448 3 3.00024 3L9.00024 3ZM19.0002 3C19.5525 3 20.0002 3.44727 20.0002 4L20.0002 10C20.0002 10.5527 19.5525 11 19.0002 11L13.0002 11C12.448 11 12.0002 10.5527 12.0002 10L12.0002 4C12.0002 3.44727 12.448 3 13.0002 3L19.0002 3ZM4.00024 5L8.00024 5L8.00024 9L4.00024 9L4.00024 5ZM14.0002 5L18.0002 5L18.0002 9L14.0002 9L14.0002 5ZM10.0002 14C10.0002 13.4473 9.55249 13 9.00024 13L3.00024 13C2.448 13 2.00024 13.4473 2.00024 14L2.00024 20C2.00024 20.5527 2.448 21 3.00024 21L9.00024 21C9.55249 21 10.0002 20.5527 10.0002 20L10.0002 14ZM19.0002 13C19.5525 13 20.0002 13.4473 20.0002 14L20.0002 20C20.0002 20.5527 19.5525 21 19.0002 21L13.0002 21C12.448 21 12.0002 20.5527 12.0002 20L12.0002 14C12.0002 13.4473 12.448 13 13.0002 13L19.0002 13ZM8.00024 15L4.00024 15L4.00024 19L8.00024 19L8.00024 15ZM18.0002 15L14.0002 15L14.0002 19L18.0002 19L18.0002 15Z" clip-rule="evenodd" fill="#2673E5" fillOpacity="1.000000" fillRule="evenodd"/>
</svg>
