<svg width="24.000000" height="24.000000" viewBox="0 0 24 24" fill="none" xmlns="http://www.w3.org/2000/svg" xmlns:xlink="http://www.w3.org/1999/xlink">
	<desc>
			Created with Pixso.
	</desc>
	<defs/>
	<path id="ICON" d="M5 5L4 5C3.44775 5 3 5.44727 3 6C3 6.55273 3.44775 7 4 7L5 7C5.55225 7 6 6.55273 6 6C6 5.44727 5.55225 5 5 5ZM8 5L20 5C20.5522 5 21 5.44727 21 6C21 6.55273 20.5522 7 20 7L8 7C7.44775 7 7 6.55273 7 6C7 5.44727 7.44775 5 8 5ZM5 11L4 11C3.44775 11 3 11.4473 3 12C3 12.5527 3.44775 13 4 13L5 13C5.55225 13 6 12.5527 6 12C6 11.4473 5.55225 11 5 11ZM8 11L20 11C20.5522 11 21 11.4473 21 12C21 12.5527 20.5522 13 20 13L8 13C7.44775 13 7 12.5527 7 12C7 11.4473 7.44775 11 8 11ZM5 17L4 17C3.44775 17 3 17.4473 3 18C3 18.5527 3.44775 19 4 19L5 19C5.55225 19 6 18.5527 6 18C6 17.4473 5.55225 17 5 17ZM8 17L20 17C20.5522 17 21 17.4473 21 18C21 18.5527 20.5522 19 20 19L8 19C7.44775 19 7 18.5527 7 18C7 17.4473 7.44775 17 8 17Z" clip-rule="evenodd" fill="#2673E5" fillOpacity="1.000000" fillRule="evenodd"/>
</svg>
