<svg width="16.000000" height="16.000000" viewBox="0 0 16 16" fill="none" xmlns="http://www.w3.org/2000/svg" xmlns:xlink="http://www.w3.org/1999/xlink">
	<desc>
			Created with Pixso.
	</desc>
	<defs/>
	<rect id="画板 1412" width="16.000000" height="16.000000" transform="translate(-0.428711 0.000000)" fill="#FFFFFF" fillOpacity="0"/>
	<path id="减去顶层" d="M14.5713 8C14.5713 4.13379 11.4373 1 7.57129 1C3.70532 1 0.571289 4.13379 0.571289 8C0.571289 11.8662 3.70532 15 7.57129 15C11.4373 15 14.5713 11.8662 14.5713 8ZM3.57129 7C3.01904 7 2.57129 7.44727 2.57129 8C2.57129 8.55273 3.01904 9 3.57129 9C4.12354 9 4.57129 8.55273 4.57129 8C4.57129 7.44727 4.12354 7 3.57129 7ZM6.57129 8C6.57129 7.44727 7.01904 7 7.57129 7C8.12354 7 8.57129 7.44727 8.57129 8C8.57129 8.55273 8.12354 9 7.57129 9C7.01904 9 6.57129 8.55273 6.57129 8ZM11.5713 7C11.019 7 10.5713 7.44727 10.5713 8C10.5713 8.55273 11.019 9 11.5713 9C12.1235 9 12.5713 8.55273 12.5713 8C12.5713 7.44727 12.1235 7 11.5713 7Z" clip-rule="evenodd" fill="#808080" fillOpacity="1.000000" fillRule="evenodd"/>
</svg>
