<svg width="16.000000" height="16.000000" viewBox="0 0 16 16" fill="none" xmlns="http://www.w3.org/2000/svg" xmlns:xlink="http://www.w3.org/1999/xlink">
	<desc>
			Created with Pixso.
	</desc>
	<defs/>
	<path id="ICON" d="M7.5708 0.996094C3.68896 0.996094 0.570801 4.11426 0.570801 7.99609C0.570801 11.8779 3.68896 14.9961 7.5708 14.9961C11.4526 14.9961 14.5708 11.8779 14.5708 7.99609C14.5708 4.11426 11.4526 0.996094 7.5708 0.996094ZM7.57178 9.33398C7.97168 9.33398 8.23853 9.06738 8.23853 8.66699L8.23853 4.66699C8.23853 4.2666 7.97168 4 7.57178 4C7.17188 4 6.90503 4.2666 6.90503 4.66699L6.90503 8.66699C6.90503 9.06738 7.17188 9.33398 7.57178 9.33398ZM8.03833 10.8672C8.30518 11.1338 8.30518 11.5342 8.03833 11.8008C7.77173 12.0674 7.37183 12.0674 7.10522 11.8008C6.83838 11.5342 6.83838 11.1338 7.10522 10.8672C7.37183 10.6006 7.77173 10.6006 8.03833 10.8672Z" clip-rule="evenodd" fill="#C63939" fillOpacity="1.000000" fillRule="evenodd"/>
</svg>
