<svg width="16.000000" height="16.000000" viewBox="0 0 16 16" fill="none" xmlns="http://www.w3.org/2000/svg" xmlns:xlink="http://www.w3.org/1999/xlink">
	<desc>
			Created with Pixso.
	</desc>
	<defs/>
	<path id="ICON" d="M8.7002 7.99023L12.5874 4.10156C12.7827 3.90625 12.7827 3.58984 12.5874 3.39453C12.3926 3.19922 12.0757 3.19922 11.8804 3.39453L7.99316 7.2832L4.10596 3.39453C3.91064 3.19922 3.59375 3.19922 3.39893 3.39453C3.20361 3.58984 3.20361 3.90625 3.39893 4.10156L7.28613 7.99023L3.39502 11.8809C3.2002 12.0762 3.2002 12.3926 3.39502 12.5879C3.59033 12.7832 3.90723 12.7832 4.10254 12.5879L7.99316 8.69727L11.8838 12.5879C12.0791 12.7832 12.396 12.7832 12.5913 12.5879C12.7861 12.3926 12.7861 12.0762 12.5913 11.8809L8.7002 7.99023Z" clip-rule="evenodd" fill="#4D4D4D" fill-opacity="1.000000" fill-rule="evenodd"/>
</svg>
