<svg width="16.000000" height="16.000000" viewBox="0 0 16 16" fill="none" xmlns="http://www.w3.org/2000/svg" xmlns:xlink="http://www.w3.org/1999/xlink">
	<desc>
			Created with Pixso.
	</desc>
	<defs/>
	<rect id="ICON/16/Error" width="16.000000" height="16.000000" fill="#FFFFFF" fill-opacity="0"/>
	<path id="形状结合" d="M8 0C3.56348 0 0 3.56445 0 8C0 12.4355 3.56348 16 8 16C12.4365 16 16 12.4355 16 8C16 3.56445 12.4365 0 8 0ZM1 8C1 8.56836 1.06494 9.12305 1.19434 9.66016L1.19434 9.66016C1.28271 10.0254 1.40039 10.3828 1.54785 10.7344C1.71777 11.1367 1.92139 11.5176 2.15869 11.877L2.15869 11.877C2.41455 12.2617 2.70947 12.623 3.04346 12.957C3.37744 13.291 3.73779 13.5859 4.12354 13.8418C4.48242 14.0781 4.86328 14.2832 5.2666 14.4531C5.6167 14.5996 5.97461 14.7168 6.33936 14.8047C6.87695 14.9355 7.43066 15 8 15C8.56934 15 9.12305 14.9355 9.66064 14.8047L9.66064 14.8047L9.66113 14.8047C10.0254 14.7168 10.3833 14.5996 10.7334 14.4531C11.1367 14.2832 11.5181 14.0781 11.8765 13.8418C12.2622 13.5859 12.6226 13.291 12.9565 12.957C13.2905 12.623 13.5854 12.2617 13.8413 11.877C14.0786 11.5176 14.2822 11.1367 14.4521 10.7344C14.5996 10.3828 14.7173 10.0254 14.8057 9.66016L14.8057 9.66016L14.8057 9.66016C14.9351 9.12305 15 8.56836 15 8C15 7.43164 14.9351 6.87695 14.8057 6.33984C14.7173 5.97461 14.5996 5.61719 14.4521 5.26562C14.2822 4.86328 14.0786 4.48242 13.8413 4.12305L13.8413 4.12305C13.5854 3.73828 13.2905 3.37695 12.9565 3.04297C12.6226 2.70898 12.2622 2.41406 11.8765 2.1582L11.8765 2.1582C11.5176 1.92188 11.1367 1.7168 10.7334 1.54688C10.3833 1.40039 10.0254 1.2832 9.66064 1.19531C9.12305 1.06445 8.56934 1 8 1C7.43066 1 6.87695 1.06445 6.33887 1.19531L6.33887 1.19531C5.97461 1.2832 5.6167 1.40039 5.2666 1.54688C4.86328 1.7168 4.48242 1.92188 4.12354 2.1582L4.12354 2.1582L4.12354 2.1582C3.73779 2.41406 3.37744 2.70898 3.04346 3.04297C2.70947 3.37695 2.41455 3.73828 2.15869 4.12305L2.15869 4.12305C1.92139 4.48242 1.71777 4.86328 1.54785 5.26562C1.40039 5.61719 1.28271 5.97461 1.19434 6.33984L1.19434 6.33984C1.06494 6.87695 1 7.43164 1 8Z" clip-rule="evenodd" fill="#C63939" fill-opacity="1.000000" fill-rule="evenodd"/>
	<path id="形状结合" d="M8 4C7.72363 4 7.5 4.22461 7.5 4.5L7.5 9.5C7.5 9.77539 7.72363 10 8 10C8.27637 10 8.5 9.77539 8.5 9.5L8.5 4.5C8.5 4.22461 8.27637 4 8 4ZM7.6499 12.8496C7.8501 13.0508 8.1499 13.0508 8.3501 12.8496C8.5498 12.6504 8.5498 12.3496 8.3501 12.1504C8.1499 11.9492 7.8501 11.9492 7.6499 12.1504C7.4502 12.3496 7.4502 12.6504 7.6499 12.8496Z" clip-rule="evenodd" fill="#C63939" fill-opacity="1.000000" fill-rule="evenodd"/>
</svg>
