<svg width="16.000000" height="16.000000" viewBox="0 0 16 16" fill="none" xmlns="http://www.w3.org/2000/svg" xmlns:xlink="http://www.w3.org/1999/xlink">
	<desc>
			Created with Pixso.
	</desc>
	<defs/>
	<rect id="ICON/16/Delect" width="16.000000" height="16.000000" fill="#FFFFFF" fill-opacity="0"/>
	<rect id="矩形" width="16.000000" height="16.000000" fill="#D8D8D8" fill-opacity="0"/>
	<rect id="矩形" x="0.500000" y="0.500000" width="15.000000" height="15.000000" stroke="#979797" stroke-opacity="0" stroke-width="1.000000"/>
	<path id="ICON" d="M10.6289 1.35156C10.4136 1.12695 10.1177 1 9.80762 0.994141L6.1377 0.994141C5.82715 1 5.53174 1.12695 5.31592 1.35156C5.10059 1.57422 4.98242 1.87305 4.98779 2.18359L4.98779 2.97461L1.60742 2.97461C1.20752 2.97461 0.997559 3.14453 0.997559 3.47461L0.997559 3.59375C1.0376 3.86328 1.23779 3.99414 1.59766 3.99414L2.98779 3.99414L2.98779 11.9844C2.9873 12.5254 3.20605 13.043 3.59424 13.4199C3.98242 13.7969 4.50684 14 5.04736 13.9844L10.9277 13.9844C11.4683 14 11.9927 13.7969 12.3809 13.4199C12.769 13.043 12.9878 12.5254 12.9878 11.9844L12.9878 3.98438L14.3374 3.98438C14.7476 3.98438 14.9478 3.82422 14.9478 3.49414L14.9478 3.39453C14.9175 3.13477 14.7178 2.99414 14.3477 2.99414L10.9575 2.99414L10.9575 2.18359C10.9629 1.87305 10.8447 1.57422 10.6289 1.35156ZM5.96045 2L9.96045 2L9.96045 3L5.96045 3L5.96045 2ZM11.9883 3.99805L3.95801 3.99805L3.95801 11.998C3.95801 12.5508 4.40576 12.998 4.95801 12.998L10.958 12.998C11.2285 13.0059 11.4907 12.9043 11.6846 12.7168C11.8789 12.5273 11.9883 12.2695 11.9883 11.998L11.9883 3.99805ZM6.48047 5.99609C6.60498 6 6.72412 6.04883 6.81348 6.13672C6.90723 6.22852 6.96045 6.35547 6.96045 6.48633L6.96045 10.4863C6.96045 10.6191 6.90723 10.7441 6.81348 10.8379C6.71924 10.9297 6.5918 10.9805 6.46045 10.9766C6.18799 10.9766 5.96582 10.7598 5.96045 10.4863L5.96045 6.48633C5.96289 6.35156 6.02051 6.2207 6.12061 6.12891C6.2207 6.03711 6.35449 5.98828 6.49023 5.99609L6.48047 5.99609ZM6.48047 5.99609L6.46045 5.99609C6.4668 5.99609 6.47363 5.99609 6.48047 5.99609ZM9.81348 6.13672C9.72412 6.04883 9.60498 6 9.48047 5.99609L9.49023 5.99609C9.35449 5.98828 9.2207 6.03711 9.12061 6.12891C9.02051 6.2207 8.96289 6.35156 8.96045 6.48633L8.96045 10.4863C8.96582 10.7598 9.18799 10.9766 9.46045 10.9766C9.5918 10.9805 9.71924 10.9297 9.81348 10.8379C9.90723 10.7441 9.96045 10.6191 9.96045 10.4863L9.96045 6.48633C9.96045 6.35547 9.90723 6.22852 9.81348 6.13672ZM9.48047 5.99609C9.47363 5.99609 9.4668 5.99609 9.46045 5.99609L9.48047 5.99609Z" clip-rule="evenodd" fill="#4D4D4D" fill-opacity="1.000000" fill-rule="evenodd"/>
</svg>
