<svg width="16.000000" height="16.000000" viewBox="0 0 16 16" fill="none" xmlns="http://www.w3.org/2000/svg" xmlns:xlink="http://www.w3.org/1999/xlink">
	<desc>
			Created with Pixso.
	</desc>
	<defs/>
	<rect id="ICON/16/Edit" width="16.000000" height="16.000000" fill="#FFFFFF" fill-opacity="0"/>
	<path id="ICON" d="M14.3623 1.64453C14.1675 1.44824 13.8511 1.44824 13.6553 1.64258L8.14746 7.12207L8.08936 7.19141C7.95361 7.38574 7.97217 7.65527 8.14551 7.8291C8.34033 8.02539 8.65674 8.02539 8.85254 7.83105L14.3604 2.35156L14.4185 2.28223C14.5542 2.08789 14.5356 1.81836 14.3623 1.64453ZM8.46436 1.99805C8.74023 1.99805 8.96436 2.22266 8.96436 2.49805C8.96436 2.74414 8.7876 2.94824 8.5542 2.99023L8.46436 2.99805L3.4165 2.99805C3.21191 2.99805 3.04199 3.14551 3.00684 3.33984L3 3.41504L3 12.582C3 12.7861 3.14746 12.9561 3.3418 12.9922L3.4165 12.998L12.5835 12.998C12.7881 12.998 12.958 12.8516 12.9932 12.6572L13 12.582L13 7.11621C13 6.83984 13.2236 6.61621 13.5 6.61621C13.7456 6.61621 13.9497 6.79297 13.9922 7.02637L14 7.11621L14 12.582C14 13.3184 13.438 13.9238 12.7197 13.9922L12.5835 13.998L3.4165 13.998C2.68018 13.998 2.0752 13.4365 2.00635 12.7188L2 12.582L2 3.41504C2 2.67871 2.56201 2.07324 3.28027 2.00488L3.4165 1.99805L8.46436 1.99805Z" clip-rule="evenodd" fill="#4D4D4D" fill-opacity="1.000000" fill-rule="evenodd"/>
</svg>
