<svg width="14.000000" height="10.000000" viewBox="0 0 14 10" fill="none" xmlns="http://www.w3.org/2000/svg" xmlns:xlink="http://www.w3.org/1999/xlink">
	<desc>
			Created with Pixso.
	</desc>
	<defs/>
	<path id="ICON" d="M9.0083 0.275391C7.87402 -0.0449219 6.65918 -0.0859375 5.49707 0.154297C4.33496 0.394531 3.2334 0.914062 2.30957 1.6582C1.32715 2.44727 0.568848 3.45312 0.0595703 4.64648C-0.0170898 4.81055 -0.0209961 5.10352 0.0556641 5.33984L0.223145 5.67773C0.895508 6.97266 1.78271 7.99023 2.86133 8.70508C4.00732 9.46484 5.39795 9.90234 6.99316 10L7.31396 9.98242C10.3745 9.76562 12.6045 8.23047 13.9424 5.41211L13.9482 5.39648L13.9775 5.27148C14.0195 5.05273 14.0098 4.8418 13.8818 4.57617C13.4048 3.59766 12.8813 2.82617 12.228 2.1543L11.9717 1.91406C11.1045 1.13477 10.1089 0.585938 9.0083 0.275391ZM8.73633 1.23828C7.86621 0.992188 6.93848 0.9375 6.03711 1.07422L5.7002 1.13477C4.69336 1.3418 3.7373 1.79297 2.93652 2.4375C2.1665 3.05664 1.55713 3.82422 1.10889 4.75391L0.998535 4.99414L1.1084 5.21289C1.65479 6.26758 2.35156 7.10352 3.18359 7.71289L3.41357 7.87305C4.32568 8.47656 5.42822 8.84961 6.65527 8.97266L6.98047 9L7.25537 8.98438C9.85498 8.79688 11.7202 7.56445 12.8916 5.28516L12.9985 5.06836C13 5.05469 12.9985 5.04883 12.9956 5.04297L12.9824 5.01562C12.5483 4.12305 12.0835 3.44141 11.5283 2.86914C10.7231 2.08008 9.78711 1.53516 8.73633 1.23828ZM6.99854 2.5C7.65723 2.5 8.27881 2.76367 8.75732 3.24023C9.23633 3.71875 9.49854 4.34375 9.49854 5C9.49854 5.65625 9.23486 6.2793 8.75732 6.75977C8.28027 7.23828 7.65527 7.5 6.99854 7.5C6.34131 7.5 5.71631 7.23633 5.23926 6.75977C4.76025 6.28125 4.49854 5.65625 4.49854 5C4.49854 4.34375 4.76221 3.7207 5.23926 3.24023C5.71631 2.76172 6.34131 2.5 6.99854 2.5ZM5.94775 3.94727C6.23779 3.65625 6.60791 3.5 6.99854 3.5C7.38818 3.5 7.75732 3.65625 8.05176 3.94922C8.34277 4.23828 8.49854 4.60938 8.49854 5C8.49854 5.38867 8.34229 5.75977 8.04932 6.05273C7.75928 6.34375 7.38867 6.5 6.99854 6.5C6.60938 6.5 6.23779 6.34375 5.94629 6.05273C5.6543 5.76172 5.49854 5.39062 5.49854 5C5.49854 4.61133 5.65479 4.24023 5.94775 3.94727Z" clip-rule="evenodd" fill="#4D4D4D" fill-opacity="1.000000" fill-rule="evenodd"/>
</svg>
