<svg width="20.000000" height="20.000000" viewBox="0 0 20 20" fill="none" xmlns="http://www.w3.org/2000/svg" xmlns:xlink="http://www.w3.org/1999/xlink">
	<desc>
			Created with Pixso.
	</desc>
	<defs/>
	<path id="形状结合" d="M0 10C0 4.45508 4.45459 0 10 0C15.5454 0 20 4.45508 20 10C20 15.5449 15.5454 20 10 20C4.45459 20 0 15.5449 0 10ZM10.4614 4.19922C10.1948 3.93359 9.79443 3.93359 9.52783 4.19922C9.26123 4.4668 9.26123 4.86719 9.52783 5.13281C9.79443 5.40039 10.1948 5.40039 10.4614 5.13281C10.728 4.86719 10.728 4.4668 10.4614 4.19922ZM9.32812 15.334C9.32812 15.7012 9.62646 16 9.99463 16C10.3628 16 10.6611 15.7012 10.6611 15.334L10.6611 8.66602C10.6611 8.29883 10.3628 8 9.99463 8C9.62646 8 9.32812 8.29883 9.32812 8.66602L9.32812 15.334Z" clip-rule="evenodd" fill="#2673E5" fill-opacity="1.000000" fill-rule="evenodd"/>
</svg>
