<svg width="20.000000" height="20.000000" viewBox="0 0 20 20" fill="none" xmlns="http://www.w3.org/2000/svg" xmlns:xlink="http://www.w3.org/1999/xlink">
	<desc>
			Created with Pixso.
	</desc>
	<defs>
		<clipPath id="clip6158_148149">
			<rect id="code" rx="10.000000" width="20.000000" height="20.000000" fill="white" fill-opacity="0"/>
		</clipPath>
	</defs>
	<rect id="code" rx="10.000000" width="20.000000" height="20.000000" fill="#4A93FF" fill-opacity="1.000000"/>
	<g clip-path="url(#clip6158_148149)">
		<path id="path" d="M6.61 5C5.72 5 5 5.72 5 6.61C5 7.31 5.45 7.9 6.07 8.12L6.07 10.38L7.15 10.38L7.15 8.12C7.23 8.09 7.3 8.06 7.37 8.02C7.45 7.98 7.52 7.94 7.58 7.89C7.65 7.84 7.71 7.78 7.77 7.73C7.82 7.67 7.88 7.6 7.92 7.54C7.97 7.47 8.01 7.4 8.05 7.32C8.09 7.25 8.12 7.17 8.14 7.09C8.17 7.02 8.19 6.94 8.2 6.85C8.22 6.77 8.22 6.69 8.22 6.61C8.22 5.72 7.49 5 6.61 5ZM13.07 5C12.98 5 12.9 5 12.82 5.01C12.74 5.03 12.66 5.05 12.58 5.07C12.5 5.1 12.42 5.13 12.35 5.16C12.27 5.2 12.2 5.24 12.14 5.29C12.07 5.34 12 5.39 11.94 5.45C11.89 5.51 11.83 5.57 11.78 5.64C11.73 5.7 11.69 5.77 11.65 5.84C11.61 5.92 11.57 5.99 11.55 6.07L9.3 6.07L9.3 7.15L11.55 7.15C11.56 7.19 11.58 7.24 11.6 7.28C11.62 7.33 11.64 7.37 11.67 7.41C11.69 7.46 11.72 7.5 11.75 7.54C11.78 7.58 11.81 7.62 11.84 7.66C11.87 7.69 11.9 7.73 11.94 7.76C11.97 7.8 12.01 7.83 12.05 7.86C12.08 7.89 12.12 7.92 12.16 7.95C12.21 7.98 12.25 8 12.29 8.02C12.33 8.05 12.38 8.07 12.42 8.09C12.47 8.11 12.51 8.13 12.56 8.14C12.61 8.16 12.65 8.17 12.7 8.18C12.75 8.19 12.8 8.2 12.85 8.21C12.89 8.22 12.94 8.22 12.99 8.22C13.04 8.22 13.09 8.22 13.14 8.22C13.19 8.22 13.24 8.22 13.29 8.21C13.33 8.2 13.38 8.19 13.43 8.18C13.48 8.17 13.53 8.16 13.57 8.14C13.62 8.13 13.66 8.11 13.71 8.09C13.75 8.07 13.8 8.05 13.84 8.03C13.88 8 13.93 7.98 13.97 7.95C14.01 7.92 14.05 7.89 14.09 7.86C14.12 7.83 14.16 7.8 14.2 7.76C14.23 7.73 14.26 7.69 14.3 7.66C14.33 7.62 14.36 7.58 14.39 7.54C14.41 7.5 14.44 7.46 14.46 7.42C14.49 7.37 14.51 7.33 14.53 7.29C14.55 7.24 14.57 7.2 14.59 7.15C14.6 7.1 14.62 7.06 14.63 7.01C14.64 6.96 14.65 6.91 14.66 6.87C14.67 6.82 14.67 6.77 14.68 6.72C14.68 6.67 14.68 6.62 14.68 6.57C14.68 6.52 14.68 6.48 14.67 6.43C14.67 6.38 14.66 6.33 14.65 6.28C14.64 6.23 14.63 6.18 14.61 6.14C14.6 6.09 14.58 6.05 14.56 6C14.54 5.95 14.52 5.91 14.5 5.87C14.48 5.82 14.45 5.78 14.43 5.74C14.4 5.7 14.37 5.66 14.34 5.62C14.31 5.58 14.28 5.54 14.25 5.51C14.21 5.47 14.18 5.44 14.14 5.41C14.1 5.37 14.07 5.34 14.03 5.31C13.99 5.28 13.95 5.25 13.91 5.23C13.86 5.2 13.82 5.18 13.78 5.16C13.73 5.14 13.69 5.12 13.64 5.1C13.6 5.08 13.55 5.07 13.5 5.06C13.45 5.04 13.41 5.03 13.36 5.02C13.31 5.01 13.26 5.01 13.21 5C13.16 5 13.12 5 13.07 5ZM6.61 6.07C6.91 6.07 7.15 6.31 7.15 6.61C7.15 6.91 6.91 7.15 6.61 7.15C6.57 7.15 6.54 7.15 6.5 7.14C6.47 7.13 6.43 7.12 6.4 7.11C6.37 7.09 6.34 7.08 6.31 7.06C6.28 7.04 6.25 7.02 6.23 6.99C6.2 6.97 6.18 6.94 6.16 6.91C6.14 6.88 6.12 6.85 6.11 6.82C6.1 6.78 6.09 6.75 6.08 6.72C6.07 6.68 6.07 6.65 6.07 6.61C6.07 6.31 6.31 6.07 6.61 6.07ZM12.53 9.3L12.53 11.45L11.29 12.69C11.27 12.71 11.25 12.74 11.23 12.77C11.21 12.8 11.19 12.83 11.18 12.86C11.16 12.89 11.15 12.93 11.15 12.96C11.14 13 11.14 13.03 11.14 13.07C11.14 13.1 11.14 13.14 11.15 13.17C11.15 13.21 11.16 13.24 11.18 13.27C11.19 13.3 11.21 13.33 11.23 13.36C11.25 13.39 11.27 13.42 11.29 13.45L12.69 14.84C12.71 14.86 12.74 14.89 12.77 14.91C12.8 14.92 12.83 14.94 12.86 14.95C12.89 14.97 12.93 14.98 12.96 14.99C13 14.99 13.03 15 13.07 15C13.1 15 13.14 14.99 13.17 14.99C13.21 14.98 13.24 14.97 13.27 14.95C13.3 14.94 13.34 14.92 13.36 14.91C13.39 14.89 13.42 14.86 13.45 14.84L14.84 13.45C14.86 13.42 14.88 13.39 14.9 13.36C14.92 13.33 14.94 13.3 14.95 13.27C14.97 13.24 14.98 13.21 14.98 13.17C14.99 13.14 15 13.1 15 13.07C15 13.03 14.99 13 14.98 12.96C14.98 12.93 14.97 12.89 14.95 12.86C14.94 12.83 14.92 12.8 14.9 12.77C14.88 12.74 14.86 12.71 14.84 12.69L13.6 11.45L13.6 9.3L12.53 9.3ZM5.53 11.45C5.5 11.45 5.46 11.46 5.43 11.46C5.39 11.47 5.36 11.48 5.33 11.49C5.29 11.51 5.26 11.52 5.23 11.54C5.2 11.56 5.18 11.58 5.15 11.61C5.13 11.63 5.11 11.66 5.09 11.69C5.07 11.72 5.05 11.75 5.04 11.78C5.02 11.82 5.01 11.85 5.01 11.89C5 11.92 5 11.95 5 11.99L5 14.14C5 14.44 5.24 14.68 5.53 14.68L7.68 14.68C7.72 14.68 7.76 14.68 7.79 14.67C7.82 14.66 7.86 14.65 7.89 14.64C7.92 14.63 7.95 14.61 7.98 14.59C8.01 14.57 8.04 14.55 8.07 14.52C8.09 14.5 8.11 14.47 8.13 14.44C8.15 14.41 8.17 14.38 8.18 14.35C8.2 14.32 8.21 14.28 8.21 14.25C8.22 14.21 8.22 14.18 8.22 14.14L8.22 11.99C8.22 11.95 8.22 11.92 8.21 11.89C8.21 11.85 8.2 11.82 8.18 11.78C8.17 11.75 8.15 11.72 8.13 11.69C8.11 11.66 8.09 11.63 8.07 11.61C8.04 11.58 8.01 11.56 7.98 11.54C7.95 11.52 7.92 11.51 7.89 11.49C7.86 11.48 7.82 11.47 7.79 11.46C7.76 11.46 7.72 11.45 7.68 11.45L5.53 11.45Z" fill="#FFFFFF" fill-opacity="1.000000" fill-rule="nonzero"/>
	</g>
</svg>
