<?xml version="1.0" encoding="utf-8"?>
<svg version="1.1" xmlns:xlink="http://www.w3.org/1999/xlink" width="20px" height="20px" xmlns="http://www.w3.org/2000/svg">
  <g transform="matrix(1 0 0 1 -59 -264 )">
    <path d="M 5.16423357664233 7.4  C 5.29197080291971 7.7  5.56204379562044 7.96071428571428  5.87591240875912 8.18214285714286  C 6.14598540145985 9.23214285714286  6.68248175182482 10.1964285714286  7.44160583941606 10.9857142857143  C 8.11313868613139 11.6857142857143  9.00729927007299 12.125  9.99270072992701 12.2571428571429  L 10.1751824817518 12.2571428571429  C 11.1605839416058 12.0821428571429  12.0985401459854 11.6  12.8138686131387 10.9  C 13.529197080292 10.1107142857143  14.021897810219 9.19285714285714  14.2919708029197 8.14285714285714  C 14.6058394160584 7.96785714285714  14.8284671532847 7.66071428571429  14.963503649635 7.35357142857143  C 15.1423357664234 6.87142857142857  15.2335766423358 6.34642857142857  15.1861313868613 5.82142857142857  L 15.1861313868613 5.55714285714286  L 14.963503649635 5.425  C 14.9197080291971 5.425  14.9197080291971 5.38214285714286  14.8722627737226 5.38214285714286  C 14.470802919708 1.83571428571429  14.470802919708 -0.267857142857144  10.3065693430657 0.346428571428571  C 8.6970802919708 -0.221428571428572  7.21897810218978 0.128571428571428  6.32481751824817 0.785714285714286  C 5.16058394160584 1.83571428571429  5.07299270072993 3.45714285714286  5.38686131386861 5.33928571428571  C 5.2956204379562 5.38214285714286  5.25182481751825 5.42857142857143  5.16423357664233 5.47142857142857  L 4.94160583941606 5.60357142857143  L 4.94160583941606 5.86785714285714  C 4.8978102189781 6.39285714285714  4.98540145985401 6.91785714285714  5.16423357664233 7.4  Z M 5.88686131386862 6.20357142857143  C 6.09854014598541 6.16785714285714  6.32116788321169 6.16785714285714  6.54744525547445 6.21071428571429  C 6.54744525547445 6.16785714285714  6.59124087591241 6.12142857142857  6.59124087591241 6.07857142857143  L 6.59124087591241 5.98928571428572  C 6.68248175182482 5.725  6.72627737226277 4.01785714285714  6.81386861313869 3.75714285714286  C 6.81386861313869 3.66785714285714  6.85766423357664 3.58214285714286  6.90510948905109 3.53928571428572  C 7.26277372262774 3.97857142857143  9.81386861313869 4.06428571428571  11.2919708029197 3.01428571428572  L 11.021897810219 3.71428571428572  L 11.2919708029197 3.75714285714286  L 11.6058394160584 3.275  L 11.5620437956204 3.625  L 11.8759124087591 3.66785714285714  L 12.0547445255474 3.1  C 12.4124087591241 3.31785714285714  12.8138686131387 3.58214285714286  13.1751824817518 3.45  C 13.3102189781022 3.71428571428571  13.3978102189781 5.375  13.4452554744526 5.68214285714286  L 13.536496350365 6.075  L 13.6715328467153 6.075  L 13.7153284671533 6.29285714285714  C 13.8503649635037 6.29285714285714  14.029197080292 6.25  14.1642335766423 6.25  C 14.1642335766423 6.51428571428571  14.1204379562044 6.73214285714286  14.029197080292 6.99285714285714  C 13.985401459854 7.16785714285714  13.8503649635037 7.3  13.6715328467153 7.38571428571428  L 13.4489051094891 7.475  L 13.4051094890511 7.69285714285714  C 13.1824817518248 8.65714285714286  12.7335766423358 9.53214285714286  12.1058394160584 10.2321428571429  C 11.5693430656934 10.8  10.8540145985402 11.15  10.0474452554745 11.3285714285714  C 9.28832116788322 11.1964285714286  8.61678832116789 10.8464285714286  8.12408759124088 10.3214285714286  C 7.45255474452555 9.57857142857143  6.95985401459855 8.7  6.73722627737227 7.69285714285714  L 6.69343065693431 7.42857142857143  L 6.42335766423359 7.33928571428572  C 6.24452554744526 7.25  6.1094890510949 7.12142857142857  6.06569343065694 6.94642857142857  C 5.97445255474453 6.68214285714286  5.93065693430658 6.46428571428572  5.88686131386862 6.20357142857143  Z M 11.5583941605839 14.4857142857143  L 9.99270072992701 12.9535714285714  L 8.47080291970803 14.4857142857143  L 9.22992700729927 16.0178571428571  L 8.87226277372263 16.9392857142857  L 9.94525547445256 18.9964285714286  L 11.1094890510949 16.8964285714286  L 10.7956204379562 16.0178571428571  L 11.5583941605839 14.4857142857143  Z M 19.970802919708 18.25  C 20.014598540146 15.4071428571429  14.0620437956204 12.1214285714286  14.0620437956204 12.1214285714286  L 11.2445255474453 17.1571428571429  L 10.0802919708029 19.3035714285714  L 10.3941605839416 19.8714285714286  L 18.7627737226277 19.8714285714286  C 19.6131386861314 19.8714285714286  19.970802919708 19.0821428571429  19.970802919708 18.25  Z M 9.81386861313869 19.35  L 8.73722627737226 17.2892857142857  L 5.96350364963504 12.1214285714286  C 5.96350364963504 12.1214285714286  0.0583941605839424 15.2321428571429  0.0583941605839424 18.2535714285714  C 0.0583941605839424 19.0857142857143  0.416058394160585 19.875  1.26642335766423 19.875  L 10.1277372262774 19.875  L 9.81386861313869 19.35  Z " fill-rule="nonzero" fill="#047bfc" stroke="none" transform="matrix(1 0 0 1 59 264 )" />
  </g>
</svg>