<svg width="16.000000" height="16.000000" viewBox="0 0 16 16" fill="none" xmlns="http://www.w3.org/2000/svg" xmlns:xlink="http://www.w3.org/1999/xlink">
	<desc>
			Created with Pixso.
	</desc>
	<defs>
		<clipPath id="clip819_6301">
			<rect id="AI-06.svg" width="16.000000" height="16.000000" fill="white" fill-opacity="0"/>
		</clipPath>
	</defs>
	<g clip-path="url(#clip819_6301)">
		<path id="path" d="M13.93 8.6L13.02 6.63L13.02 6.36C13.02 6.18 13.01 6.01 12.99 5.83C12.97 5.66 12.94 5.49 12.91 5.32C12.87 5.14 12.82 4.97 12.77 4.81C12.71 4.64 12.65 4.48 12.58 4.32C12.5 4.16 12.42 4 12.34 3.85C12.25 3.7 12.15 3.55 12.04 3.41C11.94 3.27 11.83 3.14 11.71 3.01C11.59 2.88 11.47 2.76 11.33 2.64C11.18 2.51 11.03 2.38 10.86 2.27C10.7 2.15 10.53 2.04 10.36 1.94C10.18 1.84 10 1.75 9.82 1.67C9.64 1.59 9.45 1.52 9.26 1.46C9.07 1.4 8.87 1.35 8.68 1.31C8.48 1.27 8.28 1.24 8.08 1.22C7.88 1.2 7.68 1.19 7.48 1.19C7.28 1.19 7.08 1.2 6.88 1.23C4.34 1.49 2.3 3.4 2.03 5.78C2 5.98 1.99 6.18 2 6.39C2 6.59 2.01 6.79 2.04 7C2.07 7.2 2.11 7.4 2.16 7.59C2.21 7.79 2.27 7.98 2.35 8.17C2.42 8.36 2.51 8.54 2.61 8.72C2.71 8.9 2.81 9.07 2.93 9.24C3.05 9.4 3.18 9.56 3.32 9.71C3.46 9.86 3.61 10 3.76 10.13C3.82 10.18 3.88 10.23 3.94 10.29C3.99 10.35 4.04 10.41 4.09 10.48C4.13 10.55 4.17 10.62 4.21 10.69C4.24 10.76 4.27 10.83 4.3 10.91C4.32 10.99 4.34 11.06 4.36 11.14C4.37 11.22 4.38 11.3 4.39 11.38C4.39 11.46 4.39 11.54 4.38 11.62C4.37 11.7 4.36 11.78 4.34 11.86L3.81 13.88C3.78 13.93 3.77 13.99 3.76 14.06C3.76 14.12 3.76 14.18 3.76 14.24C3.77 14.3 3.78 14.36 3.81 14.42C3.83 14.47 3.85 14.53 3.89 14.58C3.94 14.65 4.01 14.7 4.09 14.74C4.16 14.77 4.25 14.79 4.33 14.79L9.31 14.79C9.35 14.79 9.38 14.79 9.41 14.78C9.44 14.78 9.48 14.77 9.51 14.76C9.54 14.75 9.57 14.73 9.6 14.72C9.63 14.7 9.66 14.68 9.68 14.66C9.71 14.64 9.73 14.62 9.76 14.6C9.78 14.57 9.8 14.54 9.82 14.52C9.84 14.49 9.85 14.46 9.86 14.43C9.88 14.4 9.89 14.37 9.9 14.33L10.22 12.87C10.24 12.83 10.26 12.79 10.28 12.76C10.3 12.72 10.33 12.69 10.37 12.67C10.4 12.64 10.44 12.63 10.48 12.62C10.52 12.6 10.56 12.6 10.6 12.6L11.91 12.6C11.95 12.6 11.98 12.6 12.02 12.6C12.05 12.59 12.09 12.59 12.13 12.58C12.16 12.58 12.19 12.57 12.23 12.56C12.26 12.55 12.3 12.54 12.33 12.53C12.36 12.51 12.4 12.5 12.43 12.48C12.46 12.47 12.49 12.45 12.52 12.43C12.55 12.41 12.58 12.39 12.61 12.37C12.64 12.35 12.66 12.32 12.69 12.3C12.71 12.27 12.74 12.25 12.76 12.22C12.78 12.19 12.81 12.16 12.83 12.13C12.85 12.11 12.87 12.08 12.88 12.04C12.9 12.01 12.92 11.98 12.93 11.95C12.94 11.92 12.96 11.88 12.97 11.85C12.98 11.81 12.99 11.78 12.99 11.75C13 11.71 13.01 11.68 13.01 11.64C13.02 11.6 13.02 11.57 13.02 11.53L13.02 9.67L13.2 9.67C13.27 9.67 13.33 9.66 13.4 9.64C13.46 9.63 13.52 9.6 13.58 9.57C13.64 9.54 13.7 9.5 13.75 9.46C13.8 9.41 13.84 9.36 13.88 9.3C13.91 9.25 13.93 9.2 13.95 9.14C13.97 9.08 13.99 9.02 13.99 8.96C13.99 8.9 13.99 8.83 13.98 8.77C13.97 8.71 13.95 8.65 13.93 8.6ZM12.22 8.86L12.22 11.53C12.22 11.55 12.21 11.57 12.21 11.59C12.21 11.6 12.2 11.62 12.19 11.64C12.18 11.66 12.17 11.67 12.16 11.69C12.15 11.7 12.14 11.72 12.12 11.73C12.11 11.74 12.09 11.75 12.08 11.76C12.06 11.77 12.04 11.78 12.02 11.78C12.01 11.79 11.99 11.79 11.97 11.8C11.95 11.8 11.93 11.8 11.91 11.8L10.6 11.8C10.54 11.8 10.47 11.8 10.41 11.81C10.34 11.82 10.28 11.84 10.21 11.86C10.15 11.88 10.09 11.91 10.03 11.94C9.97 11.97 9.92 12 9.87 12.04C9.81 12.08 9.77 12.13 9.72 12.18C9.68 12.23 9.64 12.28 9.6 12.33C9.56 12.39 9.53 12.45 9.51 12.51C9.48 12.57 9.46 12.63 9.44 12.69L9.15 14L4.62 14L5.12 12.06C5.15 11.95 5.17 11.83 5.18 11.72C5.2 11.6 5.2 11.48 5.2 11.36C5.19 11.25 5.18 11.13 5.16 11.02C5.14 10.9 5.11 10.79 5.07 10.67C5.04 10.56 4.99 10.45 4.94 10.35C4.89 10.24 4.83 10.14 4.77 10.04C4.7 9.95 4.63 9.86 4.55 9.77C4.47 9.68 4.39 9.6 4.3 9.53C4.16 9.42 4.04 9.3 3.92 9.17C3.8 9.05 3.7 8.92 3.59 8.78C3.49 8.64 3.4 8.49 3.32 8.34C3.23 8.19 3.16 8.04 3.1 7.88C3.03 7.72 2.98 7.56 2.93 7.39C2.89 7.23 2.86 7.06 2.83 6.89C2.81 6.72 2.8 6.55 2.8 6.37C2.79 6.2 2.8 6.03 2.82 5.86C3.05 3.86 4.8 2.25 6.97 2.02C7.14 2 7.31 1.99 7.48 1.99C7.65 1.99 7.83 2 8 2.02C8.17 2.03 8.34 2.06 8.51 2.09C8.68 2.13 8.85 2.17 9.01 2.22C9.17 2.27 9.34 2.33 9.49 2.4C9.65 2.47 9.81 2.55 9.96 2.64C10.11 2.72 10.25 2.81 10.39 2.91C10.53 3.01 10.67 3.12 10.8 3.23C10.91 3.33 11.01 3.43 11.11 3.54C11.21 3.65 11.31 3.76 11.4 3.88C11.48 4 11.56 4.12 11.64 4.25C11.71 4.37 11.78 4.51 11.84 4.64C11.9 4.77 11.96 4.91 12.01 5.05C12.05 5.19 12.09 5.33 12.12 5.47C12.15 5.62 12.18 5.76 12.19 5.91C12.21 6.06 12.22 6.2 12.22 6.35L12.22 6.8L13.17 8.87L12.22 8.86Z" fill="#191919" fill-opacity="1.000000" fill-rule="nonzero"/>
		<path id="path" d="M9.14 2.59C8.87 2.49 8.59 2.41 8.31 2.36C8.03 2.31 7.74 2.29 7.45 2.29C7.16 2.29 6.87 2.32 6.59 2.38C6.31 2.44 6.03 2.52 5.77 2.63C5.63 2.69 5.49 2.75 5.36 2.82C5.22 2.89 5.09 2.97 4.97 3.05C4.85 3.14 4.73 3.23 4.61 3.33C4.5 3.43 4.39 3.53 4.28 3.64C4.18 3.75 4.08 3.86 3.99 3.98C3.9 4.1 3.82 4.23 3.74 4.36C3.66 4.49 3.59 4.62 3.53 4.76C3.47 4.89 3.41 5.03 3.37 5.18C3.34 5.27 3.32 5.36 3.3 5.45C3.29 5.54 3.28 5.63 3.29 5.73C3.29 5.82 3.3 5.91 3.31 6C3.33 6.1 3.35 6.19 3.38 6.27C3.41 6.36 3.45 6.45 3.49 6.53C3.54 6.61 3.59 6.69 3.65 6.76C3.7 6.84 3.77 6.91 3.83 6.97C3.9 7.03 3.97 7.09 4.05 7.14C4.1 7.17 4.14 7.21 4.17 7.25C4.21 7.28 4.24 7.33 4.27 7.37C4.3 7.42 4.32 7.47 4.33 7.52C4.35 7.57 4.36 7.62 4.36 7.68L4.36 8.18C4.37 8.23 4.38 8.27 4.39 8.32C4.41 8.37 4.42 8.41 4.45 8.45C4.47 8.49 4.5 8.53 4.53 8.57C4.56 8.61 4.59 8.64 4.63 8.68C4.66 8.71 4.7 8.74 4.74 8.76C4.78 8.79 4.83 8.81 4.87 8.82C4.92 8.84 4.96 8.85 5.01 8.86C5.06 8.87 5.11 8.88 5.15 8.88C5.2 8.88 5.25 8.87 5.3 8.86C5.34 8.85 5.39 8.84 5.44 8.82C5.48 8.81 5.52 8.79 5.57 8.76C5.61 8.74 5.65 8.71 5.68 8.68C5.72 8.64 5.75 8.61 5.78 8.57C5.81 8.53 5.84 8.49 5.86 8.45C5.88 8.41 5.9 8.37 5.92 8.32C5.93 8.27 5.94 8.23 5.95 8.18L5.95 7.77C5.95 7.72 5.95 7.67 5.96 7.62C5.97 7.57 5.99 7.53 6.01 7.48C6.04 7.44 6.07 7.39 6.1 7.36C6.13 7.32 6.17 7.29 6.21 7.26C6.41 7.13 6.59 6.99 6.75 6.81C6.9 6.64 7.03 6.45 7.14 6.24C7.16 6.2 7.18 6.16 7.22 6.13C7.25 6.09 7.29 6.07 7.34 6.05C7.39 6.03 7.44 6.02 7.5 6.02C7.55 6.02 7.61 6.03 7.66 6.05C7.75 6.09 7.84 6.12 7.94 6.15C8.03 6.17 8.13 6.19 8.23 6.2C8.32 6.21 8.42 6.22 8.52 6.22C8.62 6.21 8.72 6.2 8.82 6.19C8.91 6.17 9.01 6.14 9.1 6.11C9.2 6.08 9.29 6.05 9.38 6C9.46 5.96 9.55 5.91 9.63 5.85C9.71 5.8 9.79 5.73 9.86 5.67C9.92 5.62 9.98 5.56 10.03 5.51C10.08 5.45 10.13 5.39 10.17 5.32C10.22 5.26 10.26 5.19 10.29 5.12C10.33 5.06 10.36 4.98 10.39 4.91C10.42 4.84 10.44 4.76 10.46 4.69C10.47 4.61 10.49 4.54 10.49 4.46C10.5 4.38 10.5 4.3 10.5 4.23C10.5 4.15 10.49 4.07 10.48 4C10.36 3.38 9.86 2.87 9.14 2.59ZM9.33 5.09C9.28 5.13 9.23 5.17 9.18 5.2C9.13 5.23 9.08 5.26 9.02 5.29C8.97 5.31 8.91 5.34 8.85 5.35C8.79 5.37 8.73 5.38 8.67 5.39C8.61 5.4 8.55 5.41 8.49 5.41C8.43 5.41 8.37 5.4 8.3 5.4C8.24 5.39 8.18 5.38 8.12 5.36C8.07 5.34 8.01 5.32 7.95 5.3C7.81 5.24 7.66 5.22 7.5 5.22C7.34 5.22 7.2 5.25 7.05 5.31C6.98 5.34 6.91 5.37 6.84 5.41C6.77 5.46 6.71 5.5 6.66 5.56C6.6 5.61 6.55 5.67 6.51 5.74C6.46 5.8 6.43 5.87 6.4 5.94C6.24 6.21 6.04 6.42 5.78 6.58C5.69 6.64 5.61 6.7 5.54 6.78C5.47 6.85 5.4 6.93 5.35 7.02C5.29 7.11 5.25 7.2 5.22 7.3C5.18 7.39 5.16 7.49 5.15 7.6C5.14 7.48 5.12 7.38 5.08 7.27C5.05 7.17 5.01 7.07 4.95 6.97C4.9 6.88 4.83 6.79 4.76 6.71C4.68 6.63 4.6 6.56 4.51 6.49C4.46 6.47 4.42 6.44 4.39 6.4C4.35 6.37 4.31 6.33 4.28 6.29C4.25 6.25 4.22 6.21 4.19 6.16C4.17 6.12 4.15 6.07 4.13 6.03C4.11 5.98 4.1 5.93 4.09 5.88C4.08 5.83 4.07 5.78 4.07 5.73C4.07 5.68 4.07 5.63 4.08 5.58C4.09 5.53 4.1 5.48 4.12 5.43C4.15 5.31 4.2 5.2 4.25 5.09C4.3 4.98 4.36 4.87 4.42 4.77C4.48 4.66 4.55 4.56 4.63 4.46C4.7 4.37 4.78 4.27 4.86 4.19C4.95 4.1 5.03 4.01 5.13 3.93C5.22 3.86 5.32 3.78 5.42 3.72C5.52 3.65 5.62 3.58 5.73 3.53C5.84 3.47 5.95 3.42 6.06 3.38C6.28 3.29 6.51 3.22 6.75 3.17C6.98 3.12 7.22 3.09 7.45 3.09C7.69 3.09 7.93 3.11 8.16 3.15C8.4 3.19 8.63 3.26 8.85 3.34C8.95 3.37 9.04 3.41 9.13 3.46C9.22 3.51 9.3 3.57 9.37 3.64C9.45 3.72 9.51 3.79 9.56 3.88C9.62 3.97 9.66 4.06 9.69 4.16C9.7 4.25 9.7 4.33 9.69 4.42C9.68 4.51 9.66 4.59 9.63 4.67C9.6 4.75 9.56 4.83 9.5 4.9C9.45 4.97 9.4 5.03 9.33 5.09Z" fill="#191919" fill-opacity="1.000000" fill-rule="nonzero"/>
		<path id="path" d="M7.85 3.23C7.62 3.2 7.38 3.21 7.15 3.26C6.92 3.3 6.69 3.37 6.48 3.48C6.27 3.56 6.06 3.67 5.87 3.8C5.68 3.93 5.51 4.08 5.35 4.25C5.19 4.42 5.05 4.6 4.93 4.8C4.81 5 4.72 5.2 4.64 5.42C4.61 5.53 4.6 5.63 4.61 5.74C4.62 5.85 4.65 5.95 4.7 6.05C4.75 6.15 4.83 6.23 4.92 6.3C5.01 6.38 5.11 6.43 5.22 6.46C5.3 6.48 5.38 6.49 5.46 6.49C5.5 6.49 5.55 6.49 5.59 6.48C5.64 6.47 5.68 6.46 5.72 6.45C5.76 6.44 5.81 6.42 5.84 6.4C5.88 6.38 5.92 6.36 5.96 6.33C6 6.31 6.03 6.28 6.06 6.25C6.09 6.22 6.12 6.18 6.15 6.15C6.18 6.11 6.2 6.07 6.22 6.03C6.24 6 6.26 5.95 6.27 5.91C6.31 5.81 6.35 5.71 6.41 5.61C6.47 5.52 6.53 5.43 6.61 5.35C6.69 5.27 6.77 5.2 6.86 5.14C6.95 5.08 7.05 5.03 7.15 4.99L7.24 4.95C7.31 4.91 7.38 4.88 7.46 4.87C7.54 4.86 7.62 4.85 7.7 4.87C7.75 4.87 7.81 4.87 7.86 4.87C7.91 4.86 7.97 4.85 8.02 4.84C8.07 4.82 8.12 4.8 8.17 4.78C8.22 4.75 8.27 4.72 8.31 4.69C8.35 4.65 8.39 4.61 8.43 4.57C8.46 4.53 8.49 4.49 8.52 4.44C8.55 4.39 8.57 4.34 8.59 4.29C8.6 4.24 8.62 4.18 8.62 4.13C8.63 4.02 8.62 3.92 8.59 3.81C8.56 3.71 8.51 3.62 8.44 3.54C8.37 3.45 8.28 3.38 8.18 3.32C8.07 3.27 7.97 3.24 7.85 3.23ZM7.77 4.07C7.62 4.05 7.48 4.05 7.34 4.08C7.2 4.1 7.06 4.15 6.93 4.21L6.85 4.26C6.69 4.32 6.55 4.4 6.41 4.5C6.27 4.59 6.14 4.7 6.03 4.82C5.91 4.95 5.81 5.08 5.72 5.22C5.64 5.37 5.57 5.52 5.52 5.68C5.52 5.68 5.5 5.7 5.44 5.7C5.43 5.7 5.42 5.69 5.41 5.68C5.47 5.52 5.54 5.36 5.63 5.21C5.72 5.07 5.82 4.93 5.94 4.8C6.06 4.68 6.19 4.57 6.34 4.47C6.48 4.38 6.63 4.3 6.79 4.23C6.94 4.15 7.11 4.09 7.28 4.06C7.44 4.03 7.62 4.02 7.79 4.04C7.8 4.04 7.82 4.05 7.83 4.06C7.81 4.07 7.79 4.08 7.77 4.07Z" fill="#191919" fill-opacity="1.000000" fill-rule="nonzero"/>
	</g>
</svg>
