<svg width="36.000000" height="36.000000" viewBox="0 0 36 36" fill="none" xmlns="http://www.w3.org/2000/svg" xmlns:xlink="http://www.w3.org/1999/xlink">
	<desc>
			Created with Pixso.
	</desc>
	<defs>
		<clipPath id="clip273_55357">
			<rect id="csv" width="36.000000" height="36.000000" fill="white" fill-opacity="0"/>
		</clipPath>
	</defs>
	<g clip-path="url(#clip273_55357)">
		<path id="path" d="M27.3 34.64L8.69 34.64C5.72 34.64 3.29 32.21 3.29 29.23L3.29 6.67C3.29 3.7 5.72 1.25 8.69 1.25L22.01 1.25C23.45 1.25 24.8 1.92 25.68 3.04L31.68 10.67C32.32 11.5 32.68 12.52 32.68 13.57L32.68 29.21C32.7 32.2 30.27 34.64 27.3 34.64Z" fill="#DBEDCF" fill-opacity="1.000000" fill-rule="nonzero"/>
		<path id="path" d="M27.3 35.91L8.69 35.91C5.02 35.91 2.03 32.92 2.03 29.23L2.03 6.67C2.03 2.98 5.02 0 8.69 0L22.01 0C23.85 0 25.54 0.82 26.67 2.26L32.66 9.9C33.49 10.94 33.94 12.24 33.94 13.58L33.94 29.23C33.96 32.92 30.97 35.91 27.3 35.91ZM8.69 2.51C6.4 2.51 4.55 4.37 4.55 6.67L4.55 29.23C4.55 31.51 6.4 33.38 8.69 33.38L27.28 33.38C29.57 33.38 31.42 31.53 31.42 29.23L31.42 13.58C31.42 12.83 31.17 12.07 30.69 11.46L24.69 3.83C24.04 3 23.05 2.53 22.01 2.53C22.01 2.51 8.69 2.51 8.69 2.51Z" fill="#BAD8A5" fill-opacity="1.000000" fill-rule="nonzero"/>
		<path id="C" d="M18.79 23.07C19.5 23.07 20.11 22.89 20.62 22.52C21.14 22.14 21.55 21.62 21.85 20.95L24.28 22.36C23.91 23.34 23.25 24.15 22.29 24.79C21.33 25.42 20.19 25.73 18.86 25.73C17.56 25.73 16.38 25.42 15.31 24.8C14.25 24.17 13.4 23.28 12.77 22.13C12.15 20.97 11.83 19.65 11.83 18.16C11.83 16.66 12.14 15.34 12.76 14.2C13.38 13.05 14.23 12.16 15.3 11.54C16.38 10.91 17.56 10.59 18.86 10.59C20.19 10.59 21.33 10.91 22.29 11.54C23.25 12.18 23.91 12.99 24.28 13.98L21.85 15.37C21.55 14.71 21.14 14.19 20.62 13.82C20.11 13.44 19.5 13.25 18.79 13.25C18.05 13.25 17.38 13.45 16.8 13.85C16.21 14.25 15.75 14.83 15.4 15.57C15.07 16.31 14.9 17.17 14.9 18.16C14.9 19.14 15.07 20.01 15.4 20.76C15.75 21.5 16.21 22.08 16.8 22.48C17.38 22.87 18.05 23.07 18.79 23.07Z" fill="#70C237" fill-opacity="1.000000" fill-rule="nonzero"/>
	</g>
</svg>
