<svg width="16.000000" height="16.000000" viewBox="0 0 16 16" fill="none" xmlns="http://www.w3.org/2000/svg" xmlns:xlink="http://www.w3.org/1999/xlink">
	<desc>
			Created with Pixso.
	</desc>
	<defs/>
	<rect id="ICON" rx="8.000000" width="16.000000" height="16.000000" fill="#000000" fill-opacity="0.160000"/>
	<path id="ICON" d="M8.69873 7.99023L12.5879 4.09961C12.7832 3.9043 12.7832 3.58789 12.5879 3.39258C12.3926 3.19727 12.0759 3.19727 11.8809 3.39258L7.9917 7.28125L4.10254 3.39258C3.90747 3.19727 3.59082 3.19727 3.39551 3.39258C3.2002 3.58789 3.2002 3.9043 3.39551 4.09961L7.28467 7.99023L3.39551 11.8789C3.2002 12.0742 3.2002 12.3906 3.39551 12.5859C3.59082 12.7812 3.90747 12.7812 4.10254 12.5859L7.9917 8.69727L11.8809 12.5859C12.0759 12.7812 12.3926 12.7812 12.5879 12.5859C12.7832 12.3906 12.7832 12.0742 12.5879 11.8789L8.69873 7.99023Z" clip-rule="evenodd" fill="#4D4D4D" fill-opacity="1.000000" fill-rule="evenodd"/>
</svg>
