<svg width="24.000000" height="24.000000" viewBox="0 0 24 24" fill="none" xmlns="http://www.w3.org/2000/svg" xmlns:xlink="http://www.w3.org/1999/xlink">
	<desc>
			Created with Pixso.
	</desc>
	<defs/>
	<rect id="ICON/16/Download" width="24.000000" height="24.000000" fill="#FFFFFF" fill-opacity="0"/>
	<rect id="矩形备份 18" width="24.000000" height="24.000000" fill="#D8D8D8" fill-opacity="0"/>
	<rect id="矩形备份 18" x="0.500000" y="0.500000" width="23.000000" height="23.000000" stroke="#979797" stroke-opacity="0" stroke-width="1.000000"/>
	<path id="路径" d="M1.5 15.75L1.52 15.76L2.25 15.76L2.25 20.25L21.75 20.25L21.75 15.76L22.48 15.76L22.5 15.75C22.5 15.33 22.16 15 21.75 15C21.33 15 21 15.33 21 15.75L3 15.75C3 15.33 2.66 15 2.25 15C1.83 15 1.5 15.33 1.5 15.75Z" fill="#D8D8D8" fill-opacity="0" fill-rule="evenodd"/>
	<path id="路径" d="M21.75 15.75L21.75 20.25L2.25 20.25L2.25 15.75" stroke="#4D4D4D" stroke-opacity="1.000000" stroke-width="1.500000" stroke-linejoin="round" stroke-linecap="round"/>
	<path id="直线" d="M5.27 17.98L5.25 18C4.83 18 4.5 17.67 4.5 17.25C4.5 16.83 4.83 16.5 5.25 16.5L5.27 16.52L5.27 17.98ZM18.73 16.52L18.75 16.5C19.16 16.5 19.5 16.83 19.5 17.25C19.5 17.67 19.16 18 18.75 18L18.73 17.98L18.73 16.52Z" fill="#D8D8D8" fill-opacity="0" fill-rule="nonzero"/>
	<path id="直线" d="M5.25 17.25L18.75 17.25" stroke="#4D4D4D" stroke-opacity="1.000000" stroke-width="1.500000" stroke-linecap="round"/>
	<path id="路径" d="M15.71 9.42L15.71 9.39C16 9.09 16.47 9.09 16.77 9.39C17.07 9.69 17.07 10.16 16.77 10.45L16.74 10.45L16.22 9.94L12 14.16L7.77 9.94L7.25 10.45L7.22 10.45C6.93 10.16 6.93 9.69 7.22 9.39C7.52 9.09 7.99 9.09 8.28 9.39L8.28 9.42L7.78 9.92L16.21 9.92L15.71 9.42Z" fill="#D8D8D8" fill-opacity="0" fill-rule="evenodd"/>
	<path id="路径" d="M16.24 9.92L12 14.16L7.75 9.92" stroke="#4D4D4D" stroke-opacity="1.000000" stroke-width="1.500000" stroke-linejoin="round" stroke-linecap="round"/>
	<path id="路径 3" d="M12.73 14.15L12.75 14.17C12.75 14.59 12.41 14.92 12 14.92C11.58 14.92 11.25 14.59 11.25 14.17L11.27 14.15L12.73 14.15ZM11.27 3.8L11.25 3.78C11.25 3.36 11.58 3.03 12 3.03C12.41 3.03 12.75 3.36 12.75 3.78L12.73 3.8L11.27 3.8Z" fill="#D8D8D8" fill-opacity="0" fill-rule="nonzero"/>
	<path id="路径 3" d="M12 14.17L12 3.78" stroke="#4D4D4D" stroke-opacity="1.000000" stroke-width="1.500000" stroke-linecap="round"/>
</svg>
