<svg width="36.000000" height="36.000000" viewBox="0 0 36 36" fill="none" xmlns="http://www.w3.org/2000/svg" xmlns:xlink="http://www.w3.org/1999/xlink">
	<desc>
			Created with Pixso.
	</desc>
	<defs>
		<clipPath id="clip9123_173723">
			<rect id="Excel" width="36.000000" height="36.000000" fill="white" fill-opacity="0"/>
		</clipPath>
	</defs>
	<g clip-path="url(#clip9123_173723)">
		<path id="path" d="M27.3 34.65L8.69 34.65C5.72 34.65 3.29 32.22 3.29 29.23L3.29 6.67C3.29 3.7 5.72 1.25 8.69 1.25L22.01 1.25C23.45 1.25 24.8 1.92 25.68 3.04L31.67 10.67C32.32 11.5 32.68 12.52 32.68 13.57L32.68 29.21C32.7 32.2 30.27 34.65 27.3 34.65Z" fill="#FFF1E0" fill-opacity="1.000000" fill-rule="nonzero"/>
		<path id="path" d="M27.3 35.91L8.69 35.91C5.02 35.91 2.03 32.92 2.03 29.23L2.03 6.67C2.03 2.98 5.02 0 8.69 0L22.01 0C23.84 0 25.54 0.82 26.67 2.26L32.66 9.9C33.49 10.94 33.94 12.24 33.94 13.58L33.94 29.23C33.96 32.92 30.97 35.91 27.3 35.91ZM8.69 2.51C6.4 2.51 4.55 4.37 4.55 6.67L4.55 29.23C4.55 31.51 6.4 33.39 8.69 33.39L27.28 33.39C29.57 33.39 31.42 31.53 31.42 29.23L31.42 13.58C31.42 12.83 31.17 12.07 30.68 11.46L24.69 3.83C24.04 3 23.05 2.53 22.01 2.53C22.01 2.51 8.69 2.51 8.69 2.51Z" fill="#FFCB8B" fill-opacity="1.000000" fill-rule="nonzero"/>
		<path id="&lt;/&gt;" d="M15.93 24L19.2 12L21.06 12L17.79 24L15.93 24ZM15.31 13.55L15.31 16.06L11.48 18.06L15.31 20.06L15.31 22.57L9 19.26L9 16.86L15.31 13.55ZM21.68 16.06L25.51 18.06L21.68 20.06L21.68 22.57L28 19.26L28 16.86L21.68 13.55L21.68 16.06Z" fill="#FFA434" fill-opacity="1.000000" fill-rule="evenodd"/>
	</g>
</svg>
