<?xml version="1.0" encoding="UTF-8"?>
<svg width="60px" height="60px" viewBox="0 0 60 60" version="1.1" xmlns="http://www.w3.org/2000/svg" xmlns:xlink="http://www.w3.org/1999/xlink">
    <title>编组</title>
    <defs>
        <linearGradient x1="14.8986982%" y1="11.2064742%" x2="49.9592492%" y2="99.8969153%" id="linearGradient-1">
            <stop stop-color="#86DBFF" offset="0%"></stop>
            <stop stop-color="#0FA1EE" offset="100%"></stop>
        </linearGradient>
        <linearGradient x1="50%" y1="0%" x2="50%" y2="100%" id="linearGradient-2">
            <stop stop-color="#2BC7FF" offset="0%"></stop>
            <stop stop-color="#139FFF" offset="100%"></stop>
        </linearGradient>
        <linearGradient x1="78.5534666%" y1="30.5855805%" x2="32.2853564%" y2="58.8267523%" id="linearGradient-3">
            <stop stop-color="#FFFFFF" stop-opacity="0.508444939" offset="0%"></stop>
            <stop stop-color="#FFFFFF" stop-opacity="0" offset="100%"></stop>
        </linearGradient>
    </defs>
    <g id="页面-2备份" stroke="none" stroke-width="1" fill="none" fillRule="evenodd">
        <g id="首页Chat" transform="translate(-922.000000, -410.000000)">
            <g id="编组-16备份-2" transform="translate(889.000000, 410.000000)">
                <g id="编组" transform="translate(33.000000, 0.000000)">
                    <path d="M0,30 C0,40.7179675 5.7179675,50.6217782 15,55.9807621 C24.2820322,61.339746 35.7179678,61.339746 45,55.9807621 C54.2820325,50.6217782 60,40.7179675 60,30 C60,13.4314574 46.5685425,0 30,0 C13.4314575,0 0,13.4314574 0,30 Z" id="路径" fill="#EAF6FF" fillRule="nonzero"></path>
                    <g transform="translate(9.000000, 14.000000)">
                        <path d="M10.8920455,16 C10.8920455,24.836556 18.0554895,32 26.8920455,32 C35.7286015,32 42.8920455,24.836556 42.8920455,16 C42.8920455,7.163444 35.7286015,0 26.8920455,0 C18.0554895,0 10.8920455,7.163444 10.8920455,16 Z" id="路径" fill="url(#linearGradient-1)" fillRule="nonzero"></path>
                        <path d="M23.3784948,5.5 C25.7361867,5.5 27.8789181,6.47804528 29.4326357,8.05187715 C30.9886725,9.62805826 31.9545455,11.8020856 31.9545455,14.1935484 L31.9545455,14.8064516 C31.9545455,17.1979144 30.9886725,19.3719417 29.4326357,20.9481229 C27.8789181,22.5219547 25.7361867,23.5 23.3784948,23.5 L9.07605069,23.5 C6.71835873,23.5 4.57562733,22.5219547 3.02190974,20.9481229 C1.46587293,19.3719417 0.5,17.1979144 0.5,14.8064516 L0.5,14.1935484 C0.5,11.8020856 1.46587293,9.62805826 3.02190974,8.05187715 C4.57562733,6.47804528 6.71835873,5.5 9.07605069,5.5 Z" id="路径" stroke="url(#linearGradient-3)" fillOpacity="0.04" fill="url(#linearGradient-2)" fillRule="nonzero"></path>
                        <rect id="矩形" fill="#FFFFFF" opacity="0.841288249" x="5.45454545" y="13.5625" width="8" height="2.21756347" rx="1.10878174"></rect>
                        <rect id="矩形备份-10" fill="#FFFFFF" opacity="0.841288249" x="18.4545455" y="13.5625" width="8" height="2.21756347" rx="1.10878174"></rect>
                    </g>
                </g>
            </g>
        </g>
    </g>
</svg>