<?xml version="1.0" encoding="UTF-8"?>
<svg width="24px" height="24px" viewBox="0 0 24 24" version="1.1" xmlns="http://www.w3.org/2000/svg" xmlns:xlink="http://www.w3.org/1999/xlink">
    <title>Conversation/ico_Img备份</title>
    <g id="页面-2备份" stroke="none" stroke-width="1" fill="none" fillRule="evenodd">
        <g id="首页Chat" transform="translate(-480.000000, -900.000000)">
            <g id="语音提问-响应中" transform="translate(340.000000, 820.000000)">
                <g id="Conversation/ico_Img备份" transform="translate(140.000000, 80.000000)">
                    <rect id="矩形" fill="#D8D8D8" fillRule="nonzero" opacity="0" x="0" y="0" width="24" height="24"></rect>
                    <g id="编组" transform="translate(3.750000, 3.000000)" fill="#333333">
                        <path d="M9.54771207,5.59753811 L4.58555855,10.480874 C4.03994603,11.0180099 3.82696297,11.8008013 4.02683804,12.5343783 C4.2267131,13.2679553 4.8090805,13.84087 5.55456808,14.037311 C6.30005566,14.233752 7.09540611,14.0238753 7.64101862,13.4867393 L14.8931477,6.34873882 C16.3689508,4.89637697 16.3689508,2.54163321 14.8931476,1.08927138 C13.4173445,-0.363090445 11.0245949,-0.363090462 9.54879174,1.08927134 L1.53333749,8.97847256 C-0.529483617,11.0603498 -0.50830049,14.3874359 1.5808677,16.4437111 C3.67003589,18.4999862 7.05081861,18.5213035 9.16658931,16.4915422 L15.6564729,10.1058049 C15.8610549,9.89734994 15.8581291,9.56600036 15.6498969,9.36107567 C15.4416647,9.15615099 15.1049671,9.15327165 14.8931477,9.35460418 L8.4043438,15.7403415 C6.71775423,17.4001416 3.98325225,17.4001416 2.29666267,15.7403415 C0.610073103,14.0805413 0.610073103,11.3894735 2.29666267,9.72967327 L10.3131966,1.84153457 C10.9908892,1.15101275 11.9944497,0.874077846 12.9381589,1.11717001 C13.881868,1.36026217 14.6188627,2.0855506 14.8658784,3.01427011 C15.1128941,3.94298962 14.8314894,4.93060982 14.1298225,5.59753811 L6.87769344,12.7355386 C6.45582244,13.1507087 5.7718344,13.1507087 5.3499634,12.7355386 C4.9280924,12.3203685 4.9280924,11.6472448 5.3499634,11.2320747 L10.3131966,6.34873882 C10.4495515,6.21435994 10.5027013,6.01859971 10.4526249,5.83519911 C10.4025485,5.65179852 10.2568537,5.50862047 10.0704225,5.45959876 C9.88399115,5.41057705 9.68514665,5.46315923 9.54879174,5.59753811 L9.54771207,5.59753811 Z" id="路径"></path>
                    </g>
                </g>
            </g>
        </g>
    </g>
</svg>