<svg width="36.000000" height="36.000000" viewBox="0 0 36 36" fill="none" xmlns="http://www.w3.org/2000/svg" xmlns:xlink="http://www.w3.org/1999/xlink">
	<desc>
			Created with Pixso.
	</desc>
	<defs>
		<clipPath id="clip9123_173739">
			<rect id="Excel" width="36.000000" height="36.000000" fill="white" fill-opacity="0"/>
		</clipPath>
	</defs>
	<g clip-path="url(#clip9123_173739)">
		<path id="path" d="M27.3 34.65L8.69 34.65C5.72 34.65 3.29 32.22 3.29 29.23L3.29 6.67C3.29 3.7 5.72 1.25 8.69 1.25L22.01 1.25C23.45 1.25 24.8 1.92 25.68 3.04L31.67 10.67C32.32 11.5 32.68 12.52 32.68 13.57L32.68 29.21C32.7 32.2 30.27 34.65 27.3 34.65Z" fill="#F0EBFF" fill-opacity="1.000000" fill-rule="nonzero"/>
		<path id="path" d="M27.3 35.91L8.69 35.91C5.02 35.91 2.03 32.92 2.03 29.23L2.03 6.67C2.03 2.98 5.02 0 8.69 0L22.01 0C23.84 0 25.54 0.82 26.67 2.26L32.66 9.9C33.49 10.94 33.94 12.24 33.94 13.58L33.94 29.23C33.96 32.92 30.97 35.91 27.3 35.91ZM8.69 2.51C6.4 2.51 4.55 4.37 4.55 6.67L4.55 29.23C4.55 31.51 6.4 33.39 8.69 33.39L27.28 33.39C29.57 33.39 31.42 31.53 31.42 29.23L31.42 13.58C31.42 12.83 31.17 12.07 30.68 11.46L24.69 3.83C24.04 3 23.05 2.53 22.01 2.53C22.01 2.51 8.69 2.51 8.69 2.51Z" fill="#C9B9FF" fill-opacity="1.000000" fill-rule="nonzero"/>
		<path id="合并" d="M18.7219 14.5996L20.5847 14.5996C21.145 14.5996 21.5759 15.0391 21.5759 15.6094L21.5759 22.0117C21.5759 22.5391 21.1018 22.9766 20.5847 22.9766L11.4897 22.9766C11.4243 22.9785 11.3596 22.9727 11.2952 22.9609C11.231 22.9492 11.1685 22.9297 11.1079 22.9043C11.0474 22.8809 10.9897 22.8496 10.9351 22.8125C10.8806 22.7754 10.8303 22.7344 10.7839 22.6875C10.7649 22.668 10.7463 22.6465 10.729 22.627C10.7043 22.5957 10.6816 22.5664 10.6604 22.5332C10.645 22.5098 10.6306 22.4844 10.6172 22.4609C10.5994 22.4277 10.5835 22.3926 10.5696 22.3574C10.5449 22.2949 10.5266 22.2324 10.5146 22.166C10.5027 22.1016 10.4973 22.0352 10.4985 21.9688L10.4985 15.6094C10.4985 15.0391 10.9294 14.5996 11.4897 14.5996L17.7395 14.5996L17.1794 14.0293C17.0989 13.9395 16.9983 13.8945 16.8777 13.8984L12.438 13.8984C12.1794 13.8984 12.0071 13.7227 12.0071 13.4609C12.0071 13.1973 12.1794 13.0215 12.438 13.0215L17.2656 13.0215C17.395 13.0215 17.4812 13.0645 17.5674 13.1523L18.6018 14.2051C18.7112 14.3164 18.7512 14.4629 18.7219 14.5996ZM24.895 15.2148L22.3088 17.4512L22.3088 20.127L24.8518 22.3203C25.0674 22.5391 25.4985 22.4082 25.4985 22.0566L25.4985 15.4766C25.5415 15.127 25.1536 14.9512 24.895 15.2148Z" clip-rule="evenodd" fill="#977CF7" fill-opacity="1.000000" fill-rule="evenodd"/>
	</g>
</svg>
