<?xml version="1.0" encoding="UTF-8"?>
<svg width="48px" height="48px" viewBox="0 0 48 48" version="1.1" xmlns="http://www.w3.org/2000/svg" xmlns:xlink="http://www.w3.org/1999/xlink">
    <title>Conversation/ico_Close</title>
    <g id="页面-2备份" stroke="none" stroke-width="1" fill="none" fillRule="evenodd">
        <g id="首页Chat备份-9" transform="translate(-1582.000000, -820.000000)">
            <g id="语音提问-响应中" transform="translate(547.000000, 820.000000)">
                <g id="Conversation/ico_Close" transform="translate(1035.000000, 0.000000)">
                    <circle id="椭圆形" fill="#FFFFFF" cx="24" cy="24" r="24"></circle>
                    <g id="编组" transform="translate(12.000000, 12.000000)" fillRule="nonzero">
                        <rect id="矩形" fill="#D8D8D8" opacity="0" x="0" y="0" width="24" height="24"></rect>
                        <path d="M20.25,19 C20.803,19 21.25,19.447 21.25,20 C21.25,20.553 20.803,21 20.25,21 L3.75,21 C3.197,21 2.75,20.553 2.75,20 C2.75,19.447 3.197,19 3.75,19 L20.25,19 Z M4.457,7.6895 L7.849,11.0805 C8.355,11.5865 8.355,12.4125 7.849,12.9185 L4.457,16.3105 C4.265,16.5015 4.01,16.6035 3.751,16.6035 C3.621,16.6035 3.491,16.5785 3.366,16.5265 C2.992,16.3715 2.75,16.0085 2.75,15.6035 L2.75,8.3965 C2.75,7.9905 2.992,7.6275 3.367,7.4725 C3.741,7.3175 4.171,7.4025 4.457,7.6895 Z M20.25,13.666 C20.803,13.666 21.25,14.113 21.25,14.666 C21.25,15.219 20.803,15.666 20.25,15.666 L10.25,15.666 C9.697,15.666 9.25,15.219 9.25,14.666 C9.25,14.113 9.697,13.666 10.25,13.666 L20.25,13.666 Z M20.25,8.333 C20.803,8.333 21.25,8.78 21.25,9.333 C21.25,9.886 20.803,10.333 20.25,10.333 L10.25,10.333 C9.697,10.333 9.25,9.886 9.25,9.333 C9.25,8.78 9.697,8.333 10.25,8.333 L20.25,8.333 Z M20.25,3 C20.803,3 21.25,3.447 21.25,4 C21.25,4.553 20.803,5 20.25,5 L3.75,5 C3.197,5 2.75,4.553 2.75,4 C2.75,3.447 3.197,3 3.75,3 L20.25,3 Z" id="形状结合" fill="#333333"></path>
                    </g>
                </g>
            </g>
        </g>
    </g>
</svg>