<svg width="36.000000" height="36.000000" viewBox="0 0 36 36" fill="none" xmlns="http://www.w3.org/2000/svg" xmlns:xlink="http://www.w3.org/1999/xlink">
	<desc>
			Created with Pixso.
	</desc>
	<defs>
		<clipPath id="clip9123_173669">
			<rect id="Excel" width="36.000000" height="36.000000" fill="white" fill-opacity="0"/>
		</clipPath>
	</defs>
	<g clip-path="url(#clip9123_173669)">
		<path id="path" d="M27.3 34.65L8.69 34.65C5.72 34.65 3.29 32.22 3.29 29.23L3.29 6.67C3.29 3.7 5.72 1.25 8.69 1.25L22.01 1.25C23.45 1.25 24.8 1.92 25.68 3.04L31.67 10.67C32.32 11.5 32.68 12.52 32.68 13.57L32.68 29.21C32.7 32.2 30.27 34.65 27.3 34.65Z" fill="#FCE1DF" fill-opacity="1.000000" fill-rule="nonzero"/>
		<path id="P" d="M17.53 12C18.58 12 19.49 12.17 20.27 12.54C21.05 12.89 21.65 13.4 22.07 14.06C22.5 14.71 22.72 15.47 22.72 16.35C22.72 17.21 22.5 17.97 22.07 18.63C21.65 19.28 21.05 19.78 20.27 20.14C19.49 20.49 18.58 20.67 17.53 20.67L15.61 20.67L15.61 25.17L13 25.17L13 12L17.53 12ZM17.24 18.46C18.06 18.46 18.72 18.28 19.2 17.93C19.7 17.57 19.94 17.05 19.94 16.35C19.94 15.65 19.7 15.12 19.2 14.76C18.72 14.39 18.06 14.21 17.24 14.21L15.61 14.21L15.61 18.46L17.24 18.46Z" fill="#F48078" fill-opacity="1.000000" fill-rule="nonzero"/>
		<path id="path" d="M27.27 35.91L8.65 35.91C4.98 35.91 2 32.92 2 29.23L2 6.67C2 2.98 4.98 0 8.65 0L21.98 0C23.81 0 25.5 0.82 26.64 2.26L32.63 9.9C33.46 10.94 33.91 12.24 33.91 13.58L33.91 29.23C33.93 32.92 30.94 35.91 27.27 35.91ZM8.65 2.51C6.37 2.51 4.52 4.37 4.52 6.67L4.52 29.23C4.52 31.51 6.37 33.39 8.65 33.39L27.25 33.39C29.54 33.39 31.39 31.53 31.39 29.23L31.39 13.58C31.39 12.83 31.14 12.07 30.65 11.46L24.66 3.83C24.01 3 23.02 2.53 21.98 2.53C21.98 2.51 8.65 2.51 8.65 2.51Z" fill="#FFB1AC" fill-opacity="1.000000" fill-rule="nonzero"/>
	</g>
</svg>
