<?xml version="1.0" encoding="UTF-8"?>
<svg width="16px" height="16px" viewBox="0 0 16 16" version="1.1" xmlns="http://www.w3.org/2000/svg" xmlns:xlink="http://www.w3.org/1999/xlink">
    <title>ICON/16/ Reboot</title>
    <g id="ICON/16/-Reboot" stroke="none" stroke-width="1" fill="none" fillRule="evenodd">
        <g id="编组" transform="translate(1.502645, 2.166667)" fill="#4D4D4D" fillRule="nonzero">
            <path d="M12.1013705,6.57626579 L12.1913846,6.58258855 C12.464021,6.62645195 12.6494782,6.88302574 12.6056148,7.15566215 C12.128196,10.1230966 9.56345343,12.3333333 6.53381276,12.3333333 C4.32842749,12.3333333 2.33847164,11.1587288 1.2469565,9.32028135 L0.987365617,10.453584 C0.932298236,10.6927871 0.714132181,10.8520511 0.477330671,10.8409799 L0.3879387,10.8286673 C0.118835194,10.7667164 -0.0490952693,10.4983438 0.012855535,10.2292403 L0.548054745,7.90442749 C0.610060329,7.63508645 0.878826356,7.46714309 1.14808984,7.52948462 L3.4662927,8.06621004 C3.7353187,8.12849667 3.90291406,8.39707863 3.84062752,8.66610465 C3.77834078,8.93513062 3.50975883,9.10272598 3.24073283,9.04043934 L2.08511286,8.772832 C2.99467975,10.3341153 4.6727628,11.3333333 6.53381276,11.3333333 C9.07007216,11.3333333 11.2185016,9.48186576 11.618311,6.99681873 C11.652427,6.78476819 11.8152196,6.6254557 12.0141647,6.58575985 L12.1013705,6.57626579 Z M6.53381276,0 C8.6680806,0 10.6113586,1.09947013 11.7285179,2.86352122 L12.0180917,1.96591204 C12.0937479,1.7324025 12.3249348,1.5927099 12.559877,1.62432762 L12.64786,1.64436562 C12.9105582,1.72947894 13.0545194,2.01143578 12.9694062,2.27413401 L12.234199,4.54332155 C12.1489849,4.80633066 11.8665009,4.95026309 11.6036347,4.86460933 L9.34089902,4.12730545 C9.0783436,4.04175278 8.93485451,3.75955541 9.02040702,3.49699993 C9.10595986,3.23444456 9.38815723,3.09095547 9.65071265,3.17650815 L11.0209577,3.62551432 C11.0146087,3.61599958 11.0085396,3.60620323 11.002768,3.59612998 C10.0897894,2.00271719 8.39915611,1 6.53381276,1 C3.99782533,1 1.84955191,2.85107775 1.44943214,5.33578375 C1.40552968,5.60841388 1.14892932,5.79383429 0.876299194,5.74993183 C0.603669069,5.70602937 0.418248659,5.44942901 0.462151118,5.17679889 C0.939940582,2.20977141 3.50449693,0 6.53381276,0 Z" id="形状结合"></path>
        </g>
    </g>
</svg>