<svg width="13.458252" height="13.457031" viewBox="0 0 13.4583 13.457" fill="none" xmlns="http://www.w3.org/2000/svg" xmlns:xlink="http://www.w3.org/1999/xlink">
	<desc>
			Created with Pixso.
	</desc>
	<defs/>
	<path id="path" d="M6.99 1.47C9.39 -0.06 11.65 -0.51 12.81 0.64C14 1.84 13.47 4.22 11.81 6.72C13.47 9.22 14 11.61 12.81 12.8C11.61 14 9.22 13.47 6.73 11.81C4.23 13.47 1.84 14 0.64 12.8C-0.55 11.61 -0.02 9.22 1.64 6.72C-0.03 4.22 -0.55 1.84 0.64 0.64C1.84 -0.55 4.22 -0.02 6.72 1.64L6.99 1.47ZM2.4 7.77L2.27 7.99C1.2 9.79 0.88 11.34 1.49 11.96C2.13 12.6 3.78 12.22 5.68 11.05C5.07 10.57 4.49 10.05 3.94 9.5C3.39 8.96 2.88 8.38 2.4 7.77ZM11.05 7.77L10.98 7.85C10.52 8.43 10.03 8.98 9.5 9.5C8.94 10.07 8.36 10.59 7.77 11.05C9.66 12.22 11.32 12.59 11.96 11.96C12.6 11.32 12.22 9.66 11.05 7.77ZM6.72 3.11L6.67 3.16C6.04 3.63 5.41 4.17 4.79 4.79C4.15 5.43 3.59 6.08 3.11 6.72C3.59 7.37 4.15 8.02 4.79 8.66C5.43 9.29 6.08 9.85 6.72 10.33C7.37 9.85 8.02 9.29 8.66 8.66C9.29 8.02 9.85 7.37 10.33 6.72C9.85 6.08 9.29 5.43 8.66 4.79C8.05 4.18 7.41 3.63 6.72 3.11ZM6.77 5.46C6.81 5.46 6.86 5.46 6.9 5.46C6.95 5.47 6.99 5.48 7.03 5.48C7.07 5.49 7.12 5.5 7.16 5.51C7.2 5.53 7.24 5.54 7.28 5.56C7.32 5.58 7.36 5.59 7.4 5.61C7.44 5.64 7.48 5.66 7.51 5.68C7.55 5.71 7.58 5.73 7.62 5.76C7.65 5.79 7.68 5.82 7.71 5.85C7.74 5.88 7.77 5.91 7.8 5.94C7.83 5.98 7.86 6.01 7.88 6.05C7.9 6.09 7.93 6.12 7.95 6.16C7.97 6.2 7.99 6.24 8 6.28C8.02 6.32 8.03 6.36 8.05 6.4C8.06 6.45 8.07 6.49 8.08 6.53C8.09 6.57 8.09 6.62 8.1 6.66C8.1 6.7 8.1 6.75 8.1 6.79C8.1 6.83 8.1 6.88 8.1 6.92C8.09 6.97 8.09 7.01 8.08 7.05C8.07 7.09 8.06 7.14 8.05 7.18C8.03 7.22 8.02 7.26 8 7.3C7.99 7.34 7.97 7.38 7.95 7.42C7.93 7.46 7.9 7.5 7.88 7.53C7.86 7.57 7.83 7.6 7.8 7.64C7.77 7.67 7.74 7.7 7.71 7.73C7.68 7.76 7.65 7.79 7.62 7.82C7.58 7.85 7.55 7.88 7.51 7.9C7.48 7.92 7.44 7.95 7.4 7.97C7.36 7.99 7.32 8.01 7.28 8.02C7.24 8.04 7.2 8.05 7.16 8.07C7.12 8.08 7.07 8.09 7.03 8.1C6.99 8.11 6.95 8.11 6.9 8.12C6.86 8.12 6.81 8.12 6.77 8.12C6.73 8.12 6.68 8.12 6.64 8.12C6.6 8.11 6.55 8.11 6.51 8.1C6.47 8.09 6.43 8.08 6.38 8.07C6.34 8.05 6.3 8.04 6.26 8.02C6.22 8.01 6.18 7.99 6.14 7.97C6.1 7.95 6.07 7.92 6.03 7.9C5.99 7.88 5.96 7.85 5.93 7.82C5.89 7.79 5.86 7.76 5.83 7.73C5.8 7.7 5.77 7.67 5.74 7.64C5.71 7.6 5.69 7.57 5.66 7.53C5.64 7.5 5.62 7.46 5.6 7.42C5.57 7.38 5.56 7.34 5.54 7.3C5.52 7.26 5.51 7.22 5.5 7.18C5.48 7.14 5.47 7.09 5.46 7.05C5.45 7.01 5.45 6.97 5.44 6.92C5.44 6.88 5.44 6.83 5.44 6.79C5.44 6.75 5.44 6.7 5.44 6.66C5.45 6.62 5.45 6.57 5.46 6.53C5.47 6.49 5.48 6.45 5.5 6.4C5.51 6.36 5.52 6.32 5.54 6.28C5.56 6.24 5.57 6.2 5.6 6.16C5.62 6.12 5.64 6.09 5.66 6.05C5.69 6.01 5.71 5.98 5.74 5.94C5.77 5.91 5.8 5.88 5.83 5.85C5.86 5.82 5.89 5.79 5.93 5.76C5.96 5.73 5.99 5.71 6.03 5.68C6.07 5.66 6.1 5.64 6.14 5.61C6.18 5.59 6.22 5.58 6.26 5.56C6.3 5.54 6.34 5.53 6.38 5.51C6.43 5.5 6.47 5.49 6.51 5.48C6.55 5.48 6.6 5.47 6.64 5.46C6.68 5.46 6.73 5.46 6.77 5.46ZM5.68 2.4C3.79 1.23 2.13 0.85 1.49 1.49C0.85 2.13 1.23 3.78 2.4 5.68C2.86 5.09 3.37 4.51 3.94 3.94C4.47 3.42 5.02 2.92 5.6 2.46L5.68 2.4ZM11.96 1.49C11.32 0.85 9.66 1.23 7.77 2.4C8.36 2.86 8.94 3.38 9.5 3.94C10.07 4.51 10.59 5.09 11.05 5.68C12.22 3.79 12.6 2.13 11.96 1.49Z" fill="#808080" fill-opacity="1.000000" fill-rule="nonzero"/>
</svg>
