<svg width="20.000000" height="20.000000" viewBox="0 0 20 20" fill="none" xmlns="http://www.w3.org/2000/svg" xmlns:xlink="http://www.w3.org/1999/xlink">
	<desc>
			Created with Pixso.
	</desc>
	<defs/>
	<rect id="组合 725" rx="2.000000" width="20.000000" height="20.000000" fill="#F7F7F7" fill-opacity="1.000000"/>
	<path id="矢量 16" d="" fill="#C4C4C4" fill-opacity="0" fill-rule="nonzero"/>
	<path id="矢量 16" d="M11.66 7.42L7.71 11.37C7.58 11.5 7.51 11.65 7.51 11.84C7.51 12.02 7.58 12.17 7.71 12.3C7.84 12.43 7.99 12.5 8.18 12.5C8.36 12.5 8.51 12.43 8.64 12.3L13.77 7.18C13.97 6.98 14.12 6.75 14.23 6.49C14.33 6.24 14.38 5.97 14.38 5.7C14.38 5.43 14.33 5.17 14.23 4.91C14.12 4.65 13.97 4.42 13.77 4.22C13.57 4.02 13.34 3.87 13.08 3.76C12.83 3.66 12.57 3.61 12.29 3.61C12.02 3.61 11.76 3.66 11.51 3.76C11.25 3.87 11.02 4.02 10.82 4.22L5.22 9.82C4.89 10.15 4.63 10.54 4.45 10.98C4.28 11.4 4.2 11.84 4.2 12.29C4.2 12.75 4.28 13.19 4.45 13.61C4.63 14.05 4.89 14.43 5.22 14.77C5.56 15.1 5.94 15.36 6.38 15.54C6.8 15.71 7.24 15.79 7.7 15.79C8.15 15.79 8.59 15.71 9.01 15.54C9.45 15.36 9.84 15.1 10.17 14.77L15.3 9.64L16.36 10.7L11.23 15.83C10.75 16.31 10.2 16.67 9.58 16.93C8.98 17.17 8.35 17.29 7.7 17.29C7.04 17.29 6.42 17.17 5.82 16.93C5.19 16.67 4.64 16.31 4.16 15.83C3.68 15.35 3.32 14.8 3.06 14.17C2.82 13.57 2.7 12.95 2.7 12.29C2.7 11.64 2.82 11.01 3.06 10.41C3.32 9.79 3.68 9.24 4.16 8.76L9.76 3.16C10.1 2.82 10.5 2.56 10.94 2.37C11.38 2.2 11.83 2.11 12.29 2.11C12.76 2.11 13.21 2.2 13.64 2.37C14.09 2.56 14.49 2.82 14.83 3.16C15.17 3.51 15.44 3.9 15.62 4.35C15.79 4.78 15.88 5.23 15.88 5.7C15.88 6.17 15.79 6.62 15.62 7.05C15.44 7.5 15.17 7.89 14.83 8.24L9.7 13.36C9.5 13.57 9.26 13.73 8.99 13.84C8.73 13.94 8.46 14 8.18 14C7.89 14 7.62 13.94 7.36 13.84C7.09 13.73 6.85 13.57 6.65 13.36C6.44 13.16 6.28 12.92 6.17 12.65C6.07 12.39 6.01 12.12 6.01 11.84C6.01 11.55 6.07 11.28 6.17 11.02C6.28 10.75 6.44 10.51 6.65 10.31L10.6 6.36L11.66 7.42ZM10.6 6.38L10.6 6.36C10.9 6.06 11.36 6.06 11.66 6.36C11.96 6.65 11.96 7.12 11.66 7.42L11.63 7.42L10.6 6.38ZM15.3 9.67L15.3 9.64C15.6 9.34 16.06 9.34 16.36 9.64C16.66 9.94 16.66 10.4 16.36 10.7L16.33 10.7L15.3 9.67Z" fill="#047BFC" fill-opacity="1.000000" fill-rule="evenodd"/>
</svg>
